<svg width="139" height="34" viewBox="0 0 139 34" fill="none" xmlns="http://www.w3.org/2000/svg">
<path d="M24.2804 25.7899L17.6616 22.9381V10.1277C17.6812 9.56641 17.5873 9.00688 17.3855 8.48252C17.1837 7.95816 16.8781 7.4797 16.487 7.07567C16.0958 6.67163 15.627 6.35031 15.1087 6.13084C14.5903 5.91138 14.0329 5.79828 13.4698 5.79828C12.9066 5.79828 12.3493 5.91138 11.8309 6.13084C11.3125 6.35031 10.8438 6.67163 10.4526 7.07567C10.0614 7.4797 9.75583 7.95816 9.55403 8.48252C9.35222 9.00688 9.25835 9.56641 9.27802 10.1277V19.3108L2.89446 16.5303C2.89446 16.5303 2.86377 10.1532 2.86377 9.97468C3.0514 7.26763 4.26193 4.73245 6.25092 2.88105C8.2399 1.02966 10.8592 0 13.5798 0C16.3004 0 18.9196 1.02966 20.9086 2.88105C22.8976 4.73245 24.1081 7.26763 24.2957 9.97468L24.2804 25.7899Z" fill="#214893"/>
<path d="M21.2674 29.3228C21.0634 29.2904 20.8653 29.2285 20.6792 29.1392L3.03232 20.5224C2.3776 20.1806 2.18834 19.6704 2.60778 19.298C2.89766 19.1188 3.22933 19.018 3.57015 19.0055C3.91096 18.993 4.24917 19.0692 4.55149 19.2266L22.1983 27.8331C22.8531 28.1494 23.0423 28.7004 22.6229 29.0575C22.4275 29.1926 22.2062 29.2859 21.973 29.3315C21.7397 29.3772 21.4995 29.3742 21.2674 29.3228Z" fill="#E99214"/>
<path d="M14.5546 30.3841C14.3504 30.3499 14.1523 30.2863 13.9664 30.1953L0.784963 23.7519C0.135354 23.4305 -0.0590172 22.8846 0.360415 22.5275C0.65039 22.3481 0.9824 22.2476 1.32341 22.236C1.66442 22.2244 2.00254 22.302 2.30413 22.4612L15.4856 28.8995C16.1352 29.2158 16.3244 29.7668 15.905 30.1239C15.7096 30.2568 15.489 30.3485 15.2568 30.3932C15.0246 30.438 14.7856 30.4349 14.5546 30.3841Z" fill="#214893"/>
<path d="M12.0937 33.5071C11.8903 33.4723 11.6925 33.4105 11.5055 33.3234L3.01963 29.1758C2.36491 28.8492 2.17565 28.3391 2.59508 27.9565C2.88497 27.7773 3.21664 27.6764 3.55745 27.6639C3.89826 27.6514 4.23647 27.7276 4.53879 27.885L13.0246 32.0276C13.6742 32.349 13.8635 32.8949 13.4441 33.252C13.2488 33.3852 13.028 33.4766 12.7956 33.5205C12.5632 33.5644 12.3242 33.5598 12.0937 33.5071Z" fill="#DD5519"/>
<path d="M4.08871 33.9542C3.88695 33.9193 3.69082 33.8575 3.50559 33.7705L0.646291 32.3624C-0.00331788 32.041 -0.197689 31.4951 0.221743 31.138C0.511123 30.9596 0.842196 30.8596 1.18221 30.848C1.52222 30.8364 1.85938 30.9135 2.16034 31.0717L5.02987 32.4696C5.68459 32.791 5.87385 33.3368 5.45442 33.694C5.25807 33.831 5.03487 33.925 4.79948 33.9699C4.5641 34.0147 4.32187 34.0093 4.08871 33.9542ZM57.9295 7.34375H61.3412L69.4844 26.0159H64.8297L63.2184 22.0621H55.9449L54.4104 26.0159H49.8375L57.9295 7.34375ZM59.5152 12.777L57.2441 18.5828H61.8169L59.5152 12.777Z" fill="#214893"/>
<mask id="mask0_202_24661" style="mask-type:luminance" maskUnits="userSpaceOnUse" x="49" y="7" width="21" height="20">
<path d="M57.9264 7.33813H61.3382L69.4813 26.0103H64.8266L63.2154 22.0565H55.9418L54.4073 26.0103H49.8345L57.9264 7.33813ZM59.5121 12.7714L57.241 18.5772H61.8139L59.5121 12.7714Z" fill="white"/>
</mask>
<g mask="url(#mask0_202_24661)">
<path d="M64.846 15.3777L61.7667 18.4489L61.8179 18.5815H61.6337L58.1453 22.0609H63.2194L63.245 22.1221L66.4112 18.9642L64.846 15.3777ZM54.3858 26.0147L54.5239 25.6729L54.1812 26.0147H54.3858Z" fill="#214893"/>
<path d="M66.3722 18.897L63.1958 22.0651H63.2163L64.6996 25.7077L67.9374 22.4784L66.3722 18.897Z" fill="#DD5519"/>
<path d="M67.9102 22.395L64.6724 25.6244L64.8309 26.007H69.4447L69.4754 25.9815L67.9102 22.395Z" fill="#E99214"/>
</g>
<path d="M71.1344 7.28857H76.761L84.7455 20.303H84.7967V7.28857H88.9347V26.0118H83.5179L75.3339 12.6862H75.2827V26.0118H71.1447L71.1344 7.28857ZM104.004 23.8232C103.372 24.6244 102.554 25.26 101.62 25.6751C100.685 26.104 99.6675 26.3267 98.6379 26.3281C97.6969 26.3333 96.7621 26.1745 95.8758 25.8587C95.045 25.56 94.2805 25.1025 93.6252 24.5119C92.9843 23.9219 92.4723 23.2064 92.1214 22.41C91.7598 21.5416 91.5737 20.6106 91.5737 19.6704C91.5737 18.7301 91.7598 17.7991 92.1214 16.9308C92.475 16.1359 92.9866 15.4208 93.6252 14.8289C94.2794 14.2381 95.0443 13.7821 95.8758 13.4871C96.7614 13.1689 97.6966 13.01 98.6379 13.0178C99.4866 13.0048 100.329 13.1645 101.114 13.4871C101.835 13.7859 102.479 14.2448 102.996 14.8289C103.526 15.4458 103.931 16.1597 104.188 16.9308C104.476 17.8151 104.618 18.7405 104.607 19.6704V20.8999H95.4973C95.6244 21.5939 95.9853 22.2239 96.5203 22.6855C97.0615 23.1354 97.7496 23.3714 98.4538 23.3487C99.0295 23.3674 99.5983 23.2185 100.091 22.9202C100.549 22.6266 100.95 22.2513 101.272 21.8131L104.004 23.8232ZM100.679 18.2368C100.694 17.9238 100.644 17.6109 100.531 17.3184C100.419 17.0258 100.246 16.76 100.024 16.5379C99.7981 16.305 99.5257 16.122 99.2243 16.0008C98.923 15.8795 98.5995 15.8227 98.2748 15.8339C97.8794 15.8266 97.4864 15.8977 97.1188 16.0431C96.8044 16.178 96.5168 16.3681 96.2697 16.6043C96.0381 16.8166 95.8519 17.0734 95.7224 17.3593C95.5925 17.644 95.5162 17.9501 95.4973 18.2623L100.679 18.2368ZM105.467 13.329H109.656L112.244 21.2876H112.3L114.469 13.329H118.76L121.118 21.2876H121.17L123.548 13.329H127.528L123.001 26.0118H119.129L116.484 17.5838H116.433L114.06 26.0118H110.111L105.467 13.329ZM135.978 17.0634C135.71 16.7184 135.364 16.4415 134.968 16.2553C134.573 16.0691 134.139 15.9789 133.701 15.9921C133.365 15.9922 133.034 16.0727 132.735 16.2267C132.584 16.2991 132.458 16.4152 132.374 16.5599C132.29 16.7046 132.252 16.8712 132.264 17.0379C132.264 17.1922 132.314 17.3425 132.406 17.4665C132.498 17.5906 132.628 17.6818 132.776 17.7266C133.17 17.899 133.582 18.0306 134.003 18.1195L135.599 18.4817C136.158 18.61 136.696 18.8179 137.195 19.099C137.69 19.3739 138.112 19.7621 138.428 20.2316C138.775 20.8092 138.943 21.477 138.909 22.1498C138.947 22.8658 138.769 23.5769 138.397 24.1905C138.045 24.7157 137.576 25.1523 137.026 25.4659C136.442 25.8012 135.803 26.0309 135.139 26.1444C134.465 26.2743 133.78 26.3409 133.093 26.3434C132.181 26.3393 131.275 26.2123 130.397 25.9659C129.523 25.7293 128.729 25.2644 128.095 24.619L130.428 21.9661C130.759 22.3863 131.173 22.7337 131.645 22.9865C132.12 23.2288 132.647 23.3497 133.18 23.3385C133.597 23.3457 134.013 23.2801 134.407 23.1446C134.568 23.1061 134.711 23.0136 134.811 22.8826C134.912 22.7516 134.964 22.5902 134.96 22.4253C134.961 22.2679 134.916 22.1136 134.829 21.9819C134.743 21.8502 134.619 21.7471 134.474 21.6855C134.084 21.4947 133.672 21.3541 133.246 21.2672L131.65 20.8999C131.095 20.7751 130.558 20.5779 130.054 20.3132C129.557 20.0536 129.133 19.6728 128.822 19.2061C128.474 18.6285 128.307 17.9607 128.341 17.2879C128.321 16.6148 128.478 15.9482 128.796 15.3543C129.095 14.837 129.506 14.3925 129.998 14.0534C130.519 13.6976 131.099 13.4368 131.712 13.2831C132.354 13.1204 133.014 13.0382 133.676 13.0382C134.541 13.0401 135.402 13.162 136.233 13.4004C137.064 13.6297 137.816 14.0814 138.407 14.7064L135.978 17.0634ZM39.2167 15.3645V7.3702H35.1758V26.0577H39.2167V15.3645ZM46.2805 7.3702H41.6463L41.1348 10.8955H46.2038C46.7774 10.9229 47.3185 11.1694 47.7148 11.5841C48.1111 11.9987 48.3322 12.5495 48.3322 13.1224C48.3322 13.6952 48.1111 14.246 47.7148 14.6606C47.3185 15.0753 46.7774 15.3218 46.2038 15.3492H40.475L39.9634 18.7266H46.2805C47.0449 18.7494 47.806 18.6189 48.5189 18.3429C49.2318 18.067 49.8818 17.651 50.4306 17.1199C50.9793 16.5887 51.4156 15.953 51.7135 15.2506C52.0114 14.5482 52.1649 13.7932 52.1649 13.0305C52.1649 12.2678 52.0114 11.5129 51.7135 10.8104C51.4156 10.108 50.9793 9.47236 50.4306 8.94118C49.8818 8.41 49.2318 7.9941 48.5189 7.71811C47.806 7.44212 47.0449 7.31167 46.2805 7.33449V7.3702Z" fill="#214893"/>
<mask id="mask1_202_24661" style="mask-type:luminance" maskUnits="userSpaceOnUse" x="39" y="7" width="14" height="12">
<path d="M46.2848 7.37176H41.6506L41.1391 10.897H46.2081C46.7818 10.9244 47.3229 11.171 47.7191 11.5856C48.1154 12.0002 48.3365 12.5511 48.3365 13.1239C48.3365 13.6967 48.1154 14.2476 47.7191 14.6622C47.3229 15.0768 46.7818 15.3234 46.2081 15.3508H40.4793L39.9678 18.7281H46.2848C47.0492 18.7509 47.8104 18.6205 48.5232 18.3445C49.2361 18.0685 49.8862 17.6526 50.4349 17.1214C50.9837 16.5902 51.4199 15.9546 51.7178 15.2522C52.0158 14.5497 52.1693 13.7948 52.1693 13.0321C52.1693 12.2694 52.0158 11.5144 51.7178 10.812C51.4199 10.1096 50.9837 9.47392 50.4349 8.94274C49.8862 8.41156 49.2361 7.99565 48.5232 7.71967C47.8104 7.44368 47.0492 7.31323 46.2848 7.33605V7.37176Z" fill="white"/>
</mask>
<g mask="url(#mask1_202_24661)">
<path d="M41.0613 15.3611H40.4475L39.936 18.7384H39.9872L43.3887 15.3458L41.0613 15.3611ZM46.739 7.42798L43.2301 10.9277H46.1917C46.6481 10.9261 47.0935 11.067 47.4654 11.3308L50.0229 8.77993C49.1018 7.9899 47.9506 7.51596 46.739 7.42798Z" fill="#214893"/>
<path d="M49.9601 8.71606L47.4026 11.2669C47.8023 11.5297 48.1065 11.9139 48.2704 12.3625C48.4343 12.8112 48.4491 13.3005 48.3126 13.7582C48.176 14.2159 47.8955 14.6176 47.5124 14.9039C47.1293 15.1903 46.6639 15.3461 46.1852 15.3483H43.3054L39.9551 18.7001V18.7511H44.5586L51.7913 11.5322C51.4793 10.4309 50.8411 9.44927 49.9601 8.71606Z" fill="#DD5519"/>
<path d="M46.2831 18.7685C47.1724 18.7717 48.0501 18.567 48.8458 18.1709C49.6415 17.7748 50.3331 17.1983 50.8652 16.4876C51.3973 15.7769 51.755 14.9517 51.9097 14.0782C52.0644 13.2048 52.0118 12.3073 51.7562 11.4578L44.4468 18.7532H45.9813C46.0682 18.7583 46.1757 18.7685 46.2831 18.7685Z" fill="#E99214"/>
</g>
</svg>
