<svg width="160" height="17" viewBox="0 0 160 17" fill="none" xmlns="http://www.w3.org/2000/svg">
<mask id="mask0_202_24685" style="mask-type:luminance" maskUnits="userSpaceOnUse" x="0" y="0" width="33" height="17">
<path d="M32.9543 0H0V16.4772H32.9543V0Z" fill="white"/>
</mask>
<g mask="url(#mask0_202_24685)">
<path d="M30.7472 8.24081C27.8986 3.31518 22.5782 0 16.4772 0C7.37951 0 0 7.37951 0 16.4772H16.4772C22.5736 16.4772 27.8941 13.162 30.7472 8.23635V8.24081Z" fill="url(#paint0_linear_202_24685)"/>
<path d="M16.478 0C22.5745 0 27.895 3.31518 30.7481 8.24081C32.1522 5.81389 32.9552 3.00115 32.9552 0H16.478Z" fill="#4D96FF"/>
</g>
<mask id="mask1_202_24685" style="mask-type:luminance" maskUnits="userSpaceOnUse" x="36" y="0" width="124" height="17">
<path d="M160 0H36.2524V16.4772H160V0Z" fill="white"/>
</mask>
<g mask="url(#mask1_202_24685)">
<path d="M46.2977 1.50806V3.67406H42.4181V15.2948H40.1541V3.67406H36.2524V1.50806H46.2977Z" fill="black"/>
<path d="M47.7358 11.2795C47.8939 12.0282 48.2543 12.6027 48.8188 13.0031C49.3833 13.4035 50.072 13.6036 50.8867 13.6036C52.0158 13.6036 52.8625 13.1973 53.427 12.3825L55.1806 13.4075C54.2098 14.8387 52.7704 15.5534 50.8667 15.5534C49.2652 15.5534 47.972 15.065 46.9871 14.0861C46.0022 13.1072 45.5098 11.8701 45.5098 10.3727C45.5098 8.87533 45.9962 7.67018 46.9671 6.67926C47.938 5.68835 49.1852 5.19189 50.7086 5.19189C52.1519 5.19189 53.339 5.69836 54.2638 6.70929C55.1887 7.72023 55.6531 8.94733 55.6531 10.3927C55.6531 10.6169 55.6271 10.9112 55.575 11.2795H47.7358ZM47.7158 9.54595H53.5071C53.363 8.74516 53.0307 8.14061 52.5122 7.73424C51.9937 7.32786 51.3852 7.12368 50.6905 7.12368C49.9018 7.12368 49.2452 7.33988 48.7208 7.77427C48.1962 8.20668 47.8599 8.7992 47.7158 9.54595Z" fill="black"/>
<path d="M62.1139 15.5534C60.6305 15.5534 59.3933 15.055 58.4004 14.0561C57.4095 13.0591 56.9131 11.83 56.9131 10.3727C56.9131 8.91537 57.4075 7.67018 58.4004 6.67926C59.3913 5.68835 60.6284 5.19189 62.1139 5.19189C63.0727 5.19189 63.9455 5.42211 64.7342 5.88053C65.523 6.34096 66.1135 6.95752 66.5079 7.73224L64.6762 8.79525C64.452 8.32277 64.1157 7.95244 63.6613 7.68219C63.2089 7.41394 62.6864 7.27782 62.0958 7.27782C61.229 7.27782 60.5044 7.57409 59.9198 8.16463C59.3353 8.75521 59.043 9.49182 59.043 10.3706C59.043 11.2494 59.3353 11.9861 59.9198 12.5767C60.5044 13.1672 61.229 13.4635 62.0958 13.4635C62.6743 13.4635 63.1948 13.3254 63.6613 13.0492C64.1277 12.7728 64.478 12.4066 64.7142 11.9461L66.546 12.9911C66.1256 13.7798 65.521 14.4024 64.7342 14.8628C63.9455 15.3233 63.0727 15.5515 62.1139 15.5515V15.5534Z" fill="black"/>
<path d="M73.2647 5.18945C74.3938 5.18945 75.3066 5.54979 76.0032 6.27245C76.6999 6.99511 77.0462 7.98603 77.0462 9.24722V15.2948H74.9182V9.46538C74.9182 8.73075 74.7221 8.16619 74.3277 7.77183C73.9334 7.37747 73.3948 7.18129 72.7123 7.18129C71.9635 7.18129 71.359 7.4135 70.9006 7.87993C70.4401 8.34633 70.2119 9.05905 70.2119 10.0179V15.2967H68.084V1.50806H70.2119V6.70885C70.8545 5.69792 71.8735 5.19146 73.2647 5.19146V5.18945Z" fill="black"/>
<path d="M87.5447 3.67406H81.7332V7.53361H87.3461V9.6996H81.7332V15.2928H79.4692V1.50806H87.5447V3.67406Z" fill="black"/>
<path d="M89.5273 15.2965V0.917236H91.6554V15.2945H89.5273V15.2965Z" fill="black"/>
<path d="M98.769 15.5534C97.324 15.5534 96.0964 15.055 95.0856 14.0561C94.0747 13.0591 93.5688 11.83 93.5688 10.3727C93.5688 8.91537 94.0731 7.6882 95.0856 6.68927C96.0964 5.69236 97.324 5.19189 98.769 5.19189C100.215 5.19189 101.458 5.69035 102.462 6.68927C103.468 7.6882 103.97 8.91537 103.97 10.3727C103.97 11.83 103.468 13.0591 102.462 14.0561C101.458 15.055 100.226 15.5534 98.769 15.5534ZM96.5833 12.5988C97.174 13.1893 97.9023 13.4856 98.769 13.4856C99.6357 13.4856 100.365 13.1893 100.956 12.5988C101.546 12.0082 101.842 11.2655 101.842 10.3727C101.842 9.47987 101.546 8.73717 100.956 8.14662C100.365 7.55607 99.6357 7.25981 98.769 7.25981C97.9023 7.25981 97.174 7.55607 96.5833 8.14662C95.9926 8.73717 95.6969 9.47987 95.6969 10.3727C95.6969 11.2655 95.9926 12.0082 96.5833 12.5988Z" fill="black"/>
<path d="M116.85 5.44727H119.095L116.003 15.2943H113.915L111.867 8.65625L109.799 15.2943H107.711L104.618 5.44727H106.864L108.774 12.2415L110.842 5.44727H112.869L114.918 12.2415L116.847 5.44727H116.85Z" fill="black"/>
<path d="M136.735 3.08545L135.489 4.3311L138.362 7.20319L139.608 5.95754L136.735 3.08545Z" fill="black"/>
<path d="M131.635 3.07788L128.763 5.94997L130.009 7.19563L132.881 4.32354L131.635 3.07788Z" fill="black"/>
<path d="M129.699 2.4105H138.576V4.08205H140.337V0.700928H140.171H138.576H129.699H128.106H127.938V4.08205H129.699V2.4105Z" fill="black"/>
<path d="M135.063 5.22778H133.302V7.73209H127.907V9.44167H129.929C129.324 12.6867 128.063 15.6714 128.049 15.7034L127.959 15.9156L129.653 16.3921L129.725 16.2339C129.739 16.2039 131.072 13.2551 131.709 9.44167H133.304V16.4721H135.066V9.44167H140.46V7.73209H135.066V5.22778H135.063Z" fill="black"/>
<path d="M125.16 0L123.915 1.24565L126.335 3.66619L127.581 2.42053L125.16 0Z" fill="black"/>
<path d="M125.16 4.0332L123.915 5.27886L126.335 7.69939L127.581 6.45374L125.16 4.0332Z" fill="black"/>
<path d="M138.738 10.1094L137.042 10.587L138.684 16.4138L140.379 15.9362L138.738 10.1094Z" fill="black"/>
<path d="M125.539 8.79475C125.082 12.2358 123.607 15.6711 123.591 15.7051L123.499 15.9193L125.192 16.3958L125.265 16.2395C125.279 16.2096 126.7 13.1247 127.244 9.21714L127.268 9.04091L125.569 8.5625L125.539 8.79475Z" fill="black"/>
<path d="M151.489 0.168213H149.727V1.62155H147.253V3.33112H149.727V4.40212H147.357V11.4946H149.727V12.5876H147.253V14.2972H149.727V16.4732H151.489V14.2972H153.859V12.5876H151.489V11.4946H151.976C153.015 11.4946 153.859 10.6498 153.859 9.61088V4.40212H151.489V3.33112H153.859V1.62155H151.489V0.168213ZM152.098 9.6089C152.098 9.67893 152.042 9.73504 151.972 9.73504H149.119V8.80416H152.098V9.6089ZM152.098 6.16373V7.09459H149.119V6.16373H152.098Z" fill="black"/>
<path d="M158.238 0.649658H154.517V16.4742H156.278V11.0993H158.24V14.4984C158.24 14.6165 158.145 14.7126 158.026 14.7126H157.246V16.4742H158.012C159.109 16.4742 160.002 15.5814 160.002 14.4844V0.649658H158.24H158.238ZM158.238 9.38773H156.277V6.75328H158.238V9.38773ZM158.238 5.04371H156.277V2.40928H158.238V5.04371Z" fill="black"/>
<path d="M144.574 0.0939941L143.328 1.33965L145.749 3.76018L146.994 2.51453L144.574 0.0939941Z" fill="black"/>
<path d="M144.58 4.1272L143.334 5.37286L145.754 7.79339L147 6.54774L144.58 4.1272Z" fill="black"/>
<path d="M144.958 8.79466C144.502 12.2358 143.026 15.671 143.011 15.705L142.918 15.9192L144.612 16.3957L144.684 16.2395C144.698 16.2096 146.119 13.1247 146.664 9.21706L146.688 9.04091L144.988 8.5625L144.958 8.79466Z" fill="black"/>
</g>
<defs>
<linearGradient id="paint0_linear_202_24685" x1="0" y1="8.24082" x2="30.7472" y2="8.24082" gradientUnits="userSpaceOnUse">
<stop stop-color="#0072FF"/>
<stop offset="1" stop-color="#0037FF"/>
</linearGradient>
</defs>
</svg>
