<svg width="161" height="24" viewBox="0 0 161 24" fill="none" xmlns="http://www.w3.org/2000/svg">
<rect x="0.5" y="0.5" width="160" height="23" rx="11.5" stroke="black" stroke-opacity="0.04"/>
<path d="M15.9998 7.33332C16.1165 7.33332 16.2915 7.39166 16.4665 7.56666L16.9332 8.14999C17.1665 8.44166 17.5165 8.67499 17.9248 8.67499H18.1582L18.7998 8.49999H18.8582C19.0332 8.49999 19.2082 8.55832 19.2665 8.67499C19.3832 8.79166 19.4998 8.96666 19.4998 9.19999L19.3832 9.95832C19.3248 10.425 19.4998 10.8333 19.8498 11.125L20.4332 11.5917C20.6665 11.7083 20.6665 11.8833 20.6665 12C20.6665 12.1167 20.6082 12.2917 20.4332 12.4667L19.8498 12.9333C19.4998 13.225 19.2665 13.6917 19.3832 14.1L19.4998 14.8583C19.5582 15.0917 19.4415 15.2667 19.3832 15.325C19.2082 15.4417 19.0915 15.5 18.9165 15.5H18.8582L18.2165 15.3833H17.9832C17.5748 15.3833 17.2248 15.5583 16.9915 15.9083L16.5248 16.4917C16.2915 16.6667 16.1165 16.6667 15.9998 16.6667C15.8832 16.6667 15.7082 16.6083 15.5332 16.4333L15.0665 15.85C14.8332 15.5583 14.4832 15.325 14.0748 15.325H13.8415L13.1998 15.5H13.1415C12.9665 15.5 12.7915 15.4417 12.7332 15.325C12.6165 15.2083 12.4998 15.0333 12.4998 14.8L12.6165 14.0417C12.6748 13.575 12.4998 13.1667 12.1498 12.875L11.5665 12.4083C11.3332 12.2917 11.3332 12.1167 11.3332 12C11.3332 11.8833 11.3915 11.7083 11.5665 11.5333L12.1498 11.0667C12.4998 10.775 12.7332 10.3083 12.6165 9.89999L12.4998 9.19999C12.4998 8.96666 12.6165 8.79166 12.6748 8.73332C12.7915 8.55832 12.9082 8.49999 13.0832 8.49999H13.1415L13.7832 8.61666H14.0165C14.4248 8.61666 14.7748 8.44166 15.0082 8.09166L15.4748 7.50832C15.7082 7.33332 15.8832 7.33332 15.9998 7.33332ZM15.9998 6.16666C15.4748 6.16666 14.9498 6.39999 14.5998 6.86666L14.1332 7.44999H14.0748L13.3165 7.33332H13.0832C12.0332 7.33332 11.2165 8.26666 11.3332 9.31666L11.4498 10.075V10.1333L10.8665 10.6C10.6492 10.763 10.4728 10.9744 10.3513 11.2174C10.2298 11.4604 10.1665 11.7283 10.1665 12C10.1665 12.2717 10.2298 12.5396 10.3513 12.7826C10.4728 13.0256 10.6492 13.237 10.8665 13.4L11.4498 13.8667V13.925L11.3332 14.6833C11.2165 15.7333 12.0332 16.6667 13.0832 16.6667H13.3165L14.0748 16.55H14.1332L14.5998 17.1333C14.9498 17.6 15.4748 17.8333 15.9998 17.8333C16.5248 17.8333 17.0498 17.6 17.3998 17.1333L17.8665 16.55H17.9248L18.6832 16.6667H18.9165C19.9665 16.6667 20.7832 15.7333 20.6665 14.6833L20.5498 13.925V13.8667L21.1332 13.4C21.3505 13.237 21.5269 13.0256 21.6484 12.7826C21.7699 12.5396 21.8332 12.2717 21.8332 12C21.8332 11.7283 21.7699 11.4604 21.6484 11.2174C21.5269 10.9744 21.3505 10.763 21.1332 10.6L20.5498 10.1333V10.075L20.6665 9.31666C20.7832 8.26666 19.9665 7.33332 18.9165 7.33332H18.6832L17.9248 7.44999H17.8665L17.3998 6.86666C17.0498 6.39999 16.5248 6.16666 15.9998 6.16666Z" fill="url(#paint0_linear_1072_95)"/>
<path d="M14.8333 11.4167C14.4833 11.4167 14.25 11.1833 14.25 10.8333C14.25 10.4833 14.4833 10.25 14.8333 10.25C15.1833 10.25 15.4167 10.4833 15.4167 10.8333C15.4167 11.1833 15.1833 11.4167 14.8333 11.4167ZM17.575 11.2417L15.2417 13.575C15.0083 13.8083 14.6583 13.8083 14.425 13.575C14.1917 13.3417 14.1917 12.9917 14.425 12.7583L16.7583 10.425C16.9917 10.1917 17.3417 10.1917 17.575 10.425C17.8083 10.6583 17.8083 11.0083 17.575 11.2417ZM16.5833 13.1667C16.5833 13.5167 16.8167 13.75 17.1667 13.75C17.5167 13.75 17.75 13.5167 17.75 13.1667C17.75 12.8167 17.5167 12.5833 17.1667 12.5833C16.8167 12.5833 16.5833 12.8167 16.5833 13.1667Z" fill="url(#paint1_linear_1072_95)"/>
<path d="M31.284 17.168C30.5747 17.168 29.9447 17.042 29.394 16.79C28.8433 16.538 28.414 16.1787 28.106 15.712C27.798 15.2453 27.6393 14.69 27.63 14.046H29.408C29.408 14.3727 29.4827 14.6667 29.632 14.928C29.7907 15.18 30.0053 15.3807 30.276 15.53C30.556 15.6793 30.892 15.754 31.284 15.754C31.62 15.754 31.9093 15.7027 32.152 15.6C32.404 15.488 32.5953 15.334 32.726 15.138C32.866 14.9327 32.936 14.6947 32.936 14.424C32.936 14.116 32.8613 13.864 32.712 13.668C32.572 13.4627 32.376 13.29 32.124 13.15C31.872 13.01 31.5827 12.8887 31.256 12.786C30.9293 12.674 30.584 12.5573 30.22 12.436C29.4453 12.1747 28.862 11.8433 28.47 11.442C28.078 11.0313 27.882 10.4853 27.882 9.804C27.882 9.23467 28.0173 8.74467 28.288 8.334C28.5587 7.92333 28.9367 7.606 29.422 7.382C29.9167 7.14867 30.486 7.032 31.13 7.032C31.7833 7.032 32.3527 7.14867 32.838 7.382C33.3327 7.61533 33.72 7.942 34 8.362C34.2893 8.77267 34.4387 9.26733 34.448 9.846H32.656C32.6467 9.60333 32.5813 9.37933 32.46 9.174C32.3387 8.95933 32.1613 8.78667 31.928 8.656C31.704 8.516 31.4287 8.446 31.102 8.446C30.822 8.43667 30.57 8.48333 30.346 8.586C30.1313 8.67933 29.9587 8.81933 29.828 9.006C29.7067 9.18333 29.646 9.40733 29.646 9.678C29.646 9.93933 29.702 10.1587 29.814 10.336C29.9353 10.504 30.108 10.6487 30.332 10.77C30.556 10.882 30.8173 10.9893 31.116 11.092C31.4147 11.1947 31.7413 11.3067 32.096 11.428C32.5813 11.5867 33.02 11.7827 33.412 12.016C33.8133 12.24 34.1307 12.534 34.364 12.898C34.5973 13.262 34.714 13.7333 34.714 14.312C34.714 14.816 34.5833 15.2873 34.322 15.726C34.0607 16.1553 33.678 16.5053 33.174 16.776C32.67 17.0373 32.04 17.168 31.284 17.168ZM35.5915 20.08V9.944H37.0895L37.2715 10.966C37.4208 10.7607 37.5982 10.5693 37.8035 10.392C38.0182 10.2053 38.2748 10.056 38.5735 9.944C38.8815 9.832 39.2315 9.776 39.6235 9.776C40.2862 9.776 40.8695 9.93933 41.3735 10.266C41.8868 10.5927 42.2882 11.036 42.5775 11.596C42.8668 12.1467 43.0115 12.7767 43.0115 13.486C43.0115 14.1953 42.8622 14.83 42.5635 15.39C42.2742 15.9407 41.8728 16.3747 41.3595 16.692C40.8555 17.0093 40.2768 17.168 39.6235 17.168C39.0915 17.168 38.6248 17.07 38.2235 16.874C37.8315 16.6687 37.5142 16.3793 37.2715 16.006V20.08H35.5915ZM39.2735 15.712C39.6655 15.712 40.0155 15.6187 40.3235 15.432C40.6315 15.2453 40.8695 14.984 41.0375 14.648C41.2148 14.312 41.3035 13.9247 41.3035 13.486C41.3035 13.038 41.2148 12.646 41.0375 12.31C40.8695 11.974 40.6315 11.7127 40.3235 11.526C40.0155 11.3393 39.6655 11.246 39.2735 11.246C38.8722 11.246 38.5175 11.3393 38.2095 11.526C37.9108 11.7127 37.6728 11.974 37.4955 12.31C37.3275 12.646 37.2435 13.0333 37.2435 13.472C37.2435 13.92 37.3275 14.312 37.4955 14.648C37.6728 14.9747 37.9108 15.236 38.2095 15.432C38.5175 15.6187 38.8722 15.712 39.2735 15.712ZM47.2463 17.168C46.5463 17.168 45.9303 17.0187 45.3983 16.72C44.8663 16.412 44.451 15.9827 44.1523 15.432C43.8536 14.8813 43.7043 14.2467 43.7043 13.528C43.7043 12.7813 43.849 12.128 44.1383 11.568C44.437 11.008 44.8523 10.5693 45.3843 10.252C45.9256 9.93467 46.551 9.776 47.2603 9.776C47.951 9.776 48.553 9.93 49.0663 10.238C49.5796 10.546 49.9763 10.9613 50.2563 11.484C50.5363 11.9973 50.6763 12.576 50.6763 13.22C50.6763 13.3133 50.6763 13.416 50.6763 13.528C50.6763 13.64 50.667 13.7567 50.6483 13.878H44.9083V12.8H48.9823C48.9636 12.2867 48.791 11.8853 48.4643 11.596C48.1376 11.2973 47.7316 11.148 47.2463 11.148C46.901 11.148 46.5836 11.2273 46.2943 11.386C46.005 11.5447 45.7763 11.7827 45.6083 12.1C45.4403 12.408 45.3563 12.8 45.3563 13.276V13.682C45.3563 14.1207 45.4356 14.4987 45.5943 14.816C45.7623 15.1333 45.9863 15.376 46.2663 15.544C46.5556 15.7027 46.8776 15.782 47.2323 15.782C47.6243 15.782 47.9463 15.698 48.1983 15.53C48.4596 15.362 48.651 15.138 48.7723 14.858H50.4803C50.3496 15.2967 50.135 15.6933 49.8363 16.048C49.5376 16.3933 49.169 16.6687 48.7303 16.874C48.2916 17.07 47.797 17.168 47.2463 17.168ZM54.8735 17.168C54.1828 17.168 53.5621 17.014 53.0115 16.706C52.4701 16.3887 52.0455 15.9547 51.7375 15.404C51.4388 14.844 51.2895 14.2093 51.2895 13.5C51.2895 12.7627 51.4388 12.1187 51.7375 11.568C52.0455 11.008 52.4701 10.5693 53.0115 10.252C53.5621 9.93467 54.1875 9.776 54.8875 9.776C55.7648 9.776 56.5021 10.0093 57.0995 10.476C57.6968 10.9333 58.0795 11.5633 58.2475 12.366H56.4835C56.3901 12.0113 56.1941 11.7313 55.8955 11.526C55.6061 11.3207 55.2608 11.218 54.8595 11.218C54.5141 11.218 54.1968 11.3067 53.9075 11.484C53.6275 11.6613 53.4035 11.918 53.2355 12.254C53.0768 12.59 52.9975 12.996 52.9975 13.472C52.9975 13.836 53.0441 14.158 53.1375 14.438C53.2308 14.718 53.3615 14.956 53.5295 15.152C53.7068 15.3387 53.9075 15.4833 54.1315 15.586C54.3555 15.6887 54.5981 15.74 54.8595 15.74C55.1301 15.74 55.3728 15.698 55.5875 15.614C55.8115 15.5207 55.9981 15.3853 56.1475 15.208C56.3061 15.0307 56.4181 14.8207 56.4835 14.578H58.2475C58.0795 15.362 57.6968 15.992 57.0995 16.468C56.5021 16.9347 55.7601 17.168 54.8735 17.168ZM59.2373 17V9.944H60.9173V17H59.2373ZM60.0773 8.824C59.7693 8.824 59.5126 8.73067 59.3073 8.544C59.1113 8.348 59.0133 8.11 59.0133 7.83C59.0133 7.54067 59.1113 7.30733 59.3073 7.13C59.5126 6.94333 59.7693 6.85 60.0773 6.85C60.3853 6.85 60.6373 6.94333 60.8333 7.13C61.0386 7.30733 61.1413 7.54067 61.1413 7.83C61.1413 8.11 61.0386 8.348 60.8333 8.544C60.6373 8.73067 60.3853 8.824 60.0773 8.824ZM64.5107 17.168C63.932 17.168 63.4514 17.07 63.0687 16.874C62.686 16.678 62.4014 16.4167 62.2147 16.09C62.028 15.7633 61.9347 15.4087 61.9347 15.026C61.9347 14.578 62.0467 14.1907 62.2707 13.864C62.504 13.5373 62.8447 13.2853 63.2927 13.108C63.7407 12.9213 64.2914 12.828 64.9447 12.828H66.7227C66.7227 12.4547 66.6714 12.1467 66.5687 11.904C66.466 11.652 66.3074 11.4653 66.0927 11.344C65.878 11.2227 65.6027 11.162 65.2667 11.162C64.884 11.162 64.5574 11.2507 64.2867 11.428C64.016 11.596 63.848 11.8573 63.7827 12.212H62.1307C62.1867 11.708 62.3547 11.2787 62.6347 10.924C62.9147 10.56 63.2834 10.28 63.7407 10.084C64.2074 9.87867 64.716 9.776 65.2667 9.776C65.9294 9.776 66.494 9.89267 66.9607 10.126C67.4274 10.35 67.782 10.6767 68.0247 11.106C68.2767 11.526 68.4027 12.0347 68.4027 12.632V17H66.9747L66.8067 15.866C66.7134 16.0527 66.592 16.2253 66.4427 16.384C66.3027 16.5427 66.1394 16.6827 65.9527 16.804C65.766 16.916 65.5514 17.0047 65.3087 17.07C65.0754 17.1353 64.8094 17.168 64.5107 17.168ZM64.8887 15.838C65.1594 15.838 65.3974 15.7913 65.6027 15.698C65.8174 15.5953 65.9994 15.4553 66.1487 15.278C66.3074 15.0913 66.4287 14.886 66.5127 14.662C66.5967 14.438 66.6527 14.2 66.6807 13.948V13.92H65.1267C64.8 13.92 64.5294 13.962 64.3147 14.046C64.1 14.1207 63.946 14.2327 63.8527 14.382C63.7594 14.5313 63.7127 14.704 63.7127 14.9C63.7127 15.096 63.7594 15.264 63.8527 15.404C63.946 15.544 64.0814 15.6513 64.2587 15.726C64.436 15.8007 64.646 15.838 64.8887 15.838ZM69.4978 17V6.92H71.1778V17H69.4978ZM75.1264 17V7.2H78.2904C79.4291 7.2 80.3671 7.40067 81.1044 7.802C81.8511 8.20333 82.4018 8.77267 82.7564 9.51C83.1204 10.238 83.3024 11.106 83.3024 12.114C83.3024 13.1033 83.1204 13.9667 82.7564 14.704C82.4018 15.432 81.8511 15.9967 81.1044 16.398C80.3671 16.7993 79.4291 17 78.2904 17H75.1264ZM76.8064 15.572H78.2064C79.0558 15.572 79.7231 15.4367 80.2084 15.166C80.7031 14.886 81.0531 14.4893 81.2584 13.976C81.4731 13.4533 81.5804 12.8327 81.5804 12.114C81.5804 11.386 81.4731 10.7653 81.2584 10.252C81.0531 9.72933 80.7031 9.328 80.2084 9.048C79.7231 8.75867 79.0558 8.614 78.2064 8.614H76.8064V15.572ZM84.2568 17V9.944H85.9368V17H84.2568ZM85.0968 8.824C84.7888 8.824 84.5322 8.73067 84.3268 8.544C84.1308 8.348 84.0328 8.11 84.0328 7.83C84.0328 7.54067 84.1308 7.30733 84.3268 7.13C84.5322 6.94333 84.7888 6.85 85.0968 6.85C85.4048 6.85 85.6568 6.94333 85.8528 7.13C86.0582 7.30733 86.1608 7.54067 86.1608 7.83C86.1608 8.11 86.0582 8.348 85.8528 8.544C85.6568 8.73067 85.4048 8.824 85.0968 8.824ZM89.9922 17.168C89.3669 17.168 88.8209 17.07 88.3542 16.874C87.8969 16.6687 87.5329 16.3887 87.2622 16.034C87.0009 15.67 86.8469 15.2547 86.8002 14.788H88.4802C88.5269 14.984 88.6109 15.166 88.7322 15.334C88.8536 15.4927 89.0169 15.6187 89.2222 15.712C89.4369 15.8053 89.6889 15.852 89.9782 15.852C90.2582 15.852 90.4869 15.8147 90.6642 15.74C90.8416 15.656 90.9722 15.5487 91.0562 15.418C91.1402 15.2873 91.1822 15.1473 91.1822 14.998C91.1822 14.774 91.1216 14.6013 91.0002 14.48C90.8789 14.3587 90.7016 14.2653 90.4682 14.2C90.2442 14.1253 89.9736 14.0553 89.6562 13.99C89.3202 13.9247 88.9936 13.8453 88.6762 13.752C88.3682 13.6493 88.0882 13.5233 87.8362 13.374C87.5936 13.2247 87.3976 13.0333 87.2482 12.8C87.1082 12.5667 87.0382 12.282 87.0382 11.946C87.0382 11.5353 87.1456 11.1667 87.3602 10.84C87.5842 10.5133 87.9016 10.2567 88.3122 10.07C88.7322 9.874 89.2316 9.776 89.8102 9.776C90.6316 9.776 91.2849 9.96733 91.7702 10.35C92.2649 10.7233 92.5542 11.2507 92.6382 11.932H91.0422C90.9956 11.6707 90.8649 11.47 90.6502 11.33C90.4356 11.1807 90.1509 11.106 89.7962 11.106C89.4322 11.106 89.1522 11.176 88.9562 11.316C88.7696 11.4467 88.6762 11.624 88.6762 11.848C88.6762 11.988 88.7322 12.1187 88.8442 12.24C88.9656 12.352 89.1382 12.45 89.3622 12.534C89.5862 12.6087 89.8616 12.6833 90.1882 12.758C90.7109 12.8607 91.1729 12.982 91.5742 13.122C91.9756 13.262 92.2929 13.4673 92.5262 13.738C92.7596 14.0087 92.8762 14.3913 92.8762 14.886C92.8856 15.334 92.7689 15.7307 92.5262 16.076C92.2929 16.4213 91.9616 16.692 91.5322 16.888C91.1029 17.0747 90.5896 17.168 89.9922 17.168ZM97.1524 17.168C96.4617 17.168 95.841 17.014 95.2904 16.706C94.749 16.3887 94.3244 15.9547 94.0164 15.404C93.7177 14.844 93.5684 14.2093 93.5684 13.5C93.5684 12.7627 93.7177 12.1187 94.0164 11.568C94.3244 11.008 94.749 10.5693 95.2904 10.252C95.841 9.93467 96.4664 9.776 97.1664 9.776C98.0437 9.776 98.781 10.0093 99.3784 10.476C99.9757 10.9333 100.358 11.5633 100.526 12.366H98.7624C98.669 12.0113 98.473 11.7313 98.1744 11.526C97.885 11.3207 97.5397 11.218 97.1384 11.218C96.793 11.218 96.4757 11.3067 96.1864 11.484C95.9064 11.6613 95.6824 11.918 95.5144 12.254C95.3557 12.59 95.2764 12.996 95.2764 13.472C95.2764 13.836 95.323 14.158 95.4164 14.438C95.5097 14.718 95.6404 14.956 95.8084 15.152C95.9857 15.3387 96.1864 15.4833 96.4104 15.586C96.6344 15.6887 96.877 15.74 97.1384 15.74C97.409 15.74 97.6517 15.698 97.8664 15.614C98.0904 15.5207 98.277 15.3853 98.4264 15.208C98.585 15.0307 98.697 14.8207 98.7624 14.578H100.526C100.358 15.362 99.9757 15.992 99.3784 16.468C98.781 16.9347 98.039 17.168 97.1524 17.168ZM104.736 17.168C104.064 17.168 103.458 17.014 102.916 16.706C102.384 16.3887 101.964 15.9547 101.656 15.404C101.358 14.844 101.208 14.2047 101.208 13.486C101.208 12.7487 101.362 12.1047 101.67 11.554C101.978 10.994 102.398 10.56 102.93 10.252C103.472 9.93467 104.078 9.776 104.75 9.776C105.422 9.776 106.024 9.93467 106.556 10.252C107.098 10.56 107.518 10.9893 107.816 11.54C108.124 12.0907 108.278 12.7347 108.278 13.472C108.278 14.2093 108.124 14.8533 107.816 15.404C107.508 15.9547 107.084 16.3887 106.542 16.706C106.01 17.014 105.408 17.168 104.736 17.168ZM104.736 15.726C105.072 15.726 105.376 15.642 105.646 15.474C105.926 15.306 106.15 15.054 106.318 14.718C106.486 14.382 106.57 13.9667 106.57 13.472C106.57 12.9773 106.486 12.5667 106.318 12.24C106.16 11.904 105.94 11.652 105.66 11.484C105.39 11.316 105.086 11.232 104.75 11.232C104.424 11.232 104.12 11.316 103.84 11.484C103.56 11.652 103.336 11.904 103.168 12.24C103 12.5667 102.916 12.9773 102.916 13.472C102.916 13.9667 103 14.382 103.168 14.718C103.336 15.054 103.556 15.306 103.826 15.474C104.106 15.642 104.41 15.726 104.736 15.726ZM111.841 17.168C111.271 17.168 110.781 17.056 110.371 16.832C109.969 16.5987 109.661 16.2533 109.447 15.796C109.232 15.3293 109.125 14.7553 109.125 14.074V9.944H110.805V13.906C110.805 14.5127 110.931 14.9747 111.183 15.292C111.444 15.6 111.836 15.754 112.359 15.754C112.695 15.754 112.993 15.6747 113.255 15.516C113.525 15.3573 113.735 15.1287 113.885 14.83C114.043 14.522 114.123 14.1487 114.123 13.71V9.944H115.803V17H114.319L114.193 15.824C113.978 16.2347 113.665 16.5613 113.255 16.804C112.853 17.0467 112.382 17.168 111.841 17.168ZM116.972 17V9.944H118.456L118.582 11.12C118.797 10.7093 119.105 10.3827 119.506 10.14C119.907 9.89733 120.383 9.776 120.934 9.776C121.503 9.776 121.989 9.89733 122.39 10.14C122.791 10.3733 123.099 10.7187 123.314 11.176C123.538 11.6333 123.65 12.2027 123.65 12.884V17H121.97V13.038C121.97 12.45 121.839 11.9973 121.578 11.68C121.317 11.3627 120.929 11.204 120.416 11.204C120.08 11.204 119.777 11.2833 119.506 11.442C119.245 11.6007 119.035 11.834 118.876 12.142C118.727 12.4407 118.652 12.8047 118.652 13.234V17H116.972ZM127.787 17C127.311 17 126.896 16.9253 126.541 16.776C126.196 16.6267 125.925 16.3793 125.729 16.034C125.533 15.6887 125.435 15.222 125.435 14.634V11.358H124.231V9.944H125.435L125.631 8.082H127.115V9.944H129.033V11.358H127.115V14.634C127.115 14.9887 127.19 15.236 127.339 15.376C127.498 15.5067 127.759 15.572 128.123 15.572H128.991V17H127.787ZM138.85 17.168C138.15 17.168 137.543 17.0467 137.03 16.804C136.526 16.552 136.129 16.2113 135.84 15.782C135.55 15.3433 135.378 14.8487 135.322 14.298H136.96C137.044 14.7087 137.254 15.054 137.59 15.334C137.926 15.6047 138.346 15.74 138.85 15.74C139.232 15.74 139.559 15.6513 139.83 15.474C140.1 15.2873 140.31 15.04 140.46 14.732C140.618 14.4147 140.698 14.06 140.698 13.668C140.698 13.2667 140.618 12.9167 140.46 12.618C140.31 12.3193 140.1 12.0907 139.83 11.932C139.559 11.764 139.246 11.68 138.892 11.68C138.453 11.68 138.075 11.7827 137.758 11.988C137.45 12.184 137.226 12.4313 137.086 12.73H135.462L136.274 7.2H141.678V8.67H137.534L137.086 11.092C137.3 10.8587 137.585 10.672 137.94 10.532C138.294 10.3827 138.7 10.308 139.158 10.308C139.671 10.308 140.124 10.3967 140.516 10.574C140.908 10.7513 141.239 10.994 141.51 11.302C141.78 11.61 141.981 11.9693 142.112 12.38C142.252 12.7813 142.322 13.206 142.322 13.654C142.322 14.158 142.238 14.6247 142.07 15.054C141.902 15.474 141.664 15.8427 141.356 16.16C141.057 16.4773 140.693 16.7247 140.264 16.902C139.844 17.0793 139.372 17.168 138.85 17.168ZM147.07 17.168C146.361 17.168 145.717 17.028 145.138 16.748C144.569 16.468 144.111 16.0387 143.766 15.46C143.43 14.8813 143.262 14.1533 143.262 13.276V7.2H144.942V13.29C144.942 13.822 145.031 14.2607 145.208 14.606C145.385 14.9513 145.633 15.2127 145.95 15.39C146.277 15.558 146.659 15.642 147.098 15.642C147.546 15.642 147.929 15.558 148.246 15.39C148.573 15.2127 148.82 14.9513 148.988 14.606C149.165 14.2607 149.254 13.822 149.254 13.29V7.2H150.934V13.276C150.934 14.1533 150.761 14.8813 150.416 15.46C150.071 16.0387 149.604 16.468 149.016 16.748C148.428 17.028 147.779 17.168 147.07 17.168Z" fill="url(#paint2_linear_1072_95)"/>
<defs>
<linearGradient id="paint0_linear_1072_95" x1="10.1665" y1="12" x2="21.8332" y2="12" gradientUnits="userSpaceOnUse">
<stop stop-color="#64CCEB"/>
<stop offset="1" stop-color="#E9589F"/>
</linearGradient>
<linearGradient id="paint1_linear_1072_95" x1="14.25" y1="12" x2="17.75" y2="12" gradientUnits="userSpaceOnUse">
<stop stop-color="#64CCEB"/>
<stop offset="1" stop-color="#E9589F"/>
</linearGradient>
<linearGradient id="paint2_linear_1072_95" x1="27" y1="12" x2="152" y2="12" gradientUnits="userSpaceOnUse">
<stop stop-color="#64CCEB"/>
<stop offset="1" stop-color="#E9589F"/>
</linearGradient>
</defs>
</svg>
