<svg width="152" height="24" viewBox="0 0 152 24" fill="none" xmlns="http://www.w3.org/2000/svg">
<rect x="0.5" y="0.5" width="151" height="23" rx="11.5" stroke="black" stroke-opacity="0.04"/>
<path d="M15.9998 7.33332C16.1165 7.33332 16.2915 7.39166 16.4665 7.56666L16.9332 8.14999C17.1665 8.44166 17.5165 8.67499 17.9248 8.67499H18.1582L18.7998 8.49999H18.8582C19.0332 8.49999 19.2082 8.55832 19.2665 8.67499C19.3832 8.79166 19.4998 8.96666 19.4998 9.19999L19.3832 9.95832C19.3248 10.425 19.4998 10.8333 19.8498 11.125L20.4332 11.5917C20.6665 11.7083 20.6665 11.8833 20.6665 12C20.6665 12.1167 20.6082 12.2917 20.4332 12.4667L19.8498 12.9333C19.4998 13.225 19.2665 13.6917 19.3832 14.1L19.4998 14.8583C19.5582 15.0917 19.4415 15.2667 19.3832 15.325C19.2082 15.4417 19.0915 15.5 18.9165 15.5H18.8582L18.2165 15.3833H17.9832C17.5748 15.3833 17.2248 15.5583 16.9915 15.9083L16.5248 16.4917C16.2915 16.6667 16.1165 16.6667 15.9998 16.6667C15.8832 16.6667 15.7082 16.6083 15.5332 16.4333L15.0665 15.85C14.8332 15.5583 14.4832 15.325 14.0748 15.325H13.8415L13.1998 15.5H13.1415C12.9665 15.5 12.7915 15.4417 12.7332 15.325C12.6165 15.2083 12.4998 15.0333 12.4998 14.8L12.6165 14.0417C12.6748 13.575 12.4998 13.1667 12.1498 12.875L11.5665 12.4083C11.3332 12.2917 11.3332 12.1167 11.3332 12C11.3332 11.8833 11.3915 11.7083 11.5665 11.5333L12.1498 11.0667C12.4998 10.775 12.7332 10.3083 12.6165 9.89999L12.4998 9.19999C12.4998 8.96666 12.6165 8.79166 12.6748 8.73332C12.7915 8.55832 12.9082 8.49999 13.0832 8.49999H13.1415L13.7832 8.61666H14.0165C14.4248 8.61666 14.7748 8.44166 15.0082 8.09166L15.4748 7.50832C15.7082 7.33332 15.8832 7.33332 15.9998 7.33332ZM15.9998 6.16666C15.4748 6.16666 14.9498 6.39999 14.5998 6.86666L14.1332 7.44999H14.0748L13.3165 7.33332H13.0832C12.0332 7.33332 11.2165 8.26666 11.3332 9.31666L11.4498 10.075V10.1333L10.8665 10.6C10.6492 10.763 10.4728 10.9744 10.3513 11.2174C10.2298 11.4604 10.1665 11.7283 10.1665 12C10.1665 12.2717 10.2298 12.5396 10.3513 12.7826C10.4728 13.0256 10.6492 13.237 10.8665 13.4L11.4498 13.8667V13.925L11.3332 14.6833C11.2165 15.7333 12.0332 16.6667 13.0832 16.6667H13.3165L14.0748 16.55H14.1332L14.5998 17.1333C14.9498 17.6 15.4748 17.8333 15.9998 17.8333C16.5248 17.8333 17.0498 17.6 17.3998 17.1333L17.8665 16.55H17.9248L18.6832 16.6667H18.9165C19.9665 16.6667 20.7832 15.7333 20.6665 14.6833L20.5498 13.925V13.8667L21.1332 13.4C21.3505 13.237 21.5269 13.0256 21.6484 12.7826C21.7699 12.5396 21.8332 12.2717 21.8332 12C21.8332 11.7283 21.7699 11.4604 21.6484 11.2174C21.5269 10.9744 21.3505 10.763 21.1332 10.6L20.5498 10.1333V10.075L20.6665 9.31666C20.7832 8.26666 19.9665 7.33332 18.9165 7.33332H18.6832L17.9248 7.44999H17.8665L17.3998 6.86666C17.0498 6.39999 16.5248 6.16666 15.9998 6.16666Z" fill="url(#paint0_linear_1072_95)"/>
<path d="M14.8333 11.4167C14.4833 11.4167 14.25 11.1833 14.25 10.8333C14.25 10.4833 14.4833 10.25 14.8333 10.25C15.1833 10.25 15.4167 10.4833 15.4167 10.8333C15.4167 11.1833 15.1833 11.4167 14.8333 11.4167ZM17.575 11.2417L15.2417 13.575C15.0083 13.8083 14.6583 13.8083 14.425 13.575C14.1917 13.3417 14.1917 12.9917 14.425 12.7583L16.7583 10.425C16.9917 10.1917 17.3417 10.1917 17.575 10.425C17.8083 10.6583 17.8083 11.0083 17.575 11.2417ZM16.5833 13.1667C16.5833 13.5167 16.8167 13.75 17.1667 13.75C17.5167 13.75 17.75 13.5167 17.75 13.1667C17.75 12.8167 17.5167 12.5833 17.1667 12.5833C16.8167 12.5833 16.5833 12.8167 16.5833 13.1667Z" fill="url(#paint1_linear_1072_95)"/>
<path d="M30.696 18.218V5.926H31.634V18.218H30.696ZM31.284 17.168C30.5747 17.168 29.9447 17.042 29.394 16.79C28.8433 16.538 28.414 16.1787 28.106 15.712C27.798 15.2453 27.6393 14.69 27.63 14.046H29.408C29.408 14.3727 29.4827 14.6667 29.632 14.928C29.7907 15.18 30.0053 15.3807 30.276 15.53C30.556 15.6793 30.892 15.754 31.284 15.754C31.62 15.754 31.9093 15.7027 32.152 15.6C32.404 15.488 32.5953 15.334 32.726 15.138C32.866 14.9327 32.936 14.6947 32.936 14.424C32.936 14.116 32.8613 13.864 32.712 13.668C32.572 13.4627 32.376 13.29 32.124 13.15C31.872 13.01 31.5827 12.8887 31.256 12.786C30.9293 12.674 30.584 12.5573 30.22 12.436C29.4453 12.1747 28.862 11.8433 28.47 11.442C28.078 11.0313 27.882 10.4853 27.882 9.804C27.882 9.23467 28.0173 8.74467 28.288 8.334C28.5587 7.92333 28.9367 7.606 29.422 7.382C29.9167 7.14867 30.486 7.032 31.13 7.032C31.7833 7.032 32.3527 7.14867 32.838 7.382C33.3327 7.61533 33.72 7.942 34 8.362C34.2893 8.77267 34.4387 9.26733 34.448 9.846H32.656C32.6467 9.60333 32.5813 9.37933 32.46 9.174C32.3387 8.95933 32.1613 8.78667 31.928 8.656C31.704 8.516 31.4287 8.446 31.102 8.446C30.822 8.43667 30.57 8.48333 30.346 8.586C30.1313 8.67933 29.9587 8.81933 29.828 9.006C29.7067 9.18333 29.646 9.40733 29.646 9.678C29.646 9.93933 29.702 10.1587 29.814 10.336C29.9353 10.504 30.108 10.6487 30.332 10.77C30.556 10.882 30.8173 10.9893 31.116 11.092C31.4147 11.1947 31.7413 11.3067 32.096 11.428C32.5813 11.5867 33.02 11.7827 33.412 12.016C33.8133 12.24 34.1307 12.534 34.364 12.898C34.5973 13.262 34.714 13.7333 34.714 14.312C34.714 14.816 34.5833 15.2873 34.322 15.726C34.0607 16.1553 33.678 16.5053 33.174 16.776C32.67 17.0373 32.04 17.168 31.284 17.168ZM39.0915 17.168C38.3915 17.168 37.7848 17.0467 37.2715 16.804C36.7675 16.552 36.3708 16.2113 36.0815 15.782C35.7922 15.3433 35.6195 14.8487 35.5635 14.298H37.2015C37.2855 14.7087 37.4955 15.054 37.8315 15.334C38.1675 15.6047 38.5875 15.74 39.0915 15.74C39.4742 15.74 39.8008 15.6513 40.0715 15.474C40.3422 15.2873 40.5522 15.04 40.7015 14.732C40.8602 14.4147 40.9395 14.06 40.9395 13.668C40.9395 13.2667 40.8602 12.9167 40.7015 12.618C40.5522 12.3193 40.3422 12.0907 40.0715 11.932C39.8008 11.764 39.4882 11.68 39.1335 11.68C38.6948 11.68 38.3168 11.7827 37.9995 11.988C37.6915 12.184 37.4675 12.4313 37.3275 12.73H35.7035L36.5155 7.2H41.9195V8.67H37.7755L37.3275 11.092C37.5422 10.8587 37.8268 10.672 38.1815 10.532C38.5362 10.3827 38.9422 10.308 39.3995 10.308C39.9128 10.308 40.3655 10.3967 40.7575 10.574C41.1495 10.7513 41.4808 10.994 41.7515 11.302C42.0222 11.61 42.2228 11.9693 42.3535 12.38C42.4935 12.7813 42.5635 13.206 42.5635 13.654C42.5635 14.158 42.4795 14.6247 42.3115 15.054C42.1435 15.474 41.9055 15.8427 41.5975 16.16C41.2988 16.4773 40.9348 16.7247 40.5055 16.902C40.0855 17.0793 39.6142 17.168 39.0915 17.168ZM49.6098 17.168C48.9004 17.168 48.2704 17.042 47.7198 16.79C47.1691 16.538 46.7398 16.1787 46.4318 15.712C46.1238 15.2453 45.9651 14.69 45.9558 14.046H47.7338C47.7338 14.3727 47.8084 14.6667 47.9578 14.928C48.1164 15.18 48.3311 15.3807 48.6018 15.53C48.8818 15.6793 49.2178 15.754 49.6098 15.754C49.9458 15.754 50.2351 15.7027 50.4778 15.6C50.7298 15.488 50.9211 15.334 51.0518 15.138C51.1918 14.9327 51.2618 14.6947 51.2618 14.424C51.2618 14.116 51.1871 13.864 51.0378 13.668C50.8978 13.4627 50.7018 13.29 50.4498 13.15C50.1978 13.01 49.9084 12.8887 49.5818 12.786C49.2551 12.674 48.9098 12.5573 48.5458 12.436C47.7711 12.1747 47.1878 11.8433 46.7958 11.442C46.4038 11.0313 46.2078 10.4853 46.2078 9.804C46.2078 9.23467 46.3431 8.74467 46.6138 8.334C46.8844 7.92333 47.2624 7.606 47.7478 7.382C48.2424 7.14867 48.8118 7.032 49.4558 7.032C50.1091 7.032 50.6784 7.14867 51.1638 7.382C51.6584 7.61533 52.0458 7.942 52.3258 8.362C52.6151 8.77267 52.7644 9.26733 52.7738 9.846H50.9818C50.9724 9.60333 50.9071 9.37933 50.7858 9.174C50.6644 8.95933 50.4871 8.78667 50.2538 8.656C50.0298 8.516 49.7544 8.446 49.4278 8.446C49.1478 8.43667 48.8958 8.48333 48.6718 8.586C48.4571 8.67933 48.2844 8.81933 48.1538 9.006C48.0324 9.18333 47.9718 9.40733 47.9718 9.678C47.9718 9.93933 48.0278 10.1587 48.1398 10.336C48.2611 10.504 48.4338 10.6487 48.6578 10.77C48.8818 10.882 49.1431 10.9893 49.4418 11.092C49.7404 11.1947 50.0671 11.3067 50.4218 11.428C50.9071 11.5867 51.3458 11.7827 51.7378 12.016C52.1391 12.24 52.4564 12.534 52.6898 12.898C52.9231 13.262 53.0398 13.7333 53.0398 14.312C53.0398 14.816 52.9091 15.2873 52.6478 15.726C52.3864 16.1553 52.0038 16.5053 51.4998 16.776C50.9958 17.0373 50.3658 17.168 49.6098 17.168ZM53.9873 17V9.944H55.6673V17H53.9873ZM54.8273 8.824C54.5193 8.824 54.2626 8.73067 54.0573 8.544C53.8613 8.348 53.7633 8.11 53.7633 7.83C53.7633 7.54067 53.8613 7.30733 54.0573 7.13C54.2626 6.94333 54.5193 6.85 54.8273 6.85C55.1353 6.85 55.3873 6.94333 55.5833 7.13C55.7886 7.30733 55.8913 7.54067 55.8913 7.83C55.8913 8.11 55.7886 8.348 55.5833 8.544C55.3873 8.73067 55.1353 8.824 54.8273 8.824ZM59.8767 20.248C59.214 20.248 58.6307 20.164 58.1267 19.996C57.632 19.8373 57.2447 19.59 56.9647 19.254C56.694 18.9273 56.5587 18.5167 56.5587 18.022C56.5587 17.7327 56.6287 17.448 56.7687 17.168C56.918 16.8973 57.1374 16.6453 57.4267 16.412C57.7254 16.1693 58.1034 15.9593 58.5607 15.782L59.3027 16.594C58.8547 16.7527 58.542 16.944 58.3647 17.168C58.1874 17.392 58.0987 17.6207 58.0987 17.854C58.0987 18.0967 58.1734 18.2973 58.3227 18.456C58.4814 18.624 58.6914 18.75 58.9527 18.834C59.2234 18.918 59.5267 18.96 59.8627 18.96C60.1894 18.96 60.474 18.9133 60.7167 18.82C60.9594 18.736 61.146 18.6147 61.2767 18.456C61.4167 18.2973 61.4867 18.106 61.4867 17.882C61.4867 17.602 61.3887 17.3733 61.1927 17.196C60.9967 17.028 60.6094 16.9253 60.0307 16.888C59.536 16.8507 59.102 16.7993 58.7287 16.734C58.3554 16.6593 58.0334 16.5753 57.7627 16.482C57.5014 16.3887 57.2774 16.286 57.0907 16.174C56.904 16.0527 56.75 15.9313 56.6287 15.81V15.488L58.0987 13.948L59.3447 14.354L57.6927 15.964L58.1267 15.152C58.22 15.2173 58.3134 15.278 58.4067 15.334C58.5094 15.39 58.6354 15.4413 58.7847 15.488C58.9434 15.5253 59.1487 15.5627 59.4007 15.6C59.6527 15.6373 59.9794 15.6747 60.3807 15.712C61.006 15.7587 61.5147 15.8707 61.9067 16.048C62.2987 16.2253 62.588 16.4633 62.7747 16.762C62.9614 17.0607 63.0547 17.42 63.0547 17.84C63.0547 18.2507 62.938 18.638 62.7047 19.002C62.4807 19.366 62.1354 19.6647 61.6687 19.898C61.202 20.1313 60.6047 20.248 59.8767 20.248ZM59.8767 14.886C59.2887 14.886 58.78 14.774 58.3507 14.55C57.9307 14.3167 57.6087 14.0087 57.3847 13.626C57.1607 13.234 57.0487 12.8047 57.0487 12.338C57.0487 11.862 57.1607 11.4327 57.3847 11.05C57.6087 10.6673 57.9307 10.3593 58.3507 10.126C58.78 9.89267 59.2887 9.776 59.8767 9.776C60.4647 9.776 60.9687 9.89267 61.3887 10.126C61.8087 10.3593 62.1307 10.6673 62.3547 11.05C62.5787 11.4327 62.6907 11.862 62.6907 12.338C62.6907 12.8047 62.5787 13.234 62.3547 13.626C62.1307 14.0087 61.8087 14.3167 61.3887 14.55C60.9687 14.774 60.4647 14.886 59.8767 14.886ZM59.8767 13.584C60.278 13.584 60.6 13.4767 60.8427 13.262C61.0854 13.0473 61.2067 12.7393 61.2067 12.338C61.2067 11.9367 61.0854 11.6333 60.8427 11.428C60.6 11.2133 60.278 11.106 59.8767 11.106C59.4754 11.106 59.1487 11.2133 58.8967 11.428C58.6447 11.6333 58.5187 11.9367 58.5187 12.338C58.5187 12.7393 58.6447 13.0473 58.8967 13.262C59.1487 13.4767 59.4754 13.584 59.8767 13.584ZM61.0387 11.176L60.7167 9.944H63.6147V10.994L61.0387 11.176ZM64.3982 17V9.944H65.8822L66.0082 11.12C66.2228 10.7093 66.5308 10.3827 66.9322 10.14C67.3335 9.89733 67.8095 9.776 68.3602 9.776C68.9295 9.776 69.4148 9.89733 69.8162 10.14C70.2175 10.3733 70.5255 10.7187 70.7402 11.176C70.9642 11.6333 71.0762 12.2027 71.0762 12.884V17H69.3962V13.038C69.3962 12.45 69.2655 11.9973 69.0042 11.68C68.7428 11.3627 68.3555 11.204 67.8422 11.204C67.5062 11.204 67.2028 11.2833 66.9322 11.442C66.6708 11.6007 66.4608 11.834 66.3022 12.142C66.1528 12.4407 66.0782 12.8047 66.0782 13.234V17H64.3982ZM72.2594 13.57V12.17H78.0554V13.57H72.2594ZM83.1294 17.168C82.4201 17.168 81.7761 17.028 81.1974 16.748C80.6281 16.468 80.1707 16.0387 79.8254 15.46C79.4894 14.8813 79.3214 14.1533 79.3214 13.276V7.2H81.0014V13.29C81.0014 13.822 81.0901 14.2607 81.2674 14.606C81.4447 14.9513 81.6921 15.2127 82.0094 15.39C82.3361 15.558 82.7187 15.642 83.1574 15.642C83.6054 15.642 83.9881 15.558 84.3054 15.39C84.6321 15.2127 84.8794 14.9513 85.0474 14.606C85.2247 14.2607 85.3134 13.822 85.3134 13.29V7.2H86.9934V13.276C86.9934 14.1533 86.8207 14.8813 86.4754 15.46C86.1301 16.0387 85.6634 16.468 85.0754 16.748C84.4874 17.028 83.8387 17.168 83.1294 17.168ZM88.1243 20.08V9.944H89.6223L89.8043 10.966C89.9537 10.7607 90.131 10.5693 90.3363 10.392C90.551 10.2053 90.8077 10.056 91.1063 9.944C91.4143 9.832 91.7643 9.776 92.1563 9.776C92.819 9.776 93.4023 9.93933 93.9063 10.266C94.4197 10.5927 94.821 11.036 95.1103 11.596C95.3997 12.1467 95.5443 12.7767 95.5443 13.486C95.5443 14.1953 95.395 14.83 95.0963 15.39C94.807 15.9407 94.4057 16.3747 93.8923 16.692C93.3883 17.0093 92.8097 17.168 92.1563 17.168C91.6243 17.168 91.1577 17.07 90.7563 16.874C90.3643 16.6687 90.047 16.3793 89.8043 16.006V20.08H88.1243ZM91.8063 15.712C92.1983 15.712 92.5483 15.6187 92.8563 15.432C93.1643 15.2453 93.4023 14.984 93.5703 14.648C93.7477 14.312 93.8363 13.9247 93.8363 13.486C93.8363 13.038 93.7477 12.646 93.5703 12.31C93.4023 11.974 93.1643 11.7127 92.8563 11.526C92.5483 11.3393 92.1983 11.246 91.8063 11.246C91.405 11.246 91.0503 11.3393 90.7423 11.526C90.4437 11.7127 90.2057 11.974 90.0283 12.31C89.8603 12.646 89.7763 13.0333 89.7763 13.472C89.7763 13.92 89.8603 14.312 90.0283 14.648C90.2057 14.9747 90.4437 15.236 90.7423 15.432C91.0503 15.6187 91.405 15.712 91.8063 15.712ZM99.2491 17V7.2H102.763C103.538 7.2 104.177 7.33533 104.681 7.606C105.194 7.86733 105.572 8.222 105.815 8.67C106.067 9.10867 106.193 9.608 106.193 10.168C106.193 10.6907 106.072 11.176 105.829 11.624C105.586 12.072 105.208 12.4313 104.695 12.702C104.182 12.9727 103.524 13.108 102.721 13.108H100.929V17H99.2491ZM104.359 17L102.301 12.674H104.121L106.277 17H104.359ZM100.929 11.862H102.651C103.276 11.862 103.734 11.7127 104.023 11.414C104.322 11.106 104.471 10.7047 104.471 10.21C104.471 9.72467 104.326 9.33733 104.037 9.048C103.748 8.74933 103.286 8.6 102.651 8.6H100.929V11.862ZM110.055 17.168C109.355 17.168 108.739 17.0187 108.207 16.72C107.675 16.412 107.26 15.9827 106.961 15.432C106.662 14.8813 106.513 14.2467 106.513 13.528C106.513 12.7813 106.658 12.128 106.947 11.568C107.246 11.008 107.661 10.5693 108.193 10.252C108.734 9.93467 109.36 9.776 110.069 9.776C110.76 9.776 111.362 9.93 111.875 10.238C112.388 10.546 112.785 10.9613 113.065 11.484C113.345 11.9973 113.485 12.576 113.485 13.22C113.485 13.3133 113.485 13.416 113.485 13.528C113.485 13.64 113.476 13.7567 113.457 13.878H107.717V12.8H111.791C111.772 12.2867 111.6 11.8853 111.273 11.596C110.946 11.2973 110.54 11.148 110.055 11.148C109.71 11.148 109.392 11.2273 109.103 11.386C108.814 11.5447 108.585 11.7827 108.417 12.1C108.249 12.408 108.165 12.8 108.165 13.276V13.682C108.165 14.1207 108.244 14.4987 108.403 14.816C108.571 15.1333 108.795 15.376 109.075 15.544C109.364 15.7027 109.686 15.782 110.041 15.782C110.433 15.782 110.755 15.698 111.007 15.53C111.268 15.362 111.46 15.138 111.581 14.858H113.289C113.158 15.2967 112.944 15.6933 112.645 16.048C112.346 16.3933 111.978 16.6687 111.539 16.874C111.1 17.07 110.606 17.168 110.055 17.168ZM118.368 17.168C117.995 17.168 117.659 17.1167 117.36 17.014C117.061 16.9207 116.8 16.79 116.576 16.622C116.352 16.4447 116.165 16.244 116.016 16.02L115.834 17H114.336V6.92H116.016V10.98C116.24 10.6347 116.543 10.35 116.926 10.126C117.309 9.89267 117.785 9.776 118.354 9.776C119.017 9.776 119.6 9.93933 120.104 10.266C120.617 10.5833 121.019 11.022 121.308 11.582C121.607 12.1327 121.756 12.7673 121.756 13.486C121.756 14.186 121.611 14.816 121.322 15.376C121.033 15.936 120.631 16.3747 120.118 16.692C119.614 17.0093 119.031 17.168 118.368 17.168ZM118.018 15.712C118.41 15.712 118.76 15.6187 119.068 15.432C119.376 15.236 119.614 14.9747 119.782 14.648C119.959 14.312 120.048 13.92 120.048 13.472C120.048 13.0333 119.959 12.646 119.782 12.31C119.614 11.974 119.376 11.7127 119.068 11.526C118.76 11.3393 118.41 11.246 118.018 11.246C117.617 11.246 117.262 11.3393 116.954 11.526C116.655 11.7127 116.417 11.974 116.24 12.31C116.072 12.646 115.988 13.0333 115.988 13.472C115.988 13.92 116.072 14.312 116.24 14.648C116.417 14.9747 116.655 15.236 116.954 15.432C117.262 15.6187 117.617 15.712 118.018 15.712ZM125.039 17.168C124.46 17.168 123.979 17.07 123.597 16.874C123.214 16.678 122.929 16.4167 122.743 16.09C122.556 15.7633 122.463 15.4087 122.463 15.026C122.463 14.578 122.575 14.1907 122.799 13.864C123.032 13.5373 123.373 13.2853 123.821 13.108C124.269 12.9213 124.819 12.828 125.473 12.828H127.251C127.251 12.4547 127.199 12.1467 127.097 11.904C126.994 11.652 126.835 11.4653 126.621 11.344C126.406 11.2227 126.131 11.162 125.795 11.162C125.412 11.162 125.085 11.2507 124.815 11.428C124.544 11.596 124.376 11.8573 124.311 12.212H122.659C122.715 11.708 122.883 11.2787 123.163 10.924C123.443 10.56 123.811 10.28 124.269 10.084C124.735 9.87867 125.244 9.776 125.795 9.776C126.457 9.776 127.022 9.89267 127.489 10.126C127.955 10.35 128.31 10.6767 128.553 11.106C128.805 11.526 128.931 12.0347 128.931 12.632V17H127.503L127.335 15.866C127.241 16.0527 127.12 16.2253 126.971 16.384C126.831 16.5427 126.667 16.6827 126.481 16.804C126.294 16.916 126.079 17.0047 125.837 17.07C125.603 17.1353 125.337 17.168 125.039 17.168ZM125.417 15.838C125.687 15.838 125.925 15.7913 126.131 15.698C126.345 15.5953 126.527 15.4553 126.677 15.278C126.835 15.0913 126.957 14.886 127.041 14.662C127.125 14.438 127.181 14.2 127.209 13.948V13.92H125.655C125.328 13.92 125.057 13.962 124.843 14.046C124.628 14.1207 124.474 14.2327 124.381 14.382C124.287 14.5313 124.241 14.704 124.241 14.9C124.241 15.096 124.287 15.264 124.381 15.404C124.474 15.544 124.609 15.6513 124.787 15.726C124.964 15.8007 125.174 15.838 125.417 15.838ZM132.983 17C132.507 17 132.091 16.9253 131.737 16.776C131.391 16.6267 131.121 16.3793 130.925 16.034C130.729 15.6887 130.631 15.222 130.631 14.634V11.358H129.427V9.944H130.631L130.827 8.082H132.311V9.944H134.229V11.358H132.311V14.634C132.311 14.9887 132.385 15.236 132.535 15.376C132.693 15.5067 132.955 15.572 133.319 15.572H134.187V17H132.983ZM138.235 17.168C137.535 17.168 136.919 17.0187 136.387 16.72C135.855 16.412 135.44 15.9827 135.141 15.432C134.843 14.8813 134.693 14.2467 134.693 13.528C134.693 12.7813 134.838 12.128 135.127 11.568C135.426 11.008 135.841 10.5693 136.373 10.252C136.915 9.93467 137.54 9.776 138.249 9.776C138.94 9.776 139.542 9.93 140.055 10.238C140.569 10.546 140.965 10.9613 141.245 11.484C141.525 11.9973 141.665 12.576 141.665 13.22C141.665 13.3133 141.665 13.416 141.665 13.528C141.665 13.64 141.656 13.7567 141.637 13.878H135.897V12.8H139.971C139.953 12.2867 139.78 11.8853 139.453 11.596C139.127 11.2973 138.721 11.148 138.235 11.148C137.89 11.148 137.573 11.2273 137.283 11.386C136.994 11.5447 136.765 11.7827 136.597 12.1C136.429 12.408 136.345 12.8 136.345 13.276V13.682C136.345 14.1207 136.425 14.4987 136.583 14.816C136.751 15.1333 136.975 15.376 137.255 15.544C137.545 15.7027 137.867 15.782 138.221 15.782C138.613 15.782 138.935 15.698 139.187 15.53C139.449 15.362 139.64 15.138 139.761 14.858H141.469C141.339 15.2967 141.124 15.6933 140.825 16.048C140.527 16.3933 140.158 16.6687 139.719 16.874C139.281 17.07 138.786 17.168 138.235 17.168Z" fill="url(#paint2_linear_1072_95)"/>
<defs>
<linearGradient id="paint0_linear_1072_95" x1="10.1665" y1="12" x2="21.8332" y2="12" gradientUnits="userSpaceOnUse">
<stop stop-color="#64CCEB"/>
<stop offset="1" stop-color="#E9589F"/>
</linearGradient>
<linearGradient id="paint1_linear_1072_95" x1="14.25" y1="12" x2="17.75" y2="12" gradientUnits="userSpaceOnUse">
<stop stop-color="#64CCEB"/>
<stop offset="1" stop-color="#E9589F"/>
</linearGradient>
<linearGradient id="paint2_linear_1072_95" x1="27" y1="12" x2="143" y2="12" gradientUnits="userSpaceOnUse">
<stop stop-color="#64CCEB"/>
<stop offset="1" stop-color="#E9589F"/>
</linearGradient>
</defs>
</svg>
