<svg width="13" height="12" viewBox="0 0 13 12" fill="none" xmlns="http://www.w3.org/2000/svg">
<path d="M2.15286 12C0.965986 12 0 11.034 0 9.84714V4.5114C0 3.32453 0.965986 2.35854 2.15286 2.35854H3.98159L2.45298 0.829132C2.36094 0.737095 2.31052 0.615446 2.31052 0.485794C2.31052 0.356142 2.36094 0.233693 2.45298 0.142457C2.54502 0.0512205 2.66667 0 2.79632 0C2.92597 0 3.04202 0.0480192 3.13245 0.135254L3.13725 0.140856L5.35494 2.35934H7.61985L9.83593 0.143257C9.92797 0.0512205 10.0496 0.00080032 10.1793 0.00080032C10.3089 0.00080032 10.4314 0.0512205 10.5226 0.143257C10.6138 0.234494 10.6643 0.356943 10.6643 0.486595C10.6643 0.616247 10.6138 0.738696 10.5226 0.829932L8.9924 2.35854H10.8219C12.0088 2.35854 12.9748 3.32453 12.9748 4.5114V9.84714C12.9748 11.034 12.0088 12 10.8219 12H2.15286ZM2.15286 3.33013C1.54062 3.33013 1.03561 3.78952 0.97639 4.39856L0.970788 4.5034V9.84794C0.970788 10.4602 1.43017 10.9652 2.03922 11.0244L2.14406 11.03H10.8227C11.435 11.03 11.94 10.5706 11.9992 9.96159L12.0048 9.85674V4.5114C12.0048 3.85994 11.475 3.32933 10.8235 3.32933H2.15286V3.33013ZM3.81993 7.9984C3.55262 7.9984 3.33413 7.78071 3.33413 7.51341V6.17927C3.33413 5.91196 3.55182 5.69348 3.81993 5.69348C4.08803 5.69348 4.30572 5.91116 4.30572 6.17927V7.51341C4.30572 7.78071 4.08803 7.9984 3.81993 7.9984ZM9.15486 7.9976C8.88755 7.9976 8.66987 7.77991 8.66987 7.51261V6.17847C8.66987 5.91116 8.88755 5.69268 9.15486 5.69268C9.42217 5.69268 9.64066 5.91036 9.64066 6.17847V7.51261C9.64066 7.77991 9.42297 7.9976 9.15486 7.9976Z" fill="#1A1A1A"/>
</svg>
