<svg width="16" height="16" viewBox="0 0 16 16" fill="none" xmlns="http://www.w3.org/2000/svg">
<mask id="mask0_1_5309" style="mask-type:luminance" maskUnits="userSpaceOnUse" x="0" y="1" width="16" height="14">
<path d="M7.94179 1C4.10031 1 0.957275 4.25946 0.957275 8.21735C0.957275 11.3604 2.93622 14.0378 5.73003 14.969C6.07926 15.0854 6.19566 14.8526 6.19566 14.6198C6.19566 14.5034 6.19566 13.9213 6.19566 13.3393C4.21672 13.8049 3.86749 12.5245 3.86749 12.5245C3.51827 11.7096 3.05263 11.4768 3.05263 11.4768C2.47059 11.0111 3.05263 11.0111 3.05263 11.0111C3.75108 11.0111 4.10031 11.7096 4.10031 11.7096C4.68235 12.7573 5.73003 12.5245 6.07925 12.2917C6.07925 11.826 6.31207 11.4768 6.54489 11.3604C5.03158 11.244 3.40186 10.5455 3.40186 7.86814C3.40186 7.05328 3.63467 6.47122 4.10031 5.88918C3.9839 5.65636 3.75108 4.95787 4.21672 4.0266C4.21672 4.0266 4.79876 3.79382 6.19566 4.72509C6.77771 4.60868 7.35975 4.49226 7.94179 4.49226C8.52384 4.49226 9.10588 4.60868 9.68792 4.72509C10.9684 3.79382 11.6669 4.0266 11.6669 4.0266C12.0161 4.95787 11.7833 5.77277 11.7833 5.88918C12.2489 6.35481 12.4817 7.05328 12.4817 7.86814C12.4817 10.6619 10.852 11.244 9.3387 11.3604C9.57151 11.5932 9.80433 12.0588 9.80433 12.6409C9.80433 13.5721 9.80433 14.387 9.80433 14.6198C9.80433 14.8526 9.92074 15.0854 10.27 14.969C13.0638 14.0378 15.0427 11.3604 15.0427 8.21735C14.9263 4.25946 11.7833 1 7.94179 1Z" fill="white"/>
</mask>
<g mask="url(#mask0_1_5309)">
<mask id="mask1_1_5309" style="mask-type:luminance" maskUnits="userSpaceOnUse" x="-11" y="-1039" width="1863" height="1165">
<path d="M1851.86 -1038.53H-10.6825V125.556H1851.86V-1038.53Z" fill="white"/>
</mask>
<g mask="url(#mask1_1_5309)">
<path d="M16.0904 -0.164673H-0.206787V16.1325H16.0904V-0.164673Z" fill="#1A1A1A"/>
</g>
</g>
</svg>
