<svg width="16" height="16" viewBox="0 0 16 16" fill="none" xmlns="http://www.w3.org/2000/svg">
<path fill-rule="evenodd" clip-rule="evenodd" d="M3.36431 1.51631C3.33839 1.53278 3.32811 1.76378 3.32262 2.45378L3.31526 3.36944L2.16895 3.37666C1.42212 3.38139 1.02265 3.39368 1.02265 3.41195C1.02265 3.46128 1.21724 4.29766 1.24385 4.36276C1.25795 4.39722 1.30929 4.59709 1.35793 4.80697C1.46109 5.25235 1.45116 5.24015 1.71863 5.25085C1.86334 5.2566 1.92496 5.2696 1.92302 5.29385C1.92149 5.31295 1.91836 6.9858 1.91607 9.01125L1.9119 12.6939L1.83548 12.7245C1.53001 12.8471 1.4852 12.919 1.46728 13.3157L1.45338 13.6236L1.36383 13.6526C1.09157 13.7405 0.989577 13.9202 1.00083 14.292L1.00875 14.5557L3.22494 14.5554C4.44385 14.5552 5.4849 14.555 5.5384 14.5548L5.63565 14.5546V14.2614C5.63565 13.8662 5.56165 13.7352 5.29855 13.6643C5.23945 13.6484 5.19055 13.6202 5.19005 13.6017C5.17505 13.0997 5.16845 13.0321 5.1267 12.952C5.07285 12.8488 4.94239 12.7483 4.86221 12.7483C4.72035 12.7483 4.7248 12.8243 4.73647 10.5898C4.748 8.37495 4.75175 8.30925 4.89111 7.89905C5.2869 6.73445 6.26295 5.91275 7.5131 5.6918C7.9444 5.61555 8.7156 5.6883 9.00475 5.83255C9.0313 5.84575 9.0726 5.85655 9.09665 5.85655C9.16765 5.85655 9.5791 6.0634 9.8051 6.2126C10.3864 6.5966 10.9325 7.32035 11.1092 7.94075C11.1288 8.00955 11.1613 8.1221 11.1814 8.19085C11.2626 8.46745 11.2767 8.84515 11.2768 10.7389L11.2769 12.6618L11.2151 12.705C11.1812 12.7288 11.1354 12.7483 11.1136 12.7483C10.9292 12.7483 10.8045 12.9827 10.8045 13.3291V13.6072L10.6728 13.6654C10.397 13.7874 10.3321 13.9064 10.3321 14.2897C10.3321 14.5233 10.3378 14.5546 10.3807 14.5549C11.503 14.5627 14.9558 14.5512 14.9745 14.5397C14.9888 14.5308 15.0004 14.4148 15 14.282C14.9991 13.9133 14.8932 13.7337 14.6358 13.6643L14.5282 13.6354L14.5277 13.3516C14.5271 12.9516 14.4251 12.7945 14.1128 12.7128L14.0558 12.6979V8.97155V5.2452L14.2573 5.2448C14.543 5.24415 14.517 5.28955 14.725 4.42543C14.7692 4.24202 14.8314 3.99817 14.8632 3.88354C14.9591 3.5386 14.9759 3.45913 14.9611 3.42064C14.9499 3.39125 14.7221 3.3825 13.8136 3.37666L12.6802 3.36944L12.6663 2.4385L12.6525 1.50756L8.02555 1.50096C5.48075 1.49735 3.3832 1.50429 3.36431 1.51631Z" fill="#8A63D2"/>
</svg>
