<svg width="24" height="25" viewBox="0 0 24 25" fill="none" xmlns="http://www.w3.org/2000/svg">
<g clip-path="url(#clip0_1_88)">
<path d="M12 0.453132C12.123 0.453132 12.246 0.455132 12.369 0.459132L12 0.453132C12.2585 0.453205 12.517 0.461543 12.775 0.478132L12.803 0.480132C19.056 0.893132 24 6.09613 24 12.4531C24 16.4771 22.02 20.0381 18.98 22.2151L19.223 22.0371C18.2004 22.8077 17.0614 23.4103 15.849 23.8221C14.6094 24.2427 13.309 24.4559 12 24.4531C5.37299 24.4531 0 19.0801 0 12.4531C0 9.25312 1.252 6.34612 3.293 4.19513L3.372 4.11313L3.451 4.03313L3.293 4.19513C4.2355 3.20257 5.3399 2.37748 6.55899 1.75513L6.61299 1.72713C8.28304 0.887432 10.1267 0.451084 11.996 0.453132H12ZM15.917 3.24913L15.794 3.43113C15.059 4.56113 14.771 5.81613 14.536 6.27112C14.09 7.13412 13.136 7.30212 12.124 7.54812C11.113 7.79412 10.768 11.0361 11.534 11.7681C12.044 12.2561 11.738 12.6881 10.614 13.0651C9.32999 11.6371 8.54099 10.8231 8.24799 10.6221C7.80799 10.3211 5.98599 9.35412 5.71999 8.83812C5.45399 8.32212 5.71999 6.59512 5.38999 5.65813C5.3249 5.49296 5.22338 5.34461 5.09299 5.22413C4.11395 6.1562 3.33485 7.27777 2.80311 8.52056C2.27137 9.76334 1.99812 11.1014 2 12.4531C2 17.9761 6.47699 22.4531 12 22.4531C12.276 22.4531 12.549 22.4421 12.819 22.4201C12.999 21.3421 13.093 20.4011 12.904 19.9821C12.31 18.6661 11.801 17.1891 11.21 16.2621C10.62 15.3351 11.332 14.8571 12.617 13.4361C13.902 12.0161 14.834 12.4581 16.214 13.6541C17.593 14.8491 18.083 14.0281 19.068 14.2361C19.632 14.3551 19.796 16.6001 19.648 18.8951C21.17 17.094 22.0034 14.8112 22 12.4531C22 8.32012 19.493 4.77313 15.917 3.24913ZM12 2.45313C10.08 2.45313 8.24999 2.99513 6.68199 3.98113C6.94499 4.28313 7.14299 4.61613 7.27599 4.99313C7.47899 5.56813 7.54799 6.15313 7.57099 6.95912C7.57499 7.11012 7.57699 7.22112 7.57999 7.48412L7.58599 7.85512C7.62799 7.88512 7.67399 7.91512 7.72199 7.94812C7.82699 8.01812 7.94399 8.09312 8.07399 8.17512C8.21899 8.26512 8.89999 8.67212 9.22799 8.87612C9.51799 7.32212 10.343 5.92313 11.652 5.60513C11.73 5.58513 11.812 5.56613 11.96 5.53113C12.418 5.42113 12.634 5.35813 12.772 5.29513C12.886 4.97013 13.432 3.60713 13.822 2.91413C13.872 2.82413 13.924 2.73513 13.977 2.64813C13.326 2.51807 12.6638 2.45276 12 2.45313ZM17.418 20.8601C17.6128 19.6456 17.7068 18.4171 17.699 17.1871C17.697 16.8701 17.686 16.5771 17.668 16.3171C16.716 16.3251 15.868 16.0011 14.904 15.1651C14.6924 14.9753 14.4686 14.7996 14.234 14.6391C14.1879 14.6837 14.1432 14.7297 14.1 14.7771C13.953 14.9401 13.48 15.4461 13.216 15.7341C13.426 16.1271 13.636 16.5801 13.876 17.1481C13.988 17.4081 14.38 18.3551 14.357 18.3011C14.501 18.6461 14.616 18.9131 14.727 19.1591C15.072 19.9221 15.112 20.6601 14.913 22.0231C15.7981 21.754 16.6412 21.3626 17.418 20.8601Z" fill="#191919"/>
</g>
<defs>
<clipPath id="clip0_1_88">
<rect width="24" height="24" fill="white" transform="translate(0 0.453125)"/>
</clipPath>
</defs>
</svg>
