<svg width="16" height="16" viewBox="0 0 16 16" fill="none" xmlns="http://www.w3.org/2000/svg">
<g clip-path="url(#clip0_0_2568)">
<path fill-rule="evenodd" clip-rule="evenodd" d="M11.0146 5.66785C11.6704 5.12065 12.4021 4.91248 13.1038 4.96512C13.8524 5.02125 14.545 5.3721 15.0624 5.88175C15.5797 6.3914 15.9351 7.0731 15.992 7.8088C16.0494 8.55125 15.8008 9.3288 15.1454 10.0112C15.0855 10.0741 15.0243 10.1361 14.9617 10.1973C11.989 13.1255 8.0404 13.1333 8 13.1333C7.97985 13.1333 4.01845 13.1332 1.03814 10.1971L1.0375 10.1963C0.975975 10.1353 0.915385 10.0739 0.8557 10.0122L0.855225 10.0117C0.199538 9.32985 -0.0492792 8.55245 0.00794417 7.81005C0.064646 7.07445 0.419804 6.3927 0.936975 5.88285C1.4541 5.37305 2.14671 5.0219 2.89537 4.96551C3.59704 4.91267 4.32888 5.1206 4.98504 5.6675C5.0556 4.82397 5.4232 4.16746 5.9568 3.71613C6.52585 3.23475 7.2675 3 7.99985 3C8.7322 3 9.4738 3.23475 10.0428 3.71613C10.5765 4.16752 10.9441 4.82415 11.0146 5.66785ZM10.2331 8.7704C10.1518 8.7704 10.1236 8.8861 10.1755 8.9474C10.2673 9.05595 10.3225 9.19565 10.3225 9.348C10.3225 9.6938 10.0381 9.9741 9.68715 9.9741C9.33615 9.9741 9.0516 9.6938 9.0516 9.348C9.0516 9.3295 9.0271 9.32035 9.01605 9.3353C8.9158 9.47095 8.84815 9.6232 8.8203 9.78305C8.8047 9.87305 8.7304 9.94775 8.63705 9.94775H8.58555C8.4637 9.94775 8.36325 9.8504 8.3812 9.7325C8.50445 8.92465 9.3126 8.33875 10.2331 8.33875C11.1536 8.33875 11.9618 8.92465 12.085 9.7325C12.1029 9.8504 12.0024 9.94775 11.8807 9.94775C11.7588 9.94775 11.6624 9.8499 11.6359 9.73355C11.5154 9.20405 10.9569 8.7704 10.2331 8.7704ZM4.58976 9.348C4.58976 9.3236 4.55767 9.3105 4.54256 9.32995C4.43541 9.4677 4.36241 9.62365 4.3315 9.78805C4.31326 9.88515 4.23308 9.9659 4.13216 9.9659H4.09434C3.97253 9.9659 3.87204 9.8686 3.89 9.75075C4.01318 8.94245 4.82142 8.357 5.7419 8.357C6.6624 8.357 7.47065 8.94245 7.5938 9.75075C7.6118 9.8686 7.5113 9.9659 7.38945 9.9659C7.2677 9.9659 7.1712 9.86815 7.14475 9.7518C7.02435 9.22195 6.46585 8.7886 5.7419 8.7886C5.6761 8.7886 5.652 8.87965 5.69605 8.92745C5.7984 9.0386 5.8608 9.18615 5.8608 9.348C5.8608 9.6938 5.57625 9.9741 5.2253 9.9741C4.87429 9.9741 4.58976 9.6938 4.58976 9.348ZM8.7068 10.858C8.7929 10.7736 8.92595 10.7326 9.03285 10.7897C9.13975 10.8469 9.1803 10.9795 9.10325 11.0719C8.85235 11.3725 8.44615 11.5631 7.99815 11.5631C7.55035 11.5631 7.14325 11.3746 6.89205 11.0716C6.8153 10.9791 6.85635 10.8464 6.96345 10.7897C7.07055 10.7329 7.20335 10.7745 7.28935 10.8588C7.45495 11.0215 7.7062 11.1315 7.99815 11.1315C8.2893 11.1315 8.54085 11.0204 8.7068 10.858Z" fill="#6BC674"/>
</g>
<defs>
<clipPath id="clip0_0_2568">
<rect width="16" height="16" fill="white"/>
</clipPath>
</defs>
</svg>
