<svg width="100" height="100" viewBox="0 0 100 100" fill="none" xmlns="http://www.w3.org/2000/svg">
<rect width="100" height="100" rx="50" fill="#01DB83"/>
<g clip-path="url(#clip0_1_11)">
<path d="M17.9834 53.136C17.787 52.608 17.6028 52.1905 17.4432 51.8713C17.2836 51.552 17.1117 51.3064 16.952 51.1345C16.7924 50.9626 16.5591 50.7785 16.2522 50.5943C15.9452 50.4101 15.54 50.2014 14.9998 49.9681V49.7962C15.54 49.5875 15.9698 49.4033 16.2767 49.2437C16.5837 49.084 16.8293 48.9121 17.0134 48.7525C17.1853 48.5806 17.3695 48.3473 17.5537 48.0404C17.7379 47.7334 17.9466 47.3282 18.1676 46.8125H18.3395C18.536 47.3405 18.7202 47.7702 18.8798 48.0772C19.0394 48.3964 19.2113 48.642 19.3709 48.8139C19.5305 48.9858 19.7638 49.1577 20.0708 49.3419C20.3778 49.5261 20.783 49.7348 21.3232 49.9804V50.1523C20.783 50.361 20.3532 50.5452 20.0462 50.7048C19.7393 50.8644 19.4937 51.0363 19.3095 51.1959C19.1376 51.3556 18.9534 51.5889 18.7693 51.8958C18.5851 52.2028 18.3764 52.608 18.1553 53.136H17.9834Z" fill="black"/>
<path d="M21.8392 64.5082C20.2062 65.2203 18.3767 64.4468 17.64 62.7401C16.891 61.0333 17.5786 59.167 19.2116 58.4671C20.8447 57.755 22.6496 58.5285 23.3986 60.2475C24.1353 61.9419 23.4723 63.796 21.8392 64.5082ZM19.6905 59.5599C18.6223 60.0265 18.1557 61.2789 18.61 62.3226C19.0643 63.3663 20.2799 63.8574 21.3481 63.3908C22.4163 62.9242 22.8706 61.7087 22.4163 60.665C21.9743 59.6213 20.7587 59.0933 19.6905 59.5599Z" fill="black"/>
<path d="M26.996 70.5387C25.8909 71.4228 24.6876 71.2386 23.7176 70.023L22.8704 68.967L21.4461 70.1089L20.7094 69.1881L25.5348 65.3203L27.1188 67.2972C28.101 68.5005 28.0642 69.6792 26.996 70.5387ZM26.2715 69.6792C26.8609 69.2003 26.8363 68.5741 26.2838 67.8865L25.4734 66.8797L23.693 68.3163L24.5034 69.3231C25.056 70.0107 25.6576 70.1703 26.2715 69.6792Z" fill="black"/>
<path d="M33.7005 73.7191L33.0743 74.5418L30.3976 72.5158L29.4767 73.7314L31.871 75.5487L31.2448 76.3713L28.8505 74.5541L27.9173 75.7942L30.68 77.8816L30.0538 78.7042L26.3456 75.9047L30.0783 70.9688L33.7005 73.7191Z" fill="black"/>
<path d="M36.7324 75.6563L38.1076 80.7765L39.6915 76.8473L40.7597 77.2771L38.4514 83.0112L37.4077 82.5937L36.0325 77.4858L34.4486 81.4027L33.368 80.9729L35.6764 75.2266L36.7324 75.6563Z" fill="black"/>
<path d="M47.9179 80.3999C47.8442 81.0752 47.3777 81.5418 46.6901 81.64C47.4882 81.8856 47.9179 82.524 47.8197 83.3467C47.6969 84.4027 46.7515 84.9429 45.3517 84.7833L42.5399 84.4641L43.2521 78.3125L45.9779 78.6317C47.2794 78.7668 48.0161 79.4421 47.9179 80.3999ZM46.6041 83.052C46.6655 82.5486 46.248 82.1925 45.499 82.1188L44.0011 81.947L43.8169 83.5677L45.3149 83.7396C46.0639 83.8378 46.5427 83.58 46.6041 83.052ZM46.6901 80.4735C46.7392 80.0069 46.4077 79.6877 45.7937 79.6263L44.2957 79.4544L44.1238 80.9524L45.6218 81.1243C46.2235 81.1857 46.6287 80.9524 46.6901 80.4735Z" fill="black"/>
<path d="M54.0203 83.916C54.9412 83.7809 55.4446 83.1179 55.2972 82.1356L54.757 78.5625L55.9234 78.3906L56.4637 81.9637C56.7093 83.5722 55.8375 84.7264 54.1676 84.9719C52.4977 85.2175 51.2944 84.3826 51.0611 82.7741L50.5209 79.201L51.6873 79.0291L52.2276 82.6022C52.3872 83.5599 53.0994 84.051 54.0203 83.916Z" fill="black"/>
<path d="M59.8906 77.5156L62.1007 83.2988L60.9957 83.7163L58.7855 77.9331L59.8906 77.5156Z" fill="black"/>
<path d="M63.8945 75.7109L66.5712 80.0698L68.8427 78.6701L69.4076 79.5787L66.1169 81.5924L62.8754 76.3126L63.8945 75.7109Z" fill="black"/>
<path d="M74.3787 71.1586C75.6679 72.4233 75.6311 74.3019 74.2927 75.6649L72.5246 77.4698L68.1166 73.1355L69.9216 71.306C71.2231 69.9553 73.0772 69.8939 74.3787 71.1586ZM73.5315 72.0304C72.672 71.1832 71.4441 71.2078 70.6337 72.0304L69.676 73.0127L72.5983 75.8859L73.5929 74.879C74.391 74.0687 74.391 72.8776 73.5315 72.0304Z" fill="black"/>
<path d="M79.3024 59.5633C79.9409 59.7966 80.2847 60.3614 80.211 61.049C80.6408 60.3246 81.3652 60.0667 82.1388 60.3614C83.1333 60.7298 83.4403 61.7735 82.9492 63.0996L81.9669 65.7517L76.1591 63.603L77.1168 61.0245C77.5711 59.7843 78.4061 59.2318 79.3024 59.5633ZM79.0814 60.7666C78.6394 60.607 78.2587 60.8526 78.05 61.4297L77.5343 62.8417L78.9463 63.3574L79.462 61.9454C79.6708 61.3928 79.5357 60.9385 79.0814 60.7666ZM81.574 61.4542C81.1074 61.2823 80.6531 61.5893 80.4075 62.3014L79.8918 63.7135L81.4266 64.2783L81.9423 62.8663C82.2002 62.1787 82.0651 61.6384 81.574 61.4542Z" fill="black"/>
<path d="M84.1646 54.4692C84.2506 53.536 83.7226 52.8976 82.7403 52.7993L79.1427 52.4678L79.2532 51.2891L82.8508 51.6206C84.4716 51.7679 85.3802 52.8853 85.2329 54.5674C85.0855 56.2496 83.9805 57.2196 82.3597 57.0723L78.7621 56.7407L78.8726 55.562L82.4702 55.8935C83.4279 55.9672 84.0787 55.4024 84.1646 54.4692Z" fill="black"/>
<path d="M79.3397 47.2222L85.479 46.4609L85.6263 47.6397L79.4871 48.4009L79.3397 47.2222Z" fill="black"/>
<path d="M78.5535 42.9214L83.4281 41.3497L82.6054 38.8081L83.6246 38.4766L84.8033 42.1478L78.9096 44.0387L78.5535 42.9214Z" fill="black"/>
<path d="M76.615 31.6935C78.1498 30.7358 79.9671 31.2146 80.9739 32.8354L82.3123 34.9842L77.057 38.2625L75.6941 36.0769C74.6996 34.4685 75.0679 32.6512 76.615 31.6935ZM77.2535 32.7126C76.2221 33.3511 75.9642 34.5421 76.5782 35.5244L77.3026 36.6909L80.7897 34.5176L80.0407 33.3143C79.4391 32.3565 78.2726 32.0741 77.2535 32.7126Z" fill="black"/>
<path d="M66.0179 25.6267L66.6196 24.7672L68.2035 25.8723L71.1381 21.6484L72.1204 22.3238L69.1858 26.5476L70.7697 27.6526L70.1681 28.5121L66.0179 25.6267Z" fill="black"/>
<path d="M63.1922 24.0156L64.1008 21.5353L61.2031 20.4671L60.2945 22.9473L59.1771 22.5421L61.3136 16.7344L62.4309 17.1396L61.5592 19.497L64.4569 20.5653L65.3287 18.2078L66.446 18.613L64.3096 24.4207L63.1922 24.0156Z" fill="black"/>
<path d="M52.1064 21.1795L52.2047 20.1481L55.5444 20.455L55.6795 18.9325L52.6835 18.6624L52.7818 17.631L55.7777 17.9011L55.9128 16.354L52.4748 16.047L52.573 15.0156L57.1898 15.4331L56.6249 21.5846L52.1064 21.1795Z" fill="black"/>
<path d="M40.7727 22.7298L40.4535 21.7229L42.2953 21.1458L40.7605 16.2467L41.9024 15.8906L43.4372 20.7898L45.279 20.2127L45.5982 21.2195L40.7727 22.7298Z" fill="black"/>
<path d="M32.1898 20.1152L34.0561 21.1221C34.1175 21.073 34.1666 21.0361 34.2403 20.9993L35.4313 20.2749L34.4859 18.7155L35.4927 18.1016L38.7097 23.3936L36.4995 24.732C35.1366 25.5669 33.9579 25.3827 33.258 24.2163C32.7546 23.3813 32.7546 22.5587 33.258 21.8588L31.0233 20.8151L32.1898 20.1152ZM35.9716 21.1712L34.7806 21.8956C34.0193 22.3499 33.7983 22.9393 34.2035 23.6024C34.5964 24.2531 35.2103 24.3145 35.9716 23.8479L37.1626 23.1235L35.9716 21.1712Z" fill="black"/>
<path d="M26.6644 25.6518C26.0136 26.3271 26.0382 27.162 26.7503 27.8496L29.3657 30.3299L28.5553 31.1894L25.9277 28.7091C24.7489 27.5918 24.7244 26.1429 25.8908 24.9273C27.0573 23.6995 28.5185 23.6258 29.6972 24.7431L32.3125 27.2234L31.5021 28.0829L28.8745 25.6026C28.1624 24.9273 27.3029 24.9764 26.6644 25.6518Z" fill="black"/>
<path d="M24.8349 34.3879C25.1051 33.8968 25.1051 33.4793 24.7735 33.2951C23.6808 32.6935 22.6616 35.9227 20.7216 34.8422C19.7025 34.2774 19.6043 33.0741 20.2673 31.8831C20.7462 31.0113 21.5566 30.3605 22.4038 30.0781L23.0423 30.999C22.2442 31.2814 21.532 31.8462 21.2128 32.4356C20.8935 33.025 20.9181 33.4793 21.2987 33.688C22.4283 34.3142 23.3983 31.0481 25.3261 32.1164C26.2715 32.6443 26.4189 33.7862 25.7558 35.0018C25.3629 35.7263 24.7244 36.3156 24.0982 36.6471L23.4352 35.7385C24.0859 35.3333 24.6016 34.8054 24.8349 34.3879Z" fill="black"/>
<path d="M22.2083 43.3791L21.1892 43.0967L21.7049 41.2426L16.7567 39.8674L17.0759 38.7132L22.0242 40.0884L22.5398 38.2344L23.559 38.5168L22.2083 43.3791Z" fill="black"/>
<mask id="mask0_1_11" style="mask-type:luminance" maskUnits="userSpaceOnUse" x="38" y="30" width="32" height="40">
<path d="M38.1191 35.4998C45.5108 29.0535 56.7211 29.1763 63.9655 36.0891C71.6396 43.3949 71.9343 55.5752 64.6162 63.2616C57.5561 70.6778 45.9529 71.2181 38.2296 64.6245L43.7673 58.8045C48.2612 62.3652 54.7934 61.9723 58.8085 57.7485C63.0691 53.2668 62.9095 46.1698 58.4401 41.9092C54.4005 38.0537 48.2612 37.8204 43.9514 41.0742L38.1191 35.4998Z" fill="white"/>
</mask>
<g mask="url(#mask0_1_11)">
<path d="M72.0573 28.9219H37.9966V71.3197H72.0573V28.9219Z" fill="black"/>
</g>
<mask id="mask1_1_11" style="mask-type:luminance" maskUnits="userSpaceOnUse" x="30" y="38" width="19" height="24">
<path d="M36.18 38.3828L42.2211 44.387L48.0656 50.1948L42.1965 55.9902L36.1309 61.9576L30.5073 56.3709L36.7939 50.1702L30.5319 43.945L36.18 38.3828Z" fill="white"/>
</mask>
<g mask="url(#mask1_1_11)">
<path d="M48.1887 38.2578H30.3848V62.0782H48.1887V38.2578Z" fill="black"/>
</g>
</g>
<defs>
<clipPath id="clip0_1_11">
<rect width="70.6262" height="70" fill="white" transform="translate(15 15)"/>
</clipPath>
</defs>
</svg>
