<svg width="24" height="24" viewBox="0 0 24 24" fill="none" xmlns="http://www.w3.org/2000/svg">
<g clip-path="url(#clip0_1_82)">
<path d="M12 0C18.627 0 24 5.373 24 12C24 12.2652 23.8946 12.5195 23.7071 12.707C23.5195 12.8945 23.2652 12.9998 23 12.9998C22.7348 12.9998 22.4805 12.8945 22.2929 12.707C22.1054 12.5195 22 12.2652 22 12C22 6.477 17.523 2 12 2C6.477 2 2 6.477 2 12C2.0002 13.4661 2.32268 14.9143 2.94462 16.242C3.56656 17.5697 4.47275 18.7444 5.59904 19.683C6.72533 20.6216 8.04418 21.3012 9.46223 21.6736C10.8803 22.046 12.3629 22.1021 13.805 21.838C14.0626 21.7981 14.3256 21.8603 14.538 22.0114C14.7504 22.1626 14.8954 22.3907 14.9421 22.6471C14.9887 22.9036 14.9334 23.1682 14.7879 23.3844C14.6424 23.6007 14.4182 23.7516 14.163 23.805C13.4494 23.9352 12.7254 24.0005 12 24C11.302 24 10.612 23.94 9.934 23.823C4.225 22.83 0 17.858 0 12C0 5.373 5.373 0 12 0Z" fill="#191919"/>
<path d="M12.0001 2.99219C10.6741 2.99219 9.40229 3.51897 8.46461 4.45665C7.52693 5.39434 7.00015 6.66611 7.00015 7.99219C7.00015 9.31827 7.52693 10.59 8.46461 11.5277C9.40229 12.4654 10.6741 12.9922 12.0001 12.9922C13.3262 12.9922 14.598 12.4654 15.5357 11.5277C16.4734 10.59 17.0001 9.31827 17.0001 7.99219C17.0001 6.66611 16.4734 5.39434 15.5357 4.45665C14.598 3.51897 13.3262 2.99219 12.0001 2.99219ZM12.0001 4.99219C12.7958 4.99219 13.5589 5.30826 14.1215 5.87087C14.6841 6.43348 15.0001 7.19654 15.0001 7.99219C15.0001 8.78784 14.6841 9.5509 14.1215 10.1135C13.5589 10.6761 12.7958 10.9922 12.0001 10.9922C11.2045 10.9922 10.4414 10.6761 9.87883 10.1135C9.31622 9.5509 9.00015 8.78784 9.00015 7.99219C9.00015 7.19654 9.31622 6.43348 9.87883 5.87087C10.4414 5.30826 11.2045 4.99219 12.0001 4.99219ZM14.0001 13.9922C14.2549 13.9927 14.4999 14.0905 14.6851 14.2655C14.8702 14.4406 14.9816 14.6797 14.9964 14.9341C15.0112 15.1884 14.9283 15.4389 14.7647 15.6342C14.6011 15.8296 14.3692 15.9551 14.1161 15.9852L13.9991 15.9922H9.80015C8.71657 15.9921 7.66934 16.383 6.85078 17.093C6.03221 17.803 5.49726 18.7845 5.34415 19.8572C5.30294 20.1161 5.16167 20.3486 4.95076 20.5044C4.73985 20.6602 4.47618 20.7269 4.21655 20.6902C3.95692 20.6535 3.72209 20.5162 3.56266 20.3081C3.40322 20.0999 3.33193 19.8374 3.36415 19.5772C3.57893 18.0688 4.31667 16.6838 5.44857 15.6639C6.58047 14.6441 8.03462 14.0542 9.55715 13.9972L9.80015 13.9922H14.0001Z" fill="#191919"/>
<path d="M17 13.9922H23C23.6667 13.9922 24 14.3255 24 14.9922C24 15.6589 23.6667 15.9922 23 15.9922H17C16.3333 15.9922 16 15.6589 16 14.9922C16 14.3255 16.3333 13.9922 17 13.9922Z" fill="#191919"/>
<path d="M17.0001 18.0002H23.0001C23.6667 18.0002 24.0001 18.3336 24.0001 19.0002C24.0001 19.6669 23.6667 20.0002 23.0001 20.0002H17.0001C16.3334 20.0002 16.0001 19.6669 16.0001 19.0002C16.0001 18.3336 16.3334 18.0002 17.0001 18.0002Z" fill="#191919"/>
<path d="M17 22H23C23.6667 22 24 22.3333 24 23C24 23.6667 23.6667 24 23 24H17C16.3333 24 16 23.6667 16 23C16 22.3333 16.3333 22 17 22Z" fill="#191919"/>
</g>
<defs>
<clipPath id="clip0_1_82">
<rect width="24" height="24" fill="white"/>
</clipPath>
</defs>
</svg>
