<svg width="43" height="9" viewBox="0 0 43 9" fill="none" xmlns="http://www.w3.org/2000/svg">
<path d="M4.87793 2.8291L3.36914 8H2.33398L0.43457 0.954102H1.57227L2.86621 6.34961H2.93457L4.4043 0.954102H5.41992L6.89941 6.34961H6.96777L8.25684 0.954102H9.39453L7.49023 8H6.45996L4.94629 2.8291H4.87793ZM11.851 3.47363C11.0746 3.47363 10.5326 4.02051 10.474 4.85059H13.1596C13.1352 4.01562 12.6273 3.47363 11.851 3.47363ZM13.1547 6.56445H14.1654C13.9359 7.51172 13.0766 8.10254 11.8607 8.10254C10.3373 8.10254 9.40469 7.05762 9.40469 5.3584C9.40469 3.65918 10.3568 2.58008 11.8559 2.58008C13.3354 2.58008 14.2289 3.59082 14.2289 5.26074V5.62695H10.474V5.68555C10.5082 6.61816 11.0502 7.20898 11.89 7.20898C12.5248 7.20898 12.9594 6.97949 13.1547 6.56445ZM17.9061 8.08789C17.1639 8.08789 16.5437 7.74609 16.2264 7.16016H16.1482V8H15.1375V0.607422H16.1873V3.52734H16.2703C16.5535 2.94629 17.1785 2.59473 17.9061 2.59473C19.2537 2.59473 20.1033 3.64941 20.1033 5.33887C20.1033 7.02344 19.2488 8.08789 17.9061 8.08789ZM17.6033 3.53711C16.7244 3.53711 16.1727 4.23047 16.1678 5.34375C16.1727 6.45703 16.7195 7.14551 17.6033 7.14551C18.492 7.14551 19.0242 6.4668 19.0242 5.33887C19.0242 4.2207 18.492 3.53711 17.6033 3.53711ZM22.5061 4.83105V3.93262H23.3557C24.1174 3.93262 24.6447 3.46875 24.6447 2.80957C24.6447 2.2041 24.176 1.72559 23.385 1.72559C22.5842 1.72559 22.0715 2.13086 22.008 2.85352H20.9729C21.0461 1.6377 21.9641 0.783203 23.4484 0.783203C24.9035 0.783203 25.7287 1.65234 25.7238 2.6582C25.7189 3.5127 25.1867 4.07422 24.4494 4.27441V4.35742C25.3869 4.49902 25.9924 5.12402 25.9924 6.09082C25.9924 7.29199 24.884 8.1709 23.4143 8.1709C21.925 8.1709 20.8996 7.35059 20.841 6.0957H21.8908C21.9543 6.76953 22.5451 7.2041 23.3996 7.2041C24.2639 7.2041 24.8693 6.72559 24.8693 6.01758C24.8693 5.28516 24.3029 4.83105 23.385 4.83105H22.5061ZM27.4283 8.08301C27.0182 8.08301 26.7105 7.76562 26.7105 7.35547C26.7105 6.94531 27.0182 6.62793 27.4283 6.62793C27.8434 6.62793 28.1461 6.94531 28.1461 7.35547C28.1461 7.76562 27.8434 8.08301 27.4283 8.08301ZM32.1846 8.08789C31.4424 8.08789 30.8223 7.74609 30.5049 7.16016H30.4268V8H29.416V0.607422H30.4658V3.52734H30.5488C30.832 2.94629 31.457 2.59473 32.1846 2.59473C33.5322 2.59473 34.3818 3.64941 34.3818 5.33887C34.3818 7.02344 33.5273 8.08789 32.1846 8.08789ZM31.8818 3.53711C31.0029 3.53711 30.4512 4.23047 30.4463 5.34375C30.4512 6.45703 30.998 7.14551 31.8818 7.14551C32.7705 7.14551 33.3027 6.4668 33.3027 5.33887C33.3027 4.2207 32.7705 3.53711 31.8818 3.53711ZM35.266 8V2.68262H36.3109V8H35.266ZM35.7885 1.75977C35.4223 1.75977 35.1244 1.45215 35.1244 1.07617C35.1244 0.695312 35.4223 0.387695 35.7885 0.387695C36.1547 0.387695 36.4525 0.695312 36.4525 1.07617C36.4525 1.45215 36.1547 1.75977 35.7885 1.75977ZM39.7 8.10254C38.1424 8.10254 37.1902 7.0625 37.1902 5.33887C37.1902 3.625 38.1473 2.58008 39.7 2.58008C41.2479 2.58008 42.2049 3.625 42.2049 5.33887C42.2049 7.0625 41.2527 8.10254 39.7 8.10254ZM39.7 7.16992C40.6082 7.16992 41.1258 6.49609 41.1258 5.33887C41.1258 4.18652 40.6082 3.5127 39.7 3.5127C38.7869 3.5127 38.2742 4.18652 38.2742 5.33887C38.2742 6.50098 38.7869 7.16992 39.7 7.16992Z" fill="url(#paint0_linear_0_2624)"/>
<defs>
<linearGradient id="paint0_linear_0_2624" x1="0" y1="4" x2="43" y2="4" gradientUnits="userSpaceOnUse">
<stop stop-color="#FFC699"/>
<stop offset="0.32" stop-color="#7FC4FF"/>
<stop offset="0.665" stop-color="#FFB5B2"/>
<stop offset="1" stop-color="#CC8CFF"/>
</linearGradient>
</defs>
</svg>
