<svg width="13" height="13" viewBox="0 0 13 13" fill="none" xmlns="http://www.w3.org/2000/svg">
<path d="M4.34021 9.25235C4.46441 9.25235 4.58021 9.31519 4.64783 9.41934C4.7153 9.52352 4.72663 9.65537 4.67615 9.76895L3.76501 11.8139C3.70601 11.946 3.57508 12.0315 3.43005 12.0316H1.1449C0.773003 12.0316 0.429513 11.8454 0.226929 11.5336C0.0243778 11.2218 -0.00644813 10.8322 0.144897 10.4926L0.600952 9.47012C0.629855 9.4053 0.676188 9.34959 0.735718 9.31094C0.795224 9.27232 0.864978 9.25238 0.935913 9.25235H4.34021ZM0.816772 10.7914C0.766256 10.9051 0.775359 11.0291 0.84314 11.1332C0.910808 11.2374 1.02069 11.2973 1.1449 11.2973H3.1908L3.7738 9.98672H1.17517L0.816772 10.7914ZM5.03259 0.0502014C5.09382 0.0502105 5.15457 0.0649178 5.20837 0.0941467C5.2621 0.123372 5.30789 0.165888 5.34119 0.217194C5.37448 0.268532 5.39403 0.328063 5.3988 0.389069C5.4035 0.449887 5.39333 0.511069 5.36853 0.566803L4.23279 3.11758H5.7074C5.83173 3.11758 5.9484 3.18022 6.01599 3.28458C6.08348 3.38878 6.09386 3.52058 6.04333 3.63419L4.90759 6.18497H5.70544C5.76667 6.18498 5.82742 6.19969 5.88123 6.22891C5.93503 6.25814 5.9807 6.3006 6.01404 6.35196C6.04737 6.40332 6.06687 6.46279 6.07166 6.52383C6.07636 6.58469 6.06621 6.6458 6.04138 6.70157L5.13025 8.74649C5.10144 8.81134 5.05499 8.867 4.99548 8.90567C4.93599 8.94431 4.86622 8.96427 4.79529 8.96426H2.51013C2.13823 8.96426 1.79474 8.77827 1.59216 8.46622C1.39033 8.15538 1.35992 7.76795 1.50916 7.42911L1.51013 7.4252H1.51111V7.42422L2.1908 5.89688H1.83533C1.46362 5.89679 1.12089 5.71041 0.918335 5.39883C0.715747 5.08702 0.68488 4.69775 0.836304 4.35782L2.65662 0.267975C2.68552 0.203087 2.73277 0.147466 2.79236 0.108795C2.85191 0.0701839 2.92158 0.0501823 2.99255 0.0502014H5.03259ZM1.5072 4.65665C1.45672 4.77012 1.4667 4.89432 1.53455 4.99844C1.60225 5.10268 1.71216 5.16251 1.8363 5.16251H2.7572C2.88136 5.16258 2.99725 5.22534 3.06482 5.3295C3.13234 5.43374 3.14276 5.56547 3.09216 5.67911L2.18298 7.72305L2.18201 7.72501L2.18103 7.72598C2.13153 7.83909 2.14129 7.96234 2.20837 8.06583C2.27607 8.17006 2.38599 8.22988 2.51013 8.22989H4.55603L5.14001 6.91934H4.34216C4.28099 6.91933 4.22015 6.90457 4.16638 6.8754C4.11261 6.84619 4.0669 6.80367 4.03357 6.75235C4.00024 6.70099 3.98073 6.64152 3.97595 6.58047C3.97125 6.51959 3.98137 6.45853 4.00623 6.40274L5.14197 3.85196H3.66736C3.60622 3.85195 3.54629 3.83618 3.49255 3.80704C3.43892 3.7779 3.39305 3.73611 3.35974 3.68497C3.32641 3.6336 3.30593 3.57414 3.30115 3.51309C3.29641 3.45227 3.30666 3.3911 3.33142 3.33536L4.46716 0.784576H3.23181L1.5072 4.65665Z" fill="#1A1A1A" stroke="#1A1A1A" stroke-width="0.1"/>
<path d="M12.0042 1.07291C12.2071 1.07291 12.3723 1.23719 12.3723 1.44009V3.48502C12.3723 3.68792 12.2071 3.8522 12.0042 3.8522H10.8479V9.25259H12.4573C12.6602 9.25259 12.8254 9.41687 12.8254 9.61978V11.6647C12.8254 11.8672 12.6601 12.0319 12.4573 12.0319H5.53931C5.47807 12.0319 5.41733 12.0162 5.36353 11.987C5.30986 11.9577 5.26398 11.9152 5.23071 11.8639C5.19755 11.8127 5.17788 11.7539 5.1731 11.693C5.16831 11.632 5.17844 11.5702 5.20337 11.5143L6.1145 9.46939C6.14337 9.40484 6.18999 9.34975 6.24927 9.31119C6.30874 9.27259 6.37857 9.25167 6.44946 9.25162H8.06763V3.8522H6.90454C6.7019 3.85199 6.53749 3.68768 6.53735 3.48502V1.44009C6.53735 1.23732 6.70181 1.07312 6.90454 1.07291H12.0042ZM7.27173 2.39127C7.28109 2.43845 7.28114 2.48654 7.27173 2.53384V3.11685H8.43481C8.63772 3.11685 8.80298 3.28211 8.80298 3.48502V9.61978C8.80272 9.82246 8.63756 9.98697 8.43481 9.98697H6.68774L6.10474 11.2965H12.0901V9.98697H10.4797C10.2772 9.98676 10.1128 9.82233 10.1125 9.61978V3.48502C10.1125 3.28224 10.277 3.11804 10.4797 3.11783H11.637V1.80728H7.27173V2.39127Z" fill="#1A1A1A" stroke="#1A1A1A" stroke-width="0.1"/>
</svg>
