<svg width="16" height="16" viewBox="0 0 16 16" fill="none" xmlns="http://www.w3.org/2000/svg">
<path d="M14.6667 10.9226V5.07736C14.6667 4.63576 14.3766 4.24759 13.9483 4.14013C12.7896 3.84946 10.3948 3.33333 8.00004 3.33333C5.60527 3.33333 3.21049 3.84946 2.05176 4.14013C1.62343 4.24759 1.33337 4.63576 1.33337 5.07736V10.9226C1.33337 11.3642 1.62343 11.7524 2.05176 11.8599C3.21048 12.1505 5.60527 12.6667 8.00004 12.6667C10.3948 12.6667 12.7896 12.1505 13.9483 11.8599C14.3766 11.7524 14.6667 11.3642 14.6667 10.9226Z" stroke="#1A1A1A"/>
<path d="M7.5245 9.96621C7.30357 10.1208 7 9.96281 7 9.69311V6.30691C7 6.03721 7.30357 5.87917 7.5245 6.03381L9.94323 7.72694C10.1328 7.85964 10.1328 8.14037 9.94323 8.27307L7.5245 9.96621Z" stroke="#1A1A1A" stroke-linejoin="round"/>
</svg>
