<svg width="81" height="76" viewBox="0 0 81 76" fill="none" xmlns="http://www.w3.org/2000/svg">
<path d="M34.3967 36.4422L34.3968 36.4421L36.6279 31.1118C36.6927 30.9912 36.7609 30.8626 36.8322 30.7279C37.2347 29.9684 37.7397 29.0153 38.3274 28.1963C38.6752 27.7116 39.0355 27.2982 39.3986 27.0099C39.7628 26.7208 40.0923 26.5869 40.3901 26.5869C40.6879 26.5869 41.0172 26.7208 41.3812 27.0099C41.7442 27.2981 42.1042 27.7115 42.4519 28.1962C43.036 29.0105 43.5383 29.9568 43.9404 30.7144C44.0145 30.8541 44.0852 30.9873 44.1524 31.1121L46.3835 36.4421L46.3835 36.4422C47.8224 39.8785 50.555 42.6112 53.9914 44.0501L53.9914 44.0501L59.3217 46.2812C59.4424 46.346 59.571 46.4142 59.7056 46.4855C60.4652 46.888 61.4182 47.393 62.2373 47.9807C62.722 48.3285 63.1354 48.6888 63.4236 49.0519C63.7127 49.4161 63.8466 49.7456 63.8466 50.0434C63.8466 50.3413 63.7127 50.6706 63.4237 51.0346C63.1355 51.3975 62.7221 51.7576 62.2374 52.1052C61.423 52.6894 60.4767 53.1916 59.7191 53.5937C59.5795 53.6678 59.4462 53.7385 59.3214 53.8057L53.9914 56.0368L53.9914 56.0368C50.555 57.4757 47.8224 60.2083 46.3835 63.6447L46.3835 63.6448L44.1523 68.975C44.0875 69.0957 44.0194 69.2243 43.948 69.359C43.5455 70.1185 43.0406 71.0715 42.4528 71.8906C42.105 72.3753 41.7448 72.7887 41.3816 73.0769C41.0174 73.366 40.688 73.5 40.3901 73.5C40.0923 73.5 39.763 73.3661 39.399 73.077C39.036 72.7888 38.676 72.3754 38.3283 71.8907C37.7442 71.0763 37.2419 70.13 36.8398 69.3724C36.7657 69.2328 36.695 69.0996 36.6278 68.9748L34.3968 63.6448L34.3967 63.6447C32.9578 60.2083 30.2252 57.4757 26.7888 56.0368L26.7888 56.0368L21.4585 53.8056C21.3378 53.7408 21.2093 53.6727 21.0746 53.6013C20.315 53.1989 19.362 52.6939 18.5429 52.1061C18.0583 51.7584 17.6448 51.3981 17.3566 51.035C17.0675 50.6708 16.9336 50.3413 16.9336 50.0434C16.9336 49.7456 17.0675 49.4163 17.3565 49.0523C17.6448 48.6894 18.0582 48.3293 18.5429 47.9816C19.3572 47.3975 20.3035 46.8952 21.0611 46.4931C21.2008 46.419 21.334 46.3483 21.4588 46.2811L26.7888 44.0501L26.7888 44.0501C30.2252 42.6112 32.9578 39.8785 34.3967 36.4422Z" fill="url(#paint0_linear_665_209447)" stroke="white"/>
<path d="M61.802 9.67585L61.802 9.6758L63.222 6.2835C63.2629 6.20719 63.3057 6.12658 63.3501 6.04267C63.6071 5.55778 63.9225 4.96271 64.2896 4.45116C64.5066 4.14873 64.7252 3.89987 64.9384 3.73061C65.1527 3.5605 65.3241 3.5 65.4584 3.5C65.5926 3.5 65.7639 3.56048 65.9781 3.73055C66.1912 3.89978 66.4096 4.14863 66.6266 4.45108C66.9914 4.95966 67.305 5.55036 67.5617 6.0339C67.6079 6.12104 67.6524 6.20469 67.6949 6.28376L69.1147 9.6758L69.1148 9.67585C70.051 11.9119 71.8291 13.69 74.0651 14.6262L74.0652 14.6263L77.4575 16.0462C77.5338 16.0872 77.6144 16.1299 77.6983 16.1744C78.1832 16.4314 78.7783 16.7468 79.2898 17.1138C79.5923 17.3308 79.8411 17.5494 80.0104 17.7626C80.1805 17.9769 80.241 18.1483 80.241 18.2826C80.241 18.4169 80.1805 18.5881 80.0104 18.8023C79.8412 19.0154 79.5924 19.2338 79.2899 19.4508C78.7813 19.8156 78.1906 20.1292 77.7071 20.3859C77.6199 20.4322 77.5363 20.4766 77.4572 20.5191L74.0652 21.939L74.0651 21.939C71.8291 22.8753 70.051 24.6534 69.1148 26.8894L69.1147 26.8894L67.6948 30.2817C67.6538 30.358 67.6111 30.4386 67.5666 30.5226C67.3096 31.0074 66.9942 31.6025 66.6272 32.1141C66.4102 32.4165 66.1916 32.6653 65.9784 32.8346C65.7641 33.0047 65.5927 33.0652 65.4584 33.0652C65.3241 33.0652 65.1529 33.0047 64.9387 32.8347C64.7256 32.6654 64.5072 32.4166 64.2902 32.1141C63.9254 31.6056 63.6118 31.0148 63.3551 30.5313C63.3088 30.4442 63.2644 30.3605 63.2219 30.2815L61.802 26.8894L61.802 26.8894C60.8657 24.6533 59.0876 22.8753 56.8516 21.939L56.8516 21.939L53.4593 20.519C53.383 20.4781 53.3024 20.4353 53.2185 20.3909C52.7336 20.1339 52.1385 19.8185 51.6269 19.4514C51.3245 19.2344 51.0757 19.0158 50.9064 18.8026C50.7363 18.5883 50.6758 18.4169 50.6758 18.2826C50.6758 18.1484 50.7363 17.9771 50.9063 17.7629C51.0756 17.5498 51.3244 17.3314 51.6269 17.1144C52.1354 16.7496 52.7262 16.436 53.2097 16.1793C53.2968 16.1331 53.3805 16.0886 53.4595 16.0461L56.8516 14.6263L56.8516 14.6262C59.0876 13.69 60.8657 11.9119 61.802 9.67585Z" fill="url(#paint1_linear_665_209447)" fill-opacity="0.7" stroke="white"/>
<path d="M15.4975 16.8592L15.4975 16.8592L16.517 14.4237C16.5461 14.3693 16.5763 14.3124 16.6075 14.2535C16.7927 13.9043 17.0145 13.4859 17.2726 13.1262C17.425 12.9138 17.5736 12.7461 17.7128 12.6356C17.8531 12.5243 17.9465 12.5 18 12.5C18.0535 12.5 18.1467 12.5242 18.2869 12.6356C18.4261 12.746 18.5746 12.9136 18.727 13.1261C18.9835 13.4837 19.204 13.8989 19.3889 14.2471C19.4214 14.3083 19.4528 14.3675 19.4831 14.4239L20.5025 16.8592L20.5025 16.8592C21.1906 18.5026 22.4974 19.8094 24.1408 20.4975L24.1408 20.4975L26.5763 21.517C26.6307 21.5461 26.6876 21.5763 26.7465 21.6075C27.0957 21.7927 27.5141 22.0145 27.8738 22.2726C28.0862 22.425 28.2539 22.5736 28.3644 22.7128C28.4757 22.8531 28.5 22.9465 28.5 23C28.5 23.0535 28.4758 23.1467 28.3644 23.2869C28.254 23.4261 28.0864 23.5746 27.8739 23.727C27.5163 23.9835 27.1011 24.204 26.7529 24.3889C26.6917 24.4214 26.6325 24.4528 26.5761 24.4831L24.1408 25.5025L24.1408 25.5025C22.4974 26.1906 21.1906 27.4974 20.5025 29.1408L20.5025 29.1408L19.483 31.5763C19.4539 31.6307 19.4237 31.6876 19.3925 31.7465C19.2073 32.0957 18.9855 32.5141 18.7274 32.8738C18.575 33.0862 18.4264 33.2539 18.2872 33.3644C18.1469 33.4757 18.0535 33.5 18 33.5C17.9465 33.5 17.8533 33.4758 17.7131 33.3644C17.5739 33.254 17.4254 33.0864 17.273 32.8739C17.0165 32.5163 16.796 32.1011 16.6111 31.7529C16.5786 31.6917 16.5472 31.6325 16.5169 31.5761L15.4975 29.1408L15.4975 29.1408C14.8094 27.4974 13.5026 26.1906 11.8592 25.5025L11.8592 25.5025L9.42368 24.483C9.36933 24.4539 9.31241 24.4237 9.25351 24.3925C8.90429 24.2074 8.48592 23.9855 8.12619 23.7274C7.91375 23.575 7.74613 23.4264 7.63562 23.2872C7.52425 23.1469 7.5 23.0535 7.5 23C7.5 22.9465 7.52423 22.8533 7.63555 22.7131C7.74604 22.5739 7.91365 22.4254 8.12611 22.273C8.48374 22.0165 8.8989 21.796 9.24707 21.6111C9.30832 21.5786 9.3675 21.5472 9.42393 21.5169L11.8592 20.4975L11.8592 20.4975C13.5026 19.8094 14.8094 18.5026 15.4975 16.8592Z" fill="url(#paint2_linear_665_209447)" fill-opacity="0.5" stroke="white"/>
<defs>
<linearGradient id="paint0_linear_665_209447" x1="40.3901" y1="26.0869" x2="40.3901" y2="74" gradientUnits="userSpaceOnUse">
<stop stop-color="#33EE94"/>
<stop offset="1" stop-color="#2AB87F"/>
</linearGradient>
<linearGradient id="paint1_linear_665_209447" x1="65.4584" y1="3" x2="65.4584" y2="33.5652" gradientUnits="userSpaceOnUse">
<stop stop-color="#33EE94"/>
<stop offset="1" stop-color="#2AB87F"/>
</linearGradient>
<linearGradient id="paint2_linear_665_209447" x1="18" y1="12" x2="18" y2="34" gradientUnits="userSpaceOnUse">
<stop stop-color="#33EE94"/>
<stop offset="1" stop-color="#2AB87F"/>
</linearGradient>
</defs>
</svg>
