<svg width="34" height="40" viewBox="0 0 34 40" fill="none" xmlns="http://www.w3.org/2000/svg">
<path d="M20.3218 37.0207L20.6416 36.8408L21.4212 37.7603C21.5811 37.9502 21.731 38.1401 21.9009 38.33L21.9109 38.32C21.8309 38.0801 21.751 37.8402 21.681 37.6104L21.3412 36.441L21.621 36.2811L22.4706 37.1606C22.6405 37.3405 22.8004 37.5304 22.9703 37.7203L22.9803 37.7103C22.8903 37.4804 22.8004 37.2406 22.7104 37.0207L22.3007 35.8813L22.6005 35.7114L23.3501 37.9102L22.9703 38.1301L22.0708 37.1806C21.9509 37.0507 21.8309 36.9207 21.721 36.7808L21.711 36.7908C21.771 36.9607 21.8209 37.1206 21.8809 37.3005L22.2607 38.5498L21.8809 38.7697L20.3218 37.0207Z" fill="#008DE0"/>
<path d="M0 31.8438L0.319821 31.7338C0.379787 31.9637 0.529703 32.1736 0.719597 32.2935C0.959462 32.4334 1.16934 32.4034 1.26929 32.2235C1.37923 32.0436 1.26929 31.9037 1.12937 31.7138L0.919485 31.424C0.769569 31.2241 0.639642 30.9443 0.809546 30.6544C0.99944 30.3346 1.4192 30.2547 1.79899 30.4745C2.03886 30.6144 2.20876 30.8443 2.26873 31.0842L1.98889 31.1941C1.92892 31.0042 1.81898 30.8543 1.63908 30.7544C1.4292 30.6344 1.23931 30.6544 1.14936 30.8143C1.04941 30.9942 1.16935 31.1541 1.29927 31.3141L1.50915 31.5939C1.68905 31.8338 1.779 32.0836 1.6091 32.3835C1.4192 32.7133 0.989446 32.8232 0.549692 32.5634C0.269849 32.4034 0.0799552 32.1336 0 31.8438Z" fill="#0076BC"/>
<path d="M32.1398 8.59768L17.6978 0.262353C17.0882 -0.087451 16.3286 -0.087451 15.709 0.262353L1.27704 8.59768C0.667384 8.94749 0.287598 9.60712 0.287598 10.3167V18.4921C0.287598 19.2017 0.667384 19.8514 1.27704 20.2112L15.719 28.5465C16.3286 28.8963 17.0882 28.8963 17.6978 28.5465L24.494 24.6287C25.1037 24.2789 25.4835 23.6193 25.4835 22.9097C25.4835 22.2001 25.1037 21.5404 24.494 21.1906L13.6001 14.9042C13.2204 14.6843 13.2204 14.1446 13.6001 13.9247L16.4286 12.2956C16.6085 12.1957 16.8183 12.1957 16.9982 12.2956L29.4513 19.4816C29.6312 19.5815 29.7311 19.7714 29.7311 19.9713V25.858C29.7311 26.0579 29.6212 26.2478 29.4513 26.3477L16.9982 33.5337C16.8183 33.6337 16.6085 33.6337 16.4286 33.5337L3.97553 26.3477C3.79563 26.2478 3.69569 26.0579 3.69569 25.858V25.2084C3.69569 25.0085 3.58575 24.8186 3.41585 24.7187L0.727351 23.1695C0.537457 23.0596 0.297592 23.1995 0.297592 23.4194V27.0174C0.297592 27.727 0.677379 28.3766 1.28704 28.7364L15.7289 37.0717C16.0388 37.2516 16.3786 37.3316 16.7184 37.3316C17.0582 37.3316 17.408 37.2416 17.7078 37.0717L32.1497 28.7364C32.7594 28.3866 33.1392 27.727 33.1392 27.0174V18.8419C33.1392 18.1323 32.7594 17.4727 32.1497 17.1229L17.6978 8.75759C17.0882 8.40779 16.3286 8.40779 15.709 8.75759L8.91277 12.6754C8.30311 13.0252 7.92332 13.6848 7.92332 14.3944C7.92332 15.104 8.30311 15.7537 8.91277 16.1135L19.8067 22.4C20.1865 22.6198 20.1865 23.1595 19.8067 23.3794L16.9782 25.0085C16.7983 25.1084 16.5885 25.1084 16.4086 25.0085L3.95554 17.8225C3.77564 17.7226 3.6757 17.5327 3.6757 17.3328V11.4561C3.6757 11.2562 3.78564 11.0663 3.95554 10.9664L16.4086 3.78038C16.5885 3.68044 16.7983 3.68044 16.9782 3.78038L29.4313 10.9664C29.6112 11.0663 29.7111 11.2562 29.7111 11.4561V12.1057C29.7111 12.3056 29.8211 12.4955 29.991 12.5954L32.6794 14.1446C32.8693 14.2545 33.1092 14.1146 33.1092 13.8947V10.2967C33.1292 9.60712 32.7494 8.94749 32.1398 8.59768Z" fill="#0076BC"/>
<path d="M2.64922 31.0046L2.97904 31.1945L2.55927 32.3639C2.46932 32.6037 2.37937 32.8436 2.28942 33.0835L2.29942 33.0935C2.46932 32.8936 2.64922 32.7037 2.81913 32.5138L3.68864 31.6043L3.97848 31.7642L3.62867 32.9735C3.54872 33.2134 3.46876 33.4633 3.38881 33.7131L3.3988 33.7231C3.55871 33.5232 3.71862 33.3233 3.87853 33.1234L4.68808 32.174L4.99791 32.3539L3.41879 34.1629L3.01902 33.933L3.3988 32.6437C3.45877 32.4638 3.50874 32.2939 3.5787 32.124L3.56871 32.114C3.44878 32.2539 3.32884 32.3839 3.19891 32.5238L2.27943 33.5032L1.88965 33.2734L2.64922 31.0046Z" fill="#0076BC"/>
<path d="M4.64896 33.713L5.31859 32.5437L5.63841 32.7336L4.95879 33.9229C4.68894 34.3827 4.78888 34.6425 5.03874 34.7824C5.2986 34.9324 5.56845 34.8924 5.8383 34.4326L6.51791 33.2433L6.82774 33.4232L6.15812 34.5926C5.77833 35.2522 5.32858 35.3321 4.87883 35.0723C4.42908 34.8024 4.26917 34.3727 4.64896 33.713Z" fill="#0076BC"/>
<path d="M7.36098 33.723L8.5703 34.4226L8.42039 34.6925L7.53088 34.1828L7.17109 34.8024L7.93066 35.2322L7.77075 35.502L7.01118 35.0723L6.51146 35.9518L6.18164 35.7619L7.36098 33.723Z" fill="#0076BC"/>
<path d="M8.92641 34.6228L10.1357 35.3224L9.97582 35.5923L9.09631 35.0825L8.7665 35.6522L9.51608 36.082L9.35617 36.3518L8.60659 35.9221L8.2268 36.5817L9.14629 37.1114L8.98638 37.3813L7.74707 36.6717L8.92641 34.6228Z" fill="#0076BC"/>
<path d="M13.6722 37.3615L14.042 37.5713L13.5423 40L13.2025 39.8001L13.5123 38.5008C13.5723 38.241 13.6422 37.9811 13.7122 37.7113L13.7022 37.7013C13.5123 37.9011 13.3124 38.091 13.1225 38.2709L12.1531 39.1904L11.8232 39.0005L13.6722 37.3615ZM12.6828 38.4009L13.6322 38.9506L13.4823 39.2004L12.5328 38.6507L12.6828 38.4009Z" fill="#0076BC"/>
<path d="M19.7541 39.6503L19.8141 39.3305C20.0339 39.3904 20.2838 39.3704 20.4737 39.2605C20.7136 39.1206 20.7835 38.9307 20.6836 38.7708C20.5836 38.5909 20.4137 38.6109 20.1838 38.6408L19.844 38.6808C19.6042 38.7108 19.3143 38.6808 19.1444 38.401C18.9645 38.0912 19.1045 37.7014 19.4742 37.4815C19.7041 37.3516 19.984 37.3216 20.2138 37.3816L20.1639 37.6714C19.974 37.6314 19.8041 37.6514 19.6242 37.7513C19.4243 37.8713 19.3543 38.0412 19.4343 38.1911C19.5342 38.361 19.7241 38.331 19.924 38.311L20.2638 38.2711C20.5536 38.2311 20.8035 38.281 20.9734 38.5709C21.1533 38.8907 21.0434 39.3005 20.6136 39.5503C20.3538 39.6903 20.0339 39.7302 19.7541 39.6503Z" fill="#008DE0"/>
<path d="M23.5715 36.6513L22.9219 35.5219L23.2317 35.342L23.8913 36.4914C24.1512 36.9411 24.411 36.9811 24.6609 36.8412C24.9108 36.7012 25.0107 36.4514 24.7508 36.0016L24.0912 34.8523L24.3911 34.6824L25.0407 35.8117C25.4105 36.4514 25.2506 36.8612 24.8208 37.121C24.3711 37.3709 23.9413 37.3009 23.5715 36.6513Z" fill="#008DE0"/>
<path d="M24.8882 34.383L26.0575 33.7134L26.2074 33.9732L25.3479 34.463L25.6977 35.0726L26.4273 34.6529L26.5772 34.9127L25.8476 35.3325L26.3374 36.182L26.0275 36.3619L24.8882 34.383Z" fill="#008DE0"/>
<path d="M9.4581 37.4016C9.53806 37.2717 9.67798 37.2317 9.79791 37.3016C9.91784 37.3716 9.95782 37.5215 9.87787 37.6514C9.80791 37.7814 9.65799 37.8214 9.53806 37.7514C9.41812 37.6814 9.37815 37.5315 9.4581 37.4016Z" fill="#0076BC"/>
<path d="M11.4179 36.0625L12.0575 36.4323C12.4773 36.6722 12.6972 36.982 12.4873 37.3518C12.3773 37.5517 12.1675 37.6716 11.9476 37.6316L11.9376 37.6416C12.1475 37.8215 12.2174 38.0814 12.0575 38.3612C11.8277 38.761 11.3879 38.771 10.9282 38.5111L10.2485 38.1213L11.4179 36.0625ZM11.0381 38.2213C11.3579 38.4012 11.6078 38.3912 11.7477 38.1513C11.8776 37.9215 11.7577 37.7216 11.4379 37.5317L11.1081 37.3418L10.7083 38.0314L11.0381 38.2213ZM11.5278 37.2618C11.8376 37.4417 12.0375 37.4017 12.1475 37.2119C12.2674 37.002 12.1775 36.8321 11.8876 36.6722L11.6078 36.5122L11.258 37.1119L11.5278 37.2618Z" fill="#0076BC"/>
<path d="M26.4087 33.5142L27.578 32.8346L27.728 33.0944L26.8684 33.5942L27.1883 34.1439L27.9079 33.7241L28.0678 33.984L27.3382 34.4037L27.708 35.0434L28.5975 34.5336L28.7474 34.7935L27.5481 35.4831L26.4087 33.5142Z" fill="#008DE0"/>
<path d="M28.9874 34.4118C28.9174 34.2819 28.9474 34.142 29.0673 34.072C29.1873 34.0021 29.3272 34.042 29.3971 34.172C29.4671 34.3019 29.4271 34.4418 29.3172 34.5118C29.2072 34.5817 29.0573 34.5418 28.9874 34.4118Z" fill="#008DE0"/>
<path d="M28.8154 32.1141L29.4351 31.7543C29.8349 31.5244 30.2047 31.4845 30.4145 31.8343C30.5245 32.0242 30.5245 32.264 30.3845 32.4239L30.3945 32.4339C30.6444 32.354 30.8943 32.414 31.0542 32.6838C31.284 33.0736 31.0742 33.4434 30.6344 33.7032L29.9748 34.083L28.8154 32.1141ZM29.8648 32.6038C30.1647 32.4339 30.2246 32.244 30.1147 32.0641C29.9948 31.8543 29.8149 31.8543 29.535 32.0242L29.2652 32.1841L29.605 32.7638L29.8648 32.6038ZM30.4445 33.4834C30.7543 33.3035 30.8643 33.0936 30.7244 32.8537C30.5944 32.6338 30.3646 32.6338 30.0547 32.8137L29.7449 32.9936L30.1347 33.6633L30.4445 33.4834Z" fill="#008DE0"/>
<path d="M30.9927 30.8545L31.3525 30.6447L33.1515 32.2438L32.8216 32.4337L31.8822 31.5441C31.6923 31.3643 31.5024 31.1844 31.3125 30.9945L31.3025 31.0045C31.3725 31.2643 31.4424 31.5142 31.5024 31.764L31.8022 33.0233L31.4824 33.2032L30.9927 30.8545ZM31.3925 32.1938L32.3119 31.6641L32.4519 31.9139L31.5324 32.4436L31.3925 32.1938Z" fill="#008DE0"/>
</svg>
