<svg width="100" height="40" viewBox="0 0 100 40" fill="none" xmlns="http://www.w3.org/2000/svg">
<path fill-rule="evenodd" clip-rule="evenodd" d="M98.016 32.5173V27.4087H99.18V34.5588H97.277L94.6627 29.127V34.5496H93.5172V27.3903H95.531L98.016 32.5173ZM92.7966 27.3903V34.5496H91.1615V27.3903H92.7966ZM88.3347 31.7967L87.2354 28.739L86.1916 31.7967H88.3347ZM85.8128 32.8406L85.2308 34.5496H84.1038L86.5795 27.3903H88.4086L90.9213 34.5496H89.2955L88.6673 32.8406H85.8128ZM82.247 31.2609H79.8359V34.5496H78.21V27.3903H79.8359V30.3741H82.247V27.3903H83.8636V34.5496H82.247V31.2609ZM77.7019 34.1524C77.7019 34.1986 77.5172 34.2909 77.1477 34.411C76.7782 34.5311 76.3255 34.5958 75.7989 34.605C74.5518 34.605 73.6927 34.2909 73.2031 33.6628C72.7135 33.0346 72.4641 32.0554 72.4641 30.7251C72.4918 30.0046 72.6026 29.4041 72.7966 28.9145C72.9906 28.4249 73.314 28.0369 73.7666 27.769C74.21 27.4919 74.8105 27.3533 75.568 27.3441C76.0206 27.3441 76.4271 27.381 76.7874 27.4457C77.1477 27.5196 77.4063 27.575 77.5634 27.6212L77.8682 28.8314C77.7389 28.739 77.4987 28.6281 77.1569 28.4896C76.8151 28.351 76.3994 28.2771 75.919 28.2771C75.2539 28.2771 74.8105 28.5173 74.5888 28.9792C74.3578 29.4411 74.247 30.023 74.247 30.7251C74.247 31.2609 74.2747 31.7321 74.3394 32.1478C74.404 32.5542 74.5334 32.9053 74.7458 33.2009C74.9491 33.4872 75.2539 33.6535 75.6604 33.672C76.1315 33.672 76.5287 33.6258 76.8428 33.5427C77.1569 33.4503 77.3971 33.3487 77.5634 33.2378C77.7204 33.1362 77.7943 33.0808 77.7943 33.0715L77.7019 34.1524ZM72.1777 27.3903L69.9514 30.217L72.5749 34.5496H70.8382L69.0091 31.3995L68.3625 32.2124V34.5496H66.7366V27.3903H68.3625V30.7528L70.9952 27.3903H72.1777ZM66.2008 34.1524C66.2008 34.1986 66.016 34.2909 65.6465 34.411C65.277 34.5311 64.8243 34.5958 64.2978 34.605C63.0507 34.605 62.1916 34.2909 61.7019 33.6628C61.2123 33.0346 60.9629 32.0554 60.9629 30.7251C60.9906 30.0046 61.1015 29.4041 61.2955 28.9145C61.4895 28.4249 61.8128 28.0369 62.2562 27.769C62.7089 27.4919 63.3093 27.3533 64.0668 27.3441C64.5195 27.3441 64.926 27.381 65.2862 27.4457C65.6465 27.5196 65.9052 27.575 66.0622 27.6212L66.3671 28.8314C66.2377 28.739 65.9976 28.6281 65.6558 28.4896C65.314 28.351 64.8982 28.2771 64.4179 28.2771C63.7528 28.2771 63.3093 28.5173 63.0784 28.9792C62.8567 29.4411 62.7458 30.023 62.7458 30.7251C62.7458 31.2609 62.7735 31.7321 62.8382 32.1478C62.8936 32.5542 63.0322 32.9053 63.2447 33.2009C63.4479 33.4872 63.7528 33.6535 64.1592 33.672C64.6303 33.672 65.0183 33.6258 65.3417 33.5427C65.6558 33.4503 65.8959 33.3487 66.0622 33.2378C66.2193 33.1362 66.2932 33.0808 66.2932 33.0715L66.2008 34.1524ZM56.2978 30.9561C56.3255 31.7967 56.4086 32.4434 56.5564 32.9053C56.7135 33.3672 57.0645 33.6073 57.6188 33.6073C58.0253 33.6073 58.3301 33.4872 58.5334 33.2378C58.7366 32.9884 58.8659 32.6836 58.9213 32.314C58.9675 31.9538 58.9952 31.5103 58.9952 30.9838C58.9952 30.4572 58.9768 30.0138 58.9306 29.6628C58.8844 29.3117 58.7551 29.0069 58.5611 28.7482C58.3671 28.4896 58.0622 28.3602 57.665 28.3602C57.0922 28.3602 56.7227 28.5912 56.5472 29.0623C56.3809 29.5242 56.2978 30.1616 56.2978 30.9561ZM57.628 27.3625C58.3763 27.3625 58.9768 27.4919 59.4387 27.7598C59.8913 28.0277 60.2239 28.4341 60.4179 28.9607C60.6211 29.4872 60.7135 30.1524 60.7135 30.9561C60.7135 31.7875 60.6119 32.4711 60.3902 33.0069C60.1777 33.5519 59.8359 33.9491 59.3832 34.217C58.9213 34.4757 58.3394 34.605 57.6096 34.605C56.926 34.605 56.3532 34.4849 55.9098 34.2263C55.4664 33.9676 55.1338 33.5704 54.9213 33.0254C54.7089 32.4896 54.6073 31.7967 54.6073 30.9561C54.6073 29.7551 54.8659 28.8591 55.3555 28.2678C55.8544 27.6674 56.6119 27.3718 57.628 27.3625ZM51.023 33.6535H54.4964V34.5496H49.3971V27.3903H51.023V33.6535ZM47.4202 29.1732C47.3648 28.5819 47.0137 28.2771 46.3578 28.2771H44.8798V30.3741H46.3116C47.0507 30.3741 47.4202 29.9676 47.4202 29.1732ZM46.4317 33.6535C47.1892 33.6535 47.568 33.2378 47.568 32.4157C47.568 32.0461 47.4571 31.7598 47.2354 31.5565C47.0137 31.3625 46.7273 31.2609 46.3948 31.2609H44.8798V33.6535H46.4317ZM46.5426 27.3903C47.9375 27.3903 48.6303 27.963 48.6303 29.0993C48.6303 29.7736 48.4456 30.217 48.0576 30.4387C47.6788 30.6605 47.3648 30.7713 47.1061 30.7713C48.2978 30.8822 48.889 31.4549 48.889 32.4896C48.8798 33.284 48.6673 33.829 48.2424 34.1154C47.8267 34.4018 47.2724 34.5496 46.5888 34.5496H43.2539V27.3903H46.5426ZM59.9375 10.2909C59.9375 11.9722 59.5957 13.2655 58.9213 14.1709C58.2377 15.0762 57.3694 15.6766 56.2978 15.9722C55.217 16.2679 53.9514 16.4157 52.4825 16.4157H48.2516V24.8775H43.5865V4.33252H53.0183C55.18 4.33252 56.8613 4.7667 58.0622 5.63506C59.2724 6.50342 59.8913 8.05538 59.9375 10.2909ZM55.531 10.1524C55.5033 9.1085 55.217 8.31404 54.6627 7.74129C54.0992 7.17778 53.3879 6.89141 52.4918 6.89141H48.2516V13.903H52.3532C53.4063 13.903 54.1916 13.6351 54.7273 13.0993C55.2631 12.5542 55.531 11.575 55.531 10.1524ZM78.635 4.33252L72.2424 12.4526L79.7805 24.8775H74.8013L69.5541 15.8429L67.6973 18.1709V24.8775H63.023V4.33252H67.6973V13.9953L75.2354 4.33252H78.635ZM91.0784 25.1916C88.695 25.1916 86.9121 24.8221 85.7019 24.0923C84.4918 23.3625 83.725 22.4942 83.3832 21.4688C83.0414 20.4526 82.8659 19.2886 82.8659 18.0046V4.33252H87.6327V17.9584C87.6327 17.9953 87.6234 18.1154 87.6049 18.3094C87.5957 18.5219 87.5865 18.6882 87.5865 18.8452C87.5865 21.2471 88.926 22.4572 91.5957 22.4572C94.0715 22.4572 95.3001 21.284 95.3001 18.9284C95.3001 18.7344 95.2909 18.5219 95.2816 18.2632C95.2631 18.0138 95.2539 17.866 95.2539 17.8291V4.33252H99.18V17.8291V18.799C99.18 23.0577 96.4733 25.1916 91.0784 25.1916Z" fill="#973033"/>
<path d="M26.9859 4.47113C28.2237 5.18245 29.4154 5.83834 30.4131 6.38337C33.1845 7.90762 34.5702 8.66513 35.3369 9.99538C36.1036 11.3256 36.0667 12.9053 36.002 16.0647C35.9835 17.0808 35.9558 18.291 35.9558 20V20.157V20.1755C35.9558 21.7921 35.9835 22.9469 36.002 23.9353C36.0667 27.0855 36.1036 28.6651 35.3369 29.9954C34.5609 31.3256 33.1845 32.0924 30.4131 33.6074C29.4154 34.1617 28.2237 34.8176 26.9859 35.5289C25.6371 36.3048 24.5378 36.97 23.6048 37.5427C20.8981 39.1778 19.5494 40 18.0159 40C16.4916 40 15.1337 39.1778 12.427 37.5427C11.5032 36.97 10.3946 36.3048 9.05514 35.5289C7.80803 34.8176 6.62558 34.1617 5.61865 33.6074C2.85653 32.0924 1.47085 31.3256 0.704104 29.9954C-0.0626399 28.6651 -0.0349263 27.0855 0.0297388 23.9353C0.0574525 22.9469 0.0759282 21.7921 0.0851661 20.1755H0.0759282L0.0851661 20.1663V20C0.0851661 18.291 0.0574525 17.0808 0.0297388 16.0647C-0.0349263 12.9145 -0.0626399 11.3349 0.704104 10.0046C1.47085 8.66513 2.85653 7.90762 5.61865 6.38337C6.62558 5.83834 7.80803 5.18245 9.05514 4.47113C10.3946 3.69515 11.5032 3.02079 12.427 2.45727C15.1337 0.822171 16.4916 0 18.0159 0C19.5494 0 20.8981 0.822171 23.6048 2.45727C24.5378 3.02079 25.6371 3.69515 26.9859 4.47113ZM18.9951 28.8314C19.5771 29.1178 20.0297 29.6536 20.1868 30.3002C21.0921 30.7067 22.1545 31.3533 23.6048 32.2309C24.3623 32.6836 25.2214 33.2102 26.2376 33.8014C27.5956 33.0162 28.6302 32.4527 29.517 31.963C29.9235 31.7413 30.3023 31.5289 30.6533 31.3441C30.3023 31.1501 29.9235 30.9376 29.517 30.7159C28.5932 30.2079 27.5032 29.6074 26.0528 28.7667C24.7041 27.9908 23.5863 27.3164 22.6348 26.7436C21.4801 26.0416 20.6025 25.5058 19.8819 25.1455C19.6602 25.4781 19.3554 25.746 18.9951 25.9215V28.8314ZM19.808 32.194C19.4016 32.739 18.7549 33.0901 18.0159 33.0901C17.2861 33.0901 16.6302 32.739 16.2237 32.194C15.4939 32.5543 14.5979 33.0993 13.3969 33.8291C12.8704 34.1432 12.2884 34.4942 11.6417 34.8822C12.2884 35.2702 12.8704 35.6212 13.3969 35.9353C15.7988 37.3949 16.9997 38.1155 18.0159 38.1155C19.0413 38.1155 20.2422 37.3949 22.6348 35.9353C23.1614 35.6212 23.7434 35.2702 24.39 34.8822C23.7434 34.4942 23.1614 34.1432 22.6348 33.8291C21.4339 33.0993 20.5378 32.5543 19.808 32.194ZM15.845 30.3002C16.0113 29.6536 16.4547 29.1178 17.0459 28.8314V25.9215C16.6764 25.746 16.3715 25.4781 16.1498 25.1455C15.4385 25.5058 14.5609 26.0416 13.3969 26.7436C12.4547 27.3164 11.3369 27.9908 9.98817 28.7667C8.52858 29.6074 7.43851 30.2079 6.52397 30.7159C6.10826 30.9376 5.72951 31.1501 5.38771 31.3441C5.72951 31.5289 6.10826 31.7413 6.52397 31.963C7.40156 32.4527 8.43621 33.0162 9.79417 33.8014C10.8103 33.2102 11.6787 32.6836 12.427 32.2309C13.8773 31.3533 14.9397 30.7067 15.845 30.3002ZM18.0159 21.6721C19.0043 21.6721 19.845 22.3095 20.1406 23.1963C21.0551 23.6028 22.1267 24.2494 23.6048 25.1455C24.5378 25.709 25.6371 26.3741 26.9859 27.1501C28.2237 27.8707 29.4154 28.5173 30.4131 29.0716C31.2168 29.515 31.9096 29.8938 32.4916 30.2356C33.0921 29.8291 33.4801 29.4688 33.711 29.0624C33.9327 28.6836 34.0528 28.2125 34.1083 27.5658H34.0713C34.0066 27.0947 33.8958 26.7159 33.711 26.4111C33.2029 25.5335 31.9743 24.8591 29.517 23.5012C28.5932 23.0023 27.5032 22.4018 26.0528 21.5612C25.4708 21.2286 24.9443 20.9145 24.4454 20.6189C24.0667 20.3972 23.7157 20.1755 23.3831 19.9353C23.0598 20.1201 22.6902 20.2217 22.293 20.2217C21.0551 20.2217 20.0575 19.2148 20.0575 17.9769C20.0575 17.0901 20.5748 16.3233 21.323 15.963V13.127C20.5748 12.7667 20.0575 12 20.0575 11.1132C20.0575 10.2263 20.5748 9.45958 21.323 9.09931V3.26097C19.7618 2.33718 18.8381 1.87529 18.0159 1.87529C17.2029 1.87529 16.2792 2.33718 14.718 3.26097V9.09931C15.457 9.46882 15.9651 10.2263 15.9651 11.1132C15.9651 11.9908 15.457 12.7575 14.718 13.1178C14.7272 14.1432 14.7549 15.1594 14.7272 15.9815C15.4662 16.3418 15.9651 17.1085 15.9651 17.9769C15.9651 19.2148 14.9674 20.2217 13.7295 20.2217C13.3323 20.2217 12.9628 20.1201 12.6394 19.9353C12.1683 20.2679 11.6879 20.5266 11.2538 20.8222C10.8658 21.0716 10.4316 21.3025 9.98817 21.5612C8.52858 22.4018 7.43851 23.0023 6.52397 23.5012C4.05745 24.8591 2.82881 25.5335 2.32073 26.4111C2.14521 26.7159 2.03436 27.0855 1.96045 27.5658H1.9235C1.98817 28.2032 2.10826 28.6836 2.32073 29.0624C2.56092 29.4688 2.94891 29.8291 3.54013 30.2356C4.13136 29.8938 4.81496 29.515 5.61865 29.0716C6.62558 28.5173 7.80803 27.8707 9.05514 27.1501C10.3946 26.3741 11.5032 25.709 12.427 25.1455C13.905 24.2494 14.9766 23.6028 15.9004 23.1963C16.196 22.3095 17.0274 21.6721 18.0159 21.6721ZM23.2722 15.963C24.0205 16.3326 24.5378 17.0993 24.5378 17.9769C24.5378 18.1432 24.5193 18.3095 24.4824 18.4573C24.7688 18.6513 25.1106 18.8637 25.554 19.1039C26.0066 19.3533 26.4685 19.649 26.9859 19.9446C28.2237 20.6559 29.4154 21.3118 30.4131 21.8661C32.1221 22.7991 33.3046 23.4457 34.136 24.1201V23.9723C34.1083 22.836 34.0805 21.515 34.0805 20.1755H34.0713C34.0066 19.7044 33.8958 19.3256 33.711 19.0208C33.2029 18.1432 31.9743 17.4688 29.517 16.1109C28.5932 15.612 27.5032 15.0115 26.0528 14.1709C25.1937 13.6813 24.4362 13.2286 23.7526 12.8129C23.6048 12.933 23.4478 13.0439 23.2722 13.127V15.6582V15.963ZM11.5494 18.485C11.5124 18.3279 11.4847 18.1524 11.4847 17.9769C11.4847 17.0901 12.0113 16.3233 12.7688 15.963C12.7965 15.1686 12.7503 14.1894 12.7595 13.127C12.584 13.0439 12.4177 12.9423 12.2792 12.8222C11.5956 13.2286 10.8381 13.6813 9.98817 14.1709C8.52858 15.0115 7.43851 15.612 6.52397 16.1109C4.05745 17.4688 2.82881 18.1432 2.32073 19.0208C2.14521 19.3256 2.03436 19.6951 1.96045 20.1755C1.95122 21.515 1.9235 22.836 1.90503 23.9723V24.1201C2.73644 23.4457 3.91888 22.7991 5.61865 21.8661C6.62558 21.3118 7.80803 20.6559 9.05514 19.9446C9.39694 19.7413 9.72027 19.5566 10.0344 19.3718C10.5055 19.0947 11.0598 18.8268 11.5494 18.485ZM23.2722 9.09931C24.0205 9.45958 24.5286 10.2171 24.5378 11.1039C25.2491 11.5381 26.0621 12.0185 26.9859 12.5543C28.2237 13.2656 29.4154 13.9215 30.4131 14.4665C32.1129 15.3995 33.2861 16.0462 34.1175 16.7113C34.1267 16.4804 34.1267 16.2494 34.136 16.0277C34.1914 13.2194 34.2191 11.8152 33.711 10.9376C33.2029 10.06 31.9743 9.38568 29.517 8.02771C28.5932 7.52887 27.5032 6.92841 26.0528 6.08776C24.9905 5.47806 24.0759 4.92379 23.2722 4.44342V9.09931ZM11.4847 11.1132C11.4939 10.2171 12.0113 9.45035 12.7595 9.09007V4.44342C11.9558 4.92379 11.0413 5.47806 9.98817 6.08776C8.52858 6.92841 7.43851 7.52887 6.52397 8.02771C4.05745 9.38568 2.82881 10.06 2.32073 10.9376C1.81265 11.8152 1.84036 13.2194 1.90503 16.0277C1.90503 16.2494 1.91427 16.4804 1.91427 16.7113C2.75491 16.0462 3.92812 15.3995 5.61865 14.4665C6.62558 13.9215 7.80803 13.2656 9.05514 12.5543C9.96969 12.0185 10.7734 11.5381 11.4847 11.1132Z" fill="#973033"/>
</svg>
