<svg width="137" height="36" viewBox="0 0 137 36" fill="none" xmlns="http://www.w3.org/2000/svg">
<g clip-path="url(#clip0_202_19005)">
<path d="M54.855 27.9111V9.08374H58.271V25.0521H66.5767V27.9111H54.855Z" fill="black"/>
<path d="M71.3522 9.08374L75.5051 15.9785H75.6524L79.8236 9.08374H83.7186L77.9084 18.4975L83.8106 27.9111H79.8513L75.6524 21.0623H75.5051L71.3062 27.9111H67.3652L73.3228 18.4975L67.4389 9.08374H71.3522Z" fill="black"/>
<path d="M91.7556 27.9111H85.3652V9.08374H91.8845C93.7567 9.08374 95.365 9.46066 96.7094 10.2145C98.0599 10.9622 99.0973 12.0377 99.8217 13.4413C100.546 14.8447 100.908 16.524 100.908 18.479C100.908 20.4402 100.543 22.1256 99.8125 23.5352C99.0881 24.9449 98.0415 26.0265 96.6726 26.7804C95.3098 27.5343 93.6708 27.9111 91.7556 27.9111ZM88.7814 24.9602H91.5897C92.9034 24.9602 93.9992 24.7211 94.877 24.2431C95.7548 23.759 96.4147 23.0388 96.8568 22.0827C97.2987 21.1205 97.5197 19.9193 97.5197 18.479C97.5197 17.0388 97.2987 15.8437 96.8568 14.8938C96.4147 13.9376 95.761 13.2237 94.8954 12.7518C94.0361 12.2738 92.9679 12.0347 91.6911 12.0347H88.7814V24.9602Z" fill="black"/>
<path d="M104.534 27.9111H100.888L107.527 9.08374H111.744L118.392 27.9111H114.746L109.709 12.9448H109.562L104.534 27.9111ZM104.654 20.5291H114.598V23.2686H104.654V20.5291Z" fill="black"/>
<path d="M135.797 18.501C135.797 20.5296 135.415 22.267 134.655 23.7134C133.9 25.1537 132.868 26.2568 131.561 27.0228C130.26 27.789 128.784 28.172 127.132 28.172C125.481 28.172 124.001 27.789 122.694 27.0228C121.392 26.2506 120.361 25.1444 119.6 23.7042C118.844 22.2578 118.467 20.5234 118.467 18.501C118.467 16.4724 118.844 14.738 119.6 13.2976C120.361 11.8513 121.392 10.7451 122.694 9.97897C124.001 9.21287 125.481 8.82983 127.132 8.82983C128.784 8.82983 130.26 9.21287 131.561 9.97897C132.868 10.7451 133.9 11.8513 134.655 13.2976C135.415 14.738 135.797 16.4724 135.797 18.501ZM132.362 18.501C132.362 17.0729 132.138 15.8687 131.689 14.888C131.247 13.9013 130.634 13.1567 129.848 12.6541C129.063 12.1455 128.157 11.8911 127.132 11.8911C126.107 11.8911 125.202 12.1455 124.415 12.6541C123.63 13.1567 123.012 13.9013 122.565 14.888C122.122 15.8687 121.902 17.0729 121.902 18.501C121.902 19.9289 122.122 21.1363 122.565 22.123C123.012 23.1036 123.63 23.8482 124.415 24.3569C125.202 24.8595 126.107 25.1108 127.132 25.1108C128.157 25.1108 129.063 24.8595 129.848 24.3569C130.634 23.8482 131.247 23.1036 131.689 22.123C132.138 21.1363 132.362 19.9289 132.362 18.501Z" fill="black"/>
<path d="M7.2472 0.186458C5.35117 0.567933 3.65538 1.67029 2.57283 3.13195C1.47777 4.58736 0.889556 6.28722 0.577306 7.99788C0.270061 9.71481 0.295094 11.4545 0.388957 13.1657C0.588573 16.6167 1.35887 20.022 2.67233 23.2626C3.33625 24.8828 4.1247 26.4525 5.06333 27.9586C6.01447 29.46 7.12831 30.8694 8.35478 32.1889C9.60003 33.4846 10.9329 34.7808 12.7226 35.5824C13.173 35.7871 13.6675 35.9121 14.1806 35.9809C14.7187 36.0321 15.2381 35.9525 15.7136 35.8212C16.671 35.5546 17.5158 35.0997 18.3105 34.6045C19.4118 33.9115 20.4256 33.1099 21.3766 32.2742C21.7834 31.9041 22.1901 31.5345 22.5843 31.1599C22.6532 31.0973 22.7158 31.0286 22.7909 30.9609C24.0174 29.7727 25.1625 28.51 26.2639 27.2308C28.5853 24.5076 30.7192 21.6707 32.6464 18.7144C34.5676 15.7587 36.3947 12.7399 37.7652 9.51014C38.4659 7.91261 38.8476 6.05924 38.3721 4.2974C38.1406 3.42132 37.6712 2.56343 36.8828 1.94318C36.1006 1.32406 35.018 1.05629 34.0106 1.11314C32.9907 1.16431 32.0771 1.49462 31.201 1.84142C30.3187 2.21095 29.4739 2.65382 28.7105 3.18311C27.1649 4.22294 25.8508 5.5311 24.7551 6.94045C22.5594 9.78873 21.0701 12.9952 19.9056 16.2585C18.7798 19.516 17.6847 22.8766 17.8218 26.3838C17.8662 27.2536 17.9788 28.1178 18.273 28.9654C18.3731 29.2491 18.5045 29.5339 18.6547 29.8005C17.8218 30.5458 16.9714 31.2338 16.1454 31.7676C15.5509 32.1435 14.4684 32.6034 14.4684 32.6034C14.4684 32.6034 14.3557 32.5812 14.2869 32.5414C13.9052 32.422 13.317 32.0519 12.7539 31.6147C12.19 31.182 11.6149 30.659 11.0587 30.0906C10.5067 29.5339 9.91916 28.8966 9.44359 28.3002C8.93673 27.7084 8.47994 27.0608 8.02939 26.4128C7.15959 25.0876 6.36488 23.6953 5.69533 22.2393C4.35685 19.3348 3.49895 16.2078 3.16104 13.0236C3.04214 12.2339 3.00523 11.4152 2.95454 10.6358C2.92325 9.86832 2.94891 9.10139 3.02338 8.35094C3.19233 6.85574 3.60532 5.41113 4.36249 4.24624C5.11339 3.08078 6.20908 2.19957 7.67272 1.7783C9.13072 1.33542 10.645 1.45427 12.1218 2.11374C13.5867 2.77379 14.8996 3.92788 16.014 5.21842C17.1466 6.51407 18.1416 7.97572 18.9237 9.51014L18.9307 9.53289C18.9738 9.61306 19.0865 9.65853 19.1803 9.6301C19.2866 9.58974 19.3367 9.48741 19.2992 9.39701C18.6797 7.75911 17.8412 6.20194 16.815 4.74596C15.77 3.3133 14.4996 1.95511 12.854 1.02843C12.0342 0.562241 11.1087 0.226259 10.1507 0.0841293C9.77524 0.0244341 9.39604 -0.00341797 9.01683 -0.00341797C8.42237 -0.00341797 7.8279 0.0647959 7.2472 0.186458ZM20.1753 27.3792C20.1433 27.0267 20.1314 26.6629 20.1433 26.2928C20.1753 24.8096 20.4944 23.2626 20.9512 21.7276C21.1827 20.9487 21.4455 20.1926 21.7522 19.408C22.0456 18.6297 22.309 17.839 22.647 17.0771L23.1157 15.9287L23.6419 14.8088C23.9673 14.0526 24.3866 13.3476 24.7551 12.6256C25.5692 11.2214 26.4578 9.88025 27.4589 8.70342C28.3232 7.68747 29.2969 6.7392 30.4244 5.9609C31.2968 5.35828 33.0081 4.03703 34.194 4.55894C35.0194 4.92221 34.9736 5.81536 34.7853 6.50667C34.7246 6.7284 34.6551 6.93988 34.5989 7.12521C34.0113 9.05419 32.9995 10.8399 31.9645 12.5978C31.119 14.0356 30.2179 15.4631 29.2674 16.873C27.3588 19.6753 25.3377 22.4383 23.1663 25.0477C22.2465 26.1455 21.3016 27.2144 20.3067 28.2144C20.2503 27.9699 20.2002 27.6806 20.1753 27.3792Z" fill="url(#paint0_linear_202_19005)"/>
<path d="M44.2583 22.5821L44.2507 22.5969C43.1617 24.0222 41.7254 25.1756 40.2162 26.209C38.6988 27.2269 37.0933 28.1476 35.4474 28.9689C33.7932 29.7836 32.0832 30.5297 30.3795 31.0728C30.1704 31.1414 29.9607 31.2013 29.7668 31.2539C29.5571 31.3078 29.3873 31.3374 29.1535 31.3824C28.7176 31.4731 28.2818 31.5335 27.8465 31.5861C26.9753 31.6915 26.12 31.7069 25.2882 31.6471C24.4252 31.579 23.6016 31.3901 22.8996 31.0804C22.8273 31.1563 22.7628 31.2238 22.6905 31.2918C22.2945 31.6845 21.8834 32.0693 21.4722 32.4536C22.6335 33.0114 23.9571 33.2678 25.24 33.2986C26.2081 33.3211 27.185 33.2376 28.1284 33.0712C29.0731 32.906 30.033 32.7023 30.9281 32.3476C32.7116 31.6619 34.3982 30.8092 36.0366 29.8814C37.6743 28.947 39.2475 27.9285 40.7243 26.7745C42.1935 25.6209 43.5804 24.339 44.598 22.7852C44.6537 22.7023 44.6296 22.5969 44.5409 22.5359C44.5073 22.5134 44.4674 22.5022 44.4275 22.5022C44.3635 22.5022 44.2988 22.5305 44.2583 22.5821Z" fill="url(#paint1_linear_202_19005)"/>
</g>
<defs>
<linearGradient id="paint0_linear_202_19005" x1="40.1056" y1="17.9965" x2="-1.17136" y2="17.9965" gradientUnits="userSpaceOnUse">
<stop stop-color="#00FB8C"/>
<stop offset="0.0971267" stop-color="#64CCEB"/>
<stop offset="0.276683" stop-color="#64CCEB"/>
<stop offset="0.319606" stop-color="#64CCEB"/>
<stop offset="0.697546" stop-color="#0F39D9"/>
<stop offset="0.806149" stop-color="#0F39D9"/>
<stop offset="1" stop-color="#64CCEB"/>
</linearGradient>
<linearGradient id="paint1_linear_202_19005" x1="39.5183" y1="31.0082" x2="27.1026" y2="23.3384" gradientUnits="userSpaceOnUse">
<stop stop-color="#00FB8C"/>
<stop offset="0.0958371" stop-color="#64CCEB"/>
<stop offset="0.477009" stop-color="#64CCEB"/>
<stop offset="0.646695" stop-color="#64CCEB"/>
<stop offset="1" stop-color="#0F39D9"/>
</linearGradient>
<clipPath id="clip0_202_19005">
<rect width="136.125" height="36" fill="white"/>
</clipPath>
</defs>
</svg>
