<svg width="160" height="23" viewBox="0 0 160 23" fill="none" xmlns="http://www.w3.org/2000/svg">
<path d="M30.5374 6.53175H25.8711V3.99121C30.1226 3.99121 33.7001 3.99121 37.9516 3.99121V6.53175H33.2853V18.716H30.5374V6.53175Z" fill="#1A1A1A"/>
<path d="M53.8704 11.4555C53.8185 15.2403 51.4854 19.0771 46.3525 19.0771C41.1677 19.0771 38.7827 15.344 38.7827 11.5073C38.7827 7.67058 41.2714 3.78201 46.3525 3.78201C51.3817 3.73016 53.9222 7.61873 53.8704 11.4555ZM41.5306 11.5073C41.5825 13.9442 42.8787 16.4847 46.3525 16.4847C49.8263 16.4847 51.1225 13.8923 51.1743 11.4555C51.2262 8.96677 49.8263 6.21885 46.3525 6.21885C42.8787 6.21885 41.4269 9.01862 41.5306 11.5073Z" fill="#1A1A1A"/>
<path d="M67.456 4.09491L60.9232 11.1462L67.9745 18.5604V18.716H64.5526L58.3827 12.235V18.716H55.6348V3.99121H58.3827V10.2129L63.9822 3.99121H67.4042V4.09491H67.456Z" fill="#1A1A1A"/>
<path d="M80.1548 18.7156H69.1631C69.1631 13.8419 69.1631 8.91641 69.1631 4.04272H80.1548V6.7388H71.911V10.1089H79.8437V12.7013H71.911V16.0195H80.1548V18.7156Z" fill="#1A1A1A"/>
<path d="M92.1863 3.99121H94.9342V18.716H93.2232L85.4979 8.81305V18.716H82.75V3.99121H84.9795L92.1863 13.1164V3.99121Z" fill="#1A1A1A"/>
<path d="M104.161 14.3607H100.013V18.6641H97.2651V3.99121C99.5464 3.99121 101.88 3.99121 104.213 3.99121C111.368 3.99121 111.368 14.3607 104.161 14.3607ZM100.013 11.8202H104.161C107.687 11.8202 107.687 6.63544 104.161 6.63544H100.013V11.8202Z" fill="#1A1A1A"/>
<path d="M125.681 11.4555C125.63 15.2403 123.296 19.0771 118.164 19.0771C112.979 19.0771 110.594 15.344 110.594 11.5073C110.594 7.67058 113.082 3.78201 118.164 3.78201C123.193 3.73016 125.681 7.61873 125.681 11.4555ZM113.29 11.5073C113.342 13.9442 114.638 16.4847 118.112 16.4847C121.585 16.4847 122.882 13.8923 122.933 11.4555C122.985 8.96677 121.585 6.21885 118.112 6.21885C114.69 6.21885 113.238 9.01862 113.29 11.5073Z" fill="#1A1A1A"/>
<path d="M136.984 7.56911C136.466 6.73955 135.118 5.90998 133.511 5.90998C131.437 5.90998 130.452 6.79139 130.452 7.8802C130.452 9.17639 131.955 9.53932 133.718 9.74671C136.777 10.1096 139.629 10.9392 139.629 14.413C139.629 17.6794 136.725 19.0793 133.459 19.0793C130.452 19.0793 128.17 18.146 127.082 15.45L129.363 14.2575C130.037 15.8647 131.696 16.5906 133.511 16.5906C135.273 16.5906 136.881 15.9684 136.881 14.413C136.881 13.0131 135.429 12.4428 133.459 12.2354C130.452 11.8725 127.704 11.0948 127.704 7.7765C127.704 4.76934 130.659 3.52499 133.407 3.47314C135.688 3.47314 138.073 4.14716 139.162 6.37661L136.984 7.56911Z" fill="#1A1A1A"/>
<path d="M145.329 6.53175H140.663V3.99121C144.915 3.99121 148.492 3.99121 152.744 3.99121V6.53175H148.077V18.716H145.329V6.53175Z" fill="#1A1A1A"/>
<path d="M11.3028 22.6056C17.5451 22.6056 22.6056 17.5452 22.6056 11.3028C22.6056 5.06043 17.5451 0 11.3028 0C5.06043 0 0 5.06043 0 11.3028C0 17.5452 5.06043 22.6056 11.3028 22.6056Z" fill="#1A1A1A"/>
<path d="M2.74414 6.69016L1.3961 5.8606C1.18871 6.27538 0.981316 6.69016 0.773926 7.15679L2.27751 7.67526C2.43305 7.36418 2.58859 7.00124 2.74414 6.69016Z" fill="#1A1A1A"/>
<path d="M7.72043 2.23088L7.20195 0.727295C6.73532 0.882838 6.32054 1.09023 5.90576 1.34947L6.68348 2.74935C7.04641 2.54196 7.3575 2.38642 7.72043 2.23088Z" fill="#1A1A1A"/>
<path d="M3.67684 5.23886L2.48435 4.2019C2.17326 4.56484 1.91402 4.97962 1.65479 5.34255L3.00282 6.12027C3.21022 5.86103 3.46945 5.54994 3.67684 5.23886Z" fill="#1A1A1A"/>
<path d="M6.21524 3.00746L5.43752 1.65942C5.02274 1.91866 4.65981 2.1779 4.29688 2.48899L5.33383 3.68148C5.59307 3.42224 5.90415 3.21485 6.21524 3.00746Z" fill="#1A1A1A"/>
<path d="M1.70502 9.90426L0.149594 9.64502C0.0977465 10.1116 0.0458984 10.5783 0.0458984 11.0449H1.60133C1.60133 10.6301 1.65318 10.2672 1.70502 9.90426Z" fill="#1A1A1A"/>
<path d="M2.07111 8.24553L0.567523 7.72705C0.41198 8.19368 0.308285 8.60846 0.20459 9.07509L1.76002 9.33433C1.86372 8.97139 1.96741 8.60846 2.07111 8.24553Z" fill="#1A1A1A"/>
<path d="M4.03918 17.7847L2.84668 18.8216C3.15777 19.1846 3.46885 19.4956 3.83179 19.8067L4.86874 18.6142C4.55765 18.3031 4.29841 18.0439 4.03918 17.7847Z" fill="#1A1A1A"/>
<path d="M5.28109 18.9253L4.24414 20.1178C4.60707 20.4289 5.02186 20.6881 5.38479 20.9474L6.1625 19.5993C5.90327 19.3919 5.59218 19.1845 5.28109 18.9253Z" fill="#1A1A1A"/>
<path d="M1.76002 13.2737L0.20459 13.5329C0.308285 13.9995 0.41198 14.4662 0.567523 14.881L2.07111 14.3625C1.96741 13.9995 1.86372 13.6366 1.76002 13.2737Z" fill="#1A1A1A"/>
<path d="M2.27751 14.8811L0.773926 15.3996C0.929469 15.8662 1.13686 16.281 1.3961 16.6958L2.74414 15.9181C2.58859 15.607 2.43305 15.244 2.27751 14.8811Z" fill="#1A1A1A"/>
<path d="M1.60133 11.5635H0.0458984C0.0458984 12.0301 0.0977465 12.4967 0.149594 12.9634L1.70502 12.7041C1.65318 12.3412 1.60133 11.9783 1.60133 11.5635Z" fill="#1A1A1A"/>
<path d="M3.05556 16.3857L1.70752 17.1635C1.96676 17.5782 2.226 17.9412 2.53708 18.3041L3.72958 17.2672C3.47034 17.0598 3.2111 16.7487 3.05556 16.3857Z" fill="#1A1A1A"/>
<path d="M18.6079 4.82211L19.8004 3.78515C19.4893 3.42222 19.1782 3.11113 18.8153 2.80005L17.7783 3.99255C18.0376 4.25178 18.3486 4.56287 18.6079 4.82211Z" fill="#1A1A1A"/>
<path d="M20.3704 7.72678L21.874 7.2083C21.7185 6.74167 21.5111 6.32689 21.2518 5.91211L19.9038 6.68982C20.0594 7.00091 20.2149 7.36384 20.3704 7.72678Z" fill="#1A1A1A"/>
<path d="M19.5915 6.17178L20.9395 5.39407C20.6803 4.97929 20.4211 4.61635 20.11 4.25342L18.9175 5.29037C19.1767 5.54961 19.3841 5.8607 19.5915 6.17178Z" fill="#1A1A1A"/>
<path d="M21.0471 10.9936H22.6025C22.6025 10.527 22.5506 10.0604 22.4988 9.59375L20.9434 9.85299C20.9952 10.2678 21.0471 10.6307 21.0471 10.9936Z" fill="#1A1A1A"/>
<path d="M20.8375 9.33433L22.3929 9.07509C22.2892 8.60846 22.1855 8.14183 22.03 7.72705L20.5264 8.24553C20.6819 8.60846 20.7856 8.97139 20.8375 9.33433Z" fill="#1A1A1A"/>
<path d="M12.7481 1.65986L13.0073 0.104428C12.5407 0.0525801 12.0741 0.000732422 11.6074 0.000732422V1.55616C11.9704 1.60801 12.3333 1.60801 12.7481 1.65986Z" fill="#1A1A1A"/>
<path d="M9.32749 1.76466L9.06826 0.209229C8.60163 0.312924 8.135 0.416619 7.72021 0.572162L8.23869 2.07574C8.60163 1.9202 8.96456 1.81651 9.32749 1.76466Z" fill="#1A1A1A"/>
<path d="M17.3624 3.68148L18.3993 2.48899C18.0364 2.1779 17.6216 1.91866 17.2587 1.65942L16.481 3.00746C16.7402 3.21485 17.0513 3.42224 17.3624 3.68148Z" fill="#1A1A1A"/>
<path d="M11.04 1.55616V0.000732422C10.5734 0.000732422 10.1068 0.0525801 9.64014 0.104428L9.89938 1.65986C10.2623 1.60801 10.6252 1.60801 11.04 1.55616Z" fill="#1A1A1A"/>
<path d="M14.3578 2.07574L14.8763 0.572162C14.4097 0.416619 13.9949 0.312924 13.5283 0.209229L13.269 1.76466C13.632 1.81651 13.9949 1.9202 14.3578 2.07574Z" fill="#1A1A1A"/>
<path d="M15.909 2.74902L16.6867 1.40098C16.272 1.19359 15.8572 0.986199 15.3905 0.778809L14.8721 2.28239C15.235 2.38609 15.5979 2.54163 15.909 2.74902Z" fill="#1A1A1A"/>
<path d="M4.86874 4.04626L3.83179 2.85376C3.46885 3.16485 3.15777 3.47593 2.84668 3.83887L4.03918 4.87582C4.29841 4.56473 4.55765 4.25365 4.86874 4.04626Z" fill="#1A1A1A"/>
<path d="M17.7783 18.563L18.8153 19.7555C19.1782 19.4444 19.4893 19.1333 19.8004 18.7704L18.6079 17.7334C18.3486 18.0445 18.0376 18.3037 17.7783 18.563Z" fill="#1A1A1A"/>
<path d="M14.8721 20.3262L15.3905 21.8298C15.8572 21.6743 16.272 21.4669 16.6867 21.2077L15.909 19.8596C15.5979 20.0152 15.235 20.2226 14.8721 20.3262Z" fill="#1A1A1A"/>
<path d="M9.89938 20.948L9.64014 22.5034C10.1068 22.5553 10.5734 22.6071 11.04 22.6071V21.0517C10.6252 20.9998 10.2623 20.9998 9.89938 20.948Z" fill="#1A1A1A"/>
<path d="M13.269 20.8438L13.5283 22.3992C13.9949 22.2955 14.4615 22.1918 14.8763 22.0363L14.3578 20.5327C13.9949 20.6364 13.632 20.7401 13.269 20.8438Z" fill="#1A1A1A"/>
<path d="M16.4277 19.5993L17.2054 20.9474C17.6202 20.6881 17.9832 20.4289 18.3461 20.1178L17.3091 18.9253C17.0499 19.1845 16.7388 19.3919 16.4277 19.5993Z" fill="#1A1A1A"/>
<path d="M18.9175 17.319L20.11 18.356C20.4211 17.993 20.6803 17.5782 20.9395 17.2153L19.5915 16.3857C19.3841 16.7487 19.1767 17.0598 18.9175 17.319Z" fill="#1A1A1A"/>
<path d="M20.5264 14.3625L22.03 14.881C22.1855 14.4143 22.2892 13.9995 22.3929 13.5329L20.8375 13.2737C20.7856 13.6366 20.6819 13.9995 20.5264 14.3625Z" fill="#1A1A1A"/>
<path d="M21.0471 11.5635C21.0471 11.9264 20.9952 12.3412 20.9434 12.7041L22.4988 12.9634C22.5506 12.4967 22.6025 12.0301 22.6025 11.5635H21.0471Z" fill="#1A1A1A"/>
<path d="M19.8511 15.9181L21.1991 16.6958C21.4065 16.281 21.6139 15.8662 21.8213 15.3996L20.3177 14.8811C20.214 15.244 20.0585 15.607 19.8511 15.9181Z" fill="#1A1A1A"/>
<path d="M11.6074 21.0004V22.5559C12.0741 22.5559 12.5407 22.504 13.0073 22.4522L12.7481 20.8967C12.3333 21.0004 11.9704 21.0004 11.6074 21.0004Z" fill="#1A1A1A"/>
<path d="M8.23869 20.5327L7.72021 22.0363C8.18684 22.1918 8.60163 22.2955 9.06826 22.3992L9.32749 20.8438C8.96456 20.7401 8.60163 20.6364 8.23869 20.5327Z" fill="#1A1A1A"/>
<path d="M6.68348 19.8596L5.90576 21.2077C6.32054 21.415 6.73532 21.6224 7.20195 21.8298L7.72043 20.3262C7.3575 20.2226 7.04641 20.0152 6.68348 19.8596Z" fill="#1A1A1A"/>
<path d="M22.6056 11.562C22.6056 11.4583 22.6056 11.3546 22.6056 11.3028C22.6056 11.1991 22.6056 11.0954 22.6056 11.0436H21.0501C21.0501 10.6806 20.9983 10.2658 20.9465 9.9029L22.5019 9.64367C22.45 9.43627 22.45 9.28073 22.3982 9.07334L20.8428 9.33258C20.7909 8.96965 20.6872 8.60671 20.5317 8.24378L22.0353 7.7253C21.9834 7.56976 21.9316 7.36237 21.8279 7.20683L20.3243 7.7253C20.1687 7.36237 20.0132 6.99944 19.8577 6.68835L21.2057 5.91063C21.102 5.75509 20.9983 5.59955 20.9465 5.444L19.5984 6.16987C19.391 5.85879 19.1836 5.5477 18.9244 5.23661L20.1169 4.19966C20.0132 4.04412 19.8577 3.88858 19.754 3.78488L18.5615 4.82183C18.3022 4.56259 18.043 4.25151 17.7319 3.99227L18.7689 2.79977C18.6133 2.69608 18.5096 2.54054 18.3541 2.43684L17.3171 3.62934C17.006 3.3701 16.6949 3.16271 16.3839 2.95532L17.1616 1.60728C17.006 1.50358 16.8505 1.39989 16.6949 1.34804L15.9172 2.74793C15.6061 2.59238 15.2432 2.38499 14.8803 2.2813L15.3988 0.777715C15.2432 0.725867 15.0358 0.622172 14.8803 0.570324L14.3618 2.07391C13.9989 1.97021 13.6359 1.86652 13.273 1.76282L13.5322 0.207391C13.3767 0.155543 13.1693 0.155543 13.0138 0.103695L12.7545 1.65913C12.3916 1.60728 12.0287 1.55543 11.6139 1.55543V0C11.5102 0 11.4065 0 11.3546 0C11.2509 0 11.1472 0 11.0954 0V1.55543C10.7325 1.55543 10.3177 1.60728 9.95475 1.65913L9.69551 0.103695C9.43627 0.155543 9.28073 0.155543 9.07334 0.207391L9.33258 1.76282C8.96965 1.81467 8.60671 1.91836 8.24378 2.07391L7.7253 0.570324C7.56976 0.622172 7.36237 0.67402 7.20682 0.777715L7.7253 2.2813C7.36237 2.43684 6.99943 2.59238 6.68835 2.74793L5.91063 1.39989C5.75509 1.50358 5.59955 1.60728 5.444 1.65913L6.22172 3.00716C5.91063 3.21456 5.59955 3.42195 5.28846 3.68118L4.25151 2.48869C4.09596 2.59238 3.94042 2.74793 3.83673 2.85162L4.87368 4.04412C4.56259 4.25151 4.30336 4.56259 4.04412 4.82183L2.85162 3.78488C2.74793 3.94042 2.59238 4.04412 2.48869 4.19966L3.68118 5.23661C3.42194 5.5477 3.21455 5.85879 3.00716 6.16987L1.65912 5.39216C1.55543 5.5477 1.45173 5.70324 1.39989 5.85879L2.74793 6.6365C2.59238 6.94759 2.38499 7.31052 2.2813 7.67345L0.777715 7.15498C0.725867 7.31052 0.622171 7.51791 0.570323 7.67345L2.07391 8.19193C1.97021 8.55487 1.86652 8.9178 1.76282 9.28073L0.20739 9.02149C0.155543 9.17704 0.155542 9.38443 0.103695 9.59182L1.65912 9.85106C1.60728 10.214 1.55543 10.5769 1.55543 10.9917H0C0 11.0954 0 11.1991 0 11.2509C0 11.3546 0 11.4583 0 11.5102H1.55543C1.55543 11.8731 1.60728 12.2879 1.65912 12.6508L0.103695 12.9101C0.155542 13.1175 0.155543 13.273 0.20739 13.4804L1.76282 13.2212C1.81467 13.5841 1.91836 13.947 2.07391 14.31L0.570323 14.8284C0.622171 14.984 0.67402 15.1914 0.777715 15.3469L2.2813 14.8284C2.43684 15.1914 2.59238 15.5543 2.74793 15.8654L1.39989 16.6431C1.50358 16.7986 1.60728 16.9542 1.65912 17.1097L3.00716 16.332C3.21455 16.6431 3.42194 16.9542 3.68118 17.2653L2.48869 18.3022C2.59238 18.4578 2.74793 18.6133 2.85162 18.717L4.04412 17.6801C4.30336 17.9393 4.56259 18.2504 4.87368 18.5096L3.83673 19.7021C3.99227 19.8058 4.09596 19.9614 4.25151 20.065L5.28846 18.8725C5.59955 19.1318 5.91063 19.3392 6.22172 19.5466L5.444 20.8946C5.59955 20.9983 5.75509 21.102 5.91063 21.1538L6.68835 19.8058C6.99943 19.9614 7.36237 20.1687 7.7253 20.2724L7.20682 21.776C7.36237 21.8279 7.56976 21.9316 7.7253 21.9834L8.24378 20.4798C8.60671 20.5835 8.96965 20.6872 9.33258 20.7909L9.07334 22.3463C9.22888 22.3982 9.43627 22.3982 9.64366 22.45L9.9029 20.8946C10.2658 20.9465 10.6288 20.9983 11.0436 20.9983V22.5537C11.1472 22.5537 11.2509 22.5537 11.3028 22.5537C11.4065 22.5537 11.5102 22.5537 11.562 22.5537V20.9983C11.925 20.9983 12.3397 20.9465 12.7027 20.8946L12.9619 22.45C13.1693 22.3982 13.3248 22.3982 13.5322 22.3463L13.273 20.7909C13.6359 20.7391 13.9989 20.6354 14.3618 20.4798L14.8803 21.9834C15.0358 21.9316 15.2432 21.8797 15.3988 21.776L14.8803 20.2724C15.2432 20.1169 15.6061 19.9614 15.9172 19.8058L16.6949 21.1538C16.8505 21.0502 17.006 20.9465 17.1616 20.8946L16.3839 19.5466C16.6949 19.3392 17.006 19.1318 17.3171 18.8725L18.3541 20.065C18.5096 19.9614 18.6652 19.8058 18.7689 19.7021L17.7319 18.5096C17.9911 18.2504 18.3022 17.9911 18.5615 17.6801L19.754 18.717C19.8577 18.5615 20.0132 18.4578 20.1169 18.3022L18.9244 17.2653C19.1836 16.9542 19.391 16.6431 19.5984 16.332L20.9465 17.1097C21.0501 16.9542 21.1538 16.7986 21.2057 16.6431L19.8577 15.8654C20.0132 15.5543 20.2206 15.1914 20.3243 14.8284L21.8279 15.3469C21.8797 15.1914 21.9834 14.984 22.0353 14.8284L20.5317 14.31C20.6354 13.947 20.7391 13.5841 20.8428 13.2212L22.3982 13.4804C22.45 13.3249 22.45 13.1175 22.5019 12.9101L20.9465 12.6508C20.9983 12.2879 21.0501 11.925 21.0501 11.5102H22.6056V11.562Z" fill="#1A1A1A"/>
<path d="M18.9724 8.29595C18.3502 7.31084 17.4688 6.99976 16.5874 6.99976C17.1059 8.29595 16.9503 9.85138 14.2024 10.6291L13.2173 10.9402L14.4616 13.1696C17.6243 12.8585 19.3872 10.5254 18.9724 8.29595Z" fill="#C0C1BE"/>
<path d="M7.51562 15.9174V7.88099C7.51562 7.56991 7.82671 7.46621 8.24149 7.62175L10.108 8.39947C10.4709 8.55501 10.8339 8.96979 10.8339 9.28088V17.3173C10.8339 17.6284 10.5228 17.732 10.108 17.5765L8.24149 16.7988C7.82671 16.5914 7.51562 16.2285 7.51562 15.9174Z" fill="white"/>
<path d="M11.4556 13.8969V5.86048C11.4556 5.5494 11.7667 5.4457 12.1814 5.60125L14.0479 6.37896C14.4109 6.5345 14.7738 6.94929 14.7738 7.26037V15.2968C14.7738 15.6078 14.4627 15.7115 14.0479 15.556L12.1814 14.7783C11.7667 14.6227 11.4556 14.208 11.4556 13.8969Z" fill="white"/>
<path d="M14.5656 7.67384L6.84034 11.2513C6.52925 11.4069 6.01077 11.3032 5.64784 11.0439L3.93687 9.85145C3.57393 9.59221 3.52209 9.28112 3.83317 9.17743L11.5585 5.59994C11.8696 5.44439 12.388 5.54809 12.751 5.80733L14.4619 6.99982C14.773 7.25906 14.8249 7.57015 14.5656 7.67384Z" fill="white"/>
<path d="M17.5791 5.96234C16.8532 5.39202 16.0755 5.08093 15.2978 4.97724C12.9128 4.66615 10.5278 6.06604 10.5278 6.06604L12.0833 8.81396L13.9498 7.72516C13.9498 7.72516 15.246 6.94745 16.6459 6.94745C17.4754 6.94745 18.3568 7.25853 19.0308 8.24364C18.8753 7.46592 18.4087 6.63636 17.5791 5.96234Z" fill="white"/>
<path d="M10.8339 9.43652L7.51562 10.9401L10.8339 11.8734V9.43652Z" fill="#C0C1BE"/>
<path d="M158.127 17.6257L157.246 16.1222H156.624V17.6257H156.157V14.1001H157.246C157.972 14.1001 158.49 14.3593 158.49 15.0852C158.49 15.6555 158.179 15.9666 157.713 16.0703L158.646 17.6257H158.127ZM156.624 15.7592H157.194C157.765 15.7592 158.076 15.5518 158.076 15.0852C158.076 14.6186 157.765 14.463 157.194 14.463H156.624V15.7592Z" fill="#1A1A1A"/>
<path d="M157.148 18.715C155.593 18.715 154.297 17.4188 154.297 15.8633C154.297 14.3079 155.593 13.0117 157.148 13.0117C158.704 13.0117 160 14.3079 160 15.8633C160 17.4188 158.756 18.715 157.148 18.715ZM157.148 13.3747C155.8 13.3747 154.712 14.4635 154.712 15.8115C154.712 17.1595 155.8 18.2483 157.148 18.2483C158.497 18.2483 159.585 17.1595 159.585 15.8115C159.585 14.4635 158.548 13.3747 157.148 13.3747Z" fill="#1A1A1A"/>
</svg>
