<svg width="160" height="38" viewBox="0 0 160 38" fill="none" xmlns="http://www.w3.org/2000/svg">
<path fill-rule="evenodd" clip-rule="evenodd" d="M36.3256 12.3223C36.2441 12.0983 36.1583 11.8759 36.0683 11.6552C35.9783 11.4345 35.8841 11.2156 35.7858 10.9985C35.6874 10.7814 35.5849 10.5662 35.4783 10.353C35.3717 10.1398 35.261 9.92873 35.1464 9.71976C35.0318 9.51078 34.9132 9.30406 34.7906 9.09962C34.6681 8.89516 34.5417 8.69313 34.4114 8.49351C34.2812 8.29388 34.1472 8.09682 34.0094 7.90231C33.8716 7.70781 33.7301 7.51601 33.5851 7.3269C33.44 7.1378 33.2913 6.95153 33.1391 6.7681C32.9869 6.58467 32.8312 6.40421 32.672 6.22673C32.513 6.04925 32.3505 5.87487 32.1847 5.70358C32.019 5.5323 31.8501 5.36424 31.6778 5.19941C31.5056 5.03459 31.3304 4.8731 31.1521 4.71496C30.9737 4.55682 30.7924 4.40215 30.6081 4.25093C30.4239 4.09972 30.2368 3.95208 30.0469 3.808C29.857 3.66393 29.6644 3.52354 29.4691 3.38682C29.2739 3.2501 29.0762 3.11716 28.8758 2.98799C28.6755 2.85883 28.4728 2.73353 28.2677 2.6121C28.0625 2.49068 27.8551 2.37322 27.6456 2.2597C27.436 2.1462 27.2243 2.03673 27.0105 1.93131C26.7967 1.82589 26.581 1.72458 26.3634 1.62739C26.1457 1.53021 25.9263 1.43721 25.705 1.3484C25.4839 1.25959 25.2611 1.17503 25.0366 1.09473C24.8122 1.01443 24.5863 0.93844 24.359 0.866764C24.1317 0.795087 23.9031 0.727774 23.6732 0.664827C23.4432 0.60188 23.2122 0.543344 22.98 0.489217C22.7479 0.435091 22.5148 0.385415 22.2809 0.340189C22.0468 0.294963 21.812 0.254219 21.5765 0.217959C21.3408 0.181699 21.1046 0.149948 20.8678 0.122706C20.631 0.0954647 20.3938 0.0727524 20.1562 0.0545693C19.9185 0.0363862 19.6805 0.0227455 19.4423 0.0136473C19.2042 0.00454911 18.9659 0 18.7275 0C18.4211 0 18.1148 0.00751936 17.8086 0.0225581C17.5025 0.0375967 17.1969 0.0601366 16.8918 0.0901778C16.5869 0.120219 16.2828 0.157725 15.9796 0.202696C15.6764 0.247668 15.3745 0.30005 15.0739 0.359843C14.7733 0.419636 14.4744 0.486767 14.1771 0.561238C13.8798 0.635709 13.5845 0.717429 13.2912 0.806398C12.9979 0.895366 12.707 0.991477 12.4184 1.09473C12.1298 1.19798 11.844 1.30825 11.5608 1.42555C11.2777 1.54283 10.9975 1.66699 10.7205 1.79803C10.4434 1.92908 10.1697 2.06684 9.89943 2.21131C9.62913 2.35579 9.36254 2.50681 9.09965 2.66438C8.83677 2.82195 8.57791 2.98587 8.32307 3.15615C8.06823 3.32642 7.81772 3.50284 7.57155 3.68542C7.32538 3.868 7.08383 4.0565 6.84691 4.25093C6.60999 4.44537 6.37799 4.6455 6.15089 4.85132C5.9238 5.05715 5.70189 5.26842 5.48517 5.48514C5.26844 5.70187 5.05717 5.92377 4.85134 6.15087C4.64552 6.37796 4.44539 6.60996 4.25095 6.84688C4.05651 7.0838 3.86801 7.32535 3.68544 7.57152C3.50286 7.81769 3.32643 8.0682 3.15616 8.32304C2.98588 8.57787 2.82196 8.83673 2.66439 9.09962C2.50682 9.3625 2.3558 9.62909 2.21132 9.89939C2.06684 10.1697 1.92908 10.4434 1.79804 10.7204C1.667 10.9975 1.54284 11.2776 1.42555 11.5608C1.30826 11.8439 1.19799 12.1298 1.09473 12.4184C0.991481 12.707 0.89537 12.9979 0.806401 13.2911C0.717432 13.5844 0.635711 13.8797 0.56124 14.1771C0.486769 14.4744 0.419638 14.7733 0.359844 15.0738C0.300051 15.3745 0.247669 15.6764 0.202697 15.9795C0.157726 16.2827 0.120219 16.5868 0.0901781 16.8918C0.0601369 17.1968 0.0375969 17.5024 0.0225582 17.8086C0.00751939 18.1147 0 18.421 0 18.7274C0 19.0339 0.00751939 19.3402 0.0225582 19.6463C0.0375969 19.9525 0.0601369 20.2581 0.0901781 20.5631C0.120219 20.8681 0.157726 21.1722 0.202697 21.4754C0.247669 21.7785 0.300051 22.0804 0.359844 22.381C0.419638 22.6816 0.486769 22.9805 0.56124 23.2778C0.635711 23.5752 0.717432 23.8705 0.806401 24.1638C0.89537 24.457 0.991481 24.7479 1.09473 25.0365C1.19799 25.325 1.30826 25.6109 1.42555 25.8941C1.54284 26.1772 1.667 26.4573 1.79804 26.7344C1.92908 27.0115 2.06684 27.2852 2.21132 27.5554C2.3558 27.8258 2.50682 28.0924 2.66439 28.3552C2.82196 28.6182 2.98588 28.877 3.15616 29.1318C3.32643 29.3867 3.50286 29.6372 3.68544 29.8834C3.86801 30.1295 4.05651 30.371 4.25095 30.608C4.44539 30.8449 4.64552 31.0769 4.85134 31.304C5.05717 31.5311 5.26844 31.753 5.48517 31.9697C5.70189 32.1865 5.9238 32.3978 6.15089 32.6036C6.37799 32.8094 6.60999 33.0096 6.84691 33.204C7.08383 33.3984 7.32538 33.5869 7.57155 33.7695C7.81772 33.9521 8.06823 34.1285 8.32307 34.2987C8.57791 34.469 8.83677 34.6329 9.09965 34.7905C9.36254 34.948 9.62913 35.0991 9.89943 35.2436C10.1697 35.388 10.4434 35.5258 10.7205 35.6568C10.9975 35.7879 11.2777 35.9121 11.5608 36.0294C11.844 36.1466 12.1298 36.2569 12.4184 36.3602C12.707 36.4634 12.9979 36.5595 13.2912 36.6485C13.5845 36.7375 13.8798 36.8192 14.1771 36.8937C14.4744 36.9681 14.7733 37.0352 15.0739 37.0951C15.3745 37.1548 15.6764 37.2072 15.9796 37.2521C16.2828 37.2972 16.5869 37.3347 16.8918 37.3648C17.1969 37.3948 17.5025 37.4173 17.8086 37.4323C18.1148 37.4474 18.4211 37.4549 18.7275 37.4549C18.9795 37.4549 19.2313 37.4498 19.4831 37.4397C19.7349 37.4295 19.9864 37.4143 20.2376 37.394C20.4888 37.3736 20.7394 37.3482 20.9896 37.3178C21.2397 37.2873 21.4891 37.2518 21.7378 37.2113C21.9865 37.1709 22.2343 37.1254 22.4813 37.0748C22.7281 37.0243 22.9739 36.9689 23.2185 36.9084C23.4631 36.848 23.7064 36.7827 23.9484 36.7124C24.1904 36.6422 24.4309 36.5671 24.6699 36.4872C24.9088 36.4072 25.1461 36.3224 25.3817 36.2329C25.6172 36.1434 25.8508 36.0492 26.0826 35.9502C26.3143 35.8512 26.5439 35.7476 26.7715 35.6393C26.999 35.5311 27.2243 35.4183 27.4473 35.301C27.6703 35.1837 27.8909 35.0619 28.109 34.9357C28.3271 34.8094 28.5425 34.6788 28.7554 34.5439C28.9682 34.409 29.1782 34.2698 29.3854 34.1264C29.5925 33.983 29.7967 33.8355 29.998 33.6838C30.1992 33.5322 30.3973 33.3765 30.5923 33.2169C30.7873 33.0572 30.979 32.8937 31.1673 32.7263C31.3557 32.559 31.5406 32.3879 31.722 32.2131C31.9035 32.0382 32.0814 31.8598 32.2557 31.6777C32.4299 31.4957 32.6004 31.3102 32.7672 31.1213C32.9339 30.9324 33.0968 30.7402 33.2558 30.5447C33.4148 30.3493 33.5698 30.1507 33.7208 29.9489C33.8718 29.7472 34.0186 29.5425 34.1614 29.3348C34.3041 29.1271 34.4426 28.9167 34.5767 28.7034C34.711 28.4902 34.8409 28.2743 34.9664 28.0557C35.0919 27.8372 35.213 27.6163 35.3296 27.3929C35.4462 27.1696 35.5582 26.9439 35.6657 26.716C35.7732 26.4881 35.8761 26.2581 35.9743 26.026C36.0725 25.794 36.1659 25.5601 36.2547 25.3243C36.3435 25.0884 36.4274 24.8508 36.5067 24.6116C36.5858 24.3724 36.6601 24.1317 36.7295 23.8895L25.9284 20.7922C25.9006 20.8891 25.8708 20.9854 25.8391 21.0811C25.8075 21.1768 25.7739 21.2718 25.7384 21.3661C25.7029 21.4604 25.6655 21.554 25.6262 21.6469C25.587 21.7397 25.5458 21.8317 25.5028 21.9228C25.4598 22.014 25.415 22.1043 25.3683 22.1936C25.3217 22.283 25.2733 22.3714 25.2231 22.4588C25.1729 22.5462 25.121 22.6326 25.0673 22.7179C25.0135 22.8031 24.9581 22.8873 24.9011 22.9703C24.844 23.0534 24.7852 23.1353 24.7248 23.216C24.6644 23.2967 24.6024 23.3761 24.5388 23.4544C24.4752 23.5325 24.4101 23.6094 24.3434 23.685C24.2767 23.7606 24.2084 23.8348 24.1388 23.9076C24.069 23.9804 23.9979 24.0518 23.9253 24.1217C23.8527 24.1916 23.7787 24.2601 23.7034 24.3271C23.6281 24.394 23.5514 24.4594 23.4734 24.5232C23.3955 24.5871 23.3162 24.6493 23.2357 24.71C23.1552 24.7707 23.0736 24.8297 22.9907 24.887C22.9078 24.9444 22.8238 25.0001 22.7387 25.0541C22.6536 25.108 22.5674 25.1602 22.4801 25.2108C22.3929 25.2612 22.3047 25.3099 22.2155 25.3568C22.1262 25.4038 22.0361 25.4489 21.9452 25.4922C21.8541 25.5355 21.7622 25.5769 21.6695 25.6165C21.5768 25.6561 21.4834 25.6938 21.3892 25.7296C21.295 25.7654 21.2001 25.7993 21.1044 25.8313C21.0089 25.8633 20.9127 25.8934 20.8159 25.9214C20.7191 25.9495 20.6217 25.9757 20.5239 25.9998C20.4261 26.024 20.3278 26.0462 20.229 26.0664C20.1303 26.0866 20.0312 26.1048 19.9317 26.121C19.8322 26.1372 19.7324 26.1514 19.6323 26.1636C19.5323 26.1758 19.432 26.1859 19.3315 26.1941C19.2311 26.2022 19.1305 26.2082 19.0298 26.2123C18.9291 26.2164 18.8283 26.2184 18.7275 26.2184C18.6049 26.2184 18.4824 26.2154 18.36 26.2094C18.2375 26.2034 18.1153 26.1943 17.9933 26.1823C17.8713 26.1704 17.7496 26.1554 17.6283 26.1374C17.5071 26.1193 17.3863 26.0984 17.2661 26.0745C17.1459 26.0506 17.0263 26.0237 16.9073 25.9939C16.7884 25.9641 16.6703 25.9314 16.553 25.8958C16.4356 25.8603 16.3193 25.8219 16.2039 25.7806C16.0885 25.7392 15.9741 25.6951 15.8608 25.6482C15.7476 25.6013 15.6355 25.5516 15.5247 25.4992C15.4139 25.4468 15.3044 25.3917 15.1963 25.3339C15.0881 25.2761 14.9815 25.2157 14.8764 25.1527C14.7712 25.0896 14.6676 25.024 14.5658 24.9559C14.4638 24.8879 14.3636 24.8173 14.2651 24.7442C14.1667 24.6712 14.07 24.5958 13.9752 24.5181C13.8805 24.4403 13.7877 24.3602 13.6968 24.2779C13.606 24.1956 13.5173 24.111 13.4306 24.0243C13.3439 23.9377 13.2594 23.8489 13.1771 23.7581C13.0947 23.6672 13.0147 23.5744 12.9368 23.4797C12.8591 23.3849 12.7837 23.2883 12.7107 23.1898C12.6377 23.0914 12.5671 22.9911 12.499 22.8892C12.4309 22.7873 12.3653 22.6838 12.3023 22.5786C12.2392 22.4734 12.1788 22.3668 12.121 22.2587C12.0632 22.1506 12.0081 22.0411 11.9557 21.9302C11.9033 21.8194 11.8536 21.7074 11.8067 21.5941C11.7598 21.4808 11.7157 21.3665 11.6744 21.251C11.6331 21.1357 11.5947 21.0193 11.5591 20.902C11.5235 20.7847 11.4908 20.6666 11.461 20.5476C11.4312 20.4287 11.4044 20.3091 11.3805 20.1888C11.3565 20.0686 11.3356 19.9479 11.3176 19.8266C11.2996 19.7054 11.2846 19.5837 11.2726 19.4617C11.2606 19.3397 11.2515 19.2174 11.2455 19.095C11.2395 18.9726 11.2365 18.85 11.2365 18.7274C11.2365 18.6048 11.2395 18.4823 11.2455 18.3599C11.2515 18.2375 11.2606 18.1152 11.2726 17.9932C11.2846 17.8712 11.2996 17.7495 11.3176 17.6283C11.3356 17.507 11.3565 17.3863 11.3805 17.2661C11.4044 17.1458 11.4312 17.0262 11.461 16.9073C11.4908 16.7883 11.5235 16.6702 11.5591 16.5529C11.5947 16.4356 11.6331 16.3192 11.6744 16.2039C11.7157 16.0884 11.7598 15.9741 11.8067 15.8608C11.8536 15.7475 11.9033 15.6355 11.9557 15.5247C12.0081 15.4138 12.0632 15.3043 12.121 15.1962C12.1788 15.0881 12.2392 14.9815 12.3023 14.8763C12.3653 14.7711 12.4309 14.6676 12.499 14.5657C12.5671 14.4637 12.6377 14.3635 12.7107 14.2651C12.7837 14.1666 12.8591 14.07 12.9368 13.9752C13.0147 13.8804 13.0947 13.7876 13.1771 13.6968C13.2594 13.6059 13.3439 13.5172 13.4306 13.4306C13.5173 13.3438 13.606 13.2593 13.6968 13.177C13.7877 13.0947 13.8805 13.0146 13.9752 12.9368C14.07 12.8591 14.1667 12.7837 14.2651 12.7107C14.3636 12.6376 14.4638 12.567 14.5658 12.4989C14.6676 12.4308 14.7712 12.3652 14.8764 12.3022C14.9815 12.2392 15.0881 12.1788 15.1963 12.121C15.3044 12.0632 15.4139 12.0081 15.5247 11.9557C15.6355 11.9033 15.7476 11.8536 15.8608 11.8067C15.9741 11.7598 16.0885 11.7157 16.2039 11.6744C16.3193 11.6331 16.4356 11.5946 16.553 11.559C16.6703 11.5234 16.7884 11.4907 16.9073 11.461C17.0263 11.4312 17.1459 11.4043 17.2661 11.3804C17.3863 11.3565 17.5071 11.3355 17.6283 11.3175C17.7496 11.2996 17.8713 11.2846 17.9933 11.2725C18.1153 11.2605 18.2375 11.2515 18.36 11.2455C18.4824 11.2395 18.6049 11.2365 18.7275 11.2365C18.8229 11.2365 18.9182 11.2383 19.0134 11.2419C19.1087 11.2456 19.2039 11.251 19.299 11.2583C19.394 11.2656 19.4889 11.2747 19.5836 11.2855C19.6783 11.2964 19.7728 11.3092 19.867 11.3237C19.9613 11.3382 20.0553 11.3545 20.1488 11.3725C20.2425 11.3906 20.3357 11.4105 20.4286 11.4322C20.5214 11.4538 20.6138 11.4772 20.7058 11.5024C20.7977 11.5276 20.8892 11.5545 20.9801 11.5832C21.071 11.6118 21.1614 11.6422 21.2511 11.6744C21.3409 11.7065 21.4301 11.7403 21.5185 11.7758C21.607 11.8113 21.6948 11.8485 21.7819 11.8874C21.8689 11.9263 21.9552 11.9668 22.0407 12.009C22.1262 12.0512 22.2109 12.095 22.2947 12.1404C22.3786 12.1858 22.4615 12.2327 22.5436 12.2813C22.6256 12.3299 22.7067 12.38 22.7869 12.4317C22.867 12.4833 22.9461 12.5365 23.0242 12.5912C23.1023 12.6459 23.1793 12.702 23.2553 12.7596C23.3312 12.8173 23.4061 12.8764 23.4798 12.9368C23.5535 12.9973 23.626 13.0592 23.6973 13.1224C23.7686 13.1857 23.8388 13.2503 23.9077 13.3162C23.9765 13.3821 24.0441 13.4493 24.1104 13.5178C24.1768 13.5864 24.2417 13.6562 24.3053 13.7272C24.369 13.7981 24.4313 13.8703 24.4921 13.9437C24.553 14.0171 24.6125 14.0916 24.6705 14.1672C24.7286 14.2428 24.7852 14.3196 24.8403 14.3974C24.8954 14.4752 24.949 14.5541 25.0011 14.6339C25.0532 14.7137 25.1038 14.7945 25.1528 14.8763C25.2018 14.9581 25.2493 15.0408 25.2951 15.1244C25.341 15.208 25.3852 15.2924 25.4279 15.3777C25.4705 15.463 25.5115 15.549 25.5508 15.6359C25.5902 15.7227 25.6279 15.8103 25.6638 15.8986C25.6999 15.9868 25.7342 16.0758 25.7668 16.1654L36.3256 12.3223Z" fill="#00C97C"/>
<mask id="mask0_202_24521" style="mask-type:luminance" maskUnits="userSpaceOnUse" x="41" y="6" width="119" height="25">
<path d="M160 6.98926H41.8247V30.5858H160V6.98926Z" fill="white"/>
</mask>
<g mask="url(#mask0_202_24521)">
<path d="M149.27 10.2241L156.652 28.4798H152.812L151.216 24.3149H144.108L142.562 28.4798H138.945L146.103 10.2241H149.27ZM150.043 21.2224L147.599 14.813L145.23 21.2224H150.043Z" fill="#151515"/>
<path d="M124.69 10.2241L133.544 22.2948V10.2241H136.911V28.4798H133.968L125.089 16.3842V28.4798H121.772V10.2241H124.69Z" fill="#151515"/>
<path d="M117.957 28.4798H114.341V10.2241H117.957V28.4798Z" fill="#151515"/>
<path d="M98.6231 17.4067H106.853V10.2241H110.494V28.4798H106.853V20.6239H98.6231V28.4798H95.0068V10.2241H98.6231V17.4067Z" fill="#151515"/>
<path d="M85.8323 25.4653C86.7135 25.4653 87.47 25.2325 88.1018 24.767C88.7502 24.3015 89.2656 23.653 89.648 22.8217L92.6657 24.5675C92.2168 25.7978 91.3938 26.812 90.1967 27.6101C88.9996 28.3915 87.5697 28.7823 85.9071 28.7823C84.2944 28.7823 82.8229 28.3915 81.4928 27.6101C80.1627 26.8287 79.1069 25.723 78.3255 24.2932C77.544 22.8467 77.1533 21.1923 77.1533 19.3302C77.1533 17.468 77.5357 15.822 78.3005 14.3922C79.082 12.9623 80.1378 11.8567 81.4679 11.0752C82.8146 10.2938 84.2944 9.90308 85.9071 9.90308C87.5697 9.90308 88.9996 10.3021 90.1967 11.1002C91.3938 11.8816 92.2168 12.8875 92.6657 14.1178L89.648 15.8636C89.2656 15.0323 88.7502 14.3839 88.1018 13.9183C87.47 13.4528 86.7135 13.22 85.8323 13.22C84.9012 13.22 84.0699 13.4694 83.3383 13.9682C82.6068 14.467 82.0248 15.1819 81.5926 16.113C81.1769 17.0275 80.9691 18.0998 80.9691 19.3302C80.9691 20.5605 81.1769 21.6413 81.5926 22.5723C82.0248 23.5034 82.6068 24.2183 83.3383 24.7171C84.0699 25.2159 84.9012 25.4653 85.8323 25.4653Z" fill="#151515"/>
<path d="M75.5908 23.1958C75.5908 24.4428 75.2666 25.4902 74.6181 26.3382C73.9863 27.1695 73.155 27.7847 72.1242 28.1837C71.11 28.5827 70.0209 28.7823 68.8571 28.7823C67.1612 28.7823 65.6316 28.3915 64.2682 27.6101C62.9049 26.812 61.9987 25.6898 61.5498 24.2433L64.4927 22.5723C64.8917 23.5034 65.4736 24.2266 66.2384 24.7421C67.0033 25.2575 67.9177 25.5152 68.9818 25.5152C69.8464 25.5152 70.5281 25.3406 71.0268 24.9915C71.5423 24.6423 71.8 24.1352 71.8 23.4701C71.8 22.9381 71.6254 22.4975 71.2762 22.1484C70.9437 21.7992 70.5197 21.5249 70.0043 21.3254C69.5055 21.1258 68.8155 20.8931 67.9343 20.627C66.7539 20.2779 65.7895 19.9371 65.0413 19.6045C64.2932 19.2554 63.653 18.74 63.121 18.0583C62.589 17.3766 62.3229 16.4788 62.3229 15.3648C62.3229 14.1844 62.6305 13.1868 63.2457 12.3721C63.8775 11.5408 64.7005 10.9256 65.7147 10.5266C66.7455 10.1109 67.8512 9.90308 69.0317 9.90308C70.6444 9.90308 72.0244 10.2689 73.1716 11.0004C74.3189 11.732 75.0587 12.7212 75.3913 13.9682L72.4484 15.6392C72.1491 14.8577 71.7002 14.2509 71.1017 13.8186C70.5031 13.3697 69.7549 13.1452 68.8571 13.1452C68.0424 13.1452 67.3774 13.3364 66.8619 13.7188C66.3631 14.0846 66.1137 14.5751 66.1137 15.1902C66.1137 15.6558 66.2717 16.0465 66.5876 16.3624C66.9035 16.6617 67.3025 16.9111 67.7847 17.1106C68.2835 17.2935 68.9485 17.5096 69.7799 17.759C70.977 18.1082 71.9662 18.4656 72.7477 18.8314C73.5291 19.1806 74.1942 19.7126 74.7428 20.4275C75.3081 21.1258 75.5908 22.0486 75.5908 23.1958Z" fill="#151515"/>
<path d="M42.8594 19.3302C42.8594 17.4182 43.2418 15.7472 44.0066 14.3174C44.7714 12.8875 45.8106 11.7985 47.124 11.0503C48.4542 10.2855 49.9339 9.90308 51.5633 9.90308C53.1927 9.90308 54.6641 10.2855 55.9776 11.0503C57.3077 11.7985 58.3552 12.8875 59.12 14.3174C59.9014 15.7472 60.2921 17.4182 60.2921 19.3302C60.2921 21.2588 59.9014 22.9381 59.12 24.368C58.3552 25.7978 57.3077 26.8952 55.9776 27.66C54.6641 28.4082 53.1927 28.7823 51.5633 28.7823C49.9339 28.7823 48.4542 28.4082 47.124 27.66C45.8106 26.8952 44.7714 25.7978 44.0066 24.368C43.2418 22.9381 42.8594 21.2588 42.8594 19.3302ZM46.6751 19.3302C46.6751 20.5439 46.8746 21.6163 47.2737 22.5474C47.6893 23.4785 48.263 24.2017 48.9945 24.7171C49.7427 25.2159 50.599 25.4653 51.5633 25.4653C52.5276 25.4653 53.3756 25.2159 54.1071 24.7171C54.8553 24.2017 55.4289 23.4785 55.828 22.5474C56.2436 21.6163 56.4514 20.5439 56.4514 19.3302C56.4514 18.1165 56.2436 17.0524 55.828 16.1379C55.4289 15.2069 54.8553 14.4919 54.1071 13.9932C53.3756 13.4777 52.5276 13.22 51.5633 13.22C50.599 13.22 49.7427 13.4777 48.9945 13.9932C48.263 14.4919 47.6893 15.2069 47.2737 16.1379C46.8746 17.0524 46.6751 18.1165 46.6751 19.3302Z" fill="#151515"/>
</g>
</svg>
