<svg width="146" height="40" viewBox="0 0 146 40" fill="none" xmlns="http://www.w3.org/2000/svg">
<path fill-rule="evenodd" clip-rule="evenodd" d="M41.0885 0C40.9558 2.22289 40.1287 4.15729 39.2768 6.0045L39.1745 6.22576C38.6799 7.29328 38.1859 8.33419 37.8231 9.38776H47.483C46.1234 6.48762 45.1293 3.49048 43.9456 0.136054V0H52.517L52.6531 0.408163C53.1198 1.09551 52.8685 2.25442 52.6531 2.9932L48.7075 3.12925V3.26531L49.1157 4.4898L53.8776 4.35374L54.0136 4.7619C54.6193 5.42571 54.4022 6.62762 54.1497 7.48299L50.8844 7.7551C52.8498 11.8925 60.2106 24.3103 59.3198 29.6599L58.3674 30.4762C57.2891 31.0476 56.0642 30.4125 55.6463 29.5238L53.0612 21.2245L50.6123 15.102H50.4762V34.0136H47.7551V36.0544C49.1744 35.9961 50.1361 36.0816 50.8844 36.5986C51.0749 37.4558 51.0765 37.8158 50.8844 38.6395H69.1157V25.5782C68.4542 25.6607 68.2857 25.595 67.7551 25.3061V23.6735L69.1157 23.5374V20.5442H67.8912L67.6191 19.5918L67.483 19.8639C66.6653 21.2327 66.2172 22.9821 65.7549 24.7186L65.6917 24.9553C65.1218 27.0841 64.5041 29.1667 63.1293 30.4762L61.7687 30.2041C61.6992 26.2585 67.5102 12.003 69.3878 9.38776L70.4762 9.52381C71.3652 9.96999 71.1311 10.8827 70.8024 11.7178L70.7744 11.7882C70.7556 11.8349 70.7366 11.8814 70.7176 11.9275L70.6891 11.9963C70.6131 12.179 70.5383 12.3547 70.4762 12.517C71.3772 12.4649 72.1618 12.3932 72.517 12.9252V14.1497L72.2449 14.5578L69.6599 14.4218L67.8912 18.7755C68.877 18.4626 72.2721 18.337 72.7892 19.0476V20.4082L71.1565 20.5442V23.5374C72.0166 23.4876 72.59 23.4396 72.9252 23.9456C73.2191 24.6147 72.9271 25.1293 72.6531 25.5782H71.1565V38.6395H76.0545V20.5442H73.8776C73.5589 19.7585 73.6247 19.2879 74.0136 18.6395H78.0953V36.0544H85.1701C84.8327 35.5127 84.7347 35.0239 84.7619 34.0136C83.0085 34.0596 80.4267 34.2644 79.3198 33.6054V33.4694L79.4558 32.517L79.7279 31.9728H84.7619V30.4762C82.2795 30.5463 80.4721 30.5137 79.1837 29.5238V29.3878C79.2289 26.405 80.2542 23.7922 81.3519 21.2466L81.4764 20.9587C81.5388 20.8149 81.6013 20.6713 81.6637 20.5277L81.7885 20.2408C82.6194 18.3291 83.4232 16.4328 83.8096 14.4218L83.7598 14.4245L83.6596 14.4303C83.5758 14.4352 83.4913 14.4402 83.4065 14.4448L83.3048 14.4503C82.4905 14.4918 81.6789 14.4852 81.3606 14.0136C81.0452 13.4453 81.1809 13.1759 81.3606 12.517H84.7619C85.0713 11.1626 85.5511 10.0668 86.3946 9.2517L87.483 9.38776L87.6191 9.79592C87.8832 10.4706 87.5914 11.1408 87.3282 11.7925L87.289 11.8901C87.2048 12.1012 87.1268 12.3104 87.0749 12.517C88.739 12.4705 91.0749 12.3082 92.1089 12.9252L92.2449 13.4694L91.9728 14.2857L91.5647 14.4218H85.9864L81.3606 28.4354H84.7619C84.7251 25.6805 84.0409 20.8098 85.0341 18.6395C85.8104 18.4837 86.1161 18.585 86.6667 18.9116V28.4354C87.0938 28.4236 87.5493 28.4065 88.0119 28.395L88.1754 28.3913C89.7584 28.3574 91.3955 28.4057 92.2449 28.9796V29.1156C92.2164 29.8859 92.0975 30.0291 91.8368 30.4762L86.6667 30.6122V31.9728C88.2938 31.9356 90.8104 31.7019 91.9728 32.2449C92.139 33.0547 92.0346 33.4459 91.7007 34.0136H86.6667C86.7048 35.0204 86.5924 35.5181 86.2585 36.0544C87.9864 36.0173 90.7203 35.7431 91.9728 36.3265C92.1708 36.975 92.3376 37.8608 92.1089 38.6395H100.408V19.7279C100.408 19.0832 100.377 18.371 100.353 17.6479L100.348 17.4809C100.286 15.4749 100.305 13.4191 101.225 12.517L98.3674 12.6531C98.8434 13.0214 98.8826 14.14 98.8458 15.2378L98.8414 15.3596L98.8365 15.481C98.8126 16.0464 98.7756 16.5909 98.7756 17.0068C98.7756 20.2903 99.616 28.3521 98.5034 30.7483H97.1429L96.5987 30.4762C96.5533 24.5358 96.508 18.5947 96.4626 12.6531L95.2381 11.5646L95.3742 10.3401L96.1905 9.52381C97.8454 8.84177 107.286 9.27891 108.299 9.93197C108.483 10.5513 108.574 10.9833 108.435 11.7007C108.063 12.2244 107.932 12.4287 107.075 12.517C107.833 13.8095 107.952 29.132 107.211 30.7483C106.401 30.9144 106.01 30.8101 105.442 30.4762C105.404 26.7453 104.523 14.6328 105.986 12.517L102.721 12.6531C104.109 13.3454 103.537 17.0556 103.537 19.0476V38.6395H108.299C107.918 37.5113 108.254 36.8427 108.844 36.0544H115.102V30.4762H110.068L109.932 30.068V28.5714L115.102 28.4354V16.1905C115.102 14.9771 114.767 12.6407 115.51 12.1088H117.007C117.052 17.5505 117.098 22.9927 117.143 28.4354C117.64 28.4177 118.417 28.357 119.227 28.3289L119.358 28.3246L119.491 28.321C120.79 28.2889 122.107 28.3607 122.449 28.8435V30.3401L117.143 30.4762V36.0544C119.109 36.0174 122.345 35.6483 123.81 36.3265C124.008 36.975 124.174 37.8608 123.946 38.6395H126.803V12.517H140.544C140.968 12.517 141.554 12.4754 142.168 12.448L142.292 12.4427C143.507 12.393 144.802 12.4125 145.17 12.9252C145.357 13.3267 145.305 13.7989 145.034 14.1497V14.4218H128.844V36.0544L142.313 35.9184C141.226 35.3414 138.109 29.4188 137.551 28.0272L137.007 28.1633C136.346 29.8388 132.954 34.9796 131.565 35.9184L131.02 35.7823L130.612 35.5102C130.735 33.483 131.921 32.0705 133.146 30.6977L133.294 30.5331L133.441 30.3686C133.465 30.3412 133.49 30.3138 133.514 30.2864L133.661 30.1218C134.707 28.9409 135.677 27.7298 135.918 26.1224C135.033 24.4245 130.426 19.575 131.157 17.551L131.429 17.1429H131.973C132.567 17.7384 133.514 19.2197 134.484 20.7112L134.613 20.91C135.758 22.6656 136.916 24.3811 137.551 24.6259C138.339 22.0648 140.633 18.6702 142.721 17.2789L143.129 17.415L143.537 17.6871C143.406 21.0414 139.879 23.6634 138.503 26.2585C139.523 27.7997 143.849 34.3988 143.129 36.0544C145.132 35.9147 146.09 35.9856 145.986 38.2313C145.599 39.0211 145.124 39.3702 144.626 40H7.34694C6.02993 38.5279 2.03225 36.4792 3.26531 34.6939L13.4694 25.1701C14.1393 24.4784 15.2308 23.1502 14.8299 21.4966C14.5391 20.2967 13.6897 19.5989 12.7765 18.9718L12.6596 18.8921C12.5815 18.8391 12.5031 18.7866 12.4246 18.7342L12.2483 18.6162C11.5049 18.1183 10.7816 17.6124 10.3401 16.8707C10.6589 16.5349 11.0171 16.2078 11.382 15.8742L11.4974 15.7686L11.613 15.6625C13.0972 14.2967 14.5779 12.7709 13.8776 10.068C12.0991 8.75388 10.0442 7.49293 7.61905 6.80272V29.932H0V3.40136L7.34694 0.272109C9.69783 -0.29932 11.9675 1.52748 13.4694 2.17687C20.2678 5.11565 25.4227 8.40014 19.5918 16.0544L19.864 16.4626C22.6052 17.7528 23.8452 22.2805 22.1769 25.8503C20.6755 29.063 17.8145 31.4359 14.9884 33.7734L14.7059 34.0071C12.9185 35.4866 11.1638 36.9626 9.79592 38.6395H34.8299V38.5034C34.4694 37.4958 34.7404 36.839 35.2381 36.0544H37.8231V34.0136H35.1021L35.034 24.7623L34.966 15.5152V15.7823C32.8972 18.877 31.7989 30.4864 27.8912 30.7483C27.3674 30.4082 27.0969 30.3922 26.8027 29.7959C25.8244 27.9297 27.3437 24.9509 27.8912 23.5374C30.0374 17.9961 32.1113 12.7161 34.6939 7.7551V7.61905H31.5646L31.4286 7.21088C30.8792 6.40708 31.2821 5.20422 31.5646 4.4898L36.0544 4.35374L36.3265 3.12925H32.7891L32.517 2.72109C31.9078 1.75211 32.2757 0.906803 32.6531 0H41.0885ZM44.3538 34.0136H41.2245V36.0544H44.3538V34.0136ZM48.5715 14.4218H37.1429V31.9728H48.5715V14.4218ZM7.07483 25.8503H4.21769V28.8435H7.07483V25.8503ZM3.67347 22.449H0.952381V25.4422H3.80953L3.67347 22.449ZM6.93878 19.0476H4.08163V22.1769H6.93878V19.0476ZM3.67347 15.5102H0.952381V18.6395H3.67347V15.5102ZM75.7823 11.8367C76.684 11.8367 77.415 12.5677 77.415 13.4694C77.415 14.3711 76.684 15.102 75.7823 15.102C74.8807 15.102 74.1497 14.3711 74.1497 13.4694C74.1497 12.5677 74.8807 11.8367 75.7823 11.8367ZM7.07483 11.9728H4.21769V14.966H7.07483V11.9728ZM37.1429 10.7483L36.3265 12.517H49.1157L48.2993 10.8844C46.306 11.2699 38.7278 11.4767 37.1429 10.7483ZM3.80953 8.02721H1.08844V11.1565H3.80953V8.02721ZM104.626 4.89796L104.898 6.39456L104.49 7.48299L104.218 7.61905H99.5919L99.4558 7.21088C98.804 6.35918 99.1124 5.25238 99.5919 4.4898C101.256 4.44327 103.592 4.28095 104.626 4.89796ZM6.80272 4.62585H4.08163V7.61905H6.80272V4.62585Z" fill="#1588DF"/>
</svg>
