<svg width="160" height="25" viewBox="0 0 160 25" fill="none" xmlns="http://www.w3.org/2000/svg">
<path d="M37.5117 5.91602C40.386 5.91606 42.3561 7.27223 43.4219 8.75781V6.20605H47.9756V24.0977H43.4219V21.4824C42.3561 23.0325 40.3213 24.3886 37.4795 24.3887C32.9582 24.3887 29.341 20.6749 29.3408 15.0879C29.3408 9.50072 32.958 5.91602 37.5117 5.91602ZM81.4297 5.91602C84.8148 5.91606 87.5393 7.25823 89.0791 9.6582L85.2236 12.0674C84.6526 10.653 83.1957 9.75886 81.3975 9.75879C78.8784 9.75879 77.1992 11.6644 77.1992 15.1523C77.1993 18.6402 78.8784 20.5137 81.3975 20.5137C83.2094 20.5136 84.6435 19.7259 85.2324 18.2129L89.0557 20.6016C87.5117 22.9491 84.7976 24.3886 81.4297 24.3887C76.2624 24.3887 72.5802 20.7717 72.5801 15.1523C72.5801 9.53288 76.2624 5.91602 81.4297 5.91602ZM118.291 5.91602C123.458 5.91602 127.108 9.43584 127.108 14.7646C127.108 15.346 127.075 15.9275 126.979 16.5088H113.899C114.126 19.1568 115.934 20.6425 118.194 20.6426C120.046 20.6426 121.384 19.757 122.007 18.6357L125.707 20.9473C124.151 22.988 121.527 24.3887 118.291 24.3887C113.092 24.3885 109.314 20.7715 109.313 15.1523C109.313 9.50073 112.995 5.9162 118.291 5.91602ZM10.166 0C15.5917 0 18.3047 3.37933 18.3047 7.28711C18.3047 10.7105 15.9793 14.5098 10.166 14.5098H4.52051V24.0977H0V0H10.166ZM26.0361 24.0977H21.5146V0H26.0361V24.0977ZM62.3057 5.94824C66.4717 5.94824 69.4432 8.66055 69.4434 13.6016V24.0977H64.9219V14.2158C64.9219 11.3417 63.3398 9.79122 60.9502 9.79102C58.4957 9.79102 56.9131 11.3415 56.9131 14.2158V24.0977H52.3916V6.20605H56.9131V8.43457C58.0757 6.91689 60.013 5.94838 62.3057 5.94824ZM96.1367 13.7959L102.144 6.20605H108.021L100.142 15.1846L108.087 24.0977H102.209L96.1367 16.4766V24.0977H91.6152V0H96.1367V13.7959ZM140.42 10.6953H139.226C136.545 10.6953 134.93 11.7289 134.93 15.1846V24.0977H130.408V6.20605H134.93V8.9834C136.06 7.14266 137.933 5.9483 140.42 5.94824V10.6953ZM38.6738 9.8877C36.2518 9.88789 33.959 11.697 33.959 15.0879C33.9591 18.4786 36.2519 20.4158 38.6738 20.416C41.1606 20.416 43.4218 18.5433 43.4219 15.1523C43.4219 11.7613 41.1606 9.8877 38.6738 9.8877ZM118.162 9.62988C115.998 9.62994 114.287 11.0183 113.932 13.4727H122.426C122.361 11.1151 120.487 9.62988 118.162 9.62988ZM4.52051 10.8604H9.97266C12.5238 10.8602 13.6543 9.28937 13.6543 7.28711C13.6543 5.22028 12.5238 3.68177 9.97266 3.68164H4.52051V10.8604Z" fill="#1A1A1A"/>
<path d="M157.524 10.2755L152.566 5.31811L147.612 10.2727L145.137 7.79782L152.563 0.371819L152.569 0.378034L152.573 0.373891L159.999 7.79989L157.524 10.2755Z" fill="#1A1A1A"/>
</svg>
