<svg width="117" height="40" viewBox="0 0 117 40" fill="none" xmlns="http://www.w3.org/2000/svg">
<g clip-path="url(#clip0_202_18913)">
<path d="M111.896 29.4978C111.216 29.4978 110.658 29.2798 110.223 28.844C109.787 28.3906 109.569 27.7891 109.569 27.0394C109.569 26.2721 109.952 24.1189 110.719 20.5794C110.266 20.4747 109.534 20.4224 108.523 20.4224C107.511 20.4224 106.544 20.5097 105.619 20.684C104.73 24.6943 104.259 27.3794 104.207 28.7394C103.579 29.0881 102.254 29.2624 100.232 29.2624H99.9702C100.023 28.4952 100.485 26.2024 101.356 22.384C102.246 18.5655 102.795 15.6974 103.004 13.7794C103.004 13.5004 102.917 13.1691 102.743 12.7855C102.568 12.3845 102.394 12.0619 102.219 11.8178L101.932 11.4517L102.01 11.0594C103.039 10.7629 104.669 10.6147 106.901 10.6147C107.11 10.9635 107.215 11.5301 107.215 12.3147C107.215 13.0994 106.823 15.2614 106.038 18.8009H111.086C111.696 15.6974 112.01 13.4829 112.027 12.1578C112.027 11.8614 112.01 11.6173 111.975 11.4255C113.37 10.885 114.773 10.6147 116.186 10.6147C116.238 10.7194 116.264 10.9809 116.264 11.3994C116.264 12.3583 115.837 14.8255 114.983 18.8009C114.146 22.7763 113.727 25.3044 113.727 26.3855C113.727 26.8563 113.806 27.0917 113.963 27.0917C114.119 27.0917 114.651 26.8651 115.558 26.4117L116.029 27.3794C114.477 28.7917 113.099 29.4978 111.896 29.4978Z" fill="#007AFF"/>
<path d="M96.2621 12.9163C96.7328 13.6137 97.0815 14.3547 97.3082 15.1394C97.5348 15.9066 97.6482 16.7609 97.6482 17.7024C97.6482 18.644 97.5436 19.6466 97.3344 20.7101C97.1252 21.7737 96.7764 22.8374 96.2882 23.9009C95.7999 24.9644 95.2071 25.906 94.5098 26.7255C93.8122 27.5451 92.9318 28.2163 91.8682 28.7394C90.8045 29.2451 89.6364 29.4978 88.3636 29.4978C86.4979 29.4978 85.0507 28.8352 84.0221 27.5101C82.9933 26.1675 82.479 24.4501 82.479 22.3578C82.479 20.2481 82.8452 18.3214 83.5775 16.5778C84.3272 14.8168 85.3907 13.3871 86.7682 12.2886C88.163 11.1727 89.7061 10.6147 91.3975 10.6147C92.5133 10.6147 93.4898 10.824 94.3267 11.2424C95.1636 11.6609 95.8087 12.2189 96.2621 12.9163ZM89.1482 27.7194C89.9676 27.7194 90.6564 27.362 91.2144 26.6471C91.7898 25.9321 92.2256 24.9994 92.5221 23.8486C93.1148 21.582 93.4113 19.2543 93.4113 16.8655C93.4113 13.884 92.6092 12.3932 91.0052 12.3932C90.0984 12.3932 89.3051 12.9337 88.6251 14.0147C87.3522 16.0547 86.7159 18.8794 86.7159 22.4886C86.7159 24.4589 86.8292 25.6794 87.0559 26.1501C87.1605 26.4117 87.2999 26.682 87.4744 26.9609C87.7882 27.4666 88.3461 27.7194 89.1482 27.7194Z" fill="#007AFF"/>
<path d="M75.3754 29.4978C74.6954 29.4978 74.1374 29.2798 73.7015 28.844C73.2655 28.3906 73.0477 27.7891 73.0477 27.0394C73.0477 26.2721 73.4312 24.1189 74.1985 20.5794C73.7451 20.4747 73.0128 20.4224 72.0015 20.4224C70.9901 20.4224 70.0224 20.5097 69.0984 20.684C68.2092 24.6943 67.7385 27.3794 67.6861 28.7394C67.0585 29.0881 65.7332 29.2624 63.7108 29.2624H63.4492C63.5015 28.4952 63.9635 26.2024 64.8354 22.384C65.7246 18.5655 66.2738 15.6974 66.4831 13.7794C66.4831 13.5004 66.3958 13.1691 66.2215 12.7855C66.0471 12.3845 65.8728 12.0619 65.6985 11.8178L65.4108 11.4517L65.4892 11.0594C66.5178 10.7629 68.1481 10.6147 70.38 10.6147C70.5892 10.9635 70.6938 11.5301 70.6938 12.3147C70.6938 13.0994 70.3015 15.2614 69.5169 18.8009H74.5646C75.1748 15.6974 75.4886 13.4829 75.5061 12.1578C75.5061 11.8614 75.4886 11.6173 75.4538 11.4255C76.8486 10.885 78.2523 10.6147 79.6646 10.6147C79.7169 10.7194 79.7431 10.9809 79.7431 11.3994C79.7431 12.3583 79.3158 14.8255 78.4615 18.8009C77.6246 22.7763 77.2061 25.3044 77.2061 26.3855C77.2061 26.8563 77.2846 27.0917 77.4415 27.0917C77.5985 27.0917 78.1301 26.8651 79.0369 26.4117L79.5077 27.3794C77.9558 28.7917 76.5785 29.4978 75.3754 29.4978Z" fill="#007AFF"/>
<path d="M45.3123 27.971C44.7183 29.9816 43.7561 31.7831 42.5236 33.3281C38.6556 38.1636 32.1106 40.4448 25.8053 38.5819C17.4921 36.1224 12.7402 27.3908 15.1998 19.0721C15.3281 18.6399 15.4732 18.2161 15.6349 17.8033C16.5775 15.3799 18.075 13.3079 19.935 11.6904C21.4716 10.3518 23.2564 9.32281 25.1806 8.66467C28.1561 7.6468 31.4637 7.50737 34.7069 8.46667C36.949 9.1276 38.9316 10.2487 40.5826 11.6904C42.4956 13.3609 43.9626 15.4664 44.8801 17.8061C46.107 20.9405 46.3413 24.4905 45.3123 27.971Z" fill="#007AFF"/>
<path d="M43.4411 32.0557C43.1566 32.4963 42.8498 32.9201 42.5263 33.3274C38.6584 38.1629 32.1134 40.4441 25.8081 38.5812C17.4921 36.1217 12.7402 27.3901 15.1998 19.0715C19.9323 32.2788 30.5432 35.2961 43.4411 32.0557Z" fill="#2B90FF"/>
<path d="M19.9383 11.6917C18.0781 13.3092 16.5806 15.384 15.6381 17.8046L10.7773 13.4458C12.5788 12.4558 13.8672 10.6683 14.1935 8.58789L19.9383 11.6917Z" fill="#9ACAFF" stroke="white" stroke-width="1.28206" stroke-miterlimit="10" stroke-linejoin="round"/>
<path d="M14.1901 8.58675C13.861 10.6699 12.5726 12.4547 10.7711 13.4447C9.91499 13.916 8.94451 14.206 7.90433 14.2673C5.63431 14.3984 3.55953 13.3889 2.24047 11.738C1.39827 10.6839 0.860054 9.36201 0.779181 7.91189C0.56724 4.18895 3.41171 0.995881 7.13743 0.78394C8.03819 0.730954 8.90826 0.859235 9.7114 1.13532C12.2324 1.99981 14.1064 4.31723 14.2654 7.1422C14.2905 7.63301 14.2654 8.11546 14.1901 8.58675Z" fill="#007AFF" stroke="white" stroke-width="1.28206" stroke-miterlimit="10" stroke-linejoin="round"/>
<path d="M49.7446 13.4458L44.884 17.8046C43.9664 15.4677 42.4967 13.3622 40.5864 11.6889L46.3257 8.58789C46.652 10.6181 47.8957 12.4335 49.7446 13.4458Z" fill="#9ACAFF" stroke="white" stroke-width="1.28206" stroke-miterlimit="10" stroke-linejoin="round"/>
<path d="M45.3123 27.971C44.7183 29.9816 43.7561 31.7831 42.5236 33.3281C38.6556 38.1636 32.1106 40.4448 25.8053 38.5819C17.4921 36.1224 12.7402 27.3908 15.1998 19.0721C15.3281 18.6399 15.4732 18.2161 15.6349 17.8033C16.5775 15.3799 18.075 13.3079 19.935 11.6904C21.4716 10.3518 23.2564 9.32281 25.1806 8.66467C28.1561 7.6468 31.4637 7.50737 34.7069 8.46667C36.949 9.1276 38.9316 10.2487 40.5826 11.6904C42.4956 13.3609 43.9626 15.4664 44.8801 17.8061C46.107 20.9405 46.3413 24.4905 45.3123 27.971Z" stroke="white" stroke-width="1.28206" stroke-miterlimit="10" stroke-linejoin="round"/>
<path d="M59.4774 9.43841C59.2208 10.3029 58.808 11.0782 58.2782 11.7419C56.6162 13.8223 53.7995 14.8039 51.0862 14.0007C50.612 13.8613 50.1631 13.6717 49.7475 13.443C47.8986 12.4307 46.6549 10.6152 46.3286 8.58506C46.1725 7.62017 46.2282 6.60787 46.5239 5.60951C47.168 3.42874 48.8162 1.81686 50.8155 1.13363C52.0955 0.695799 53.5178 0.634448 54.9122 1.04718C58.4929 2.1041 60.5343 5.86327 59.4774 9.43841Z" fill="#007AFF" stroke="white" stroke-width="1.28206" stroke-miterlimit="10" stroke-linejoin="round"/>
<path d="M35.8974 20.0524L30.1426 14.3081L28.2871 16.1636L30.1426 17.9981L30.6134 18.469L31.5551 19.4107L34.0419 21.8975C36.0439 23.8926 36.0439 27.1501 34.0419 29.1521L33.9546 29.2393C33.1142 30.0798 32.0539 30.5681 30.9588 30.6972V33.3235C32.727 33.184 34.4534 32.4376 35.8033 31.0878L35.8903 31.0006C38.9143 27.9803 38.9143 23.0693 35.8974 20.0524Z" fill="white"/>
<path opacity="0.8" d="M29.5049 30.672V33.3121C27.8866 33.1378 26.3135 32.4646 25.0439 31.2754L26.8995 29.4268C27.6563 30.1138 28.5632 30.5255 29.5049 30.672Z" fill="white"/>
<path opacity="0.6" d="M25.9141 28.3553L24.0517 30.2212C23.0157 28.9586 22.4123 27.4205 22.3252 25.7812H24.9444C25.0212 26.716 25.349 27.6019 25.9141 28.3553Z" fill="white"/>
<path opacity="0.4" d="M26.1737 21.9931C25.5877 22.6662 25.1935 23.465 25.0261 24.3299H22.3789C22.5812 22.7708 23.2509 21.3199 24.3146 20.1445L26.1737 21.9931Z" fill="white"/>
<path d="M31.5575 19.4069V19.4139L30.6123 18.4722L31.5575 19.4069Z" fill="white"/>
</g>
<defs>
<clipPath id="clip0_202_18913">
<rect width="116.308" height="40" fill="white"/>
</clipPath>
</defs>
</svg>
