<svg width="141" height="36" viewBox="0 0 141 36" fill="none" xmlns="http://www.w3.org/2000/svg">
<g clip-path="url(#clip0_202_18977)">
<path d="M25.4827 27.7677C25.4827 29.8742 25.4827 31.9695 25.4827 34.0801C25.4265 34.0836 25.3743 34.0896 25.3221 34.0902C24.932 34.0919 24.5419 34.0926 24.1524 34.0931C22.8392 34.0943 21.5259 34.0955 20.2134 34.0967C16.6395 34.1009 13.0656 34.1055 9.49183 34.1097C9.43314 34.1097 9.37503 34.1097 9.31931 34.1097C9.28729 33.9923 9.27661 28.1644 9.30744 27.9344C9.45863 27.8964 9.61451 27.8561 9.77169 27.8182C10.1932 27.7174 10.6142 27.6154 11.0369 27.5194C11.1281 27.4986 11.1786 27.4518 11.2177 27.3688C11.6712 26.4006 12.0169 25.3951 12.2576 24.354C12.3673 23.8791 12.4639 23.3995 12.5392 22.9181C12.6276 22.3561 12.637 21.7887 12.5997 21.2201C12.5914 21.092 12.5985 20.9634 12.5931 20.8353C12.5771 20.4511 12.5588 20.0669 12.5404 19.6827C12.5339 19.5411 12.5238 19.3994 12.538 19.2488C12.5576 19.2725 12.5807 19.2945 12.5967 19.3211C12.8831 19.7996 13.17 20.2774 13.4529 20.7576C13.5174 20.8679 13.5755 20.9835 13.6242 21.1015C13.9829 21.9683 14.3053 22.8481 14.4803 23.773C14.5549 24.1697 14.5988 24.5728 14.6469 24.9736C14.7382 25.7331 14.8514 26.4884 15.0607 27.2259C15.1087 27.3961 15.171 27.5638 15.2438 27.7251C15.4318 28.1431 15.7253 28.4686 16.1326 28.6843C16.5204 28.8901 16.9354 29.0211 17.3711 29.0543C18.0339 29.1053 18.6079 28.864 19.1206 28.459C19.5291 28.1366 19.7527 27.6978 19.9015 27.2123C20.0379 26.7676 20.1043 26.3087 20.1689 25.8492C20.2679 25.1461 20.3461 24.44 20.4683 23.741C20.6532 22.6803 20.9841 21.6635 21.5331 20.7304C21.8207 20.2418 22.1354 19.7699 22.4681 19.2956C22.4633 19.3846 22.4591 19.4735 22.4538 19.5618C22.4189 20.1921 22.3613 20.8223 22.353 21.4531C22.3352 22.7663 22.5664 24.0445 22.953 25.2961C23.1688 25.9945 23.4339 26.6733 23.7327 27.3403C23.7729 27.4298 23.8204 27.4761 23.9235 27.4927C24.4376 27.578 24.951 27.6735 25.4827 27.7677ZM15.3891 31.7359C15.4941 31.7347 15.5569 31.6902 15.5872 31.6161C15.6162 31.545 15.6007 31.4673 15.538 31.4157C15.5006 31.3849 15.4549 31.363 15.411 31.341C14.1471 30.7173 12.8825 30.0942 11.6172 29.4717C11.5818 29.4545 11.5462 29.4373 11.5088 29.4254C11.4168 29.397 11.3274 29.4368 11.2865 29.5209C11.2479 29.5998 11.2657 29.6917 11.3404 29.7456C11.392 29.7824 11.4518 29.8084 11.5088 29.8369C12.1367 30.1469 12.7645 30.4559 13.3924 30.7654C14.0072 31.0683 14.6213 31.3713 15.2368 31.6731C15.2931 31.7003 15.353 31.721 15.3891 31.7359ZM23.5471 29.595C23.5441 29.4794 23.4368 29.3929 23.3242 29.4195C23.2862 29.4285 23.2501 29.4462 23.2145 29.4634C21.9416 30.0912 20.6687 30.7191 19.3958 31.3475C19.365 31.363 19.3324 31.376 19.3038 31.3949C19.2191 31.4519 19.193 31.5409 19.2327 31.6262C19.2736 31.7133 19.3549 31.7531 19.4533 31.7258C19.5001 31.7127 19.544 31.6884 19.5885 31.6671C20.84 31.0511 22.0915 30.4352 23.3432 29.8191C23.3828 29.7996 23.4237 29.7812 23.4611 29.7574C23.5186 29.7195 23.5495 29.6656 23.5471 29.595Z" fill="#33EE94"/>
<path d="M14.3784 12.0225C14.8267 12.0344 15.2446 12.0456 15.6596 12.057C15.6804 12.1145 15.6922 12.1672 15.7178 12.2122C15.9608 12.6373 16.2312 13.0435 16.5916 13.3814C16.8211 13.5966 17.0766 13.7674 17.3908 13.8374C17.695 13.9049 17.9784 13.8462 18.2481 13.7027C18.464 13.5883 18.6478 13.4318 18.815 13.2551C19.112 12.9409 19.3485 12.584 19.5614 12.2099C19.5874 12.1643 19.6005 12.1114 19.626 12.0469C19.929 12.0386 20.2378 12.0308 20.5716 12.022C20.555 12.1103 20.5431 12.1803 20.5283 12.2496C20.3819 12.9474 20.1406 13.6138 19.8471 14.2624C19.5122 15.0036 19.1742 15.7434 18.8404 16.4851C18.5641 17.0981 18.4408 17.7426 18.4752 18.4143C18.5037 18.9805 18.6323 19.5271 18.8399 20.053C19.0788 20.6584 19.326 21.2601 19.5732 21.8618C19.8614 22.5638 19.9811 23.2936 19.9147 24.0483C19.8163 25.1636 19.4232 26.1543 18.6323 26.9683C18.4616 27.1438 18.2511 27.2452 18.0163 27.3014C17.5889 27.4034 17.1662 27.3934 16.7505 27.2416C16.5857 27.1818 16.4434 27.088 16.3184 26.9647C15.8251 26.4803 15.5008 25.8952 15.2826 25.2448C15.0875 24.6644 14.9773 24.0715 15.0182 23.4567C15.0538 22.9214 15.1676 22.4014 15.3556 21.901C15.5411 21.4077 15.7456 20.9209 15.9549 20.4377C16.2816 19.6848 16.4648 18.9058 16.4357 18.0817C16.4108 17.3726 16.2401 16.6968 15.9508 16.0517C15.8221 15.7642 15.671 15.4861 15.5228 15.208C15.0977 14.4089 14.7377 13.5836 14.5255 12.7002C14.4733 12.4856 14.4313 12.268 14.3784 12.0225ZM17.0043 25.8075C16.9325 25.6011 16.8602 25.4303 16.7636 25.2703C16.613 25.0201 16.3954 24.8642 16.1085 24.8061C16.0344 24.7912 15.9608 24.7628 15.869 24.7942C15.9009 24.8351 15.9235 24.8659 15.949 24.8944C16.1476 25.1138 16.3516 25.329 16.5437 25.5537C16.6593 25.6901 16.8092 25.7481 17.0043 25.8075ZM18.193 25.76C18.4806 25.4506 18.7841 25.154 19.0568 24.8257C18.7912 24.8381 18.5517 24.9098 18.3424 25.0681C18.1835 25.1885 18.0833 25.3474 18.0382 25.5418C18.0087 25.6729 18.0026 25.7256 18.193 25.76Z" fill="#33EE94"/>
<path d="M16.6286 5.30949C16.3298 7.44146 16.034 9.55444 15.7358 11.6829C15.68 11.6829 15.6321 11.684 15.584 11.6829C14.9479 11.6663 14.3111 11.6538 13.675 11.6313C13.0833 11.6106 12.4921 11.5815 11.9011 11.5536C11.4624 11.5328 11.0242 11.5103 10.5861 11.4843C10.212 11.4617 9.83848 11.4338 9.4644 11.4072C9.14958 11.3846 8.83476 11.3634 8.51995 11.3372C8.10731 11.3035 7.69467 11.2667 7.28203 11.2299C6.93342 11.1985 6.58481 11.1659 6.2368 11.1304C5.80993 11.0871 5.38365 11.0408 4.95797 10.9934C4.58564 10.9519 4.21391 10.9092 3.84218 10.8635C3.4165 10.8113 2.99141 10.7574 2.56632 10.7005C2.10743 10.6388 1.64915 10.5707 1.19026 10.509C0.936513 10.4752 0.680985 10.4538 0.427235 10.4183C0.33119 10.4046 0.23633 10.3709 0.145027 10.3359C0.0762545 10.3098 0.000959647 10.2719 -0.00141185 10.1865C-0.00378333 10.0988 0.073883 10.0649 0.140878 10.0353C0.203722 10.0074 0.269531 9.98545 0.33534 9.9659C2.33392 9.38016 4.33308 8.795 6.33225 8.20983C7.56068 7.84995 8.7897 7.49009 10.0182 7.1308C10.0412 7.12428 10.065 7.12013 10.094 7.11361C10.1094 7.14741 10.1266 7.17705 10.1373 7.20906C10.4083 8.02367 10.9834 8.51872 11.7843 8.77365C12.2545 8.92306 12.7353 8.93136 13.2179 8.85132C13.4046 8.82049 13.573 8.75291 13.6946 8.58868C13.7882 8.4624 13.9009 8.34975 14.0141 8.23947C14.1623 8.09541 14.1931 7.93652 14.0911 7.75866C13.9667 7.54047 13.854 7.31282 13.704 7.11361C13.506 6.85037 13.2778 6.60967 13.0608 6.36066C13.0388 6.33517 13.0038 6.32153 12.9487 6.28477C13.0169 6.25632 13.0448 6.24209 13.0744 6.23319C13.9774 5.96937 14.8791 5.70198 15.7838 5.44526C16.0055 5.38242 16.2367 5.35218 16.4644 5.31069C16.5112 5.30179 16.5611 5.30949 16.6286 5.30949Z" fill="#33EE94"/>
<path d="M19.5305 11.6716C19.2352 9.56393 18.9429 7.47701 18.6465 5.35986C19.6692 5.6308 20.6522 5.94265 21.6607 6.22901C21.6133 6.28415 21.5788 6.32506 21.5438 6.36537C21.2468 6.7033 20.9635 7.05133 20.7642 7.45863C20.7186 7.55112 20.6848 7.64953 20.6475 7.74617C20.6048 7.85822 20.6291 7.96197 20.705 8.04972C20.8632 8.23233 21.0162 8.42204 21.1906 8.58746C21.3139 8.70425 21.4686 8.78844 21.6115 8.88449C21.6387 8.90287 21.6755 8.91235 21.7088 8.9171C22.7338 9.04753 23.9071 8.55248 24.4093 7.60803C24.478 7.47819 24.5201 7.33472 24.5746 7.19777C24.5853 7.17049 24.596 7.14381 24.6108 7.10468C24.66 7.11654 24.7063 7.12602 24.7519 7.13907C26.8317 7.74736 28.9115 8.35623 30.9907 8.96571C32.1486 9.30483 33.3065 9.64519 34.4638 9.98606C34.5343 10.0068 34.6054 10.0317 34.6683 10.069C34.7905 10.1413 34.7905 10.2309 34.6677 10.3068C34.6061 10.3453 34.5355 10.3791 34.4649 10.3909C34.2563 10.4259 34.0458 10.4485 33.8359 10.4775C33.5087 10.5226 33.182 10.5688 32.8553 10.6139C32.4504 10.6696 32.0448 10.7253 31.6393 10.7782C31.1994 10.8356 30.7595 10.8914 30.319 10.9441C29.9277 10.991 29.5352 11.0319 29.1433 11.0746C28.8 11.1113 28.4573 11.1487 28.1135 11.1819C27.7555 11.2168 27.3967 11.2494 27.038 11.2803C26.5958 11.3182 26.1535 11.3556 25.7111 11.3893C25.3815 11.4149 25.0519 11.4368 24.7223 11.4581C24.2942 11.4861 23.8656 11.5121 23.4376 11.5376C23.2211 11.5506 23.0042 11.5637 22.7872 11.572C22.1706 11.5957 21.5545 11.6194 20.938 11.6396C20.5288 11.6532 20.1192 11.6616 19.7096 11.6721C19.6574 11.6728 19.6034 11.6716 19.5305 11.6716Z" fill="#33EE94"/>
<path d="M27.6431 28.145C29.9393 28.5535 32.2248 28.9602 34.5139 29.3676C34.5139 30.9417 34.5139 32.4997 34.5139 34.056C34.3959 34.0886 27.7866 34.0957 27.6431 34.0631C27.6431 32.099 27.6431 30.133 27.6431 28.145Z" fill="#33EE94"/>
<path d="M7.13757 28.4456C7.13757 30.3504 7.13757 32.2191 7.13757 34.1009C4.82004 34.1009 2.50783 34.1009 0.185547 34.1009C0.185547 32.7753 0.185547 31.4508 0.185547 30.1085C2.49538 29.556 4.80581 29.0034 7.13757 28.4456Z" fill="#33EE94"/>
<path d="M14.626 22.6772C14.5792 22.5278 14.5388 22.3914 14.4944 22.2563C14.2667 21.5602 13.9531 20.9027 13.6044 20.2606C13.4237 19.9268 13.2464 19.5907 13.0489 19.267C12.8799 18.9895 12.6878 18.7263 12.5005 18.4601C12.3927 18.3071 12.2771 18.1589 12.1608 18.0125C11.7156 17.4528 11.4363 16.8207 11.3159 16.1152C11.2289 15.6036 11.1648 15.0908 11.1926 14.5708C11.2075 14.2992 11.2484 14.0319 11.3349 13.7728C11.3456 13.7408 11.3598 13.7093 11.3818 13.6548C11.4096 13.7176 11.4304 13.7604 11.4488 13.8042C11.5596 14.0681 11.6682 14.3319 11.7802 14.5951C12.0179 15.153 12.4253 15.5473 12.9784 15.7821C13.4877 15.9985 14.0206 16.1051 14.5786 16.0684C14.8146 16.0529 15.0522 16.0566 15.2882 16.0429C15.3896 16.037 15.4536 16.0761 15.51 16.155C15.7269 16.4603 15.8674 16.8012 15.9747 17.1564C16.2125 17.943 16.1782 18.725 15.9 19.494C15.7122 20.0128 15.4987 20.522 15.3084 21.0402C15.1471 21.4795 15.0001 21.9243 14.8507 22.3677C14.8092 22.4892 14.7457 22.5888 14.626 22.6772Z" fill="#33EE94"/>
<path d="M23.1951 13.8486C23.4121 14.3247 23.5111 14.8031 23.4329 15.3213C23.2793 16.3381 22.9384 17.2884 22.4659 18.1937C22.0965 18.9016 21.701 19.5953 21.3198 20.2973C20.9286 21.0176 20.5865 21.7593 20.3464 22.5455C20.338 22.5727 20.3262 22.5982 20.3131 22.6338C20.2224 22.587 20.1632 22.5282 20.1453 22.434C20.0529 21.9407 19.8631 21.4806 19.6622 21.0247C19.4179 20.4698 19.1784 19.9137 18.9994 19.3333C18.86 18.8815 18.7913 18.4214 18.831 17.9477C18.8647 17.5463 18.9703 17.1628 19.1102 16.7875C19.1736 16.6168 19.2454 16.4489 19.3178 16.2817C19.3408 16.2284 19.3758 16.1792 19.4114 16.1323C19.4985 16.0167 19.6011 15.9829 19.7558 16.0096C20.2088 16.0873 20.6648 16.1222 21.1231 16.0291C21.7681 15.8982 22.2791 15.5673 22.6478 15.0219C22.8565 14.713 22.9953 14.3709 23.1275 14.0247C23.1494 13.9659 23.1726 13.9073 23.1951 13.8486Z" fill="#33EE94"/>
<path d="M24.8941 4.38794C24.8709 4.54268 24.8597 4.67845 24.8289 4.80948C24.6528 5.55709 24.4779 6.3047 24.2899 7.04935C24.1298 7.68194 23.7053 8.09576 23.1338 8.37383C22.7259 8.57185 22.2931 8.64536 21.8414 8.61276C21.8087 8.61038 21.7767 8.59793 21.7251 8.58548C21.7441 8.50841 21.7584 8.43844 21.7797 8.37027C22.0049 7.65763 22.3583 7.01259 22.8089 6.41972C23.3858 5.66084 24.0824 5.02291 24.8229 4.42886C24.8372 4.41699 24.8549 4.40988 24.8941 4.38794Z" fill="#33EE94"/>
<path d="M12.9837 8.57837C12.7809 8.57897 12.6137 8.59023 12.4483 8.57719C12.0185 8.54339 11.6166 8.41949 11.256 8.177C10.8707 7.91792 10.5986 7.57286 10.4521 7.1288C10.2535 6.52822 10.1201 5.91223 10.0135 5.28971C9.97073 5.04248 9.93334 4.79466 9.89014 4.5249C9.93935 4.54269 9.97426 4.5504 10.0052 4.56699C10.3027 4.72648 10.5678 4.93221 10.8114 5.16461C11.6912 6.00293 12.376 6.97643 12.8266 8.10822C12.8829 8.24933 12.9232 8.39577 12.9837 8.57837Z" fill="#33EE94"/>
<path d="M15.138 15.5228C14.9732 15.6004 14.8101 15.6348 14.6453 15.6579C14.1141 15.7326 13.6126 15.6319 13.149 15.3681C12.367 14.9228 11.8571 14.2689 11.6774 13.3772C11.6365 13.1744 11.6228 12.9681 11.6697 12.7534C11.7006 12.7653 11.729 12.7724 11.7533 12.7855C12.6153 13.2497 13.4364 13.7738 14.1728 14.4236C14.4989 14.7111 14.8007 15.023 15.0491 15.3823C15.0799 15.4249 15.106 15.4712 15.138 15.5228Z" fill="#33EE94"/>
<path d="M18.9521 10.2865C19.0731 10.4406 19.1151 10.6209 19.1394 10.8082C19.1596 10.9642 19.1756 11.1212 19.2012 11.2766C19.2117 11.3412 19.191 11.3833 19.1394 11.4123C19.0067 11.4864 18.8762 11.5683 18.7363 11.6258C18.5869 11.6875 18.4297 11.7349 18.2715 11.7692C17.8049 11.8713 17.3739 12.061 16.9565 12.2863C16.7834 12.3799 16.6085 12.4718 16.4342 12.5637C16.3997 12.5821 16.3636 12.5963 16.3316 12.6111C15.9427 12.3099 15.9272 11.8309 16.0482 11.512C16.0968 11.3839 16.1899 11.2855 16.3002 11.2084C16.3927 11.1438 16.4899 11.0833 16.5931 11.037C17.3419 10.7027 18.1268 10.4774 18.9213 10.2823C18.9254 10.2817 18.9308 10.2841 18.9521 10.2865Z" fill="#33EE94"/>
<path d="M18.7284 8.19482C18.7592 8.38811 18.7972 8.55588 18.8102 8.72604C18.8345 9.04441 18.8446 9.36456 18.8624 9.70958C18.0039 10.015 17.1229 10.319 16.227 10.6322C16.2158 10.5544 16.2022 10.4886 16.1968 10.4217C16.1589 9.94554 16.2532 9.49143 16.4263 9.04915C16.4553 8.97445 16.5034 8.94184 16.5715 8.91932C17.1086 8.74086 17.6452 8.56241 18.1818 8.38276C18.3531 8.32585 18.5238 8.26537 18.7284 8.19482Z" fill="#33EE94"/>
<path d="M22.7686 13.1074C22.8829 14.4189 22.2225 15.3721 21.0765 15.6739C20.6573 15.7843 20.2447 15.7166 19.8439 15.5684C19.8314 15.5637 19.8225 15.55 19.8018 15.5317C19.8303 15.4866 19.8569 15.4409 19.8865 15.397C20.2962 14.7852 20.8256 14.2961 21.4286 13.8811C21.8312 13.6037 22.2563 13.3641 22.6897 13.1395C22.7104 13.1275 22.7335 13.1211 22.7686 13.1074Z" fill="#33EE94"/>
<path d="M15.3611 26.4326C15.4838 26.5845 15.6035 26.7386 15.7298 26.8874C15.8319 27.0072 15.9326 27.1311 16.05 27.2342C16.9951 28.0642 18.4292 27.9201 19.1952 26.9218C19.3155 26.7652 19.4318 26.6057 19.5503 26.4486C19.5734 26.4184 19.5983 26.3893 19.6405 26.3384C19.6458 26.531 19.6143 26.6929 19.5835 26.8536C19.43 27.6498 18.9871 28.2243 18.2513 28.5699C18.2028 28.5931 18.1512 28.6167 18.0984 28.6228C17.6697 28.6672 17.2423 28.6683 16.8219 28.5539C16.1976 28.3844 15.7678 27.9973 15.5277 27.3984C15.4061 27.0942 15.3403 26.7777 15.3267 26.451C15.3386 26.4451 15.3498 26.4392 15.3611 26.4326Z" fill="#33EE94"/>
<path d="M16.5024 8.46729C16.5196 8.32442 16.5332 8.19339 16.551 8.06296C16.5985 7.71138 16.6494 7.3604 16.7526 7.01891C16.7787 6.93175 16.8238 6.87781 16.9073 6.83808C17.3976 6.60686 17.8856 6.36971 18.3741 6.13493C18.3913 6.12664 18.4097 6.12189 18.4494 6.10767C18.4731 6.24936 18.5004 6.38275 18.5181 6.51793C18.5609 6.8452 18.5964 7.17365 18.6397 7.5015C18.6492 7.57205 18.6272 7.61534 18.5686 7.64557C18.3498 7.75881 18.1387 7.88984 17.9111 7.97936C17.4806 8.14892 17.0407 8.29477 16.6044 8.44951C16.5783 8.45958 16.5493 8.46018 16.5024 8.46729Z" fill="#33EE94"/>
<path d="M11.4194 11.9094C12.2939 11.9468 13.1352 11.9824 13.9783 12.018C14.0631 12.3707 14.1419 12.7157 14.229 13.0584C14.3151 13.3958 14.4615 13.716 14.5308 14.0812C14.4799 14.0556 14.4449 14.042 14.4141 14.0224C13.6131 13.5268 12.8121 13.0312 12.0117 12.5349C11.8297 12.4223 11.6655 12.2895 11.5416 12.1128C11.5024 12.0576 11.471 11.9966 11.4194 11.9094Z" fill="#33EE94"/>
<path d="M20.4411 14.0974C20.3902 13.9853 20.4074 13.8929 20.4483 13.7986C20.6481 13.341 20.7934 12.8654 20.8911 12.3757C20.9077 12.2939 20.9226 12.2109 20.9374 12.1285C20.9582 12.0111 20.9587 12.0082 21.0773 12.0034C21.4224 11.9903 21.7674 11.9803 22.1125 11.9678C22.3188 11.9601 22.5257 11.9488 22.7427 11.9387C22.8121 12.1374 22.8731 12.333 22.9021 12.5382C22.9128 12.6134 22.8648 12.6414 22.809 12.6692C22.5767 12.7878 22.3448 12.9087 22.1131 13.0291C21.6032 13.2923 21.1342 13.6195 20.6647 13.9462C20.5923 13.9967 20.5194 14.0446 20.4411 14.0974Z" fill="#33EE94"/>
<path d="M16.7736 6.40038C16.7646 6.38497 16.7563 6.37667 16.7563 6.36895C16.7629 5.98951 16.7748 5.60948 16.8524 5.23657C16.9106 4.95792 17.064 4.74152 17.306 4.58856C17.5959 4.40536 17.9155 4.29034 18.2379 4.18244C18.2504 4.17829 18.2659 4.18363 18.2991 4.186C18.3144 4.29983 18.3411 4.41485 18.3441 4.53046C18.3524 4.87551 18.35 5.22057 18.3553 5.56561C18.3566 5.64387 18.3186 5.68003 18.2552 5.70968C18.0275 5.8158 17.801 5.9243 17.5739 6.03102C17.3291 6.14663 17.0837 6.26105 16.8382 6.37607C16.8168 6.38615 16.7943 6.39267 16.7736 6.40038Z" fill="#33EE94"/>
<path d="M19.0943 12.0854C19.1406 12.2977 19.1056 12.466 19.0149 12.6255C18.9224 12.7873 18.7878 12.9095 18.6361 13.0133C18.3236 13.2261 17.9739 13.3577 17.6151 13.4662C17.576 13.478 17.525 13.478 17.4871 13.4638C17.2754 13.385 17.0656 13.3002 16.8433 13.2131C16.8604 13.1727 16.8705 13.1359 16.8894 13.1046C17.0051 12.9095 17.1693 12.7631 17.3608 12.6451C17.589 12.5045 17.8363 12.4073 18.0936 12.3373C18.4191 12.2479 18.7487 12.1714 19.0943 12.0854Z" fill="#33EE94"/>
<path d="M17.0017 4.25513C16.9204 4.05355 16.892 3.84724 16.9204 3.63321C16.9548 3.37116 17.0656 3.14291 17.2347 2.94252C17.4516 2.68521 17.7243 2.50083 18.0226 2.3526C18.0351 2.34668 18.051 2.34905 18.0736 2.34668C18.1459 2.53165 18.1767 2.72612 18.1927 2.92176C18.2022 3.03915 18.201 3.15951 18.185 3.27571C18.1387 3.6178 17.9532 3.86622 17.6509 4.02925C17.4498 4.13774 17.2352 4.20593 17.0017 4.25513Z" fill="#33EE94"/>
<path d="M21.389 8.34591C21.2455 8.18345 21.1068 8.03168 20.977 7.87338C20.9568 7.84848 20.9621 7.78564 20.9781 7.75066C21.0392 7.61667 21.1008 7.4815 21.1773 7.35521C21.3801 7.02084 21.6327 6.7238 21.9 6.43982C22.5078 5.79478 23.1806 5.2268 23.9081 4.72167C23.9366 4.70211 23.9662 4.68432 24.0017 4.67188C23.9834 4.7199 23.9419 4.74895 23.9057 4.78156C23.336 5.29439 22.8095 5.84636 22.3696 6.47599C22.1064 6.85305 21.8805 7.25028 21.6961 7.6718C21.5995 7.89176 21.4969 8.10875 21.389 8.34591Z" fill="#33EE94"/>
<path d="M13.3639 8.46929C12.8973 7.41101 12.3678 6.40846 11.5864 5.52686C11.6273 5.53635 11.6422 5.53575 11.6511 5.54287C12.2481 6.0065 12.8131 6.5051 13.294 7.09205C13.4789 7.31793 13.6449 7.55627 13.7712 7.82009C13.8376 7.95882 13.8364 7.96001 13.7291 8.07621C13.6094 8.20605 13.489 8.3347 13.3639 8.46929Z" fill="#33EE94"/>
<path d="M17.6665 0C17.7015 0.190905 17.734 0.362838 17.7643 0.534771C17.8123 0.806307 17.8615 1.07725 17.9066 1.34937C17.9458 1.58535 17.8835 1.79878 17.75 1.99323C17.6321 2.16517 17.4844 2.30806 17.3185 2.43789C17.197 2.11359 17.4186 0.547221 17.6665 0Z" fill="#33EE94"/>
</g>
<g clip-path="url(#clip1_202_18977)">
<path d="M46.4243 17.0571H52.1663C55.9547 17.0571 57.4156 15.3733 57.4156 13.117C57.4156 11.7868 56.94 10.7765 55.7848 10.1704C56.94 9.56419 57.4156 8.57075 57.4156 7.27421C57.4156 5.06842 55.9377 3.58667 52.1493 3.58667H46.4243V17.0571ZM52.2682 11.4501C53.5423 11.4501 53.8821 12.2751 53.8821 12.8139C53.8821 13.3864 53.5254 14.1947 52.2682 14.1947H49.8219V11.4501H52.2682ZM52.2682 6.44915C53.5084 6.44915 53.8821 7.32473 53.8821 7.84671C53.8821 8.40236 53.5084 9.19375 52.2682 9.19375H49.8219V6.44915H52.2682ZM73.3785 3.58667V10.5913C73.3785 12.5445 71.6118 14.3294 68.1122 14.3294C64.7825 14.3294 62.676 12.9992 62.676 10.5913V3.58667H59.2784V10.5913C59.2784 15.1208 62.9988 17.3266 68.1122 17.3266C73.2257 17.3266 76.7762 14.3125 76.7762 10.5913V3.58667H73.3785ZM79.3554 17.0571H82.753V3.58667H79.3554V17.0571ZM85.5435 17.0571H94.938C99.202 17.0571 102.209 14.0431 102.209 10.3219C102.209 6.36496 99.202 3.58667 94.938 3.58667H85.5435V17.0571ZM94.938 6.61753C97.792 6.61753 98.6924 8.46972 98.6924 10.3219C98.6924 12.1067 97.8769 14.0263 94.938 14.0263H88.9412V6.61753H94.938ZM104.157 17.0571H113.654V13.8579H107.555V3.58667H104.157V17.0571ZM127.197 17.0571V14.0263H118.72V11.7531H126.008V8.89067H118.72V6.61753H127.197V3.58667H115.322V17.0571H127.197ZM129.375 17.0571H132.772V12.9318H134.658L136.544 17.0571H140.366L137.988 12.3762C139.347 11.6353 140.366 10.1704 140.366 8.18347C140.366 5.72511 138.854 3.58667 135.813 3.58667H129.375V17.0571ZM134.981 6.61753C136.306 6.61753 136.849 7.56046 136.849 8.26766C136.849 9.1264 136.306 10.0693 134.981 10.0693H132.772V6.61753H134.981ZM46.4243 34.9476H55.8188C60.0828 34.9476 63.0897 31.9336 63.0897 28.2124C63.0897 24.2554 60.0828 21.4771 55.8188 21.4771H46.4243V34.9476ZM55.8188 24.508C58.6728 24.508 59.5731 26.3602 59.5731 28.2124C59.5731 29.9972 58.7577 31.9168 55.8188 31.9168H49.8219V24.508H55.8188ZM73.0936 34.9476H76.78L71.6666 21.4771H68.167L62.7138 34.9476H66.3323L67.2666 32.3714H72.2442L73.0936 34.9476ZM69.8998 25.131L71.3608 29.6268H68.2519L69.8998 25.131ZM76.5836 28.1619C76.5836 32.8429 80.219 35.217 84.6699 35.217C89.0868 35.217 92.7223 32.8765 92.7223 28.145C92.7223 23.5987 89.3587 21.2077 84.6869 21.2077C79.8963 21.2077 76.5836 23.7503 76.5836 28.1619ZM80.0831 28.1787C80.0831 25.3499 82.0028 24.0365 84.6529 24.0365C87.3031 24.0365 89.2227 25.3836 89.2227 28.0777C89.2227 31.0412 87.3031 32.3882 84.636 32.3882C82.0028 32.3882 80.0831 31.0243 80.0831 28.1787Z" fill="#33EE94"/>
</g>
<defs>
<clipPath id="clip0_202_18977">
<rect width="35.2895" height="34.3357" fill="white"/>
</clipPath>
<clipPath id="clip1_202_18977">
<rect width="94.4965" height="32.6238" fill="white" transform="translate(46.125 3.37598)"/>
</clipPath>
</defs>
</svg>
