<svg width="135" height="40" viewBox="0 0 135 40" fill="none" xmlns="http://www.w3.org/2000/svg">
<path d="M9.71589 36.5069H15.1591L18.9062 28.7671L25.0149 40H33.1132L47.9959 9.09589L43.7334 0H35.543L28.6699 13.8116L26.223 8.49315H17.507L12.3402 19.2397L8.48391 11.3356H3.53553L0 16.6164L9.71589 36.5069ZM12.057 30.6233L10.1015 34.7123L1.28317 16.6575L3.7437 12.9829L12.057 30.6233ZM14.4629 35.411H11.0366L13.0637 31.1644H16.5173L14.4629 35.411ZM17.06 30.0342H13.5995L16.4047 24.1404L18.2544 27.5582L17.06 30.0342ZM32.4204 38.9041H26.3254L40.4061 9.65753H46.5011L32.4204 38.9041ZM46.5079 8.49315H40.3139L36.7647 1.0274H43.0236L46.5079 8.49315ZM28.0351 15.0651L24.6497 21.9041L18.6571 9.65753H25.5132L28.0351 15.0651ZM11.726 20.5103L10.1015 23.9041L4.70267 12.4658H7.78772L11.726 20.5103Z" fill="black"/>
<path d="M59.2551 28.4006L56.7955 7.90325H63.6182L65.5801 25.2089H62.0077L71.0265 7.90325H77.3807L79.1083 25.2089H75.7409L84.7305 7.90325H91.5239L80.8652 28.4006H73.4569L71.905 14.2282H74.0133L66.6635 28.4006H59.2551ZM96.233 28.8691C94.7689 28.8691 93.3536 28.6935 91.9871 28.3421C90.6402 27.9907 89.4201 27.4539 88.3269 26.7316L91.4601 21.9293C92.2604 22.4369 93.1194 22.8175 94.0369 23.0713C94.9739 23.3056 95.8621 23.4227 96.7015 23.4227C97.3457 23.4227 97.8826 23.3544 98.312 23.2177C98.761 23.0811 99.0929 22.8859 99.3076 22.6321C99.5419 22.3588 99.659 22.0367 99.659 21.6658C99.659 21.2558 99.4931 20.9533 99.1612 20.758C98.8293 20.5433 98.312 20.4359 97.6093 20.4359H94.7689L95.6181 16.1901L101.855 10.8022L102.148 13.1154H91.9286L92.9827 7.90325H108.268L107.419 12.1491L101.182 17.537L98.1071 15.7215H99.6297C101.055 15.7215 102.285 15.946 103.319 16.395C104.373 16.844 105.184 17.4785 105.75 18.2984C106.335 19.1182 106.628 20.0846 106.628 21.1973C106.628 22.6614 106.169 23.9791 105.252 25.1503C104.354 26.3021 103.114 27.2098 101.533 27.8736C99.9713 28.5373 98.2047 28.8691 96.233 28.8691ZM116.445 16.6293H125.464L124.41 21.8415H115.42L116.445 16.6293ZM114.571 28.4006H107.661L111.76 7.90325H128.421L127.367 13.1154H117.616L114.571 28.4006Z" fill="black"/>
</svg>
