<svg width="130" height="40" viewBox="0 0 130 40" fill="none" xmlns="http://www.w3.org/2000/svg">
<path d="M27.3379 20.8936C27.3379 22.7872 25.8028 24.3223 23.9092 24.3223H9.44727V34.373C9.44727 34.373 9.03569 36.0165 8.44238 36.7852C7.79882 37.6189 5.62793 38.3936 5.62793 38.3936L0 40.002V20.1133C0 18.2196 1.53507 16.6846 3.42871 16.6846H17.8906V5.62793C17.9043 5.59252 18.6032 3.79465 19.498 3.01562C20.3459 2.2778 21.71 1.80957 21.71 1.80957L27.3379 0V20.8936ZM27.3408 25.9307C27.3407 25.9325 26.9149 30.6935 24.7275 32.5645C21.9133 34.9715 18.0938 34.7754 18.0938 34.7754V28.2168C18.0938 26.9544 19.1175 25.9307 20.3799 25.9307H27.3408ZM9.24609 6.83398V13.3936C9.24588 14.6557 8.22315 15.6786 6.96094 15.6787H0C0.00383642 15.6362 0.435348 10.9089 2.61328 9.0459C5.4088 6.65471 9.19588 6.83152 9.24609 6.83398Z" fill="#5D17EB"/>
<path d="M46.6405 18.8562H43.8815V13.0662H41.5888V18.8562H38.8299V5.02241H41.5888V10.5792H43.8815V5.02241H46.6405V18.8562ZM58.4287 18.8562H55.5532L55.1063 16.6995H51.9199L51.473 18.8562H48.5974L52.153 5.02241H54.8731L58.4287 18.8562ZM54.5817 14.2126L53.5131 9.08317L52.4445 14.2126H54.5817ZM67.7512 14.912C67.6929 16.2332 67.2266 17.3407 66.5077 18.0207C65.8083 18.6813 64.9728 19.0116 63.8265 19.0116C62.2721 19.0116 61.4561 18.3899 60.8149 17.6321C59.7074 16.3109 59.7852 13.824 59.7852 11.9587C59.7852 10.0935 59.7074 7.56767 60.8149 6.24647C61.4561 5.48872 62.2721 4.86698 63.8265 4.86698C64.9728 4.86698 65.8083 5.19728 66.5077 5.85788C67.2266 6.53791 67.6735 7.62596 67.7318 8.94717H64.9728C64.9534 8.55858 64.9145 8.16999 64.7591 7.87855C64.6037 7.54824 64.3316 7.35395 63.8265 7.35395C63.3213 7.35395 63.0687 7.5871 62.9133 7.89798C62.583 8.53915 62.5441 10.2684 62.5441 11.9393C62.5441 13.6102 62.583 15.3395 62.9133 15.9806C63.0687 16.2915 63.3213 16.5247 63.8265 16.5247C64.3316 16.5247 64.6231 16.3109 64.7785 15.9806C64.934 15.6892 64.9728 15.3006 64.9923 14.912H67.7512ZM78.7606 18.8562H75.8073L73.8255 13.8045L72.9318 15.6698V18.8562H70.1728V5.02241H72.9318V10.9678L75.5548 5.02241H78.3137L75.5548 10.7735L78.7606 18.8562ZM89.563 18.8562H86.6874L86.2405 16.6995H83.0541L82.6072 18.8562H79.7316L83.2872 5.02241H86.0074L89.563 18.8562ZM85.7159 14.2126L84.6473 9.08317L83.5787 14.2126H85.7159ZM97.2915 7.50939H94.9599V18.8562H92.201V7.50939H89.8694V5.02241H97.2915V7.50939ZM107.334 18.8562H104.575V13.0662H102.282V18.8562H99.5234V5.02241H102.282V10.5792H104.575V5.02241H107.334V18.8562ZM117.957 11.9393C117.957 13.8045 118.034 16.3109 116.927 17.6321C116.286 18.3899 115.431 19.0116 113.876 19.0116C112.322 19.0116 111.506 18.3899 110.865 17.6321C109.757 16.3109 109.835 13.8045 109.835 11.9393C109.835 10.0741 109.757 7.56767 110.865 6.24647C111.506 5.48872 112.322 4.86698 113.876 4.86698C115.431 4.86698 116.286 5.48872 116.927 6.24647C118.034 7.56767 117.957 10.0741 117.957 11.9393ZM115.198 11.9393C115.198 10.2684 115.159 8.53915 114.828 7.89798C114.673 7.5871 114.382 7.35395 113.876 7.35395C113.371 7.35395 113.119 7.5871 112.963 7.89798C112.633 8.53915 112.594 10.2684 112.594 11.9393C112.594 13.6102 112.633 15.3395 112.963 15.9806C113.119 16.2915 113.371 16.5247 113.876 16.5247C114.382 16.5247 114.673 16.2915 114.828 15.9806C115.159 15.3395 115.198 13.6102 115.198 11.9393ZM128.513 18.8562H126.162L123.228 12.0947V18.8562H120.469V5.02241H122.879L125.754 11.7839V5.02241H128.513V18.8562ZM52.9551 22.0224L50.0601 35.8562H47.1845L45.397 26.0637L43.6095 35.8562H40.7339L37.8389 22.0224H40.8699L42.1717 31.7954L43.8815 22.0224H46.9125L48.6223 31.7954L49.9241 22.0224H52.9551ZM61.254 35.8562H54.8812V22.0224H61.254V24.5094H57.6402V27.6375H60.7489V30.1245H57.6402V33.3692H61.254V35.8562ZM70.0952 35.8562H63.7224V22.0224H70.0952V24.5094H66.4813V27.6375H69.5901V30.1245H66.4813V33.3692H70.0952V35.8562ZM81.1514 35.8562H78.1981L76.2163 30.8045L75.3225 32.6698V35.8562H72.5635V22.0224H75.3225V27.9678L77.9455 22.0224H80.7045L77.9455 27.7735L81.1514 35.8562ZM89.4852 35.8562H83.1124V22.0224H85.8714V33.3692H89.4852V35.8562ZM97.9498 22.0224L95.1325 30.6491V35.8562H92.3735V30.6491L89.5563 22.0224H92.5873L93.753 27.0352L94.9188 22.0224H97.9498Z" fill="#5D17EB"/>
</svg>
