<svg width="132" height="40" viewBox="0 0 132 40" fill="none" xmlns="http://www.w3.org/2000/svg">
<path fill-rule="evenodd" clip-rule="evenodd" d="M47.6374 21.4539H49.2998C52.3128 21.4539 54.9621 19.9474 54.9621 16.5708C54.9621 13.0383 52.3647 11.8954 49.1959 11.8954H44.1569V26.2331H47.5855V21.4539H47.6374ZM47.6374 14.5967H49.04C50.7024 14.5967 51.6374 15.1162 51.6374 16.5188C51.6374 17.9214 50.8063 18.7006 49.1439 18.7006H47.6374V14.5967ZM63.2738 26.2331V21.1941L67.5855 11.9474H64.0011L62.8063 15.1162C62.3907 16.2071 62.0271 17.1941 61.6115 18.285H61.5595C61.1439 17.1941 60.7803 16.1552 60.4167 15.1162L59.2219 11.9474H55.5855L59.8972 21.1941V26.2331H63.2738ZM79.7413 24.363L77.9232 22.2331C77.2478 22.9604 76.3128 23.5318 75.1699 23.5318C73.1439 23.5318 71.8452 21.8695 71.8452 19.0123C71.8452 16.2071 73.3517 14.5448 75.2219 14.5448C76.2608 14.5448 76.9881 15.0123 77.7154 15.6357L79.5336 13.4539C78.5465 12.4669 77.04 11.5837 75.1699 11.5837C71.5336 11.5837 68.3647 14.337 68.3647 19.0643C68.3647 23.8954 71.4297 26.4409 75.066 26.4409C76.9362 26.4928 78.4946 25.7656 79.7413 24.363ZM85.2478 20.311H89.9751V26.1811H93.3517V11.8954H89.9751V17.35H85.2478V11.8954H81.8193V26.2331H85.2478V20.311ZM100.053 11.8954H96.6245V26.2331H100.053V11.8954ZM111.43 16.6227C111.43 18.337 111.689 20.4149 111.897 21.9214H111.793L110.391 18.7526L106.858 11.8954H103.378V26.2331H106.65V21.4539C106.65 19.7396 106.339 17.7656 106.183 16.1552H106.287L107.689 19.2721L111.222 26.1811H114.702V11.8954H111.43V16.6227ZM124.728 11.8954H120.624L116.209 26.2331H119.689L120.521 22.9604H124.728L125.56 26.2331H129.196L124.728 11.8954ZM121.144 20.2591L121.456 19.0643C121.819 17.6617 122.183 15.9474 122.547 14.4409H122.599C122.962 15.8954 123.326 17.6097 123.741 19.0643L124.053 20.2591H121.144ZM45.7154 31.0123H44.105V36.6227H44.8323V34.3889H45.7673C47.0141 34.3889 47.8452 33.8175 47.8452 32.6747C47.7933 31.4798 46.9621 31.0123 45.7154 31.0123ZM45.6634 33.8695H44.8323V31.6357H45.6115C46.5985 31.6357 47.118 31.8954 47.118 32.7266C47.118 33.5058 46.6504 33.8695 45.6634 33.8695ZM50.6504 34.8045C50.5465 35.1682 50.3907 35.5837 50.2868 35.9474H50.2348C50.079 35.5837 49.9751 35.1682 49.8193 34.8045L48.9881 32.4669H48.3128L49.9751 36.6227L49.8712 36.9863C49.7154 37.5058 49.4037 37.8695 48.9361 37.8695C48.8323 37.8695 48.7284 37.8175 48.6245 37.8175L48.4686 38.3889C48.6245 38.4409 48.7803 38.4928 48.9361 38.4928C49.7673 38.4928 50.1829 37.8695 50.4946 37.0383L52.053 32.5188H51.3777L50.6504 34.8045ZM54.3387 36.2071C53.8712 36.2071 53.7154 35.8954 53.7154 35.4279V33.0902H54.8582V32.5188H53.7154V31.3759H53.1439L53.04 32.5188L52.3647 32.5708V33.0902H52.9881V35.3759C52.9881 36.2071 53.2998 36.7785 54.1829 36.7785C54.4426 36.7785 54.7024 36.7266 54.9621 36.6227L54.8063 36.1032C54.7024 36.1552 54.4946 36.2071 54.3387 36.2071ZM57.8193 32.363C57.2478 32.363 56.8323 32.6746 56.4686 33.0383V32.1552V30.4928H55.7933V36.5708H56.4686V33.5578C56.8842 33.1422 57.1959 32.9344 57.6115 32.9344C58.1829 32.9344 58.3907 33.2461 58.3907 34.0253V36.5708H59.066V33.9214C59.118 32.9344 58.7024 32.363 57.8193 32.363ZM62.0271 32.363C60.9881 32.363 60.105 33.1422 60.105 34.5448C60.105 35.9474 61.04 36.7266 62.0271 36.7266C63.0141 36.7266 63.9491 35.9474 63.9491 34.5448C63.9491 33.1941 63.066 32.363 62.0271 32.363ZM62.0271 36.1552C61.2998 36.1552 60.8323 35.5318 60.8323 34.5448C60.8323 33.6097 61.2998 32.9344 62.0271 32.9344C62.7543 32.9344 63.2219 33.6097 63.2219 34.5448C63.2738 35.5318 62.7543 36.1552 62.0271 36.1552ZM67.118 32.363C66.5465 32.363 66.131 32.6747 65.7154 33.0902L65.6634 32.4669H65.092V36.6227H65.7673V33.6097C66.1829 33.1941 66.4946 32.9863 66.9102 32.9863C67.4816 32.9863 67.6894 33.298 67.6894 34.0772V36.6227H68.3647V33.9734C68.4167 32.9344 68.0011 32.363 67.118 32.363ZM74.8582 30.2331H74.2868V31.5837H71.5336V35.2201H72.105V34.7526H74.2868V37.2461H74.8582V34.7526H77.0401V35.1682H77.6115V31.5837H74.8582V30.2331ZM74.2868 34.1811H72.105V32.1552H74.2868V34.1811ZM77.092 32.1552V34.1811H74.9102V32.1552H77.092ZM83.3258 33.9734L82.9621 34.1811C83.2219 34.4409 83.5336 34.8045 83.6894 35.0643L84.105 34.8565C83.9491 34.5967 83.6374 34.2331 83.3258 33.9734ZM79.118 37.2461H79.6894V36.8824H84.7803V37.2461H85.3517V30.5967H79.066V37.2461H79.118ZM79.6894 31.1162H84.7803V36.311H79.6894V31.1162ZM82.4946 33.8695H84.0011V33.4019H82.4946V32.311H84.2089V31.7915H80.3128V32.311H81.9751V33.4019H80.5206V33.8695H81.9751V35.1682H80.2089V35.6357H84.3647V35.1682H82.4946V33.8695ZM88.053 31.5318L88.5206 31.2721C88.3647 31.0123 88.053 30.5967 87.7933 30.285L87.3777 30.5448C87.6375 30.8045 87.9491 31.2201 88.053 31.5318ZM91.6375 33.1941H93.2478V32.6227H91.6375V30.2331H91.066V32.6227H89.4037V33.1941H91.066V36.363H89.04V36.9344H93.4037V36.363H91.6375V33.1941ZM88.3128 33.35C88.7284 32.8824 89.0401 32.311 89.2478 31.7396L88.9362 31.5318H88.8323H86.5465V32.0513H88.5725C88.105 32.9863 87.2219 33.9214 86.3387 34.4409C86.4426 34.5448 86.5465 34.8565 86.5985 35.0123C86.9621 34.8045 87.3258 34.4928 87.6375 34.1292V37.2461H88.2089V33.9734C88.5206 34.285 88.8323 34.7006 88.9881 34.9084L89.3517 34.4409C89.1959 34.285 88.6245 33.6617 88.3128 33.35ZM95.118 31.2201H100.832V30.7006H94.5465V37.0383H101.04V36.5188H95.118V31.2201ZM95.9491 35.9474C96.6764 35.4798 97.3517 34.9084 98.0271 34.2331C98.7024 34.8565 99.2738 35.4798 99.6894 35.9474L100.157 35.5318C99.7414 35.0643 99.118 34.4409 98.4426 33.8175C99.0141 33.1941 99.4816 32.5188 99.8972 31.7915L99.3777 31.5837C99.0141 32.2071 98.5465 32.8824 98.0271 33.4539C97.4037 32.8824 96.7803 32.363 96.2089 31.8954L95.7933 32.2071C96.3647 32.6746 97.0401 33.2461 97.6634 33.8695C97.0401 34.5448 96.3128 35.1162 95.5336 35.5318C95.6375 35.5837 95.8452 35.8435 95.9491 35.9474Z" fill="#333333"/>
<path fill-rule="evenodd" clip-rule="evenodd" d="M29.2998 11.5837L22.7024 18.2331L11.4297 29.5578C11.4297 34.5448 15.4816 38.5967 20.4686 38.5967C25.3518 38.5967 29.3518 34.7006 29.5076 29.8175L16.5206 29.8695L23.1699 23.3759C23.1699 23.3759 28.6764 28.8824 29.5076 29.6097C34.3907 29.5058 38.3388 25.5058 38.3388 20.5708C38.3388 15.6357 34.2868 11.5837 29.2998 11.5837ZM21.9751 31.9993C22.8583 31.1162 24.3128 31.1162 25.1959 31.9993C26.079 32.8824 26.079 34.285 25.1959 35.1682C24.3128 36.0513 22.8583 36.0513 21.9751 35.1682C21.092 34.285 21.092 32.8824 21.9751 31.9993ZM29.2998 23.7396L26.1829 20.6746L29.2998 17.6097C31.0141 17.6097 32.3648 19.0123 32.3648 20.6746C32.3648 22.3889 30.9622 23.7396 29.2998 23.7396Z" fill="#FFB900"/>
<path fill-rule="evenodd" clip-rule="evenodd" d="M19.271 1.40088C14.3879 1.40088 10.3879 5.29698 10.232 10.1801L23.2191 10.1282L16.5697 16.6217C16.5697 16.6217 11.0632 11.1152 10.232 10.3879C5.34893 10.4918 1.40088 14.4918 1.40088 19.4269C1.40088 24.4139 5.45283 28.4658 10.4398 28.4658L16.9853 21.8165L28.258 10.4918C28.31 5.45283 24.31 1.40088 19.271 1.40088ZM17.7645 7.99828C16.8814 8.8814 15.4269 8.8814 14.5437 7.99828C13.6606 7.11516 13.6606 5.71257 14.5437 4.82945C15.4269 3.94633 16.8814 3.94633 17.7645 4.82945C18.6476 5.66062 18.6476 7.11516 17.7645 7.99828ZM10.4918 22.3879C8.7775 22.3879 7.42685 20.9853 7.42685 19.323C7.42685 17.6606 8.7775 16.258 10.4918 16.258L13.6087 19.323L10.4918 22.3879Z" fill="#1F31DB"/>
</svg>
