<svg width="160" height="29" viewBox="0 0 160 29" fill="none" xmlns="http://www.w3.org/2000/svg">
<path d="M2.44225 27.0213C1.76448 27.0213 1.20996 26.4667 1.20996 25.789V6.07384C1.20996 5.39607 1.76448 4.84155 2.44225 4.84155H34.4794C35.1572 4.84155 35.7117 5.39607 35.7117 6.07384V25.789C35.7117 26.4667 35.1572 27.0213 34.4794 27.0213H2.44225Z" fill="white" fill-opacity="0.8"/>
<path d="M34.5017 6.16139V25.8767H2.46437V6.16139H34.5017ZM34.5017 3.69702H2.46437C1.10883 3.69702 0 4.80606 0 6.16139V25.8767C0 27.2321 1.10904 28.3411 2.46437 28.3411H34.5017C35.8571 28.3411 36.9661 27.2321 36.9661 25.8767V6.16139C36.9661 4.79375 35.8696 3.69702 34.5017 3.69702Z" fill="#272928"/>
<path d="M6.16148 23.4119C5.48372 23.4119 4.9292 22.8576 4.9292 22.1798V2.4645C4.9292 1.78674 5.48392 1.23242 6.16169 1.23242H38.1989C38.8766 1.23242 39.4309 1.78694 39.4309 2.4645V22.1798C39.4309 22.8576 38.8766 23.4119 38.1989 23.4119H6.16148Z" fill="#9EFEDD"/>
<path d="M38.1912 2.46437V22.1797H6.15382V2.46437H38.1912ZM38.1912 0H6.15382C4.79829 0 3.68945 1.10904 3.68945 2.46437V22.1797C3.68945 23.535 4.79849 24.6441 6.15382 24.6441H38.1912C39.5465 24.6441 40.6556 23.535 40.6556 22.1797V2.46437C40.6556 1.09673 39.5588 0 38.1912 0Z" fill="#272928"/>
<path d="M17.2481 16.0197H13.5515C13.3086 16.02 13.0681 15.9724 12.8437 15.8797C12.6193 15.7869 12.4154 15.6508 12.2437 15.4791C12.072 15.3074 11.9359 15.1035 11.8431 14.8791C11.7504 14.6547 11.7028 14.4141 11.7031 14.1713C11.7028 13.9285 11.7504 13.688 11.8431 13.4636C11.9359 13.2392 12.072 13.0353 12.2437 12.8636C12.4154 12.6919 12.6193 12.5558 12.8437 12.463C13.0681 12.3702 13.3086 12.3227 13.5515 12.323H17.2481C17.4909 12.3227 17.7314 12.3703 17.9558 12.4631C18.1802 12.5558 18.384 12.692 18.5557 12.8637C18.7274 13.0354 18.8635 13.2392 18.9563 13.4636C19.049 13.688 19.0966 13.9285 19.0962 14.1713C19.0966 14.4141 19.049 14.6546 18.9563 14.879C18.8635 15.1034 18.7274 15.3073 18.5557 15.479C18.384 15.6507 18.1802 15.7868 17.9558 15.8796C17.7314 15.9724 17.4909 16.02 17.2481 16.0197ZM35.7312 16.0197H32.0345C31.7917 16.02 31.5512 15.9724 31.3268 15.8796C31.1024 15.7868 30.8985 15.6507 30.7268 15.479C30.5551 15.3073 30.419 15.1034 30.3262 14.879C30.2335 14.6546 30.1859 14.4141 30.1862 14.1713C30.1859 13.9285 30.2335 13.688 30.3262 13.4636C30.419 13.2392 30.5551 13.0353 30.7268 12.8637C30.8985 12.692 31.1024 12.5558 31.3268 12.463C31.5512 12.3703 31.7917 12.3227 32.0345 12.323H35.7312C35.974 12.3227 36.2145 12.3703 36.4389 12.463C36.6633 12.5558 36.8671 12.692 37.0388 12.8637C37.2105 13.0353 37.3467 13.2392 37.4394 13.4636C37.5322 13.688 37.5798 13.9285 37.5795 14.1713C37.5798 14.4141 37.5322 14.6546 37.4394 14.879C37.3467 15.1034 37.2105 15.3073 37.0388 15.479C36.8671 15.6507 36.6633 15.7868 36.4389 15.8796C36.2145 15.9724 35.974 16.02 35.7312 16.0197Z" fill="#6CD7B2"/>
<path d="M17.2479 14.7869C17.1668 14.7877 17.0863 14.7723 17.0112 14.7416C16.9361 14.7109 16.8679 14.6656 16.8106 14.6082C16.7532 14.5509 16.7078 14.4827 16.6772 14.4076C16.6465 14.3325 16.6311 14.252 16.6319 14.1709V8.00987C16.6311 7.92875 16.6465 7.84829 16.6772 7.7732C16.7078 7.69811 16.7532 7.62988 16.8106 7.57252C16.8679 7.51516 16.9361 7.46981 17.0112 7.43913C17.0863 7.40845 17.1668 7.39305 17.2479 7.39383C17.329 7.39302 17.4095 7.4084 17.4846 7.43907C17.5598 7.46974 17.628 7.51508 17.6854 7.57245C17.7428 7.62981 17.7881 7.69805 17.8188 7.77315C17.8495 7.84826 17.8649 7.92874 17.8641 8.00987V14.1709C17.8637 14.3342 17.7986 14.4906 17.6831 14.606C17.5676 14.7215 17.4112 14.7865 17.2479 14.7869Z" fill="#FF7BAC"/>
<path d="M17.248 6.16138C17.0052 6.16106 16.7647 6.20865 16.5404 6.30143C16.316 6.39421 16.1121 6.53034 15.9404 6.70204C15.7687 6.87374 15.6326 7.07763 15.5399 7.30202C15.4471 7.52641 15.3996 7.7669 15.3999 8.0097V14.1707C15.3996 14.4135 15.4471 14.654 15.5399 14.8784C15.6326 15.1028 15.7687 15.3067 15.9404 15.4784C16.1121 15.6501 16.316 15.7862 16.5404 15.879C16.7647 15.9718 17.0052 16.0194 17.248 16.019C17.4908 16.0194 17.7314 15.9718 17.9558 15.8791C18.1802 15.7863 18.3841 15.6502 18.5558 15.4785C18.7275 15.3068 18.8636 15.1029 18.9564 14.8785C19.0491 14.654 19.0967 14.4135 19.0964 14.1707V8.0097C19.0967 7.76688 19.0491 7.52638 18.9564 7.30197C18.8636 7.07757 18.7275 6.87367 18.5558 6.70197C18.3841 6.53027 18.1802 6.39414 17.9558 6.30137C17.7314 6.20861 17.4908 6.16103 17.248 6.16138Z" fill="#272928"/>
<path d="M32.0357 14.7869C31.9546 14.7877 31.8741 14.7724 31.799 14.7417C31.7239 14.711 31.6556 14.6657 31.5982 14.6083C31.5408 14.5509 31.4955 14.4827 31.4648 14.4076C31.4341 14.3325 31.4187 14.252 31.4195 14.1709V8.00987C31.4187 7.92874 31.4341 7.84826 31.4648 7.77315C31.4955 7.69805 31.5408 7.62981 31.5982 7.57245C31.6556 7.51508 31.7239 7.46974 31.799 7.43907C31.8741 7.4084 31.9546 7.39302 32.0357 7.39383C32.1168 7.39305 32.1973 7.40845 32.2724 7.43913C32.3475 7.46981 32.4157 7.51516 32.4731 7.57252C32.5304 7.62988 32.5758 7.69811 32.6064 7.7732C32.6371 7.84829 32.6525 7.92875 32.6517 8.00987V14.1709C32.6517 14.5035 32.3806 14.7869 32.0357 14.7869Z" fill="#FF7BAC"/>
<path d="M32.0353 6.162C31.7925 6.16166 31.552 6.20923 31.3276 6.30199C31.1032 6.39476 30.8993 6.53089 30.7276 6.70259C30.5559 6.87429 30.4198 7.07819 30.327 7.3026C30.2342 7.527 30.1867 7.7675 30.187 8.01033V14.1713C30.1867 14.4142 30.2343 14.6547 30.3271 14.879C30.4198 15.1034 30.556 15.3073 30.7277 15.479C30.8994 15.6507 31.1032 15.7868 31.3276 15.8796C31.552 15.9724 31.7925 16.02 32.0353 16.0197C32.2782 16.02 32.5186 15.9724 32.743 15.8796C32.9674 15.7868 33.1713 15.6507 33.343 15.479C33.5147 15.3073 33.6508 15.1034 33.7436 14.879C33.8364 14.6547 33.884 14.4142 33.8837 14.1713V8.01033C33.884 7.7675 33.8364 7.527 33.7437 7.3026C33.6509 7.07819 33.5148 6.87429 33.3431 6.70259C33.1714 6.53089 32.9675 6.39476 32.7431 6.30199C32.5187 6.20923 32.2782 6.16166 32.0353 6.162ZM60.4836 13.9099C59.8913 13.5854 59.1438 13.2892 58.2411 13.0072C58.1987 12.9931 58.1705 12.9931 58.1423 12.979C58.114 12.9649 58.0719 12.9508 58.0295 12.9508C57.973 12.9366 57.9307 12.9225 57.8744 12.8943C57.8179 12.8802 57.7755 12.866 57.7193 12.8519C57.0703 12.6405 56.5767 12.4572 56.21 12.3018C55.8433 12.1467 55.5472 11.9212 55.2932 11.639C55.0393 11.357 54.9265 11.0044 54.9265 10.553V9.9466C54.9265 9.43868 55.1099 9.0298 55.4907 8.73348C55.8292 8.4656 56.3087 8.3246 56.9152 8.29636C57.4371 8.28224 58.1846 8.52188 58.5655 8.86056C58.6923 8.97332 58.8053 9.08608 58.9039 9.22728C59.3693 9.83364 60.1733 10.0594 60.8644 9.735L60.9913 9.67852C61.8518 9.26944 62.1621 8.21164 61.6685 7.39368C61.5589 7.22689 61.446 7.06225 61.33 6.89988C60.8785 6.32176 60.3002 5.89856 59.6233 5.61656C58.9463 5.33436 58.1564 5.19336 57.2678 5.19336C56.0831 5.19336 55.0816 5.39084 54.2495 5.77168C53.4173 6.16644 52.7968 6.73064 52.3595 7.46408C51.9223 8.21164 51.7107 9.1002 51.7107 10.13V10.6236C51.7107 11.7237 51.9365 12.5982 52.3736 13.261C52.8109 13.9238 53.3469 14.4035 53.9673 14.7138C54.588 15.024 55.3921 15.3344 56.3793 15.6306L56.5344 15.6729C56.5485 15.687 56.5626 15.687 56.5767 15.687C56.5909 15.687 56.6191 15.7012 56.6473 15.7153C57.2537 15.8986 57.7334 16.0679 58.114 16.223C58.4807 16.3781 58.7912 16.5897 59.0167 16.8435C59.2424 17.1116 59.3693 17.4359 59.3693 17.845V18.6347C59.3693 19.1989 59.172 19.6362 58.7771 19.9465C58.3821 20.2567 57.832 20.4118 57.1127 20.4118C56.4216 20.4118 55.8433 20.2285 55.3638 19.8478C55.1882 19.7145 55.0316 19.5579 54.8983 19.3823C54.4047 18.7618 53.5585 18.5361 52.825 18.8604C51.8376 19.2978 51.4709 20.5248 52.0775 21.4134L52.3312 21.7518C52.825 22.3443 53.4596 22.7955 54.2354 23.0918C55.0112 23.388 55.8998 23.5431 56.9293 23.5431C58.114 23.5431 59.1297 23.3456 59.9759 22.9648C60.8221 22.57 61.471 22.0058 61.9222 21.2724C62.3737 20.5248 62.5853 19.6362 62.5853 18.6067V17.8732C62.5853 16.8294 62.3878 15.9832 61.9787 15.3486C61.5696 14.7138 61.076 14.2343 60.4836 13.9099ZM71.062 10.8491C70.3568 10.4965 69.5104 10.3272 68.5232 10.3272C67.5358 10.3272 66.6896 10.4965 65.9844 10.8491C65.2792 11.2017 64.7432 11.7096 64.3765 12.3866C64.0098 13.0635 63.8264 13.8676 63.8264 14.8265V19.0438C63.8264 20.003 64.0098 20.8209 64.3765 21.4979C64.7432 22.1748 65.2792 22.6969 65.9844 23.0495C66.6896 23.4021 67.5358 23.5854 68.5232 23.5854C69.5104 23.5854 70.3568 23.4021 71.062 23.0495C71.7672 22.6969 72.3031 22.1748 72.6699 21.512C73.0366 20.835 73.2199 20.031 73.2199 19.072V14.8265C73.2199 13.8815 73.0366 13.0635 72.6699 12.3866C72.3031 11.7096 71.7672 11.2017 71.062 10.8491ZM70.0181 18.945C70.0181 19.4529 69.8912 19.8618 69.6233 20.144C69.3694 20.426 69.0027 20.567 68.5232 20.567C68.0435 20.567 67.6768 20.426 67.423 20.144C67.1691 19.8618 67.0422 19.467 67.0422 18.945V14.9254C67.0422 14.4176 67.1691 14.0227 67.4371 13.7546C67.6909 13.4726 68.0576 13.3316 68.5373 13.3316C69.0027 13.3316 69.3694 13.4726 69.6375 13.7405C69.8912 14.0227 70.0322 14.4176 70.0322 14.9254V18.945H70.0181ZM78.1705 13.8393C78.4668 13.5008 78.8757 13.3316 79.3975 13.3316C79.8066 13.3316 80.1451 13.4585 80.399 13.7122C80.4414 13.7546 80.4977 13.8111 80.54 13.8676C80.9632 14.4316 81.7108 14.6432 82.3736 14.4176C83.4032 14.0648 83.8264 12.8378 83.2198 11.9351C83.2057 11.921 83.1916 11.893 83.1775 11.8788C82.8107 11.3429 82.303 10.9479 81.6825 10.7081C81.0619 10.4543 80.3002 10.3272 79.4257 10.3272C78.3962 10.3272 77.5076 10.5106 76.7601 10.8914C76.0266 11.2723 75.4624 11.8224 75.0675 12.5417C74.6727 13.261 74.4893 14.1354 74.4893 15.137V18.8181C74.4893 19.8196 74.6868 20.6799 75.0675 21.3851C75.4624 22.1044 76.0266 22.6404 76.7601 23.0212C77.4935 23.388 78.3821 23.5854 79.4257 23.5854C80.3143 23.5854 81.076 23.4584 81.6967 23.2187C82.3171 22.9789 82.8107 22.598 83.1775 22.0762L83.1916 22.0621C83.8123 21.1735 83.3891 19.9324 82.3595 19.5798L82.3313 19.5656C81.6684 19.3258 80.935 19.5656 80.4835 20.1016C80.4555 20.144 80.4273 20.1722 80.3849 20.2002C80.1309 20.4542 79.8066 20.567 79.3834 20.567C78.8474 20.567 78.4385 20.3977 78.1563 20.0734C77.8602 19.749 77.7192 19.2836 77.7192 18.6912V15.2638C77.7192 14.6432 77.8602 14.1637 78.1705 13.8393ZM86.4215 5.37672H86.3934C86.1823 5.37661 85.9732 5.41812 85.778 5.49888C85.5829 5.57963 85.4056 5.69804 85.2563 5.84735C85.107 5.99665 84.9886 6.17392 84.9078 6.36903C84.827 6.56413 84.7855 6.77324 84.7855 6.9844C84.7854 7.1956 84.8269 7.40475 84.9077 7.59989C84.9884 7.79504 85.1068 7.97236 85.2562 8.12171C85.4055 8.27106 85.5828 8.38951 85.7779 8.47028C85.9731 8.55106 86.1822 8.59259 86.3934 8.59248H86.4215C86.6327 8.59259 86.8418 8.55107 87.0369 8.47031C87.2321 8.38954 87.4094 8.27112 87.5587 8.12179C87.7081 7.97247 87.8265 7.79518 87.9073 7.60005C87.9881 7.40492 88.0296 7.19579 88.0295 6.9846C88.0296 6.77341 87.9881 6.56428 87.9073 6.36915C87.8265 6.17402 87.7081 5.99673 87.5587 5.84741C87.4094 5.69808 87.2321 5.57966 87.0369 5.49889C86.8418 5.41813 86.6327 5.37661 86.4215 5.37672ZM86.4215 10.5247H86.3934C86.1822 10.5246 85.9731 10.5661 85.778 10.6469C85.5829 10.7277 85.4056 10.8461 85.2563 10.9954C85.1069 11.1447 84.9885 11.322 84.9077 11.5172C84.827 11.7123 84.7854 11.9214 84.7855 12.1326V21.7942C84.7854 22.0054 84.827 22.2145 84.9077 22.4096C84.9885 22.6048 85.1069 22.7821 85.2563 22.9314C85.4056 23.0807 85.5829 23.1991 85.778 23.2799C85.9731 23.3607 86.1822 23.4022 86.3934 23.4021H86.4215C86.6327 23.4022 86.8418 23.3607 87.0369 23.2799C87.2321 23.1991 87.4094 23.0807 87.5587 22.9314C87.7081 22.7821 87.8265 22.6048 87.9073 22.4097C87.9881 22.2145 88.0296 22.0054 88.0295 21.7942V12.1326C88.0296 11.9214 87.9881 11.7123 87.9073 11.5171C87.8265 11.322 87.7081 11.1447 87.5587 10.9954C87.4094 10.8461 87.2321 10.7277 87.0369 10.6469C86.8418 10.5661 86.6327 10.5246 86.4215 10.5247ZM96.7035 10.835C96.0125 10.4965 95.1804 10.3272 94.2212 10.3272C93.0928 10.3272 92.148 10.5812 91.3863 11.0889C91.3722 11.0889 91.3722 11.103 91.3581 11.103C90.2861 11.8224 90.4836 13.4585 91.6824 13.9521C92.0491 14.1072 92.4723 14.0227 92.7685 13.7687C92.8814 13.6701 92.9942 13.5995 93.1211 13.515C93.4456 13.3455 93.7982 13.261 94.1789 13.261C94.7009 13.261 95.1098 13.3879 95.4061 13.6418C95.7022 13.8956 95.8432 14.2482 95.8432 14.7138V15.7433H93.8404C92.3735 15.7433 91.2735 16.0818 90.526 16.7729C89.7784 17.4642 89.4117 18.4655 89.4117 19.7772C89.4117 21.0466 89.7078 21.9915 90.3003 22.6404C90.8927 23.2891 91.7671 23.6137 92.9518 23.6137C93.516 23.6137 94.0379 23.5148 94.4893 23.3315C94.9547 23.1481 95.3214 22.8661 95.6036 22.4853C95.7022 22.3582 95.7728 22.2313 95.8432 22.0762C95.8573 22.8238 96.478 23.4303 97.2256 23.4303H97.4511C98.2128 23.4303 98.8335 22.8096 98.8335 22.048V14.6855C98.8335 13.7828 98.6501 12.9929 98.2834 12.3583C97.9167 11.6672 97.3948 11.1736 96.7035 10.835ZM95.3355 20.6093C94.997 20.835 94.4893 20.9478 93.8263 20.9478C93.3468 20.9478 92.9942 20.8492 92.7543 20.6517C92.5147 20.4542 92.4017 20.1581 92.4017 19.7631C92.4017 19.2554 92.5288 18.8746 92.7967 18.6347C93.0507 18.381 93.4454 18.2539 93.9392 18.2539H95.8573V19.6221C95.8432 20.0451 95.674 20.3836 95.3355 20.6093ZM103.685 20.0171C103.53 19.8476 103.446 19.6221 103.446 19.3258V7.04108C103.446 6.15252 102.754 5.39084 101.866 5.37672C101.652 5.37253 101.44 5.41104 101.241 5.48999C101.043 5.56895 100.862 5.68675 100.71 5.8365C100.557 5.98624 100.436 6.16492 100.354 6.36204C100.272 6.55915 100.229 6.77074 100.23 6.9844V19.9888C100.23 21.0749 100.512 21.907 101.076 22.4994C101.64 23.0916 102.43 23.388 103.431 23.388H106.027C106.139 23.388 106.238 23.2891 106.238 23.1764V20.4683C106.238 20.3556 106.139 20.2567 106.027 20.2567H104.362C104.066 20.2567 103.84 20.1722 103.685 20.0171ZM118.763 20.285H116.309V7.04108C116.309 6.15252 115.618 5.39084 114.729 5.37672C114.515 5.37253 114.303 5.41104 114.104 5.49C113.906 5.56895 113.725 5.68676 113.573 5.83651C113.42 5.98626 113.3 6.16493 113.217 6.36205C113.135 6.55916 113.093 6.77075 113.093 6.9844V23.0636C113.093 23.247 113.248 23.4021 113.431 23.4021H118.833C119.708 23.4021 120.399 22.6828 120.385 21.8224C120.357 20.9619 119.623 20.285 118.763 20.285ZM128.156 10.835C127.465 10.4965 126.633 10.3272 125.674 10.3272C124.546 10.3272 123.601 10.5812 122.839 11.0889C122.825 11.0889 122.825 11.103 122.811 11.103C121.739 11.8224 121.936 13.4585 123.135 13.9521C123.502 14.1072 123.925 14.0227 124.221 13.7687C124.334 13.6701 124.447 13.5995 124.574 13.515C124.898 13.3455 125.251 13.261 125.632 13.261C126.154 13.261 126.577 13.3879 126.859 13.6418C127.155 13.8956 127.296 14.2482 127.296 14.7138V15.7433H125.293C123.826 15.7433 122.726 16.0818 121.979 16.7729C121.231 17.4642 120.864 18.4655 120.864 19.7772C120.864 21.0466 121.161 21.9915 121.753 22.6404C122.345 23.2891 123.22 23.6137 124.405 23.6137C124.969 23.6137 125.491 23.5148 125.942 23.3315C126.407 23.1481 126.774 22.8661 127.056 22.4853C127.155 22.3582 127.225 22.2313 127.296 22.0762C127.302 22.4345 127.449 22.776 127.705 23.0267C127.961 23.2775 128.306 23.4174 128.664 23.4162H128.904C129.666 23.4162 130.272 22.7955 130.272 22.048V14.6714C130.272 13.7687 130.089 12.9788 129.722 12.3442C129.369 11.6672 128.847 11.1736 128.156 10.835ZM126.788 20.6093C126.45 20.835 125.942 20.9478 125.279 20.9478C124.8 20.9478 124.447 20.8492 124.207 20.6517C123.967 20.4542 123.855 20.1581 123.855 19.7631C123.855 19.2554 123.981 18.8746 124.25 18.6347C124.503 18.381 124.898 18.2539 125.392 18.2539H127.31V19.6221C127.296 20.0451 127.127 20.3836 126.788 20.6093ZM139.256 10.5247H139.228C138.914 10.5252 138.608 10.6289 138.358 10.8201C138.109 11.0112 137.929 11.2791 137.846 11.5825L136.083 18.1694L134.094 11.5825C133.911 10.9762 133.361 10.5247 132.712 10.5247C131.725 10.5106 131.034 11.4698 131.33 12.4148L134.785 22.993L134.376 24.5022C134.264 24.9111 134.108 25.419 133.883 25.5742H133.502C132.698 25.5742 132.063 26.237 132.063 27.0269C132.063 27.9155 132.74 28.677 133.629 28.7476C134.207 28.7899 134.644 28.5924 134.983 28.3526C135.082 28.2822 135.18 28.1975 135.279 28.113L135.575 27.8449C136.351 27.1114 136.887 25.3908 137.098 24.6715L137.282 24.0508L140.653 12.3583C140.907 11.4415 140.216 10.5247 139.256 10.5247ZM148.96 10.9903C148.255 10.553 147.409 10.3272 146.422 10.3272C145.406 10.3272 144.531 10.5247 143.812 10.9338C143.093 11.3288 142.543 11.921 142.162 12.6686C141.781 13.4302 141.598 14.347 141.598 15.419V18.7194C141.598 19.7349 141.795 20.6093 142.19 21.3286C142.585 22.0621 143.149 22.6122 143.897 22.993C144.63 23.3738 145.533 23.5713 146.577 23.5713C147.761 23.5713 148.721 23.3032 149.468 22.7814C149.694 22.6263 149.905 22.4288 150.089 22.2172C150.766 21.4416 150.441 20.2285 149.482 19.8618L149.369 19.8196C148.805 19.608 148.199 19.7772 147.775 20.2144C147.719 20.2708 147.663 20.3273 147.592 20.3836C147.296 20.6093 146.929 20.7223 146.478 20.7223C145.886 20.7223 145.434 20.5528 145.11 20.2144C144.785 19.8759 144.63 19.3964 144.63 18.7757V18.2115H148.833C149.132 18.2117 149.427 18.1531 149.703 18.0391C149.978 17.9251 150.229 17.7578 150.439 17.5469C150.65 17.336 150.818 17.0856 150.932 16.81C151.046 16.5344 151.104 16.2391 151.104 15.9408C151.104 14.7561 150.921 13.7405 150.554 12.8943C150.187 12.0622 149.651 11.4274 148.96 10.9903ZM148.072 15.9267H144.644V15.2921C144.644 14.6432 144.8 14.1354 145.11 13.7687C145.42 13.4161 145.857 13.2328 146.407 13.2328C146.901 13.2328 147.296 13.3879 147.606 13.7122C147.916 14.0368 148.072 14.4598 148.072 15.0099V15.9267ZM159.736 11.0183C159.665 10.9762 159.595 10.9479 159.524 10.9197C159.294 10.8342 159.051 10.7912 158.805 10.7928C158.114 10.7928 157.493 11.0044 156.915 11.4415C156.464 11.78 156.083 12.2173 155.773 12.7533V12.2032C155.773 11.9826 155.73 11.764 155.646 11.5601C155.562 11.3561 155.439 11.1708 155.283 11.0149C155.127 10.8589 154.941 10.7352 154.737 10.6511C154.533 10.567 154.315 10.5241 154.094 10.5247C153.874 10.5241 153.655 10.567 153.451 10.6511C153.247 10.7352 153.062 10.8589 152.906 11.0149C152.75 11.1708 152.626 11.3561 152.542 11.5601C152.458 11.764 152.415 11.9826 152.416 12.2032V21.7236C152.415 21.9442 152.458 22.1628 152.542 22.3667C152.626 22.5707 152.75 22.756 152.906 22.9119C153.062 23.0679 153.247 23.1916 153.451 23.2757C153.655 23.3598 153.874 23.4027 154.094 23.4021C154.315 23.4027 154.533 23.3598 154.737 23.2757C154.941 23.1916 155.127 23.0679 155.283 22.9119C155.439 22.756 155.562 22.5707 155.646 22.3667C155.73 22.1628 155.773 21.9442 155.773 21.7236V16.5332C155.773 15.7574 155.97 15.1511 156.365 14.7138C156.76 14.2764 157.31 14.0509 158.001 14.0509C158.227 14.0509 158.438 14.065 158.636 14.1072C158.918 14.1637 159.2 14.0227 159.299 13.7405L159.976 11.6531C160.046 11.4274 159.962 11.1454 159.736 11.0183Z" fill="#272928"/>
</svg>
