<svg width="136" height="40" viewBox="0 0 136 40" fill="none" xmlns="http://www.w3.org/2000/svg">
<g clip-path="url(#clip0_202_24727)">
<path d="M0 0H3.86828V9.99204C3.86828 10.5863 3.96479 11.1489 4.14976 11.6798C4.34276 12.2028 4.60816 12.6703 4.96201 13.0586C5.31586 13.4548 5.7421 13.7638 6.24073 13.9936C6.73934 14.2234 7.30229 14.3343 7.92957 14.3343C8.55687 14.3343 9.09569 14.2234 9.5943 13.9936C10.0929 13.7638 10.5111 13.4548 10.865 13.0586C11.2108 12.6624 11.4842 12.2028 11.6692 11.6798C11.8621 11.1568 11.9506 10.5943 11.9506 9.99204V0H14.3955V9.99204C14.3955 10.7923 14.2588 11.553 13.9854 12.2662C13.7118 12.9793 13.2777 13.6053 12.6905 14.1362C12.1035 14.6671 11.3475 15.095 10.4227 15.4041C9.49779 15.721 8.38798 15.8716 7.10123 15.8716C5.94316 15.8716 4.9218 15.7131 4.03716 15.4041C3.15252 15.0871 2.40461 14.6671 1.80949 14.1283C1.21437 13.5895 0.764005 12.9635 0.458403 12.2424C0.152801 11.5213 0 10.7607 0 9.95242V0Z" fill="#353019"/>
<path d="M31.7988 15.8794H27.9305V5.88734C27.9305 5.29305 27.834 4.73046 27.649 4.19956C27.4561 3.67658 27.1907 3.20907 26.8367 2.8208C26.4829 2.4246 26.0567 2.11557 25.558 1.88578C25.0594 1.65598 24.4965 1.54505 23.8692 1.54505C23.242 1.54505 22.7031 1.65598 22.2045 1.88578C21.7059 2.11557 21.2876 2.4246 20.9338 2.8208C20.5881 3.21699 20.3145 3.67658 20.1296 4.19956C19.9366 4.72253 19.8482 5.28513 19.8482 5.88734V15.8794H17.4033V5.88734C17.4033 5.08703 17.54 4.32634 17.8135 3.61319C18.0869 2.90003 18.5212 2.27405 19.1083 1.74315C19.6953 1.21224 20.4513 0.784355 21.3761 0.475323C22.301 0.158367 23.4109 0.0078125 24.6976 0.0078125C25.8556 0.0078125 26.877 0.166291 27.7616 0.475323C28.6463 0.792279 29.3942 1.21225 29.9893 1.75107C30.5845 2.2899 31.0348 2.91588 31.3404 3.63696C31.646 4.35803 31.7988 5.11872 31.7988 5.92696V15.8794Z" fill="#353019"/>
<path d="M4.29451 31.8857C4.29451 32.892 4.44731 33.7795 4.76096 34.5481C5.06656 35.3167 5.47671 35.9665 5.99141 36.4815C6.49807 37.0045 7.09319 37.4007 7.75265 37.6701C8.42015 37.9395 9.11178 38.0742 9.82752 38.0742C10.3744 38.0742 10.8891 37.9791 11.3636 37.7969C11.8381 37.6067 12.2804 37.3532 12.6985 37.0362C13.1088 36.7192 13.5028 36.3468 13.8647 35.9269C14.2266 35.5069 14.5724 35.0632 14.9102 34.6036L16.5186 35.7684C16.1728 36.3151 15.7546 36.846 15.2641 37.3532C14.7735 37.8603 14.2185 38.3119 13.6073 38.7002C12.9961 39.0885 12.3286 39.3975 11.6129 39.6352C10.8972 39.873 10.1331 39.9839 9.32891 39.9839C7.97783 39.9839 6.73129 39.7858 5.58931 39.3975C4.44731 39.0093 3.46617 38.4625 2.63783 37.7494C1.80949 37.0441 1.16611 36.1883 0.699664 35.1979C0.233219 34.2074 0 33.098 0 31.8777C0 30.6575 0.217138 29.6115 0.659457 28.621C1.10177 27.6305 1.72102 26.7748 2.5172 26.0537C3.31337 25.3326 4.27843 24.77 5.3963 24.3659C6.51416 23.9618 7.75265 23.7637 9.10373 23.7637C10.0045 23.7637 10.8328 23.8667 11.5887 24.0806C12.3367 24.2867 13.0203 24.5798 13.6395 24.9523C14.2507 25.3247 14.8056 25.7605 15.2881 26.2755C15.7707 26.7906 16.1969 27.3532 16.5668 27.9713L14.9423 29.0885C14.6126 28.621 14.2507 28.1852 13.8567 27.7732C13.4626 27.3611 13.0524 27.0045 12.6101 26.6955C12.1678 26.3865 11.7094 26.1408 11.2188 25.9665C10.7283 25.7843 10.2216 25.6971 9.69885 25.6971C8.98309 25.6971 8.29147 25.8318 7.64005 26.0933C6.98864 26.3627 6.40961 26.751 5.91903 27.274C5.42042 27.7969 5.02636 28.4388 4.73684 29.2074C4.43927 29.976 4.29451 30.8635 4.29451 31.8698V31.8857Z" fill="#353019"/>
<path d="M28.3485 39.9926C27.0779 39.9926 25.8957 39.7945 24.802 39.3904C23.7002 38.9862 22.7512 38.4236 21.947 37.6946C21.1428 36.9656 20.5074 36.1019 20.049 35.1035C19.5907 34.1051 19.3574 33.0038 19.3574 31.8073C19.3574 30.6108 19.5907 29.5569 20.049 28.5823C20.5074 27.5997 21.1428 26.7598 21.947 26.0625C22.7512 25.3652 23.7002 24.8183 24.802 24.43C25.9037 24.0418 27.086 23.8438 28.3485 23.8438C29.6112 23.8438 30.8014 24.0418 31.8951 24.43C32.9889 24.8262 33.9378 25.3731 34.7501 26.0704C35.5543 26.7677 36.1977 27.6076 36.6561 28.5823C37.1146 29.5569 37.3558 30.6187 37.3558 31.7756C37.3558 32.5997 37.2513 33.3761 37.0421 34.1051C36.833 34.8341 36.5354 35.4998 36.1495 36.11C35.7634 36.7201 35.297 37.2667 34.7582 37.7422C34.2193 38.2255 33.6081 38.6298 32.9407 38.9626C32.2732 39.2954 31.5493 39.5569 30.7773 39.7312C30.0052 39.9134 29.193 40.0005 28.3566 40.0005L28.3485 39.9926ZM28.3485 38.6931C29.1126 38.6931 29.7881 38.5188 30.3751 38.1702C30.9623 37.8215 31.4528 37.3461 31.8469 36.7359C32.241 36.1258 32.5386 35.4047 32.7476 34.5569C32.9487 33.7169 33.0532 32.7978 33.0532 31.7994C33.0532 30.8009 32.9487 29.9214 32.7476 29.1052C32.5466 28.2891 32.241 27.5918 31.8469 27.0054C31.4528 26.419 30.9623 25.9594 30.3751 25.6346C29.7881 25.3097 29.1126 25.1432 28.3485 25.1432C27.5845 25.1432 26.8929 25.3097 26.3058 25.6346C25.7188 25.9594 25.2282 26.419 24.8342 27.0054C24.4401 27.5918 24.1425 28.297 23.9414 29.1052C23.7404 29.9214 23.6439 30.8168 23.6439 31.7994C23.6439 32.7819 23.7404 33.7169 23.9414 34.5569C24.1425 35.3968 24.4401 36.1258 24.8342 36.7359C25.2282 37.3461 25.7188 37.8215 26.3058 38.1702C26.8929 38.5188 27.5765 38.6931 28.3485 38.6931Z" fill="#353019"/>
<path d="M40.8061 24.1523H44.5618L49.9984 34.7386L55.3544 24.1523H59.0297V39.6514H55.1774V29.5484L50.0386 39.6514H48.5508L43.2349 29.4375V39.6514H40.79V24.1523H40.8061Z" fill="#353019"/>
<path d="M62.9947 24.1523H66.7503L72.1868 34.7386L77.5429 24.1523H81.2181V39.6514H77.366V29.5484L72.227 39.6514H70.7392L65.4234 29.4375V39.6514H62.9785V24.1523H62.9947Z" fill="#353019"/>
<path d="M93.7157 39.9926C92.4451 39.9926 91.2629 39.7945 90.1692 39.3904C89.0674 38.9862 88.1184 38.4236 87.3142 37.6946C86.51 36.9656 85.8746 36.1019 85.4163 35.1035C84.9578 34.1051 84.7246 33.0038 84.7246 31.8073C84.7246 30.6108 84.9578 29.5569 85.4163 28.5823C85.8746 27.5997 86.51 26.7598 87.3142 26.0625C88.1184 25.3652 89.0674 24.8183 90.1692 24.43C91.271 24.0418 92.4532 23.8438 93.7157 23.8438C94.9784 23.8438 96.1686 24.0418 97.2624 24.43C98.3561 24.8262 99.305 25.3731 100.117 26.0704C100.921 26.7677 101.565 27.6076 102.024 28.5823C102.481 29.5569 102.723 30.6187 102.723 31.7756C102.723 32.5997 102.618 33.3761 102.409 34.1051C102.2 34.8341 101.903 35.4998 101.517 36.11C101.131 36.7201 100.664 37.2667 100.125 37.7422C99.5866 38.2255 98.9754 38.6298 98.3079 38.9626C97.6403 39.2954 96.9165 39.5569 96.1444 39.7312C95.3725 39.9134 94.5601 40.0005 93.7238 40.0005L93.7157 39.9926ZM93.7157 38.6931C94.4798 38.6931 95.1553 38.5188 95.7424 38.1702C96.3295 37.8215 96.8201 37.3461 97.2141 36.7359C97.6082 36.1258 97.9057 35.4047 98.1148 34.5569C98.3159 33.7169 98.4204 32.7978 98.4204 31.7994C98.4204 30.8009 98.3159 29.9214 98.1148 29.1052C97.9138 28.2891 97.6082 27.5918 97.2141 27.0054C96.8201 26.419 96.3295 25.9594 95.7424 25.6346C95.1553 25.3097 94.4798 25.1432 93.7157 25.1432C92.9518 25.1432 92.2601 25.3097 91.6731 25.6346C91.086 25.9594 90.5954 26.419 90.2014 27.0054C89.8073 27.5918 89.5097 28.297 89.3086 29.1052C89.1076 29.9214 89.0111 30.8168 89.0111 31.7994C89.0111 32.7819 89.1076 33.7169 89.3086 34.5569C89.5097 35.3968 89.8073 36.1258 90.2014 36.7359C90.5954 37.3461 91.086 37.8215 91.6731 38.1702C92.2601 38.5188 92.9437 38.6931 93.7157 38.6931Z" fill="#353019"/>
<path d="M106.172 24.1523H108.641L117.608 34.0017V24.1523H120.021V39.8812H118.364L108.617 29.0017V39.6514H106.172V24.1523Z" fill="#353019"/>
<path d="M129.559 39.8737C128.618 39.8737 127.79 39.7629 127.083 39.5489C126.374 39.335 125.772 39.0339 125.281 38.6535C124.782 38.2732 124.388 37.8136 124.099 37.2906C123.802 36.7597 123.601 36.1813 123.496 35.5474H126.173C126.27 35.9356 126.399 36.3001 126.575 36.6409C126.753 36.9737 126.978 37.2668 127.251 37.5204C127.524 37.7661 127.854 37.9641 128.225 38.1068C128.602 38.2494 129.037 38.3207 129.528 38.3207C129.849 38.3207 130.178 38.289 130.492 38.2177C130.814 38.1464 131.104 38.0354 131.353 37.8769C131.61 37.7184 131.811 37.5203 131.964 37.2747C132.117 37.029 132.197 36.72 132.197 36.3555C132.197 35.8959 132.076 35.4919 131.836 35.1353C131.594 34.7787 131.281 34.4538 130.887 34.1606C130.492 33.8674 130.042 33.5981 129.543 33.3445C129.037 33.091 128.53 32.8374 127.999 32.5838C127.477 32.3303 126.962 32.0608 126.456 31.7756C125.948 31.4903 125.507 31.1813 125.112 30.8326C124.718 30.484 124.404 30.0957 124.163 29.652C123.922 29.2162 123.802 28.709 123.802 28.1464C123.802 27.5284 123.938 26.9579 124.212 26.4349C124.485 25.9119 124.879 25.4602 125.402 25.072C125.917 24.6837 126.552 24.3826 127.308 24.1686C128.055 23.9547 128.916 23.8438 129.873 23.8438C130.661 23.8438 131.377 23.9468 132.02 24.1607C132.664 24.3747 133.227 24.6679 133.717 25.0482C134.208 25.4285 134.618 25.8644 134.956 26.3715C135.285 26.8786 135.543 27.4173 135.72 28.0037H133.299C133.162 27.6392 133.002 27.2907 132.808 26.9499C132.623 26.6171 132.398 26.3239 132.125 26.0704C131.852 25.8168 131.522 25.6186 131.135 25.4681C130.75 25.3175 130.291 25.2463 129.752 25.2463C129.246 25.2463 128.827 25.3096 128.481 25.4443C128.136 25.5711 127.862 25.7376 127.653 25.9436C127.444 26.1417 127.292 26.3715 127.204 26.6171C127.106 26.8628 127.067 27.1084 127.067 27.3461C127.067 27.7582 127.187 28.1306 127.436 28.4634C127.686 28.7962 128.007 29.1131 128.417 29.3983C128.819 29.6915 129.286 29.961 129.801 30.2304C130.315 30.4919 130.846 30.7613 131.385 31.0228C131.924 31.2922 132.447 31.5695 132.969 31.8626C133.484 32.1558 133.951 32.4807 134.353 32.8294C134.755 33.178 135.085 33.5664 135.334 33.9943C135.583 34.4222 135.704 34.8976 135.704 35.4364C135.704 36.0703 135.575 36.6566 135.31 37.1954C135.044 37.7343 134.658 38.2097 134.136 38.6059C133.621 39.0021 132.978 39.3191 132.205 39.5489C131.433 39.7787 130.549 39.8896 129.543 39.8896L129.559 39.8737Z" fill="#353019"/>
</g>
<defs>
<clipPath id="clip0_202_24727">
<rect width="136" height="40" fill="white"/>
</clipPath>
</defs>
</svg>
