<svg width="160" height="30" viewBox="0 0 160 30" fill="none" xmlns="http://www.w3.org/2000/svg">
<path d="M30.7798 26.6097H34.5499L37.1329 20.9771L38.5899 17.6881L42.1953 9.8022L45.6342 17.6881L47.0614 20.9771L49.4929 26.6097H53.3233L42.2545 1.96167L30.7798 26.6097Z" fill="#1A1A1A"/>
<path d="M59.884 12.1937L68.9112 2.94409H73.5821L63.0984 13.4433L73.6424 26.1366H68.956L60.6051 15.8161L59.884 16.5372V26.1372H56.3843V2.94409H59.884V12.1937Z" fill="#1A1A1A"/>
<path d="M81.3537 2.94409H77.854V26.135H81.3537V2.94409Z" fill="#1A1A1A"/>
<path d="M86.9312 0.978516V25.7465H90.4304V9.51185L107.343 27.1604V2.55505H103.844V18.6719L86.9312 0.978516Z" fill="#1A1A1A"/>
<mask id="mask0_202_24481" style="mask-type:luminance" maskUnits="userSpaceOnUse" x="0" y="0" width="160" height="30">
<path d="M160 0H0V29.1088H160V0Z" fill="white"/>
</mask>
<g mask="url(#mask0_202_24481)">
<path d="M112.896 24.7665V1.57556H120.229C121.992 1.50965 123.753 1.7441 125.437 2.26889C126.909 2.7309 128.259 3.5161 129.388 4.56702C131.78 6.74978 132.977 9.61858 132.977 13.1734C132.977 16.7382 131.73 19.622 129.237 21.8246C128.102 22.859 126.761 23.6423 125.302 24.1233C123.638 24.6211 121.904 24.8392 120.169 24.7686L112.896 24.7665ZM116.396 21.4774H120.439C121.659 21.5131 122.876 21.3457 124.04 20.982C125.661 20.4338 127.062 19.3782 128.036 17.9715C129.01 16.5647 129.505 14.8818 129.447 13.1718C129.49 12.0179 129.284 10.8683 128.844 9.80092C128.403 8.73353 127.738 7.77326 126.894 6.98516C125.362 5.57342 123.423 4.86729 120.441 4.86729H116.398L116.396 21.4774Z" fill="#1A1A1A"/>
<path d="M135.757 13.0659C135.74 11.4917 136.05 9.93113 136.668 8.48323C137.286 7.03532 138.198 5.73173 139.347 4.65523C140.467 3.5197 141.806 2.62288 143.283 2.01883C144.759 1.41477 146.343 1.11601 147.938 1.14056C149.522 1.11935 151.093 1.42297 152.556 2.03269C154.018 2.64241 155.339 3.54529 156.439 4.68563C157.584 5.78552 158.491 7.10902 159.104 8.57401C159.716 10.039 160.021 11.6142 159.999 13.2019C160.026 14.7871 159.722 16.3606 159.107 17.8218C158.492 19.283 157.579 20.5999 156.426 21.6883C154.206 23.8627 151.243 25.1126 148.137 25.1851C145.03 25.2576 142.012 24.1472 139.694 22.0787C137.07 19.7861 135.758 16.7816 135.759 13.0654M139.288 13.1107C139.251 14.287 139.461 15.458 139.906 16.5475C140.351 17.637 141.021 18.6205 141.872 19.4339C143.482 21.0296 145.659 21.9211 147.926 21.9127C150.193 21.9043 152.364 20.9967 153.962 19.3891C154.778 18.5753 155.421 17.6049 155.851 16.5363C156.282 15.4677 156.492 14.3229 156.469 13.171C156.498 12.0206 156.294 10.8763 155.868 9.80731C155.442 8.73835 154.803 7.76704 153.991 6.95229C152.369 5.33574 150.173 4.42795 147.884 4.42795C145.595 4.42795 143.399 5.33574 141.777 6.95229C140.963 7.75412 140.322 8.71421 139.893 9.77338C139.464 10.8325 139.257 11.9683 139.284 13.1107" fill="#1A1A1A"/>
<path d="M49.9341 17.0253C49.9336 17.9026 49.6731 18.7601 49.1854 19.4894C48.6977 20.2186 48.0047 20.7869 47.194 21.1224C46.3833 21.4578 45.4914 21.5454 44.631 21.3739C43.7706 21.2025 42.9803 20.7798 42.3601 20.1593C41.7399 19.5388 41.3176 18.7484 41.1466 17.8879C40.9756 17.0274 41.0636 16.1355 41.3994 15.325C41.7353 14.5145 42.3039 13.8218 43.0334 13.3344C43.7629 12.847 44.6205 12.5869 45.4978 12.5869C46.6744 12.5869 47.8027 13.0543 48.6347 13.8863C49.4667 14.7182 49.9341 15.8466 49.9341 17.0232" fill="#1A1A1A"/>
<path d="M45.4978 22.3056C44.4535 22.3056 43.4327 21.9959 42.5644 21.4158C41.6961 20.8356 41.0193 20.011 40.6197 19.0462C40.2201 18.0814 40.1155 17.0198 40.3192 15.9955C40.523 14.9713 41.0258 14.0305 41.7643 13.2921C42.5027 12.5537 43.4435 12.0508 44.4677 11.8471C45.4919 11.6433 46.5536 11.7479 47.5183 12.1475C48.4831 12.5472 49.3078 13.2239 49.8879 14.0922C50.4681 14.9605 50.7778 15.9813 50.7778 17.0256C50.7759 18.4254 50.2191 19.7673 49.2293 20.7571C48.2395 21.7469 46.8976 22.3038 45.4978 22.3056ZM45.4978 13.4336C44.7876 13.4336 44.0933 13.6442 43.5028 14.0388C42.9122 14.4334 42.452 14.9942 42.1802 15.6504C41.9084 16.3065 41.8373 17.0285 41.9758 17.7251C42.1144 18.4217 42.4564 19.0615 42.9586 19.5637C43.4608 20.0659 44.1006 20.4079 44.7972 20.5465C45.4938 20.685 46.2158 20.6139 46.872 20.3421C47.5281 20.0703 48.089 19.6101 48.4835 19.0196C48.8781 18.429 49.0887 17.7348 49.0887 17.0245C49.0876 16.0725 48.7089 15.1598 48.0357 14.4866C47.3625 13.8134 46.4498 13.4347 45.4978 13.4336Z" fill="#1A1A1A"/>
<path d="M16.2289 16.5473C16.2129 16.4654 16.1807 16.3876 16.1342 16.3183C16.0878 16.2489 16.028 16.1896 15.9584 16.1436C15.8888 16.0976 15.8107 16.066 15.7287 16.0504C15.6468 16.0349 15.5625 16.0359 15.4809 16.0533C15.3993 16.0707 15.322 16.1041 15.2535 16.1516C15.1849 16.1992 15.1265 16.2599 15.0817 16.3303C15.0368 16.4006 15.0064 16.4792 14.9922 16.5614C14.978 16.6436 14.9804 16.7278 14.9991 16.8091C15.0643 17.0136 15.0509 17.2351 14.9613 17.4302C14.8717 17.6253 14.7124 17.7798 14.5148 17.8635C14.2364 17.9585 13.9392 17.9846 13.6486 17.9396C13.3579 17.8945 13.0825 17.7797 12.846 17.6049V16.663C12.9302 16.6044 13.0019 16.5296 13.0568 16.443C13.1118 16.3564 13.1489 16.2596 13.166 16.1585C13.1665 16.0464 13.1302 15.9373 13.0627 15.8479C12.9952 15.7584 12.9002 15.6936 12.7923 15.6633C12.6844 15.6331 12.5696 15.639 12.4654 15.6803C12.3612 15.7216 12.2735 15.7959 12.2156 15.8918C12.1576 15.796 12.0698 15.7218 11.9656 15.6807C11.8614 15.6395 11.7466 15.6336 11.6388 15.6638C11.531 15.6941 11.436 15.7588 11.3684 15.8481C11.3008 15.9375 11.2644 16.0465 11.2647 16.1585C11.3024 16.3586 11.4173 16.5358 11.5847 16.6518V17.6043C11.3487 17.7791 11.074 17.8941 10.7839 17.9395C10.4939 17.9849 10.1971 17.9594 9.91906 17.8651C9.72124 17.7816 9.56185 17.6271 9.47223 17.432C9.38261 17.2368 9.36926 17.0152 9.43479 16.8107C9.45348 16.7294 9.4558 16.6452 9.44162 16.563C9.42744 16.4808 9.39704 16.4022 9.35219 16.3319C9.30734 16.2615 9.24894 16.2008 9.18039 16.1532C9.11184 16.1057 9.03452 16.0723 8.95292 16.0549C8.87132 16.0375 8.78708 16.0365 8.7051 16.052C8.62313 16.0676 8.54506 16.0992 8.47544 16.1452C8.40582 16.1912 8.34605 16.2505 8.29961 16.3199C8.25317 16.3892 8.22098 16.467 8.20492 16.5489C8.06823 17.0509 8.1246 17.5858 8.36294 18.0483C8.60127 18.5107 9.00425 18.8671 9.49239 19.047C9.811 19.1623 10.1472 19.2215 10.486 19.2219C11.1005 19.2145 11.7004 19.0331 12.2161 18.6987C12.6127 18.9626 13.0648 19.1313 13.5372 19.1917C14.0097 19.2521 14.4897 19.2026 14.9399 19.047C15.4285 18.8673 15.832 18.5107 16.0706 18.0479C16.3092 17.5851 16.366 17.0496 16.2289 16.5473Z" fill="#1A1A1A"/>
<path d="M18.5464 13.4168C18.5464 13.7341 18.4523 14.0442 18.2761 14.308C18.0998 14.5719 17.8492 14.7775 17.5561 14.8989C17.2629 15.0203 16.9404 15.0521 16.6292 14.9902C16.318 14.9283 16.0321 14.7755 15.8078 14.5512C15.5834 14.3268 15.4306 14.0409 15.3687 13.7297C15.3068 13.4185 15.3386 13.096 15.46 12.8028C15.5814 12.5097 15.7871 12.2591 16.0509 12.0829C16.3147 11.9066 16.6249 11.8125 16.9422 11.8125C17.3676 11.8125 17.7757 11.9815 18.0765 12.2824C18.3774 12.5832 18.5464 12.9913 18.5464 13.4168Z" fill="#1A1A1A"/>
<path d="M9.09476 13.4168C9.09476 13.7341 9.00068 14.0442 8.8244 14.308C8.64812 14.5719 8.39757 14.7775 8.10442 14.8989C7.81128 15.0203 7.48872 15.0521 7.17752 14.9902C6.86632 14.9283 6.58047 14.7755 6.35611 14.5512C6.13175 14.3268 5.97896 14.0409 5.91706 13.7297C5.85516 13.4185 5.88693 13.096 6.00835 12.8028C6.12977 12.5097 6.33539 12.2591 6.59922 12.0829C6.86304 11.9066 7.1732 11.8125 7.4905 11.8125C7.91598 11.8125 8.32403 11.9815 8.62489 12.2824C8.92574 12.5832 9.09476 12.9913 9.09476 13.4168Z" fill="#1A1A1A"/>
<path d="M12.2141 28.4796L9.79541 25.167L12.2141 21.8545L14.6327 25.167L12.2141 28.4796Z" fill="#CDAEF9"/>
<path d="M12.2196 29.1087C12.1205 29.1087 12.0228 29.0853 11.9345 29.0404C11.8462 28.9956 11.7697 28.9305 11.7113 28.8505L9.29262 25.5385C9.21415 25.4307 9.17188 25.3007 9.17188 25.1673C9.17188 25.0339 9.21415 24.904 9.29262 24.7961L11.7113 21.4841C11.7725 21.4082 11.8499 21.347 11.9378 21.3049C12.0258 21.2628 12.1221 21.241 12.2196 21.241C12.3171 21.241 12.4133 21.2628 12.5013 21.3049C12.5892 21.347 12.6666 21.4082 12.7278 21.4841L15.1465 24.7961C15.2247 24.9041 15.2669 25.034 15.2669 25.1673C15.2669 25.3006 15.2247 25.4306 15.1465 25.5385L12.7278 28.8532C12.6694 28.9332 12.5929 28.9982 12.5046 29.0431C12.4163 29.088 12.3186 29.1113 12.2196 29.1113M10.5796 25.17L12.2196 27.4132L13.8596 25.1673L12.2196 22.9215L10.5796 25.17Z" fill="#1A1A1A"/>
<path d="M24.4118 11.9486C24.3584 11.9486 24.3078 11.9539 24.2555 11.9561C24.0784 10.9672 23.7615 10.0086 23.3142 9.10913C23.7558 6.86913 24.3494 2.98753 23.7483 0.551793C23.7096 0.409586 23.6236 0.284831 23.5044 0.198138C23.3852 0.111446 23.2401 0.0680051 23.0928 0.0749928C20.5163 0.34396 18.1043 1.46876 16.2422 3.26966C13.5939 2.46799 10.7666 2.47561 8.12271 3.29153C6.25793 1.47667 3.83576 0.343467 1.24751 0.0749928C1.10019 0.0677819 0.954836 0.111127 0.835527 0.197844C0.716219 0.284561 0.630124 0.409443 0.591512 0.551793C-0.0196883 3.02539 0.596312 6.97739 1.05338 9.25206C0.371075 10.6442 0.0108839 12.1721 -0.000488281 13.7225C-0.000488281 19.1262 4.68165 22.483 12.2176 22.483C17.231 22.483 20.9707 20.9897 22.9195 18.4051C23.4145 18.47 23.9137 18.498 24.4128 18.4889H24.4928C24.3276 19.3126 23.9655 20.084 23.4374 20.7374C22.718 21.737 22.1378 22.8296 21.7126 23.9854C21.685 24.0632 21.673 24.1458 21.6773 24.2282C21.6816 24.3107 21.7021 24.3916 21.7376 24.4661C21.7732 24.5407 21.823 24.6075 21.8844 24.6628C21.9457 24.7181 22.0174 24.7607 22.0952 24.7883C22.1731 24.8159 22.2556 24.8279 22.3381 24.8236C22.4206 24.8193 22.5014 24.7988 22.576 24.7633C22.6505 24.7278 22.7174 24.6779 22.7726 24.6165C22.8279 24.5552 22.8706 24.4835 22.8982 24.4057C23.2875 23.3494 23.8196 22.3513 24.4795 21.4393C25.1813 20.5709 25.6299 19.5258 25.776 18.419C27.047 18.259 28.4854 17.7033 28.4854 15.7833C28.4519 14.7351 28.0046 13.7428 27.2412 13.0237C26.4778 12.3046 25.4606 11.9173 24.4123 11.9465M12.2176 21.2259C9.64645 21.2259 1.25765 20.6846 1.25765 13.723C1.26952 12.2961 1.61663 10.8919 2.27098 9.62379C2.3354 9.49671 2.35423 9.35136 2.32431 9.21206C2.00165 7.61899 1.32485 3.83926 1.70618 1.38913C3.91277 1.76347 5.94156 2.83441 7.49551 4.44513C7.57885 4.53216 7.68538 4.59349 7.80249 4.62185C7.91961 4.6502 8.04239 4.6444 8.15631 4.60513C8.45498 4.50113 8.75951 4.41206 9.06725 4.33259V5.52139C9.06725 6.35686 9.39913 7.15811 9.9899 7.74887C10.5807 8.33964 11.3819 8.67153 12.2174 8.67153C13.0528 8.67153 13.8541 8.33964 14.4449 7.74887C15.0356 7.15811 15.3675 6.35686 15.3675 5.52139V4.33526C15.6518 4.40886 15.9339 4.48779 16.2107 4.58166C16.3239 4.6197 16.4456 4.62486 16.5616 4.59654C16.6776 4.56822 16.7832 4.50758 16.8662 4.42166C18.4181 2.82461 20.4378 1.76257 22.6331 1.38913C22.9963 3.69739 22.4299 7.13953 22.0374 9.07659C22.0086 9.21875 22.0299 9.36648 22.0976 9.49473C22.5401 10.3391 22.8511 11.2461 23.0198 12.1843C22.2529 12.4299 21.5821 12.9091 21.1012 13.555C20.6204 14.2008 20.3536 14.9809 20.3382 15.7859C20.3051 16.2491 20.413 16.7115 20.6476 17.1123C20.8823 17.513 21.2327 17.8334 21.6528 18.0313C19.1126 20.931 14.1024 21.2259 12.2176 21.2259ZM24.4118 17.2313C24.1344 17.2313 23.8854 17.2233 23.6582 17.2089C23.2288 17.195 22.8038 17.1181 22.3968 16.9806C22.1444 16.907 21.9259 16.7469 21.7797 16.5284C21.6334 16.3098 21.5687 16.0468 21.5968 15.7854C21.609 15.2919 21.7634 14.8125 22.0413 14.4045C22.3192 13.9966 22.709 13.6776 23.1638 13.4857C23.5529 13.305 23.9764 13.2101 24.4054 13.2073H24.4128C25.1274 13.1784 25.8243 13.4334 26.3516 13.9165C26.8788 14.3996 27.1936 15.0716 27.2272 15.7859C27.2272 16.7017 26.7664 17.2313 24.4118 17.2313Z" fill="#1A1A1A"/>
</g>
</svg>
