<svg width="160" height="30" viewBox="0 0 160 30" fill="none" xmlns="http://www.w3.org/2000/svg">
<g clip-path="url(#clip0_202_24538)">
<path d="M5.71911 23.1688C3.6282 23.1688 1.99183 22.6237 0.355469 21.4425V21.17L1.53729 18.7168C2.35547 19.4437 3.7191 20.2614 4.99183 20.2614C5.99183 20.2614 6.99183 19.898 6.99183 18.7168C6.99183 17.7174 6.08274 17.354 4.99183 16.8997C4.6282 16.718 4.17365 16.5362 3.7191 16.3545C1.90092 15.446 0.628196 14.3557 0.628196 12.0842C0.628196 7.99564 4.53729 7.54136 6.26456 7.54136C8.08274 7.54136 9.90092 7.99564 11.0827 8.7225V9.08593L9.90092 11.5391C8.99183 10.9031 7.90092 10.5397 6.81001 10.5397C5.35547 10.5397 5.08274 11.2665 5.08274 11.9025C5.08274 12.9019 5.99183 13.2654 7.26456 13.7197C7.53729 13.8105 7.81001 13.9014 8.08274 14.0831C10.2646 14.9917 11.5373 15.9911 11.5373 18.4442C11.4464 22.5328 7.90092 23.1688 5.71911 23.1688ZM19.6282 23.1688C13.5373 23.1688 12.6282 18.2625 12.6282 15.3551C12.6282 11.9025 13.81 7.72307 19.3555 7.72307C24.6282 7.72307 25.7191 11.5391 25.7191 14.9008C25.7191 15.3551 25.6282 16.1728 25.4464 16.718C24.7191 16.718 22.0827 16.718 19.9918 16.6271H17.0827V16.8088C17.0827 17.6265 17.3555 20.3523 20.1737 20.3523C21.2646 20.3523 22.2646 19.898 23.1737 18.8985L24.9009 20.9883V21.2608C23.2646 22.442 21.6282 23.1688 19.6282 23.1688ZM19.3555 10.7214C17.9009 10.7214 17.1736 11.9025 17.0827 14.2648V14.4465H21.4464V14.2648C21.5373 11.9025 20.81 10.7214 19.3555 10.7214ZM33.9918 29.5289C31.9918 29.5289 29.9918 28.9837 28.3555 28.0751L29.4464 25.2586H29.6282C30.5373 25.8037 31.81 26.5306 33.3555 26.5306C35.0827 26.5306 36.0827 25.622 36.0827 24.0774C36.0827 23.8957 36.1736 22.5328 36.2646 21.6243V21.5334L35.9009 21.3517L35.81 21.4425C34.81 22.3511 33.81 23.1688 32.0827 23.1688C28.81 23.1688 27.1736 20.7157 27.1736 15.446C27.1736 11.7208 28.4464 7.81393 32.0827 7.81393C33.4464 7.81393 34.81 8.44993 35.9009 9.63108L35.9918 9.72193L36.2646 9.63108L36.5373 8.44993L36.81 8.17736L40.5373 8.26822C40.5373 8.81336 40.4464 10.1762 40.4464 10.9031V23.6231C40.5373 29.0746 35.5373 29.5289 33.9918 29.5289ZM33.9918 10.9939C31.81 10.9939 31.81 14.2648 31.81 15.3551C31.81 16.8088 31.81 20.0797 33.6282 20.0797C34.3555 20.0797 35.2646 19.5345 35.9009 18.626V18.5351L35.9918 11.9934V11.9025C35.4464 11.4482 34.7191 10.9939 33.9918 10.9939ZM58.7191 22.7146C58.7191 22.0785 58.9009 13.4471 58.9009 13.3562C58.9009 11.9025 58.7191 10.9939 57.5373 10.9939C56.9009 10.9939 56.0827 11.3574 55.4464 11.9025L55.3555 11.8117V22.6237H50.9009C50.9009 21.9877 50.9918 13.3562 50.9918 13.2654C50.9918 11.8117 50.81 10.9031 49.6282 10.9031C49.0827 10.9031 48.1736 11.2665 47.5373 11.8117L47.4464 11.9025L47.5373 22.7146H42.9918V11.8117C42.9918 10.8122 42.9009 8.90422 42.9009 8.0865L46.81 7.99564L47.0827 8.17736L47.2646 9.44936L47.5373 9.54022L47.6282 9.44936C48.9009 8.35907 50.7191 7.63221 52.0827 7.63221C53.3555 7.63221 54.3555 8.26821 54.9009 9.54022L54.9918 9.81279L55.1736 9.63108C56.5373 8.44993 58.3555 7.72307 59.9009 7.72307C62.0827 7.72307 63.3555 9.26765 63.3555 12.0842C63.3555 12.2659 63.2646 22.0785 63.2646 22.7146H58.7191ZM72.3555 23.1688C66.2646 23.1688 65.3555 18.2625 65.3555 15.3551C65.3555 11.9025 66.5373 7.72307 72.0827 7.72307C77.3555 7.72307 78.4464 11.5391 78.4464 14.9008C78.4464 15.3551 78.3555 16.1728 78.1736 16.718C77.4464 16.718 74.81 16.718 72.7191 16.6271H69.81V16.8088C69.81 17.6265 70.0827 20.3523 72.9009 20.3523C73.9918 20.3523 74.9918 19.898 75.9009 18.8985L77.6282 20.9883V21.2608C75.9918 22.442 74.3555 23.1688 72.3555 23.1688ZM72.0827 10.7214C70.6282 10.7214 69.9009 11.9025 69.81 14.2648V14.4465H74.1736V14.2648C74.1736 11.9025 73.5373 10.7214 72.0827 10.7214ZM88.3555 22.7146C88.3555 22.0785 88.5373 13.4471 88.5373 13.3562C88.5373 11.8117 88.2646 10.9939 87.0827 10.9939C86.4464 10.9939 85.6282 11.3574 84.81 11.9025L84.7191 11.9934L84.81 22.8054H80.2646V11.8117C80.2646 10.8122 80.1736 8.99507 80.1736 8.0865L84.0827 7.99564L84.3555 8.17736L84.5373 9.44936L84.81 9.54022L84.9009 9.44936C86.2646 8.35907 88.1736 7.63221 89.6282 7.63221C91.9009 7.63221 93.0827 9.17679 93.0827 11.9934C93.0827 12.1751 92.9918 21.9877 92.9918 22.6237H88.3555V22.7146ZM100.265 22.7146C96.5373 22.7146 96.1736 20.4431 96.1736 18.1717C96.1736 17.5357 96.1736 14.2648 96.2646 11.4482V11.2665H94.6282L94.7191 8.0865H96.3555V3.90706L96.5373 3.72534H100.81C100.81 4.27049 100.81 5.90592 100.719 7.90478V8.0865H103.174L103.083 11.2665H100.628V11.4482C100.719 14.1739 100.719 17.0814 100.719 17.6265C100.719 19.1711 100.719 19.7163 102.174 19.7163H102.992V22.5328L102.81 22.7146H100.265Z" fill="black"/>
<path d="M106.539 22.7176C106.539 21.4456 106.539 14.177 106.63 11.4513V11.2696H104.902L104.993 8.08955H106.63V7.90783C106.63 7.81697 106.539 5.36382 106.539 5.36382C106.539 1.36609 109.084 0.45752 111.175 0.45752C112.448 0.45752 113.539 0.639235 114.539 1.09352V1.45695L113.63 4.00096C113.175 3.72839 112.721 3.63753 112.357 3.63753C111.357 3.63753 110.993 4.36439 110.993 5.90897V8.08955H113.63L113.539 11.2696H110.993V11.4513C111.084 14.0861 111.084 21.4456 111.084 22.7176H106.539ZM118.175 23.081C114.993 23.081 114.63 19.9919 114.63 18.7199C114.63 13.9953 118.357 13.7227 122.357 13.4501H122.539L122.63 13.2684V12.4507C122.63 11.3604 121.993 10.7244 120.63 10.7244C118.902 10.7244 117.357 11.1787 116.266 11.633L115.266 8.99812V8.81641C117.448 7.99869 119.721 7.63526 122.084 7.63526C125.448 7.63526 127.175 9.17984 127.175 12.1781V19.3559C127.175 20.537 127.266 21.9907 127.266 22.7176H123.539L123.266 22.445L122.902 21.2639L122.63 21.173L122.539 21.2639C121.266 22.5359 119.902 23.081 118.175 23.081ZM122.266 15.6307C119.993 15.7216 118.902 15.7216 118.902 18.0839C118.902 19.901 119.63 20.2644 120.266 20.2644C120.993 20.2644 121.902 19.8102 122.539 19.1742L122.63 19.0833V15.9033L122.539 15.8124L122.357 15.7216C122.357 15.6307 122.266 15.6307 122.266 15.6307ZM133.175 23.081C130.721 23.081 129.539 21.6273 129.539 18.7199C129.539 18.5382 129.63 8.72555 129.63 7.99869H133.993L134.175 8.1804C134.175 8.63469 134.084 17.357 134.084 17.5387C134.084 19.0833 134.63 19.901 135.539 19.901C136.357 19.901 137.357 19.4467 137.993 18.8107L138.084 18.7199L137.993 7.90783H142.357L142.539 8.08955V19.0833C142.539 20.2644 142.63 21.7182 142.63 22.445H138.902L138.63 22.1725L138.266 20.9004L137.902 20.8096L137.811 20.9004C136.539 22.445 135.084 23.081 133.175 23.081ZM145.175 22.7176C145.084 21.9907 145.084 20.3553 145.084 19.3559V4.45525C145.084 3.45582 145.084 1.91124 144.993 1.09352L149.448 1.00266L149.63 1.18438V19.3559C149.63 20.4462 149.721 21.9907 149.721 22.7176H145.175ZM156.902 22.7176C153.175 22.7176 152.811 20.4462 152.811 18.1747C152.811 17.5387 152.811 14.2679 152.902 11.4513V11.2696H151.266L151.357 8.08955H152.993V3.9101L153.175 3.72839H157.448C157.448 4.27353 157.448 5.90897 157.357 7.90783V8.08955H159.811L159.721 11.2696H157.266V11.4513C157.357 14.177 157.357 17.0844 157.357 17.6296C157.357 19.1742 157.357 19.7193 158.811 19.7193H159.63V22.5359L159.448 22.7176H156.902Z" fill="#009A61"/>
</g>
<defs>
<clipPath id="clip0_202_24538">
<rect width="160" height="29.983" fill="white"/>
</clipPath>
</defs>
</svg>
