<svg width="89" height="40" viewBox="0 0 89 40" fill="none" xmlns="http://www.w3.org/2000/svg">
<path d="M88.8742 32.1492C88.8742 32.8581 88.7813 33.3308 88.5957 33.5671C88.4269 33.8034 88.0808 33.9215 87.5576 33.9215H81.3798C81.076 33.9215 80.8818 33.9553 80.7974 34.0228C80.7299 34.0734 80.6962 34.2169 80.6962 34.4532C80.6962 35.1622 80.924 35.7529 81.3798 36.2255C81.8355 36.6982 82.4094 36.9345 83.1015 36.9345C83.8104 36.9345 84.5362 36.5462 85.2789 35.7698C85.7853 35.2297 86.3423 34.9596 86.9499 34.9596C87.4563 34.9596 87.8614 35.1031 88.1652 35.39C88.4859 35.677 88.6463 36.0399 88.6463 36.4787C88.6463 37.4577 88.1062 38.2933 87.0259 38.9853C85.9625 39.6605 84.6628 39.9981 83.1268 39.9981C81.1181 39.9981 79.5146 39.3904 78.3162 38.1751C77.1178 36.9598 76.5186 35.3394 76.5186 33.3139C76.5186 31.2715 77.1093 29.6258 78.2909 28.3767C79.4893 27.1108 81.0506 26.4778 82.9749 26.4778C84.7641 26.4778 86.1904 26.9926 87.2538 28.0222C88.334 29.0519 88.8742 30.4275 88.8742 32.1492ZM80.8228 30.8833C80.8228 30.9845 80.8481 31.0689 80.8987 31.1365C80.9494 31.204 81.1266 31.2377 81.4304 31.2377H84.2661C84.5193 31.2377 84.6712 31.2124 84.7219 31.1618C84.7894 31.0943 84.8231 30.9845 84.8231 30.8326C84.8231 30.3938 84.629 30.014 84.2408 29.6933C83.8526 29.3557 83.3968 29.1869 82.8736 29.1869C82.1984 29.1869 81.6498 29.4485 81.2279 29.9718C80.9578 30.3094 80.8228 30.6132 80.8228 30.8833Z" fill="#282828"/>
<path d="M68.6429 26.4778C69.9426 26.4778 71.0397 26.8407 71.9343 27.5665C72.0018 26.8576 72.4576 26.5031 73.3015 26.5031C74.1624 26.5031 74.5928 26.8069 74.5928 27.4146C74.5928 27.6171 74.559 27.845 74.4915 28.0982C74.4409 28.402 74.4156 28.689 74.4156 28.959C74.4156 29.0097 74.424 29.1447 74.4409 29.3641C74.4409 29.5836 74.4409 29.7777 74.4409 29.9465V30.0477C74.4409 30.9423 73.9936 31.3896 73.099 31.3896C72.4576 31.3896 71.9006 31.0689 71.4279 30.4275C70.854 29.6511 70.1536 29.2629 69.3265 29.2629C68.3475 29.2629 67.858 29.6004 67.858 30.2756C67.858 30.6301 68.0183 30.8833 68.339 31.0352C68.6597 31.1702 69.5037 31.3559 70.8709 31.5922C71.985 31.7947 72.8036 32.0226 73.3269 32.2758C73.867 32.529 74.3058 32.8919 74.6434 33.3645C75.0654 33.9722 75.2764 34.6811 75.2764 35.4913C75.2764 36.7741 74.7785 37.846 73.7826 38.7068C72.8036 39.5676 71.5714 39.9981 70.086 39.9981C68.6007 39.9981 67.2503 39.5254 66.035 38.5802C66.035 39.4073 65.613 39.8208 64.7691 39.8208C63.8576 39.8208 63.4019 39.4495 63.4019 38.7068C63.4019 38.538 63.4187 38.2764 63.4525 37.9219C63.4863 37.5674 63.5031 37.3058 63.5031 37.137C63.5031 36.9851 63.4863 36.7572 63.4525 36.4534C63.4356 36.1496 63.4272 35.9217 63.4272 35.7698C63.4272 35.0102 63.8998 34.6305 64.845 34.6305C65.3008 34.6305 65.6468 34.698 65.8831 34.833C66.1194 34.968 66.3726 35.2297 66.6427 35.6179C67.0647 36.2424 67.4529 36.656 67.8073 36.8585C68.1618 37.0442 68.6851 37.137 69.3771 37.137C70.5924 37.137 71.2001 36.7572 71.2001 35.9977C71.2001 35.4744 70.7106 35.1115 69.7316 34.909L68.2631 34.6051C67.0647 34.3519 66.2122 34.0988 65.7059 33.8456C65.2164 33.5924 64.8281 33.1957 64.5412 32.6556C64.2543 32.0986 64.1108 31.4656 64.1108 30.7567C64.1108 29.4907 64.5243 28.4611 65.3514 27.6678C66.1954 26.8744 67.2925 26.4778 68.6429 26.4778Z" fill="#282828"/>
<path d="M60.2427 39.9981C58.8586 39.9981 57.9302 39.441 57.4576 38.327C56.2761 39.441 54.8751 39.9981 53.2547 39.9981C51.9212 39.9981 50.8578 39.652 50.0645 38.96C49.2712 38.2511 48.8745 37.3143 48.8745 36.1496C48.8745 34.3773 49.6425 33.2295 51.1785 32.7062C51.8368 32.4868 52.5964 32.3011 53.4572 32.1492C54.6557 31.9467 55.4659 31.7188 55.8878 31.4656C56.3267 31.1955 56.5461 30.7904 56.5461 30.2503C56.5461 29.8621 56.3773 29.5414 56.0397 29.2882C55.719 29.0181 55.3139 28.8831 54.8244 28.8831C54.2674 28.8831 53.9889 29.0603 53.9889 29.4148C53.9889 29.5329 53.9974 29.6511 54.0142 29.7692V29.8705C54.0142 30.3431 53.8117 30.7398 53.4066 31.0605C53.0184 31.3812 52.5289 31.5416 51.9381 31.5416C51.2629 31.5416 50.7059 31.339 50.267 30.9339C49.8282 30.5288 49.6088 30.0224 49.6088 29.4148C49.6088 28.5033 50.0898 27.7859 51.0519 27.2627C52.0141 26.7394 53.3391 26.4778 55.027 26.4778C56.85 26.4778 58.2087 26.7563 59.1033 27.3133C60.0655 27.921 60.5465 29.0519 60.5465 30.706V35.947C60.5465 36.4872 60.6815 36.7572 60.9516 36.7572C61.0866 36.7572 61.2132 36.7488 61.3314 36.7319C61.382 36.715 61.4411 36.7066 61.5086 36.7066C61.8968 36.7066 62.226 36.8416 62.4961 37.1117C62.7661 37.3818 62.9012 37.7109 62.9012 38.0991C62.9012 38.6562 62.648 39.1119 62.1416 39.4664C61.6521 39.8208 61.0191 39.9981 60.2427 39.9981ZM56.5714 34.5798V34.0228C56.4533 34.0903 55.7106 34.3013 54.3434 34.6558C53.415 34.8921 52.9509 35.255 52.9509 35.7445C52.9509 36.5209 53.4066 36.9092 54.3181 36.9092C55.8203 36.9092 56.5714 36.1327 56.5714 34.5798Z" fill="#282828"/>
<path d="M38.831 23.4163V28.2016C39.9282 27.0538 41.1519 26.4799 42.5023 26.4799C43.9876 26.4799 45.1861 27.0875 46.0976 28.3029C47.0259 29.5013 47.4901 31.0795 47.4901 33.0375C47.4901 35.1474 46.9753 36.8353 45.9456 38.1012C44.916 39.3672 43.5403 40.0002 41.8187 40.0002C40.097 40.0002 38.7382 39.325 37.7423 37.9747C37.7761 38.2447 37.793 38.4557 37.793 38.6076C37.793 39.3841 37.3288 39.7723 36.4004 39.7723C35.4383 39.7723 34.9573 39.2828 34.9573 38.3038V26.7584C34.9573 25.8976 34.8138 25.4671 34.5268 25.4671C34.4087 25.4671 34.2568 25.5009 34.0711 25.5684C33.9698 25.6022 33.8348 25.6191 33.666 25.6191C32.8558 25.6191 32.4507 25.1549 32.4507 24.2265C32.4507 23.7201 32.5942 23.315 32.8811 23.0112C33.1512 22.6905 33.5225 22.5302 33.9951 22.5302C34.2146 22.5302 34.5353 22.5555 34.9573 22.6061C35.3792 22.6567 35.6999 22.6821 35.9194 22.6821C36.4257 22.6821 36.873 22.6567 37.2613 22.6061C37.6495 22.5555 37.9364 22.5302 38.1221 22.5302C38.5947 22.5302 38.831 22.8255 38.831 23.4163ZM41.211 36.7847C42.6795 36.7847 43.4138 35.6031 43.4138 33.24C43.4138 30.8769 42.6964 29.6954 41.2616 29.6954C40.5696 29.6954 39.9957 30.033 39.54 30.7081C39.1011 31.3664 38.8817 32.202 38.8817 33.2147C38.8817 35.5947 39.6581 36.7847 41.211 36.7847Z" fill="#282828"/>
<path d="M32.1749 32.1492C32.1749 32.8581 32.0821 33.3308 31.8964 33.5671C31.7276 33.8034 31.3816 33.9215 30.8584 33.9215H24.6806C24.3767 33.9215 24.1826 33.9553 24.0982 34.0228C24.0307 34.0734 23.9969 34.2169 23.9969 34.4532C23.9969 35.1622 24.2248 35.7529 24.6806 36.2255C25.1363 36.6982 25.7102 36.9345 26.4022 36.9345C27.1112 36.9345 27.837 36.5462 28.5797 35.7698C29.086 35.2297 29.6431 34.9596 30.2507 34.9596C30.7571 34.9596 31.1622 35.1031 31.466 35.39C31.7867 35.677 31.9471 36.0399 31.9471 36.4787C31.9471 37.4577 31.4069 38.2933 30.3267 38.9853C29.2633 39.6605 27.9636 39.9981 26.4276 39.9981C24.4189 39.9981 22.8154 39.3904 21.617 38.1751C20.4185 36.9598 19.8193 35.3394 19.8193 33.3139C19.8193 31.2715 20.4101 29.6258 21.5917 28.3767C22.7901 27.1108 24.3514 26.4778 26.2756 26.4778C28.0648 26.4778 29.4911 26.9926 30.5545 28.0222C31.6348 29.0519 32.1749 30.4275 32.1749 32.1492ZM24.1235 30.8833C24.1235 30.9845 24.1489 31.0689 24.1995 31.1365C24.2501 31.204 24.4274 31.2377 24.7312 31.2377H27.5669C27.8201 31.2377 27.972 31.2124 28.0226 31.1618C28.0902 31.0943 28.1239 30.9845 28.1239 30.8326C28.1239 30.3938 27.9298 30.014 27.5416 29.6933C27.1534 29.3557 26.6976 29.1869 26.1744 29.1869C25.4992 29.1869 24.9506 29.4485 24.5286 29.9718C24.2586 30.3094 24.1235 30.6132 24.1235 30.8833Z" fill="#282828"/>
<path d="M15.5761 29.848C15.0866 30.1856 14.3186 30.4725 13.2721 30.7088C14.4874 30.9114 15.3483 31.2743 15.8546 31.7975C16.361 32.3039 16.6142 33.0635 16.6142 34.0762C16.6142 34.3801 16.6058 34.6754 16.5889 34.9624C16.5889 34.9624 16.5889 35.0637 16.5889 35.2662C16.5889 35.9583 16.7914 36.3043 17.1965 36.3043C17.2978 36.3043 17.4497 36.2874 17.6523 36.2537C17.8717 36.203 18.0321 36.1777 18.1333 36.1777C18.5047 36.1777 18.8001 36.338 19.0195 36.6588C19.2558 36.9626 19.374 37.3677 19.374 37.8741C19.374 38.4311 19.2052 38.8784 18.8676 39.216C18.5469 39.5367 18.1165 39.697 17.5763 39.697C17.3907 39.697 17.1037 39.6717 16.7155 39.6211C16.3273 39.5873 16.0403 39.5704 15.8546 39.5704C15.6521 39.5704 15.3483 39.5873 14.9432 39.6211C14.5549 39.6717 14.2596 39.697 14.057 39.697C13.4325 39.697 12.9261 39.4438 12.5379 38.9375C12.1665 38.4142 11.9809 37.7306 11.9809 36.8866C11.9809 36.8022 11.9893 36.7432 12.0062 36.7094L12.0568 35.2409C12.0568 35.2409 12.0568 35.1818 12.0568 35.0637C12.0568 34.1859 11.8289 33.5783 11.3732 33.2407C10.9343 32.9031 10.1326 32.7343 8.96792 32.7343C8.4953 32.7343 8.19991 32.8609 8.08176 33.1141C7.99736 33.2829 7.95516 33.5952 7.95516 34.0509V34.6332C7.95516 35.781 8.16615 36.3549 8.58813 36.3549C8.70629 36.3549 8.88352 36.3296 9.11983 36.279C9.37302 36.2115 9.56713 36.1777 9.70217 36.1777C10.0566 36.1777 10.352 36.338 10.5883 36.6588C10.8415 36.9795 10.9681 37.3761 10.9681 37.8487C10.9681 39.0809 10.3773 39.697 9.19579 39.697C8.79069 39.697 8.24211 39.6548 7.55006 39.5704C6.85801 39.486 6.2588 39.4438 5.75242 39.4438C5.21229 39.4438 4.58775 39.486 3.87883 39.5704C3.1699 39.6548 2.57069 39.697 2.08119 39.697C0.849002 39.697 0.23291 39.0809 0.23291 37.8487C0.23291 37.3761 0.359504 36.9795 0.612693 36.6588C0.882761 36.338 1.21191 36.1777 1.60013 36.1777C1.75204 36.1777 1.96303 36.2115 2.2331 36.279C2.50317 36.3296 2.69728 36.3549 2.81543 36.3549C3.27117 36.3549 3.49904 35.781 3.49904 34.6332V27.6199C3.49904 27.0798 3.48216 26.7338 3.44841 26.5819C3.36401 26.143 3.15302 25.9236 2.81543 25.9236C2.6804 25.9236 2.47785 25.9573 2.20778 26.0248C1.95459 26.0755 1.75204 26.1008 1.60013 26.1008C1.21191 26.1008 0.882761 25.9404 0.612693 25.6197C0.359504 25.299 0.23291 24.9024 0.23291 24.4297C0.23291 23.8896 0.393263 23.4423 0.713968 23.0878C1.05155 22.7334 1.48197 22.5562 2.00523 22.5562C2.10651 22.5562 2.18246 22.5646 2.2331 22.5815L4.03074 22.7587C4.53712 22.8093 5.07725 22.8347 5.65115 22.8347C6.64702 22.8347 7.90452 22.784 9.42366 22.6827C10.4364 22.6152 11.1875 22.5815 11.677 22.5815C13.2806 22.5815 14.5465 22.9866 15.4749 23.7968C16.4201 24.5901 16.8927 25.6788 16.8927 27.0629C16.8927 28.3289 16.4539 29.2572 15.5761 29.848ZM9.82876 25.9489C9.15359 25.9489 8.71473 25.9911 8.51218 26.0755C8.14083 26.2443 7.95516 26.6072 7.95516 27.1642V28.6833C7.95516 29.0715 8.01424 29.3247 8.13239 29.4429C8.26743 29.561 8.51218 29.6201 8.86664 29.6201C11.0609 29.6201 12.1581 28.9703 12.1581 27.6706C12.1581 26.5228 11.3816 25.9489 9.82876 25.9489Z" fill="#282828"/>
<path fill-rule="evenodd" clip-rule="evenodd" d="M85.1202 19.8778C63.3928 -2.62141 26.4872 -2.41701 2.68166 20.5712C2.05299 21.1783 1.0512 21.1608 0.444113 20.5321C-0.162977 19.9034 -0.145478 18.9016 0.483197 18.2945C25.4366 -5.8021 64.3521 -6.18398 87.3968 17.6793C88.0039 18.3079 87.9864 19.3097 87.3577 19.9168C86.729 20.5239 85.7273 20.5064 85.1202 19.8778Z" fill="#33FF00"/>
<path d="M88.6929 18.443L88.6421 18.4567C88.7206 18.7424 88.7423 19.0484 88.6929 19.36C88.5071 20.5299 87.4085 21.3301 86.2358 21.1451V21.1461C86.224 21.1442 86.2125 21.1404 86.2007 21.1383L86.1929 21.1735L78.105 19.2262L78.8452 16.15L84.9468 17.6178C85.0019 17.5543 85.0597 17.4936 85.1216 17.4371L83.4917 11.6373L86.5386 10.7799L88.6929 18.443ZM87.1694 18.8717L86.7163 18.9987L86.563 19.6354L86.4663 20.0328C86.9996 20.0883 87.4878 19.7175 87.5728 19.1823C87.5956 19.0379 87.5865 18.896 87.5513 18.7633L87.1694 18.8717Z" fill="#33FF00"/>
</svg>
