<svg width="108" height="40" viewBox="0 0 108 40" fill="none" xmlns="http://www.w3.org/2000/svg">
<path d="M17.3238 40L2.6228e-06 30.0013L8.74115e-07 9.99871L17.3238 4.67905e-06L34.6476 9.99871L34.6476 30.0013L17.3238 40ZM1.55743 29.098L17.3238 38.1986L33.0902 29.098L33.0902 10.8968L17.3238 1.79624L1.55743 10.8968L1.55743 29.098Z" fill="#5EEF00"/>
<path d="M17.7134 39.7708H16.9346L0.389533 30.2186L0.104006 29.1543L16.6491 0.502812L17.9989 0.502812L34.544 29.1543L34.2585 30.2186L17.7134 39.7708ZM1.84314 29.2582L17.324 38.1926L32.8049 29.2582L17.324 2.4496L1.84314 29.2582Z" fill="#5EEF00"/>
<path d="M22.8657 30.328L11.8391 30.328L11.1642 29.9387L5.65088 20.3864L5.65088 19.6077L11.1642 10.0555L11.8391 9.66614L22.8657 9.66614L23.5406 10.0555L29.0539 19.6077L29.0539 20.3864L23.5406 29.9387L22.8657 30.328ZM12.2855 28.7706L22.414 28.7706L27.4809 19.9971L22.414 11.2236L12.2855 11.2236L7.21869 19.9971L12.2855 28.7706Z" fill="#5EEF00"/>
<path d="M21.75 25.8567L12.7844 25.8567L12.094 24.673L17.4256 20.1305L12.0576 15.2817L12.7844 14.1344L21.6773 14.1344L22.7935 16.05L21.4489 16.8391L20.8 15.6918L14.8143 15.6918L19.1335 19.5698L19.1128 20.7431L14.9129 24.2992L20.8104 24.2992L21.5476 23.126L22.9025 23.8995L21.75 25.8567Z" fill="#5EEF00"/>
<path d="M16.6491 39.4822L0.104005 10.8307L0.389531 9.76648L16.9346 0.214238L17.7134 0.214238L34.2585 9.76648L34.544 10.8307L17.9989 39.4822H16.6491ZM1.84313 10.7269L17.324 37.5355L32.8049 10.7269L17.324 1.79243L1.84313 10.7269Z" fill="#5EEF00"/>
<path d="M57.57 15.9472L57.57 18.1328L51.9581 18.1328C50.9717 18.1328 50.2553 18.4028 49.8088 18.9427C49.3572 19.4826 49.1339 20.3703 49.1339 21.5955C49.1339 22.8207 49.3572 23.7084 49.8088 24.2431C50.2605 24.783 50.9769 25.0478 51.9581 25.0478L57.57 25.0478L57.57 27.2594L51.7348 27.2594C50.2189 27.2594 49.0249 26.7973 48.1424 25.868C47.2598 24.9388 46.8237 23.5163 46.8237 21.5955C46.8237 19.6747 47.265 18.2626 48.1424 17.3333C49.0197 16.4041 50.2189 15.942 51.7348 15.942L57.57 15.942L57.57 15.9472Z" fill="#0C0C0C"/>
<path d="M67.035 15.942C68.5353 15.942 69.7293 16.4092 70.6171 17.3437C71.5048 18.2782 71.9461 19.6954 71.9461 21.5955C71.9461 23.4956 71.5048 24.9388 70.6171 25.868C69.7293 26.7973 68.5353 27.2594 67.035 27.2594H64.6469C63.131 27.2594 61.937 26.7973 61.0545 25.868C60.1771 24.9388 59.7358 23.5163 59.7358 21.5955C59.7358 19.6747 60.1771 18.2626 61.0545 17.3333C61.9318 16.4041 63.131 15.942 64.6469 15.942L67.035 15.942ZM64.8702 18.1276C63.8838 18.1276 63.1674 18.3976 62.7157 18.9375C62.2641 19.4774 62.0408 20.3651 62.0408 21.5903C62.0408 22.8155 62.2641 23.7032 62.7157 24.2379C63.1674 24.7778 63.8838 25.0426 64.8702 25.0426H66.817C67.8085 25.0426 68.5301 24.7726 68.9766 24.2379C69.4283 23.698 69.6515 22.8155 69.6515 21.5903C69.6515 20.3651 69.4283 19.4774 68.9766 18.9375C68.5249 18.3976 67.8033 18.1276 66.817 18.1276L64.8702 18.1276Z" fill="#0C0C0C"/>
<path d="M84.1098 15.942L84.1098 18.1276L77.8489 18.1276C77.3194 18.1276 76.9404 18.2366 76.7068 18.4495C76.4732 18.6623 76.359 18.9842 76.359 19.4099C76.359 19.8356 76.468 20.1211 76.6964 20.3288C76.9248 20.5364 77.3453 20.6351 77.9735 20.6351H80.6315C81.4206 20.6351 82.0695 20.7233 82.5731 20.8895C83.0767 21.0608 83.4816 21.2892 83.7723 21.5747C84.0631 21.8603 84.2707 22.1977 84.3849 22.5871C84.4991 22.9764 84.5562 23.3865 84.5562 23.8278C84.5562 24.3314 84.4887 24.7934 84.3538 25.2139C84.2188 25.6344 84.0007 25.9978 83.6996 26.2989C83.3985 26.6 83.0144 26.8336 82.542 27.005C82.0695 27.1763 81.5037 27.2594 80.8392 27.2594L74.2616 27.2594L74.2616 25.0478L80.8392 25.0478C81.3687 25.0478 81.7529 24.9492 81.9813 24.7623C82.2097 24.5702 82.3291 24.2483 82.3291 23.8019C82.3291 23.3554 82.2045 23.0231 81.9501 22.8259C81.7009 22.6286 81.2856 22.5351 80.7146 22.5351H78.0358C77.2519 22.5351 76.6133 22.4469 76.1098 22.2704C75.6062 22.0939 75.2117 21.8499 74.9157 21.5436C74.6198 21.2373 74.4174 20.8843 74.3032 20.4793C74.1889 20.0796 74.1318 19.6643 74.1318 19.2386C74.1318 18.2263 74.4174 17.4216 74.9884 16.8298C75.5595 16.2379 76.5095 15.942 77.8281 15.942L84.1098 15.942Z" fill="#0C0C0C"/>
<path d="M94.6089 15.942C95.9534 15.942 96.9294 16.2431 97.5316 16.8505C98.1339 17.4579 98.435 18.3093 98.435 19.4047C98.435 20.5001 98.1391 21.2581 97.5576 21.8239C96.971 22.3898 95.9846 22.6701 94.5933 22.6701L89.2098 22.6701L89.2098 23.4852C89.2098 23.9368 89.3396 24.3106 89.6095 24.6065C89.8743 24.8972 90.3207 25.0478 90.9489 25.0478L97.8691 25.0478L97.8691 27.2594L90.9489 27.2594C90.2377 27.2594 89.6355 27.1659 89.1371 26.979C88.6439 26.7921 88.2338 26.5325 87.9119 26.1951C87.5901 25.8577 87.3564 25.4631 87.2163 25.0115C87.0709 24.5598 87.0034 24.0666 87.0034 23.5267L87.0034 19.6643C87.0034 19.1348 87.0761 18.6416 87.2163 18.1847C87.3616 17.7279 87.5901 17.3333 87.9119 16.9959C88.2338 16.6584 88.6439 16.3989 89.1371 16.2172C89.6355 16.0303 90.2377 15.942 90.9489 15.942L94.6141 15.942H94.6089ZM89.2046 20.8947L94.5258 20.8947C95.1384 20.8947 95.5745 20.7701 95.8237 20.5261C96.0729 20.2821 96.2026 19.955 96.2026 19.5397C96.2026 19.1244 96.0729 18.7662 95.8133 18.5066C95.5537 18.2522 95.1488 18.1224 94.5881 18.1224L90.9437 18.1224C90.3156 18.1224 89.8691 18.273 89.6043 18.5741C89.3396 18.8752 89.2046 19.2438 89.2046 19.685L89.2046 20.8895L89.2046 20.8947Z" fill="#0C0C0C"/>
<path d="M101.619 15.9461L101.619 13.2673L103.914 13.2673L103.914 15.9461L107.044 15.9461L107.044 18.1317H103.914L103.914 23.4945C103.914 24.1382 104.028 24.5795 104.267 24.8183C104.5 25.0571 104.89 25.1817 105.435 25.1817H107.008L107.008 27.2634H104.967C104.381 27.2634 103.877 27.2012 103.452 27.0714C103.031 26.9416 102.683 26.7287 102.408 26.4276C102.133 26.1265 101.936 25.7268 101.811 25.2284C101.686 24.73 101.624 24.1071 101.624 23.3595L101.624 18.1317H100.077L100.077 15.9461L101.624 15.9461H101.619Z" fill="#0C0C0C"/>
</svg>
