<svg width="144" height="40" viewBox="0 0 144 40" fill="none" xmlns="http://www.w3.org/2000/svg">
<path d="M54.4075 11.0549C51.7413 11.0549 49.6867 12.6113 49.6867 14.9218C49.6867 17.168 51.4276 17.9382 53.592 18.3554L56.3209 18.8046C59.9439 19.4143 62.4376 21.1151 62.4376 25.1584C62.4376 29.3782 59.0499 31.8491 54.7369 31.8491C50.8473 31.8491 47.1773 29.5065 46.6441 24.9177C46.597 24.5326 46.895 24.1957 47.2714 24.1957H48.9025C49.2162 24.1957 49.4828 24.4364 49.5299 24.7573C49.8749 27.9983 52.3373 29.2819 54.7526 29.2819C57.3874 29.2819 59.4734 27.9502 59.4734 25.2547C59.4734 22.8479 57.7952 22.0136 55.5681 21.5804L52.8705 21.099C49.0907 20.4572 46.7225 18.596 46.7225 15.0662C46.7225 10.9747 50.2043 8.4717 54.3918 8.4717C57.7325 8.4717 61.4182 10.3971 62.1396 14.9699C62.2024 15.355 61.9044 15.724 61.5123 15.724H59.8184C59.5204 15.724 59.2538 15.4994 59.2068 15.1945C58.7206 12.162 56.5562 11.0549 54.4075 11.0549Z" fill="#101010"/>
<path d="M73.29 13.558C77.3207 13.558 80.1909 15.7561 81.2103 19.3502C81.3201 19.7513 81.0221 20.1685 80.5986 20.1685H78.7009C78.4343 20.1685 78.199 19.992 78.1049 19.7353C77.3992 17.6815 75.768 16.5102 73.29 16.5102C69.918 16.5102 68.0359 19.3181 68.0359 22.7036C68.0359 26.073 69.9337 28.8969 73.29 28.8969C75.768 28.8969 77.3992 27.7256 78.1049 25.6719C78.199 25.4152 78.4343 25.2387 78.7009 25.2387H80.5986C81.0221 25.2387 81.3201 25.6558 81.1946 26.057C80.1124 29.8115 77.3364 31.8492 73.29 31.8492C68.0987 31.8492 64.8051 27.7417 64.8051 22.7036C64.7894 17.6815 68.0987 13.558 73.29 13.558Z" fill="#101010"/>
<path d="M84.2533 28.9289H88.3154V17.3766H84.6925C84.3474 17.3766 84.0651 17.0878 84.0651 16.7348V15.0982C84.0651 14.7452 84.3474 14.4564 84.6925 14.4564H89.6329C90.668 14.4564 91.5149 15.3228 91.5149 16.3818V16.8471C92.4089 14.6489 94.338 14.1034 97.3336 14.1034C98.4785 14.1034 99.247 14.2959 99.6861 14.4564C99.9371 14.5527 100.094 14.7933 100.094 15.0501V16.7508C100.094 17.184 99.6862 17.5049 99.2784 17.3605C98.7451 17.184 97.9923 17.0236 97.0042 17.0236C93.8047 17.0236 91.5306 19.2538 91.5306 23.1206V28.9289H96.7533C97.0983 28.9289 97.3806 29.2177 97.3806 29.5707V31.2073C97.3806 31.5602 97.0983 31.8491 96.7533 31.8491H84.269C83.924 31.8491 83.6417 31.5602 83.6417 31.2073V29.5707C83.626 29.2177 83.9083 28.9289 84.2533 28.9289Z" fill="#101010"/>
<path d="M102.478 22.7035C102.478 17.6815 105.74 13.5579 111.041 13.5579C116.342 13.5579 119.605 17.6654 119.605 22.7035C119.605 27.7416 116.342 31.8491 111.041 31.8491C105.74 31.8491 102.478 27.7416 102.478 22.7035ZM111.041 28.8968C114.445 28.8968 116.405 26.089 116.405 22.7035C116.405 19.3341 114.445 16.5102 111.041 16.5102C107.638 16.5102 105.677 19.3181 105.677 22.7035C105.677 26.089 107.638 28.8968 111.041 28.8968Z" fill="#101010"/>
<path d="M131.603 29.0735C131.948 29.0735 132.23 29.3624 132.23 29.7153V31.2236C132.23 31.5765 131.948 31.8653 131.603 31.8653H124.247C123.902 31.8653 123.619 31.5765 123.619 31.2236V11.4242H121.173C120.828 11.4242 120.545 11.1354 120.545 10.7824V9.27415C120.545 8.92116 120.828 8.63235 121.173 8.63235H124.796C125.831 8.63235 126.678 9.49878 126.678 10.5577V29.0735H131.603Z" fill="#101010"/>
<path d="M142.456 29.0735C142.801 29.0735 143.083 29.3624 143.083 29.7153V31.2236C143.083 31.5765 142.801 31.8653 142.456 31.8653H135.1C134.755 31.8653 134.473 31.5765 134.473 31.2236V11.4242H132.026C131.681 11.4242 131.399 11.1354 131.399 10.7824V9.27415C131.399 8.92116 131.681 8.63235 132.026 8.63235H135.649C136.684 8.63235 137.531 9.49878 137.531 10.5577V29.0735H142.456Z" fill="#101010"/>
<path d="M36.9196 27.148V3.56197C36.8882 1.58845 35.3512 0 33.4221 0H9.36321C4.17188 0.0802245 0 4.42839 0 9.75529C0 11.5523 0.470514 13.0926 1.19197 14.4404C1.80363 15.5635 2.76034 16.6225 3.70137 17.4087C3.96799 17.6333 3.84252 17.5371 4.65808 18.0505C5.78731 18.7565 7.07338 19.1095 7.07338 19.1095L7.05769 33.2129C7.08906 33.8868 7.1518 34.5286 7.32432 35.1223C7.85757 37.1118 9.20637 38.6361 11.0414 39.3742C11.8099 39.679 12.6725 39.8876 13.5978 39.9036L32.8104 39.9678C36.6373 39.9678 39.7427 36.7909 39.7427 32.8599C39.7583 30.5334 38.6291 28.4476 36.9196 27.148Z" fill="#FFEEDA"/>
<path d="M37.3897 33.0363C37.3113 35.5554 35.2881 37.577 32.81 37.577L19.5886 37.5289C20.6394 36.2774 21.2825 34.6569 21.2825 32.8919C21.2825 30.1162 19.667 28.2068 19.667 28.2068H32.8257C35.3508 28.2068 37.4054 30.3087 37.4054 32.8919L37.3897 33.0363Z" fill="#EBC28E"/>
<path d="M4.95607 15.419C3.43475 13.9429 2.36825 12.0336 2.36825 9.77122V9.53055C2.49372 5.66373 5.5991 2.55103 9.37889 2.43871H33.4378C34.0651 2.4708 34.567 2.92005 34.567 3.57789V24.4042C35.116 24.5004 35.3826 24.5807 35.9158 24.7732C36.3393 24.9336 36.9196 25.2706 36.9196 25.2706V3.57789C36.8882 1.60437 35.3512 0.0159315 33.4221 0.0159315H9.36321C4.17188 0.096156 0 4.44432 0 9.77122C0 12.8679 1.38017 15.5153 3.63864 17.3765C3.79547 17.5049 3.93663 17.6653 4.34441 17.6653C5.05017 17.6653 5.55206 17.0877 5.52069 16.4619C5.505 15.9325 5.28543 15.7399 4.95607 15.419Z" fill="#101010"/>
<path d="M32.8107 25.7682H13.9432C12.6728 25.7842 11.6533 26.8271 11.6533 28.1268V30.9025C11.6847 32.1861 12.7512 33.2772 14.0216 33.2772H15.4174V30.9025H14.0216V28.191C14.0216 28.191 14.3666 28.191 14.7901 28.191C17.174 28.191 18.9306 30.4533 18.9306 32.8761C18.9306 35.0261 17.0172 37.7698 13.8177 37.5451C10.9789 37.3526 9.44194 34.7694 9.44194 32.8761V9.35426C9.44194 8.2953 8.59501 7.42887 7.55988 7.42887H5.67783V9.83561H7.07369V32.8921C6.99527 37.5772 10.3359 39.9358 13.8177 39.9358L32.8264 40C36.6533 40 39.7587 36.8231 39.7587 32.8921C39.7587 28.9611 36.6376 25.7682 32.8107 25.7682ZM37.3904 33.0365C37.312 35.5556 35.2888 37.5772 32.8107 37.5772L19.5893 37.5291C20.6401 36.2776 21.2832 34.6571 21.2832 32.8921C21.2832 30.1164 19.6678 28.207 19.6678 28.207H32.8264C35.3515 28.207 37.4061 30.3089 37.4061 32.8921L37.3904 33.0365Z" fill="#101010"/>
<path d="M27.7288 10.2687H13.5036V7.86197H27.7288C28.3718 7.86197 28.905 8.39145 28.905 9.06534C28.905 9.72318 28.3875 10.2687 27.7288 10.2687Z" fill="#101010"/>
<path d="M27.7288 21.5964H13.5036V19.1897H27.7288C28.3718 19.1897 28.905 19.7192 28.905 20.3931C28.905 21.0509 28.3875 21.5964 27.7288 21.5964Z" fill="#101010"/>
<path d="M30.2382 15.9325H13.5036V13.5258H30.2225C30.8655 13.5258 31.3988 14.0553 31.3988 14.7291C31.4144 15.387 30.8812 15.9325 30.2382 15.9325Z" fill="#101010"/>
</svg>
