<svg width="160" height="28" viewBox="0 0 160 28" fill="none" xmlns="http://www.w3.org/2000/svg">
<g clip-path="url(#clip0_202_18767)">
<path d="M4.67611 4.28878L12.1141 0L19.5521 4.28878L16.8175 5.87317L12.1141 3.16878L7.41067 5.87317L4.67611 4.28878ZM19.5521 9.69755L16.8175 8.11317L12.1141 10.8176L7.41067 8.11317L4.67611 9.69755V12.8663L9.37954 15.5707V20.9795L12.1141 22.5639L14.8487 20.9795V15.5707L19.5521 12.8663V9.69755ZM19.5521 18.2751V15.1063L16.8175 16.6907V19.8595L19.5521 18.2751ZM21.4936 19.3951L16.7902 22.0995V25.2682L24.2282 20.9795V12.4019L21.4936 13.9863V19.3951ZM18.7591 6.99317L21.4936 8.57755V11.7463L24.2282 10.1619V6.99317L21.4936 5.40878L18.7591 6.99317ZM9.37954 23.2469V26.4157L12.1141 28L14.8487 26.4157V23.2469L12.1141 24.8312L9.37954 23.2469ZM4.67611 18.2751L7.41067 19.8595V16.6907L4.67611 15.1063V18.2751ZM9.37954 6.99317L12.1141 8.57755L14.8487 6.99317L12.1141 5.40878L9.37954 6.99317ZM2.73455 8.57755L5.46912 6.99317L2.73455 5.40878L0 6.99317V10.1619L2.73455 11.7463V8.57755ZM2.73455 13.9863L0 12.4019V20.9795L7.43798 25.2682V22.0995L2.73455 19.3951V13.9863Z" fill="#F0B90B"/>
<path d="M45.787 17.5719V17.5273C45.787 15.4348 44.6728 14.3885 42.8678 13.6984C43.982 13.0752 44.9179 12.0957 44.9179 10.337V10.2925C44.9179 7.84379 42.9569 6.26324 39.7702 6.26324H32.5278V21.8461H39.9486C43.4695 21.8461 45.787 20.4214 45.787 17.5719ZM41.5084 10.9158C41.5084 12.0734 40.5503 12.5632 39.0349 12.5632H35.8705V9.2685H39.2578C40.7062 9.2685 41.5084 9.84729 41.5084 10.8713V10.9158ZM42.3775 17.149C42.3775 18.3065 41.4639 18.8408 39.9486 18.8408H35.8705V15.4126H39.8371C41.5976 15.4126 42.3775 16.0581 42.3775 17.1044V17.149Z" fill="#F0B90B"/>
<path d="M62.6934 21.8461V6.26324H59.3061V15.8578L51.9969 6.26324H48.8325V21.8461H52.2197V11.9398L59.7741 21.8461H62.6934Z" fill="#F0B90B"/>
<path d="M79.9203 17.5719V17.5273C79.9203 15.4348 78.8061 14.3885 77.0011 13.6984C78.1153 13.0752 79.0512 12.0957 79.0512 10.337V10.2925C79.0512 7.84379 77.0902 6.26324 73.9035 6.26324H66.6611V21.8461H74.0819C77.6028 21.8461 79.9203 20.4214 79.9203 17.5719ZM75.6418 10.9158C75.6418 12.0734 74.6836 12.5632 73.1682 12.5632H70.0039V9.2685H73.3911C74.8395 9.2685 75.6418 9.84729 75.6418 10.8713V10.9158ZM76.5108 17.149C76.5108 18.3065 75.5972 18.8408 74.0819 18.8408H70.0039V15.4126H73.9704C75.7309 15.4126 76.5108 16.0581 76.5108 17.1044V17.149Z" fill="#F0B90B"/>
<path d="M100.603 19.0932L98.8424 17.3124C97.5053 18.559 96.2797 19.3381 94.3632 19.3381C91.3771 19.3381 89.2156 16.8449 89.2156 13.7729C89.2156 10.7008 91.3771 8.25208 94.3632 8.25208C96.146 8.25208 97.483 9.03123 98.731 10.1888L100.491 8.16304C98.9983 6.73833 97.2602 5.73657 94.3856 5.73657C89.6612 5.73657 86.3408 9.36514 86.3408 13.8174C86.3408 18.3141 89.7281 21.8537 94.2741 21.8537C97.1934 21.8537 98.9761 20.7851 100.603 19.0932Z" fill="#F0B90B"/>
<path d="M113.89 15.0194V21.5865H116.632V6.00366H113.89V12.4817H106.448V6.00366H103.707V21.5865H106.448V15.0194H113.89Z" fill="#F0B90B"/>
<path d="M128.927 5.8924H126.387L119.523 21.5865H122.331L123.936 17.8243H131.312L132.895 21.5865H135.791L128.927 5.8924ZM130.309 15.3979H124.939L127.612 9.16479L130.309 15.3979Z" fill="#F0B90B"/>
<path d="M138.845 6.00366V21.5865H141.586V6.00366H138.845Z" fill="#F0B90B"/>
<path d="M156.882 16.778L148.525 6.00366H145.984V21.5865H148.681V10.5004L157.282 21.5865H159.579V6.00366H156.882V16.778Z" fill="#F0B90B"/>
</g>
<defs>
<clipPath id="clip0_202_18767">
<rect width="160" height="28" fill="white"/>
</clipPath>
</defs>
</svg>
