<svg width="160" height="36" viewBox="0 0 160 36" fill="none" xmlns="http://www.w3.org/2000/svg">
<g clip-path="url(#clip0_202_18663)">
<path d="M59.1493 17.013C60.4945 15.7865 61.3254 14.0457 61.3254 12.107C61.3254 8.42746 58.3185 5.42053 54.5994 5.42053H42.8091V15.5887V18.7934V30.109H54.7972C58.8328 30.109 62.0771 26.8646 62.0771 22.829C62.0771 20.4552 60.9298 18.3187 59.1493 17.013ZM46.0534 8.58572H54.5994C56.5381 8.58572 58.0811 10.1287 58.0811 12.0674C58.0811 13.9665 56.4985 15.5491 54.5994 15.5491H46.0534V8.58572ZM54.7972 26.8646H46.0534V18.7934H54.5994H54.7972C57.0524 18.7934 58.8724 20.6134 58.8724 22.829C58.8328 25.0447 57.0128 26.8646 54.7972 26.8646Z" fill="black"/>
<path d="M77.666 5.38092H66.3109L65.3218 8.62523H77.666C80.1982 8.62523 82.2555 10.6826 82.2555 13.2147C82.2555 15.7469 80.1982 17.8043 77.666 17.8043H65.2822V30.1485H68.5265V21.0486H77.666C81.9786 21.0486 85.4998 17.5273 85.4998 13.2147C85.4998 8.90219 81.9786 5.38092 77.666 5.38092Z" fill="black"/>
<path d="M79.0903 23.0269L82.0181 30.109H85.4998L82.572 23.0269H79.0903Z" fill="black"/>
<path d="M92.384 18.8725H104.689V15.5491H92.384V8.6648H105.836V5.38092H89.1396V30.1485H106.232V26.8646H92.384V18.8725Z" fill="black"/>
<path d="M119.763 26.2711L111.85 5.38092H108.368L117.785 30.1485H121.781L131.118 5.38092H127.557L119.763 26.2711Z" fill="black"/>
<path d="M136.894 5.38092H133.65V30.188H136.894V5.38092Z" fill="black"/>
<path d="M155.767 17.0921L146.627 14.7182C145.163 14.2434 144.254 12.7004 144.57 11.1178C144.847 9.61435 146.271 8.62523 147.775 8.62523H152.127C154.699 8.62523 156.796 10.7222 156.796 13.2939H160.04C160.04 8.94175 156.479 5.38092 152.127 5.38092H147.854C144.57 5.38092 141.642 7.79437 141.286 11.0782C140.97 14.0852 142.79 16.8547 145.599 17.7647L154.936 20.1782C156.716 20.5738 156.835 22.4729 156.756 23.9764C156.677 25.6381 155.173 26.9042 153.512 26.9042H149.436C146.707 26.9042 144.451 24.649 144.451 21.919H141.247C141.247 26.469 144.926 30.1485 149.476 30.1485H153.67C157.231 30.1485 160.119 27.1811 160.04 23.5412C159.921 20.8508 159.367 18.5164 155.767 17.0921Z" fill="black"/>
<path d="M17.8438 4.94568C13.8873 4.94568 10.366 6.72609 7.99215 9.49563L9.25822 10.5639L10.8012 11.8695C12.463 9.89128 14.9951 8.6252 17.8042 8.6252C22.2355 8.6252 25.915 11.7508 26.7854 15.8656C26.9041 16.459 26.9832 17.0921 26.9832 17.7251C26.9832 19.6638 26.3898 21.4442 25.3611 22.9081C23.7389 25.3215 20.9694 26.9041 17.8438 26.9041C17.4086 26.9041 17.0129 26.8646 16.6173 26.825C12.5421 26.2711 9.29779 23.0664 8.74388 18.9912L6.72607 19.2681C7.39868 24.2137 11.3156 28.1306 16.3008 28.8032L16.1029 30.465C16.6568 30.5441 17.2503 30.5837 17.8438 30.5837C22.2355 30.5837 26.1524 28.368 28.4471 25.0446L27.0624 24.095C28.2889 22.3146 29.0406 20.1386 29.0406 17.7647C29.0406 16.9734 28.9615 16.2216 28.8032 15.4699L30.4649 15.1138C29.2384 9.33737 24.0555 4.94568 17.8438 4.94568Z" fill="black"/>
<path d="M34.817 12.2255L32.087 13.7686C32.4431 15.0346 32.6409 16.3798 32.6409 17.7646C32.6409 25.915 26.0336 32.4827 17.8437 32.4827C9.65381 32.4827 3.04649 25.915 3.04649 17.7646C3.04649 16.3798 3.24431 14.9951 3.6004 13.729L0.90999 12.186C0.316518 13.9268 0 15.8259 0 17.7646C0 27.5767 7.99209 35.5292 17.8437 35.5292C27.6953 35.5292 35.6874 27.5767 35.6874 17.7646C35.6874 15.8259 35.3709 13.9664 34.817 12.2255Z" fill="black"/>
<path d="M17.8438 3.04655C24.372 3.04655 29.9111 7.24042 31.8893 13.0564L34.5797 11.5134C32.008 4.7874 25.4798 6.10352e-05 17.8438 6.10352e-05C10.2078 6.10352e-05 3.71917 4.74784 1.14746 11.4738L3.83787 13.0169C5.81611 7.20085 11.3552 3.04655 17.8438 3.04655Z" fill="black"/>
<path d="M23.3433 16.6172C23.4224 16.9733 23.462 17.3689 23.462 17.7646C23.462 18.9515 23.1059 20.0198 22.4729 20.9298C21.4442 22.3937 19.7429 23.3432 17.8438 23.3432C17.5668 23.3432 17.3294 23.3432 17.0921 23.3037C14.5995 22.9476 12.6212 21.0089 12.2652 18.5163C12.2256 18.2789 12.2256 18.002 12.2256 17.7646C12.2256 16.3798 12.7399 15.1138 13.5708 14.1642C14.5995 12.9377 16.1425 12.186 17.8834 12.186C20.5738 12.1464 22.8289 14.0851 23.3433 16.6172Z" fill="black"/>
</g>
<defs>
<clipPath id="clip0_202_18663">
<rect width="160" height="35.5292" fill="white"/>
</clipPath>
</defs>
</svg>
