<svg width="117" height="40" viewBox="0 0 117 40" fill="none" xmlns="http://www.w3.org/2000/svg">
<g clip-path="url(#clip0_202_18705)">
<path d="M86.1025 38.7104C86.1545 39.0266 86.1123 39.2586 85.9759 39.406C85.8385 39.5432 85.659 39.6433 85.4383 39.7065C85.2165 39.7593 84.9792 39.7856 84.726 39.7856C84.4836 39.7751 84.2787 39.7751 84.1099 39.7856C83.9098 39.7961 83.6724 39.8119 83.3976 39.833C83.124 39.8435 82.8552 39.8488 82.5912 39.8488C82.339 39.8488 82.1066 39.8277 81.8957 39.7856C81.6848 39.7434 81.5424 39.6696 81.4689 39.5643C81.416 39.4905 81.3796 39.3217 81.3581 39.0582C81.3473 38.7947 81.3423 38.4732 81.3423 38.0938C81.3423 37.7037 81.3473 37.2716 81.3581 36.7971C81.3796 36.3228 81.4002 35.8433 81.4218 35.3583C81.4424 34.8629 81.4581 34.3834 81.4689 33.9195C81.4905 33.4556 81.5003 33.034 81.5003 32.6544C81.5111 32.0958 81.5159 31.5425 81.5159 30.9944C81.5159 30.4462 81.5376 29.8929 81.5797 29.3341C81.5797 29.2603 81.5797 29.1653 81.5797 29.0495C81.5797 28.9229 81.5905 28.8017 81.6111 28.6859C81.6425 28.5698 81.6954 28.4697 81.7691 28.3854C81.8437 28.3011 81.9594 28.2589 82.1173 28.2589C82.4225 28.2589 82.6501 28.3274 82.7973 28.4646C82.9551 28.6016 83.013 28.8967 82.9709 29.3499C82.9503 29.5712 82.9287 29.7557 82.9081 29.9034C82.8972 30.0508 82.8866 30.1827 82.8766 30.2987C82.8766 30.404 82.8708 30.5042 82.86 30.599C82.8502 30.6939 82.8443 30.8098 82.8443 30.947C82.8237 31.9272 82.8129 32.9022 82.8129 33.872C82.8129 34.8419 82.7865 35.8169 82.7336 36.7971C82.7129 37.3243 82.8081 37.6879 83.019 37.8883C83.2299 38.078 83.5821 38.1518 84.0784 38.1096C84.2365 38.0991 84.4307 38.078 84.6633 38.0464C84.8948 38.0146 85.1164 38.0093 85.3275 38.0304C85.5384 38.0515 85.7169 38.1096 85.8651 38.2043C86.0121 38.2993 86.0917 38.468 86.1025 38.7104Z" fill="#236D66"/>
<path d="M79.168 32.1011C79.2101 32.8179 79.1992 33.5399 79.1366 34.2673C79.0835 34.984 79.0149 35.7009 78.9304 36.4177L78.8677 36.9552C78.8363 37.2505 78.7834 37.5667 78.7097 37.904C78.6352 38.2412 78.5352 38.5049 78.4086 38.6946C78.282 38.9476 78.1457 39.1478 77.9974 39.2955C77.8504 39.4429 77.6865 39.559 77.5079 39.6433C77.3284 39.7276 77.1391 39.7856 76.938 39.8172C76.7377 39.8383 76.522 39.8488 76.2905 39.8488C76.1531 39.8488 76.005 39.833 75.847 39.8014C75.5734 39.7382 75.3516 39.6379 75.1828 39.5009C75.0141 39.3535 74.8777 39.1847 74.7717 38.995C74.6668 38.7947 74.5873 38.5785 74.5352 38.3468C74.4823 38.1044 74.4451 37.8618 74.4244 37.6194C74.3822 37.2821 74.3557 36.95 74.3449 36.6232C74.3343 36.2965 74.3243 35.9696 74.3137 35.6429C74.3028 35.4953 74.2979 35.3583 74.2979 35.2319C74.2979 35.0948 74.292 34.9578 74.2822 34.8208C74.292 34.61 74.2979 34.4096 74.2979 34.2199C74.3076 34.0302 74.3137 33.8403 74.3137 33.6506C74.3343 33.1447 74.3557 32.6597 74.3763 32.1961C74.398 31.7217 74.4244 31.2472 74.4559 30.7729C74.4765 30.5305 74.5186 30.2881 74.5825 30.0457C74.6452 29.8031 74.7295 29.5765 74.8355 29.3657C75.0141 28.9967 75.2467 28.7279 75.5311 28.5593C75.8264 28.3801 76.1422 28.28 76.4797 28.2589C76.7858 28.2379 77.1067 28.2695 77.4442 28.3538C77.7817 28.4381 78.0505 28.6385 78.2506 28.9545C78.5881 29.5133 78.8147 30.0668 78.9304 30.6148C79.057 31.1629 79.1366 31.6584 79.168 32.1011ZM76.4641 38.5049C76.6113 38.5049 76.7279 38.4891 76.8114 38.4573C76.8957 38.4258 76.9595 38.3888 77.0017 38.3468C77.044 38.2941 77.0752 38.2412 77.0969 38.1885C77.1175 38.1253 77.1391 38.0673 77.1597 38.0146C77.3284 37.4877 77.4598 36.9236 77.555 36.3227C77.6601 35.7219 77.7286 35.1264 77.7611 34.5361C77.8033 33.9353 77.8131 33.3609 77.7925 32.8127C77.7709 32.2539 77.7188 31.7586 77.6345 31.3264C77.56 30.8943 77.455 30.5463 77.3176 30.2827C77.191 30.0088 77.039 29.856 76.8595 29.8242C76.8281 29.8031 76.7279 29.8031 76.5593 29.8242C76.4004 29.8453 76.2688 29.8822 76.1639 29.9349C76.111 29.9561 76.0579 29.9981 76.005 30.0615C75.953 30.1246 75.9049 30.1985 75.8628 30.2827C75.8313 30.3566 75.7999 30.4357 75.7685 30.52C75.747 30.6043 75.7362 30.6781 75.7362 30.7413C75.7048 31.3737 75.6625 32.001 75.6106 32.6228C75.5684 33.2343 75.5419 33.8457 75.5311 34.457C75.5203 34.6678 75.5261 34.884 75.5467 35.1052C75.5782 35.3161 75.594 35.5269 75.594 35.7377C75.594 35.8537 75.5998 35.9645 75.6106 36.0699C75.6204 36.1753 75.6312 36.286 75.6419 36.4019C75.6419 36.6549 75.6625 36.9027 75.7048 37.1451C75.747 37.3768 75.7949 37.6088 75.847 37.8407C75.8686 37.9461 75.9373 38.0726 76.0531 38.2203C76.1795 38.3573 76.3159 38.452 76.4641 38.5049Z" fill="#236D66"/>
<path d="M67.2092 30.7573C67.2199 30.4515 67.2777 30.1616 67.3832 29.8876C67.4991 29.6134 67.6467 29.3657 67.826 29.1444C68.0158 28.9231 68.2319 28.7439 68.4742 28.6069C68.7168 28.4593 68.9751 28.3592 69.249 28.3065C69.8183 28.2115 70.3191 28.2642 70.7513 28.4646C71.1941 28.6543 71.5522 29.0021 71.8268 29.5082C71.9426 29.719 72.0113 29.9614 72.0319 30.2354C72.0634 30.5096 72.0536 30.7678 72.0005 31.0102C71.9897 31.0735 71.9534 31.142 71.8897 31.2156C71.8269 31.2895 71.7475 31.3581 71.6522 31.4213C71.5678 31.474 71.4787 31.5214 71.3839 31.5636C71.2889 31.5952 71.1994 31.6163 71.1151 31.6268C71.0096 31.6479 70.8937 31.6426 70.7671 31.611C70.6511 31.5794 70.5352 31.5005 70.4193 31.3739C70.3561 31.3001 70.3296 31.1894 70.3402 31.0417C70.3612 30.8838 70.3665 30.7308 70.3561 30.5832C70.3561 30.4357 70.3138 30.3092 70.2295 30.2038C70.1451 30.0984 69.9713 30.0562 69.7077 30.0773C69.3598 30.1195 69.112 30.2512 68.9644 30.4726C68.8274 30.6835 68.743 30.9207 68.7114 31.1841C68.6798 31.4371 68.6798 31.6795 68.7114 31.9114C68.743 32.1434 68.7588 32.2962 68.7588 32.37C68.7588 32.7707 68.7484 33.1501 68.7272 33.5084C68.7061 33.8563 68.6798 34.2041 68.6482 34.552C68.6271 34.8893 68.6113 35.2373 68.6008 35.5956C68.5902 35.9434 68.5902 36.3123 68.6008 36.7023C68.6008 36.9027 68.6429 37.1188 68.7272 37.3506C68.8117 37.5825 68.9277 37.7406 69.0752 37.8249C69.17 37.8778 69.2807 37.9356 69.4072 37.9988C69.5337 38.0517 69.6654 38.0938 69.8025 38.1255C69.9395 38.1465 70.0713 38.1465 70.1979 38.1255C70.3244 38.1044 70.4351 38.0464 70.5299 37.9514C70.6249 37.8567 70.6723 37.6828 70.6723 37.4297C70.6723 37.1767 70.6669 36.9185 70.6565 36.655C70.6565 36.3914 70.6723 36.1647 70.7039 35.975C70.746 35.7748 70.8516 35.6852 71.0201 35.7063C71.3576 35.7484 71.6003 35.8486 71.7475 36.0067C71.8956 36.1647 71.9691 36.3018 71.9691 36.4177C71.9691 36.6392 71.9691 36.8711 71.9691 37.1135C71.9799 37.3559 71.974 37.593 71.9534 37.8249C71.9318 38.0569 71.8897 38.2783 71.8268 38.4891C71.7739 38.6999 71.6896 38.8843 71.5738 39.0424C71.3734 39.2955 71.136 39.4852 70.8621 39.6117C70.5879 39.7382 70.2928 39.8172 69.9765 39.8488C69.6707 39.8699 69.3598 39.8541 69.0436 39.8014C68.7377 39.7487 68.448 39.6749 68.1738 39.5801C67.9313 39.4958 67.7363 39.3746 67.5888 39.2163C67.4413 39.0478 67.3253 38.8632 67.2408 38.663C67.1671 38.4522 67.1195 38.2256 67.0986 37.983C67.0879 37.7302 67.0933 37.4771 67.1144 37.2242C67.1249 37.0555 67.1302 36.8078 67.1302 36.4811C67.1407 36.1437 67.146 35.7695 67.146 35.3583C67.1566 34.9367 67.1618 34.4993 67.1618 34.046C67.1725 33.5823 67.1776 33.1394 67.1776 32.7178C67.1776 32.2962 67.1776 31.9114 67.1776 31.5636C67.1883 31.2157 67.1987 30.947 67.2092 30.7573Z" fill="#236D66"/>
<path d="M64.9244 32.1011C64.9664 32.8179 64.956 33.5399 64.8928 34.2673C64.84 34.984 64.7715 35.7009 64.6872 36.4177L64.6239 36.9552C64.5922 37.2505 64.5394 37.5667 64.4658 37.904C64.3919 38.2412 64.2918 38.5049 64.1653 38.6946C64.0388 38.9476 63.9017 39.1478 63.7541 39.2955C63.6066 39.4429 63.4431 39.559 63.2639 39.6433C63.0848 39.7276 62.895 39.7856 62.6947 39.8172C62.4944 39.8383 62.2784 39.8488 62.0465 39.8488C61.9094 39.8488 61.7617 39.833 61.6037 39.8014C61.3296 39.7382 61.1082 39.6379 60.9395 39.5009C60.7708 39.3535 60.6338 39.1847 60.5283 38.995C60.423 38.7947 60.3438 38.5785 60.2911 38.3468C60.2384 38.1044 60.2014 37.8618 60.1805 37.6194C60.1384 37.2821 60.1119 36.95 60.1013 36.6232C60.0908 36.2965 60.0803 35.9696 60.0697 35.6429C60.0592 35.4953 60.0539 35.3583 60.0539 35.2319C60.0539 35.0948 60.0487 34.9578 60.0381 34.8208C60.0487 34.61 60.0539 34.4096 60.0539 34.2199C60.0644 34.0302 60.0697 33.8403 60.0697 33.6506C60.0908 33.1447 60.1119 32.6597 60.1331 32.1961C60.1542 31.7217 60.1805 31.2472 60.2121 30.7729C60.2332 30.5305 60.2753 30.2881 60.3385 30.0457C60.4019 29.8031 60.486 29.5765 60.5915 29.3657C60.7708 28.9967 61.0027 28.7279 61.2873 28.5593C61.5826 28.3801 61.8988 28.28 62.2361 28.2589C62.5419 28.2379 62.8634 28.2695 63.2007 28.3538C63.5381 28.4381 63.8069 28.6385 64.0072 28.9545C64.3445 29.5133 64.5712 30.0668 64.6872 30.6148C64.8136 31.1629 64.8928 31.6584 64.9244 32.1011ZM62.2203 38.5049C62.3679 38.5049 62.4838 38.4891 62.5681 38.4573C62.6525 38.4258 62.7158 38.3888 62.7579 38.3468C62.8 38.2941 62.8318 38.2412 62.8529 38.1885C62.8739 38.1253 62.895 38.0673 62.9159 38.0146C63.0848 37.4877 63.2165 36.9236 63.3113 36.3227C63.4168 35.7219 63.4853 35.1264 63.5169 34.5361C63.5592 33.9353 63.5697 33.3609 63.5485 32.8127C63.5276 32.2539 63.4747 31.7586 63.3905 31.3264C63.3167 30.8943 63.2112 30.5463 63.0741 30.2827C62.9477 30.0088 62.7949 29.856 62.6157 29.8242C62.5841 29.8031 62.4838 29.8031 62.3153 29.8242C62.1571 29.8453 62.0254 29.8822 61.9199 29.9349C61.8672 29.9561 61.8144 29.9981 61.7617 30.0615C61.709 30.1246 61.6616 30.1985 61.6195 30.2827C61.5877 30.3566 61.5561 30.4357 61.5245 30.52C61.5036 30.6043 61.4929 30.6781 61.4929 30.7413C61.4613 31.3737 61.419 32.001 61.3665 32.6228C61.3242 33.2343 61.2978 33.8457 61.2873 34.457C61.2768 34.6678 61.282 34.884 61.3031 35.1052C61.3347 35.3161 61.3507 35.5269 61.3507 35.7377C61.3507 35.8537 61.3558 35.9645 61.3665 36.0699C61.377 36.1753 61.3874 36.286 61.3981 36.4019C61.3981 36.6549 61.419 36.9027 61.4613 37.1451C61.5036 37.3768 61.5508 37.6088 61.6037 37.8407C61.6246 37.9461 61.6932 38.0726 61.8091 38.2203C61.9357 38.3573 62.0728 38.452 62.2203 38.5049Z" fill="#236D66"/>
<path d="M57.3405 28.3063C57.4143 28.3169 57.5144 28.3327 57.6409 28.3538C57.7675 28.3748 57.8939 28.4277 58.0205 28.512C58.1469 28.5856 58.2575 28.7017 58.3525 28.8598C58.4473 29.0074 58.4949 29.2076 58.4949 29.4606C58.4949 29.6399 58.4684 29.782 58.4157 29.8876C58.3631 29.9823 58.2944 30.0562 58.2103 30.1089C58.1364 30.1616 58.0574 30.1985 57.9729 30.2196C57.8992 30.2301 57.8411 30.2407 57.7991 30.2512H57.7199L57.6884 30.267H56.7238C56.2283 30.2565 55.9279 30.3039 55.8224 30.4093C55.7592 30.4726 55.7223 30.5885 55.7116 30.7571C55.7012 30.9154 55.7012 31.1156 55.7116 31.358V32.0853V32.1487C55.6907 32.9075 55.6696 33.6611 55.6484 34.4096C55.6275 35.158 55.6063 35.9011 55.5852 36.6392L55.5378 38.2043V38.3152C55.5378 38.3784 55.5378 38.4416 55.5378 38.5049C55.5378 38.5576 55.5325 38.6102 55.522 38.663V38.9001V38.9477C55.5325 39.0424 55.5378 39.1585 55.5378 39.2955C55.5378 39.4218 55.4851 39.5379 55.3796 39.6433C55.2742 39.7803 55.1003 39.8488 54.8578 39.8488C54.5627 39.8488 54.336 39.7645 54.1778 39.5959C54.0409 39.4587 53.9617 39.3113 53.9406 39.1532C53.9196 38.9844 53.909 38.8579 53.909 38.7736C53.9301 37.8144 53.9513 36.8658 53.9724 35.9276C53.9935 34.9789 54.0145 34.0407 54.0356 33.1132L54.0672 31.9272V31.5794C54.0672 31.4318 54.0672 31.2841 54.0672 31.1367C54.0672 30.989 54.0777 30.852 54.0988 30.7255C54.1199 30.5569 54.1252 30.4515 54.1146 30.4093C54.1146 30.3566 54.0935 30.3039 54.0514 30.2512L54.0198 30.2038C53.9987 30.1827 53.9671 30.1669 53.9248 30.1563C53.8932 30.1458 53.8035 30.1405 53.656 30.1405H53.5612C53.4768 30.1405 53.3609 30.1353 53.2134 30.1247C53.0763 30.1142 52.9288 30.0931 52.7706 30.0615C52.6124 30.0299 52.4542 29.9823 52.2962 29.9192C52.1486 29.856 52.0273 29.7715 51.9324 29.6661C51.7848 29.508 51.7216 29.3183 51.7427 29.097C51.7637 28.8651 51.8429 28.6912 51.9799 28.5751C52.1275 28.4593 52.2908 28.3801 52.4702 28.3379C52.6599 28.2853 52.8442 28.2589 53.0236 28.2589C53.2134 28.2589 53.3609 28.2642 53.4664 28.2747H53.577C53.6824 28.2747 53.8353 28.2747 54.0356 28.2747C54.2463 28.2747 54.4519 28.28 54.6522 28.2905C54.8525 28.2905 55.0265 28.2958 55.174 28.3063C55.3322 28.3063 55.4112 28.3063 55.4112 28.3063C55.4428 28.3063 55.5167 28.3063 55.6326 28.3063C55.7486 28.3063 55.8856 28.3063 56.0438 28.3063C56.2125 28.3063 56.397 28.3063 56.5972 28.3063C56.7975 28.2958 56.998 28.2905 57.1981 28.2905H57.2139H57.2456H57.3247L57.3405 28.3063Z" fill="#236D66"/>
<path d="M50.2017 32.1011C50.2438 32.8179 50.2333 33.5399 50.1699 34.2673C50.1172 34.984 50.0488 35.7009 49.9645 36.4177L49.9011 36.9552C49.8695 37.2505 49.817 37.5667 49.7431 37.904C49.6692 38.2412 49.5691 38.5049 49.4425 38.6946C49.3161 38.9476 49.179 39.1478 49.0315 39.2955C48.884 39.4429 48.7206 39.559 48.5413 39.6433C48.362 39.7276 48.1723 39.7856 47.9719 39.8172C47.7718 39.8383 47.5555 39.8488 47.3237 39.8488C47.1866 39.8488 47.0391 39.833 46.8809 39.8014C46.6067 39.7382 46.3855 39.6379 46.2168 39.5009C46.0482 39.3535 45.9111 39.1847 45.8056 38.995C45.7002 38.7947 45.6212 38.5785 45.5684 38.3468C45.5157 38.1044 45.4789 37.8618 45.4578 37.6194C45.4156 37.2821 45.3893 36.95 45.3786 36.6232C45.3682 36.2965 45.3577 35.9696 45.347 35.6429C45.3366 35.4953 45.3314 35.3583 45.3314 35.2319C45.3314 35.0948 45.3261 34.9578 45.3154 34.8208C45.3261 34.61 45.3314 34.4096 45.3314 34.2199C45.3419 34.0302 45.347 33.8403 45.347 33.6506C45.3682 33.1447 45.3893 32.6597 45.4102 32.1961C45.4314 31.7217 45.4578 31.2472 45.4894 30.7729C45.5104 30.5305 45.5526 30.2881 45.616 30.0457C45.679 29.8031 45.7636 29.5765 45.869 29.3657C46.0482 28.9967 46.28 28.7279 46.5647 28.5593C46.8599 28.3801 47.1761 28.28 47.5135 28.2589C47.8192 28.2379 48.1407 28.2695 48.4781 28.3538C48.8154 28.4381 49.0842 28.6385 49.2845 28.9545C49.6218 29.5133 49.8484 30.0668 49.9645 30.6148C50.0909 31.1629 50.1699 31.6584 50.2017 32.1011ZM47.4977 38.5049C47.6452 38.5049 47.7611 38.4891 47.8455 38.4573C47.9298 38.4258 47.993 38.3888 48.0353 38.3468C48.0774 38.2941 48.109 38.2412 48.1301 38.1885C48.1512 38.1253 48.1723 38.0673 48.1935 38.0146C48.362 37.4877 48.4939 36.9236 48.5887 36.3227C48.6942 35.7219 48.7627 35.1264 48.7943 34.5361C48.8365 33.9353 48.847 33.3609 48.8259 32.8127C48.8048 32.2539 48.752 31.7586 48.6677 31.3264C48.594 30.8943 48.4886 30.5463 48.3515 30.2827C48.2249 30.0088 48.0722 29.856 47.8931 29.8242C47.8613 29.8031 47.7611 29.8031 47.5925 29.8242C47.4343 29.8453 47.3025 29.8822 47.1973 29.9349C47.1445 29.9561 47.0918 29.9981 47.0391 30.0615C46.9863 30.1246 46.9389 30.1985 46.8967 30.2827C46.8651 30.3566 46.8335 30.4357 46.8019 30.52C46.7807 30.6043 46.7703 30.6781 46.7703 30.7413C46.7386 31.3737 46.6964 32.001 46.6437 32.6228C46.6016 33.2343 46.5753 33.8457 46.5647 34.457C46.5542 34.6678 46.5595 34.884 46.5805 35.1052C46.6121 35.3161 46.6279 35.5269 46.6279 35.7377C46.6279 35.8537 46.6332 35.9645 46.6437 36.0699C46.6543 36.1753 46.6648 36.286 46.6754 36.4019C46.6754 36.6549 46.6966 36.9027 46.7386 37.1451C46.7807 37.3768 46.8283 37.6088 46.8809 37.8407C46.902 37.9461 46.9705 38.0726 47.0865 38.2203C47.2131 38.3573 47.3501 38.452 47.4977 38.5049Z" fill="#236D66"/>
<path d="M43.5128 39.2163C43.5233 39.3006 43.5233 39.3851 43.5128 39.4694C43.5128 39.5432 43.4812 39.6064 43.4179 39.6591C43.323 39.7856 43.0438 39.8488 42.5798 39.8488C42.4639 39.8488 42.3742 39.8172 42.311 39.754C42.2478 39.6802 42.2002 39.5959 42.1686 39.501C42.137 39.3956 42.1161 39.2902 42.1054 39.1848C42.095 39.0687 42.0843 38.9635 42.0738 38.8685C42.0738 38.7842 42.0685 38.7262 42.058 38.6946C42.0158 38.3993 41.9368 38.1149 41.8208 37.8407C41.7049 37.5667 41.5678 37.3137 41.4096 37.0819C41.2516 36.85 41.0776 36.6496 40.8878 36.4811C40.7087 36.3018 40.5293 36.1593 40.3502 36.0541C39.9917 35.8644 39.6966 35.8169 39.4646 35.9118L39.4488 35.9276C39.4278 35.9485 39.412 36.0066 39.4016 36.1015C39.4016 36.1858 39.4016 36.2912 39.4016 36.4177C39.4016 36.5442 39.4067 36.6812 39.4174 36.8289C39.4278 36.9659 39.4383 37.0977 39.4488 37.2241C39.4699 37.4771 39.491 37.7302 39.5122 37.983C39.5333 38.2361 39.5333 38.4574 39.5122 38.6471C39.5015 38.6893 39.4964 38.7315 39.4964 38.7736C39.5068 38.8052 39.5122 38.8421 39.5122 38.8843C39.5227 39.0002 39.5175 39.1267 39.4964 39.2637C39.4857 39.4009 39.4383 39.5168 39.354 39.6117C39.2169 39.7487 39.0273 39.8172 38.7848 39.8172C38.5318 39.8383 38.3315 39.7751 38.1839 39.6275C38.0574 39.5116 37.9835 39.364 37.9625 39.1848C37.9519 39.0055 37.9467 38.8527 37.9467 38.7262V38.6155C37.9361 37.4033 37.9414 36.1964 37.9625 34.9947C37.9835 33.7825 38.0046 32.5808 38.0257 31.3896C38.0362 31.0629 38.0416 30.7413 38.0416 30.4251C38.0522 30.0984 38.0574 29.7715 38.0574 29.4448C38.068 29.1813 38.1152 28.9756 38.1997 28.8282C38.2946 28.6701 38.4105 28.5487 38.5476 28.4646C38.6846 28.3801 38.8322 28.3274 38.9904 28.3063C39.1486 28.2747 39.3012 28.2589 39.4488 28.2589C39.8284 28.2589 40.2027 28.3221 40.5716 28.4488C40.9405 28.5751 41.2832 28.7544 41.5994 28.9863C41.9263 29.2182 42.2109 29.4871 42.4532 29.7926C42.7063 30.0984 42.8907 30.4304 43.0067 30.7887C43.1437 31.1999 43.2018 31.6057 43.1807 32.0062C43.1702 32.3963 43.1016 32.7705 42.9751 33.129C42.8591 33.4768 42.6958 33.8036 42.485 34.1092C42.2847 34.415 42.058 34.6785 41.805 34.8998C41.805 34.9947 41.8313 35.1159 41.884 35.2635C41.9472 35.4005 42.0211 35.5587 42.1054 35.7377C42.2002 35.9065 42.3004 36.0857 42.4058 36.2754C42.522 36.4653 42.6326 36.655 42.7379 36.8447C42.8328 37.0028 42.9225 37.1556 43.0067 37.3032C43.0912 37.4507 43.1702 37.593 43.244 37.7302C43.2861 37.8038 43.323 37.9041 43.3547 38.0304C43.3863 38.1465 43.4125 38.273 43.4337 38.41C43.4654 38.547 43.4864 38.684 43.497 38.821C43.5075 38.9581 43.5128 39.0793 43.5128 39.1848V39.2163ZM39.6704 29.8876C39.6386 29.9403 39.607 30.0668 39.5754 30.267C39.5544 30.4673 39.5385 30.7046 39.528 30.9786C39.5175 31.2421 39.5122 31.5267 39.5122 31.8323C39.5122 32.1381 39.5175 32.4278 39.528 32.702C39.5385 32.9762 39.5544 33.2132 39.5754 33.4136C39.5965 33.6138 39.6228 33.7456 39.6544 33.8088C39.9285 33.8299 40.1815 33.8036 40.4134 33.7298C40.6559 33.6453 40.872 33.5137 41.0618 33.3344C41.2726 33.1552 41.4307 32.9393 41.5362 32.6862C41.6522 32.4227 41.7102 32.1538 41.7102 31.8799C41.7102 31.7217 41.6733 31.5636 41.5994 31.4053C41.5362 31.2368 41.4466 31.0787 41.3306 30.9312C41.2252 30.7729 41.0986 30.6254 40.951 30.4884C40.8035 30.3513 40.6559 30.2354 40.5084 30.1405C40.1393 29.9087 39.86 29.8242 39.6704 29.8876Z" fill="#236D66"/>
<path d="M35.2208 30.0141C35.5688 30.5516 35.7795 31.1209 35.8534 31.7217C35.9273 32.3226 35.8534 32.9128 35.632 33.4925C35.1682 34.6838 34.3881 35.3056 33.2917 35.3583C32.9122 35.3794 32.638 35.4848 32.4695 35.6747C32.3009 35.8539 32.2217 36.1489 32.2321 36.56C32.2321 36.6761 32.2321 36.8024 32.2321 36.9396C32.2428 37.0661 32.2533 37.1925 32.2639 37.319C32.2851 37.5193 32.3009 37.7248 32.3113 37.9356C32.3218 38.136 32.3167 38.3415 32.2955 38.5523C32.2851 38.6261 32.2797 38.7368 32.2797 38.8843C32.2902 39.0213 32.2797 39.1638 32.2481 39.3113C32.227 39.4482 32.1691 39.5748 32.0741 39.6907C31.9898 39.7962 31.8527 39.8488 31.6629 39.8488C31.4733 39.8488 31.3256 39.8067 31.2203 39.7224C31.1253 39.6275 31.0516 39.5221 30.9989 39.4062C30.9566 39.2797 30.9357 39.1531 30.9357 39.0266C30.9357 38.8896 30.9357 38.7737 30.9357 38.6788C30.925 38.468 30.9199 38.3257 30.9199 38.2519C30.9199 38.1676 30.925 38.1095 30.9357 38.0779L30.8881 35.5164C30.867 34.4834 30.8512 33.4821 30.8407 32.5123C30.8302 31.532 30.8198 30.5516 30.8091 29.5713C30.7986 29.3183 30.8091 29.1023 30.8407 28.9231C30.8723 28.7439 30.9462 28.5962 31.0621 28.4804C31.1676 28.3749 31.3098 28.3116 31.4891 28.2907C31.6787 28.2591 31.9108 28.2484 32.1849 28.2591C32.7857 28.28 33.355 28.4488 33.8926 28.7648C34.4302 29.0707 34.873 29.487 35.2208 30.0141ZM32.2163 32.6388C32.1954 32.8917 32.1954 33.1185 32.2163 33.3186C32.2375 33.4979 32.2692 33.6718 32.3113 33.8405C32.3641 33.9986 32.4589 34.1039 32.5959 34.1567C32.733 34.2094 32.8543 34.2357 32.9597 34.2357C33.065 34.2357 33.1652 34.2199 33.2601 34.1883C33.355 34.1461 33.4393 34.0987 33.5131 34.046C33.5975 33.9828 33.6765 33.9248 33.7503 33.8721C33.9716 33.7245 34.1351 33.5612 34.2406 33.382C34.346 33.1923 34.4144 32.9973 34.4462 32.7969C34.4882 32.5966 34.4987 32.3911 34.4778 32.1803C34.4671 31.9694 34.4408 31.7586 34.3986 31.5478C34.2931 31.0417 34.1193 30.6465 33.8768 30.3619C33.6344 30.0668 33.3127 29.8613 32.9122 29.7452C32.638 29.6821 32.4484 29.6925 32.3429 29.7768C32.2481 29.8613 32.2007 30.0246 32.2007 30.2671C32.2112 30.5411 32.2163 30.8151 32.2163 31.0893C32.2163 31.3633 32.2163 31.6373 32.2163 31.9114V32.6388Z" fill="#236D66"/>
<path fill-rule="evenodd" clip-rule="evenodd" d="M54.2607 0.238304C54.1001 0.36034 53.6945 1.03585 53.3479 1.73432C53.0071 2.43288 52.2979 3.76664 51.7699 4.70105L50.8146 6.3961L48.4304 6.51116C39.1661 6.96105 38.9235 7.03619 37.5453 7.46381C37.129 7.59301 36.6087 7.75447 35.7045 7.96803C33.6956 8.44451 33.4218 8.62747 33.7824 9.19478C34.1427 9.76208 34.6798 9.82427 36.3169 9.48711C36.4019 9.46955 36.4854 9.45227 36.5678 9.43531L36.5685 9.43521C38.6551 9.00417 39.9593 8.73468 45.1033 8.59411L49.8397 8.4652L49.262 9.99693C48.9433 10.8381 48.5746 11.9774 48.4429 12.5286L48.2038 13.5298L46.2203 13.6575C45.1298 13.7288 43.0898 13.7875 41.6873 13.7875C38.7993 13.7887 38.1997 13.6161 37.0666 12.4538C36.4543 11.8289 36.2568 11.7265 35.53 11.6724C34.7757 11.6149 34.6949 11.6874 34.6949 12.3997C34.6822 12.9596 34.6216 13.5175 34.5135 14.0672L34.331 14.9451C34.0711 14.8663 33.9335 14.784 33.8475 14.7058C33.6145 14.138 32.4751 13.6546 32.0101 13.8439C30.6762 14.3784 29.9964 14.5373 29.1915 14.7255C28.6029 14.8631 27.9474 15.0163 26.9205 15.3435C25.7953 15.6933 24.662 16.0178 23.494 16.3181C23.2408 16.3846 22.973 16.4686 22.6957 16.5559C21.8289 16.8284 20.8672 17.1308 19.9511 17.0166C20.3341 16.7007 20.6244 16.2357 20.9157 15.7691C21.1306 15.425 21.3461 15.0801 21.5995 14.7933C21.7142 14.6746 21.9057 14.5312 22.1209 14.3703C22.719 13.9231 23.4986 13.3398 23.3126 12.7703C23.1555 12.295 22.2314 11.7207 21.7693 11.5964C20.8667 11.35 20.3752 11.9281 19.9334 12.4475C19.8368 12.5609 19.7427 12.6716 19.6472 12.7703C19.5199 12.8931 19.3685 13.0277 19.2048 13.1731C18.2031 14.0632 16.7447 15.3591 17.5679 16.8428C18.3753 18.2663 20.5449 18.691 21.8605 18.7658C24.9686 18.907 26.1288 18.4258 28.4397 17.4671C28.5766 17.4103 28.7178 17.3518 28.8634 17.2917C29.0922 17.1969 29.3217 17.1014 29.5513 17.0052C30.4608 16.6413 31.0708 16.4044 31.2212 16.4044C31.2813 16.4044 31.9108 16.7773 32.1304 17.2215C32.6317 18.2398 33.6609 18.9085 34.7238 18.9085C35.686 18.9073 36.1898 18.3883 36.9187 16.6495C37.5321 15.1869 37.5367 15.1845 38.3662 15.4861C39.7789 16.0005 41.6504 16.2064 44.9208 16.2064H48.0594L48.1842 16.7393C48.318 17.1749 48.5099 17.5906 48.7548 17.9751C49.35 18.915 50.1767 19.2965 51.7053 19.3236C51.8283 19.338 51.9535 19.3458 52.0806 19.3458C55.0392 19.1157 58.1177 18.3712 60.4953 17.172C60.5951 17.1191 60.705 17.0635 60.8221 17.0052C61.5428 17.9478 63.2137 18.44 64.156 18.4182C67.1273 18.394 69.8338 17.7197 72.3034 16.7197C73.3619 19.3181 77.3186 18.9142 78.9973 18.5689C80.3933 18.2757 81.6372 17.7689 82.8147 17.1703C83.3856 17.7494 84.3255 18.1416 85.0043 18.2191C87.3696 18.4448 89.793 17.0804 91.606 16.0595L91.608 16.0588C91.8012 15.9498 91.9876 15.8448 92.1661 15.7461C92.7195 17.4858 94.5187 17.8306 96.1484 17.7219C96.2042 17.7197 96.2612 17.7167 96.3191 17.7133C96.7468 17.6924 97.1245 17.64 97.4453 17.5653C97.7152 17.5106 97.9927 17.4398 98.2743 17.3497C100.125 16.7562 101.082 16.2682 101.239 16.1844C102.132 15.8576 104.103 14.6928 104.846 12.6487C105.769 8.96561 107.278 5.72137 109.136 3.4224C109.719 2.70158 109.774 2.4428 109.453 1.9371C108.939 1.12748 107.803 0.594208 107.197 0.878206C106.128 1.37841 102.529 8.5897 101.571 12.1511C101.395 12.8039 100.787 13.8036 100.229 14.1511C100.083 14.2418 99.9206 14.3327 99.7459 14.4229C98.4098 15.0149 96.6879 15.6713 95.283 15.8547C95.1241 15.8566 94.9603 15.8606 94.7906 15.8669C94.8818 15.444 95.0809 15.0934 95.2693 14.7611C95.4479 14.4457 95.6176 14.1468 95.6774 13.8183C95.7617 13.2687 95.4311 12.8191 94.7729 12.4193C93.9958 11.9401 93.6996 12.0117 93.1786 12.1373C93.1022 12.1557 93.0216 12.1752 92.9333 12.1945C92.3182 12.3368 91.5539 12.2845 90.7829 12.2316C90.2001 12.1917 89.6133 12.1515 89.0826 12.1945C87.4266 12.3379 85.9569 12.8029 84.7071 13.5433C84.2676 13.8004 83.8535 14.0915 83.4689 14.4144L83.4091 14.4528C83.1855 14.5959 82.9765 14.7299 82.7851 14.8244C80.4541 15.9233 77.7355 17.0476 74.7561 17.0476C74.8994 16.851 74.9523 16.5535 75.0023 16.2662C75.0357 16.0791 75.067 15.8963 75.124 15.7484C75.1622 15.643 75.2113 15.5486 75.2594 15.4575C75.4045 15.1815 75.5321 14.9379 75.2779 14.5252C74.5598 13.3756 73.0804 13.5252 72.4112 13.9003C69.6215 15.3553 66.5739 16.2544 63.4386 16.547C63.8695 15.8509 64.4528 15.2608 65.1449 14.8209C65.2622 14.7438 65.4003 14.6832 65.5349 14.6242C65.9224 14.4542 66.28 14.2973 66.0229 13.7967C65.3377 12.4227 63.5992 12.6724 62.8946 13.0971C62.4963 13.338 61.9588 13.6879 61.4908 14.1192C59.92 15.1662 57.9111 15.7658 55.9589 16.3484L55.9566 16.3491C55.8768 16.3729 55.7969 16.3967 55.7174 16.4205C55.5434 16.4708 55.3673 16.5225 55.189 16.5749C52.5406 17.2903 51.1318 16.637 51.0178 16.5689C50.5132 16.2697 51.0075 13.8174 52.0922 11.2466L53.2601 8.46982L55.8015 8.60558C62.5849 8.96699 65.4245 9.30759 66.0945 9.84154C67.3432 10.8346 68.8681 10.5895 68.302 9.48592C67.341 7.60448 64.2912 6.69413 58.2148 6.47095L54.4027 6.33056L55.7519 4.0578C56.8458 2.20843 57.0343 1.67683 56.7512 1.23146C56.3814 0.648064 55.3695 -0.0101811 54.8589 0.000119368C54.6411 0.022584 54.4338 0.105085 54.2607 0.238304ZM86.4593 15.5958C86.4062 15.6356 86.3543 15.676 86.3033 15.717C87.4874 15.2999 88.5823 14.7622 89.6595 14.1751C88.5029 14.416 87.4119 14.9008 86.4593 15.5958Z" fill="url(#paint0_linear_202_18705)"/>
<path fill-rule="evenodd" clip-rule="evenodd" d="M18.1886 11.6531C20.3014 10.9159 22.2923 9.65812 23.8141 8.29247L23.8153 8.29483C23.8746 8.23941 23.9111 8.16406 23.918 8.08343C23.9249 8.00269 23.9015 7.92235 23.8526 7.8578C23.8035 7.79314 23.7322 7.74901 23.6523 7.73361C23.5724 7.71829 23.49 7.73292 23.4203 7.7746C21.8936 8.68722 20.209 9.40973 18.4821 9.85069C18.5335 9.194 18.5228 8.53311 18.4378 7.87594C18.2425 6.41671 17.747 4.95876 16.7166 3.84818C15.5752 2.58585 13.7015 2.11399 12.0842 2.61919C10.1411 3.1969 8.52161 4.94719 8.45921 7.03582C8.38062 9.78623 10.9429 12.0279 13.5502 12.2799C13.8543 12.3132 14.1611 12.3294 14.4696 12.3298C13.9888 13.3803 13.365 14.384 12.6974 15.3132C10.6476 11.9322 7.57448 9.16281 3.92155 7.64806C3.07077 7.28823 2.18879 7.00659 1.2865 6.80686C0.979227 6.74358 0.686964 6.68717 0.362327 6.65146C0.283547 6.64401 0.204669 6.6649 0.139919 6.71043C0.0752662 6.75584 0.0290575 6.82295 0.00963227 6.89936C-0.00979294 6.97589 -0.0010614 7.05671 0.034159 7.12734C0.0694777 7.19798 0.128932 7.25369 0.201826 7.28441C2.24117 8.29277 4.11169 9.60956 5.74674 11.1879C7.86567 13.2262 9.53495 15.6819 10.6483 18.3986C11.1393 19.5689 12.6791 19.9971 13.7096 19.2444C13.8678 19.1277 14.0123 18.9938 14.1405 18.845C15.0643 17.8438 15.8776 16.7465 16.5664 15.5723C17.2702 14.3723 17.8497 13.0394 18.1886 11.6531ZM13.6168 17.0135L13.6172 17.0142L13.6438 17.0683C13.6352 17.0498 13.6262 17.0315 13.6168 17.0135ZM15.1897 10.2667C15.3509 9.57768 15.4311 8.87704 15.4054 8.17172C15.3373 6.90585 14.8498 5.11749 13.3446 5.08992C12.0484 5.07491 10.8563 6.29939 11.227 7.5997C11.7759 9.49752 13.4151 10.1897 15.1897 10.2667Z" fill="url(#paint1_linear_202_18705)"/>
<path d="M24.8157 7.00138C24.9487 7.62057 25.1531 8.01298 25.7503 7.93352C26.2633 7.86564 26.686 7.3513 26.686 6.83686C26.686 6.32243 26.2609 5.98988 25.7503 6.07041C25.1022 6.17283 24.7072 6.49851 24.8157 7.00138Z" fill="url(#paint2_linear_202_18705)"/>
<path d="M104.556 16.7019C103.802 16.4148 103.075 16.1381 103.856 15.6826C104.408 15.3605 105.318 15.0803 106.307 14.7762C107.267 14.4811 108.299 14.1635 109.148 13.763C112.802 12.0409 114.548 11.6833 115.826 12.3944C117.436 13.2894 117.182 14.3412 115.26 14.7409C114.59 14.8802 113.075 15.4653 111.894 16.041C108.149 17.8659 107.028 18.0403 105.367 17.0562C105.152 16.9288 104.852 16.8145 104.556 16.7019Z" fill="url(#paint3_linear_202_18705)"/>
</g>
<defs>
<linearGradient id="paint0_linear_202_18705" x1="-0.000601492" y1="2.1549e-05" x2="6.40548" y2="38.1645" gradientUnits="userSpaceOnUse">
<stop stop-color="#44BCC3"/>
<stop offset="1" stop-color="#236D66"/>
</linearGradient>
<linearGradient id="paint1_linear_202_18705" x1="-0.000472683" y1="-5.67984e-05" x2="6.40561" y2="38.1643" gradientUnits="userSpaceOnUse">
<stop stop-color="#44BCC3"/>
<stop offset="1" stop-color="#236D66"/>
</linearGradient>
<linearGradient id="paint2_linear_202_18705" x1="-0.000405997" y1="3.56329e-05" x2="6.40567" y2="38.1644" gradientUnits="userSpaceOnUse">
<stop stop-color="#44BCC3"/>
<stop offset="1" stop-color="#236D66"/>
</linearGradient>
<linearGradient id="paint3_linear_202_18705" x1="-0.000813631" y1="4.30434e-06" x2="6.40529" y2="38.1645" gradientUnits="userSpaceOnUse">
<stop stop-color="#44BCC3"/>
<stop offset="1" stop-color="#236D66"/>
</linearGradient>
<clipPath id="clip0_202_18705">
<rect width="116.97" height="40" fill="white"/>
</clipPath>
</defs>
</svg>
