<svg width="137" height="36" viewBox="0 0 137 36" fill="none" xmlns="http://www.w3.org/2000/svg">
<g clip-path="url(#clip0_202_18560)">
<path d="M122.451 5.55353H125.555V13.2125C125.555 13.5469 125.666 13.7476 125.889 13.8145C126.111 13.8591 126.378 13.7253 126.69 13.4131C127.157 12.9226 127.669 12.5436 128.226 12.276C128.804 11.9861 129.449 11.8412 130.162 11.8412H131.63C132.587 11.8412 133.466 12.1199 134.267 12.6773C135.069 13.2348 135.703 14.004 136.17 14.9851C136.637 15.9438 136.871 17.0252 136.871 18.2292V28.9651H133.767V18.6306C133.767 17.8725 133.644 17.1924 133.4 16.5904C133.155 15.9661 132.799 15.4867 132.331 15.1523C131.864 14.7955 131.33 14.6172 130.729 14.6172H129.461C128.704 14.6172 128.025 14.8624 127.424 15.353C126.846 15.8435 126.39 16.5012 126.056 17.3262C125.722 18.1289 125.555 18.9985 125.555 19.9349V28.9651H122.451V5.55353Z" fill="#14A800"/>
<path d="M112.959 11.8412C114.338 11.8412 115.562 12.2202 116.631 12.9783C117.721 13.7364 118.567 14.7844 119.167 16.1222C119.791 17.4377 120.102 18.9093 120.102 20.5369C120.102 22.1423 119.802 23.6139 119.201 24.9517C118.6 26.2672 117.754 27.3152 116.664 28.0956C115.596 28.8536 114.372 29.2327 112.992 29.2327H112.091C111.512 29.2327 110.922 29.1101 110.322 28.8648C109.721 28.5972 109.176 28.2516 108.686 27.828C108.374 27.5827 108.107 27.5047 107.885 27.5939C107.685 27.6831 107.584 27.8949 107.584 28.2293V35.7879H104.48V12.1087H107.584V12.878C107.584 13.2124 107.696 13.4243 107.918 13.5134C108.141 13.6026 108.397 13.5246 108.686 13.2793C109.176 12.8334 109.71 12.4878 110.288 12.2425C110.889 11.975 111.49 11.8412 112.091 11.8412H112.959ZM111.523 14.5502C110.744 14.5502 110.032 14.8067 109.387 15.3195C108.764 15.81 108.263 16.5235 107.885 17.46C107.506 18.3741 107.317 19.3998 107.317 20.5369C107.317 21.6741 107.506 22.7109 107.885 23.6474C108.263 24.5615 108.764 25.275 109.387 25.7878C110.032 26.2784 110.744 26.5236 111.523 26.5236H112.725C113.459 26.5236 114.138 26.2784 114.761 25.7878C115.407 25.275 115.918 24.5615 116.297 23.6474C116.697 22.7109 116.898 21.6741 116.898 20.5369C116.898 19.3998 116.697 18.3741 116.297 17.46C115.918 16.5235 115.407 15.81 114.761 15.3195C114.138 14.8067 113.459 14.5502 112.725 14.5502H111.523Z" fill="#14A800"/>
<path d="M100.483 14.751C99.7706 14.751 99.1586 14.9963 98.6468 15.4868C98.1572 15.955 97.7789 16.557 97.5118 17.2928C97.2448 18.0063 97.1112 18.7087 97.1112 19.3999V28.9651H94.0068V12.1088H97.1112V13.0118C97.1112 13.3686 97.2114 13.5804 97.4117 13.6473C97.612 13.6919 97.8345 13.5804 98.0793 13.3129C98.4131 12.8892 98.7803 12.5882 99.1808 12.4098C99.6037 12.2092 100.127 12.1088 100.75 12.1088H102.786V14.751H100.483Z" fill="#14A800"/>
<path d="M83.1593 29.2327C81.7796 29.2327 80.5334 28.8648 79.4207 28.129C78.3302 27.3709 77.4623 26.3341 76.817 25.0186C76.1939 23.6808 75.8823 22.1869 75.8823 20.5369C75.8823 18.887 76.1939 17.4042 76.817 16.0887C77.4623 14.7509 78.3302 13.7141 79.4207 12.9783C80.5334 12.2202 81.7796 11.8412 83.1593 11.8412H84.3944C85.7519 11.8412 86.987 12.2202 88.0997 12.9783C89.2123 13.7141 90.0803 14.7509 90.7034 16.0887C91.3487 17.4042 91.6714 18.887 91.6714 20.5369C91.6714 22.1869 91.3487 23.6808 90.7034 25.0186C90.0803 26.3341 89.2123 27.3709 88.0997 28.129C87.0092 28.8648 85.7741 29.2327 84.3944 29.2327H83.1593ZM84.3944 26.5236C85.1288 26.5236 85.8075 26.2672 86.4306 25.7544C87.076 25.2416 87.5767 24.5281 87.9328 23.6139C88.2888 22.6997 88.4668 21.6741 88.4668 20.5369C88.4668 19.3998 88.2888 18.3853 87.9328 17.4934C87.5767 16.5793 87.076 15.8658 86.4306 15.3529C85.8075 14.8178 85.1177 14.5502 84.361 14.5502H83.1593C82.4027 14.5502 81.7128 14.8067 81.0897 15.3195C80.4666 15.8323 79.9659 16.5458 79.5876 17.46C79.2315 18.3518 79.0535 19.3775 79.0535 20.5369C79.0535 21.6964 79.2315 22.7332 79.5876 23.6474C79.9659 24.5392 80.4666 25.2416 81.0897 25.7544C81.7128 26.2672 82.4027 26.5236 83.1593 26.5236H84.3944Z" fill="#14A800"/>
<path d="M50.8027 5.55353H55.1088L61.5847 22.6774C61.7182 23.0342 61.9185 23.2126 62.1856 23.2126C62.4526 23.2126 62.6529 23.0342 62.7864 22.6774L69.2623 5.55353H73.6018V28.9651H70.3972L70.4306 13.6138C70.4306 13.3685 70.3527 13.2013 70.1969 13.1121C70.0634 13.0007 69.9076 12.9784 69.7296 13.0452C69.5738 13.0898 69.4626 13.2125 69.3958 13.4131L63.454 28.9651H60.8837L55.0087 13.4131C54.9197 13.2125 54.7862 13.0898 54.6081 13.0452C54.4524 12.9784 54.3077 13.0007 54.1742 13.1121C54.0407 13.2236 53.9739 13.3908 53.9739 13.6138L54.0073 28.9651H50.8027V5.55353Z" fill="#14A800"/>
<path fill-rule="evenodd" clip-rule="evenodd" d="M0 34.9212H12.4526V16.7789C12.4526 16.1973 13.2859 16.1039 13.4142 16.6711L16.3874 29.818H23.8589V25.3489C23.8589 25.0794 24.077 24.8611 24.3457 24.8611H36.1624V0.08255H23.7098V4.55169C23.7098 4.82106 23.4919 5.03943 23.223 5.03943H10.7837L11.8031 9.54714C11.8721 9.85226 11.6406 10.1427 11.3283 10.1427H0V34.9212Z" fill="#14A800"/>
</g>
<defs>
<clipPath id="clip0_202_18560">
<rect width="137" height="36" fill="white"/>
</clipPath>
</defs>
</svg>
