<svg width="170" height="28" viewBox="0 0 170 28" fill="none" xmlns="http://www.w3.org/2000/svg">
<g clip-path="url(#clip0_202_18486)">
<path d="M52.9428 2.71289H43.7741V5.00508H50.5056C51.8615 5.00508 52.9428 6.10277 52.9428 7.44257V9.44423C52.9428 10.8002 51.8615 11.8817 50.5056 11.8817H41.4819V9.58951H50.651V7.2973H43.9194C42.5634 7.2973 41.4819 6.19961 41.4819 4.85981V2.85817C41.4819 1.50222 42.5634 0.420685 43.9194 0.420685H52.9428V2.71289Z" fill="black"/>
<path d="M64.0581 0.420685C65.414 0.420685 66.5116 1.50222 66.5116 2.85817V9.44423C66.5116 10.8002 65.414 11.8817 64.0581 11.8817H57.004C55.6481 11.8817 54.5664 10.8002 54.5664 9.44423V2.85817C54.5664 1.50222 55.6481 0.420685 57.004 0.420685H64.0581ZM64.2034 2.71289H56.8587V9.58951H64.2034V2.71289Z" fill="black"/>
<path d="M70.5931 9.50878H79.5359V11.9786H69.7056C68.8337 11.9786 68.1235 11.2683 68.1235 10.3966V0.323853H70.5931V9.50878Z" fill="black"/>
<path d="M91.1027 0.420685C92.2004 0.420685 93.0883 1.29237 93.0883 2.39004V11.8817H90.7801V8.12056H83.4353V11.8817H81.1431V2.39004C81.1431 1.29237 82.0145 0.420685 83.1122 0.420685H91.1027ZM90.7801 2.71289H83.4353V5.82835H90.7801V2.71289Z" fill="black"/>
<path d="M104.338 0.420685H106.646V10.3966C106.646 11.2199 105.968 11.8817 105.145 11.8817H103.369C102.804 11.8979 102.304 11.5911 102.045 11.0907L97.5902 2.71289H96.9929V11.8817H94.7007V1.92191C94.7007 1.08252 95.3624 0.420685 96.1854 0.420685H98.0582C98.607 0.420685 99.1234 0.711245 99.3816 1.21166L103.837 9.58951H104.338V0.420685Z" fill="black"/>
<path d="M118.217 0.420685C119.315 0.420685 120.203 1.29237 120.203 2.39004V11.8817H117.894V8.12056H110.55V11.8817H108.258V2.39004C108.258 1.29237 109.129 0.420685 110.227 0.420685H118.217ZM117.894 2.71289H110.55V5.82835H117.894V2.71289Z" fill="black"/>
<path d="M52.717 17.7935H43.7741V20.0857H52.717V22.3779H43.7741V26.9623H41.4819V15.5013H52.717V17.7935Z" fill="black"/>
<path d="M63.8213 15.5013C65.1771 15.5013 66.2748 16.5829 66.2748 17.9388V24.5249C66.2748 25.8808 65.1771 26.9623 63.8213 26.9623H56.7667C55.4108 26.9623 54.3296 25.8808 54.3296 24.5249V17.9388C54.3296 16.5829 55.4108 15.5013 56.7667 15.5013H63.8213ZM63.9661 17.7935H56.6214V24.6701H63.9661V17.7935Z" fill="black"/>
<path d="M77.5227 15.5013H79.8314V23.1204C79.815 25.2513 78.104 26.9623 75.9731 26.9623H71.7276C69.5972 26.9623 67.8857 25.2513 67.8857 23.1204V15.5013H70.178V22.6524C70.178 23.7662 71.0819 24.6701 72.1961 24.6701H75.5051C76.6188 24.6701 77.5227 23.7662 77.5227 22.6524V15.5013Z" fill="black"/>
<path d="M91.0803 15.5013H93.3886V25.4772C93.3886 26.3005 92.7109 26.9623 91.8874 26.9623H90.112C89.5467 26.9785 89.0463 26.6718 88.7881 26.1714L84.3329 17.7935H83.7356V26.9623H81.4434V17.0026C81.4434 16.1632 82.1055 15.5013 82.9286 15.5013H84.8013C85.3497 15.5013 85.8666 15.7919 86.1248 16.2923L90.5799 24.6701H91.0803V15.5013Z" fill="black"/>
<path d="M103.088 15.5013C105.219 15.5013 106.93 17.2285 106.946 19.3432V23.1204C106.93 25.2513 105.219 26.9623 103.088 26.9623H95.0005V15.5013H103.088ZM104.637 19.8274C104.637 18.6975 103.734 17.7935 102.62 17.7935H97.2927V24.6701H102.62C103.734 24.6701 104.637 23.7662 104.637 22.6524V19.8274Z" fill="black"/>
<path d="M118.517 15.5013C119.615 15.5013 120.503 16.373 120.503 17.4707V26.9623H118.195V23.2012H110.85V26.9623H108.558V17.4707C108.558 16.373 109.429 15.5013 110.527 15.5013H118.517ZM118.195 17.7935H110.85V20.909H118.195V17.7935Z" fill="black"/>
<path d="M122.114 15.5013H133.575V17.7935H128.991V26.9623H126.698V17.7935H122.114V15.5013Z" fill="black"/>
<path d="M137.49 26.9623H135.198V15.5013H137.49V26.9623Z" fill="black"/>
<path d="M148.599 15.5013C149.955 15.5013 151.053 16.5829 151.053 17.9388V24.5249C151.053 25.8808 149.955 26.9623 148.599 26.9623H141.545C140.189 26.9623 139.107 25.8808 139.107 24.5249V17.9388C139.107 16.5829 140.189 15.5013 141.545 15.5013H148.599ZM148.744 17.7935H141.4V24.6701H148.744V17.7935Z" fill="black"/>
<path d="M162.302 15.5013H164.61V25.4772C164.61 26.3005 163.932 26.9623 163.109 26.9623H161.333C160.768 26.9785 160.268 26.6718 160.01 26.1714L155.554 17.7935H154.957V26.9623H152.665V17.0026C152.665 16.1632 153.327 15.5013 154.15 15.5013H156.023C156.571 15.5013 157.088 15.7919 157.346 16.2923L161.801 24.6701H162.302V15.5013Z" fill="black"/>
<mask id="mask0_202_18486" style="mask-type:luminance" maskUnits="userSpaceOnUse" x="0" y="0" width="30" height="28">
<path d="M29.6354 0.743408H0V27.2959H29.6354V0.743408Z" fill="white"/>
</mask>
<g mask="url(#mask0_202_18486)">
<path d="M29.4827 21.6782L24.5906 26.9343C24.4842 27.0485 24.3556 27.1395 24.2126 27.2018C24.0696 27.264 23.9153 27.296 23.7595 27.2959H0.567951C0.457291 27.2959 0.349045 27.2635 0.256508 27.2028C0.163971 27.142 0.0911771 27.0554 0.0470694 26.9537C0.00296128 26.8521 -0.0105391 26.7397 0.00822695 26.6305C0.026993 26.5212 0.0772079 26.4198 0.152702 26.3388L5.04859 21.0827C5.15466 20.9688 5.28293 20.8779 5.42547 20.8157C5.568 20.7535 5.72173 20.7213 5.8772 20.721H29.0674C29.1781 20.7211 29.2864 20.7534 29.3789 20.8142C29.4715 20.875 29.5442 20.9616 29.5884 21.0632C29.6325 21.1649 29.6459 21.2773 29.6272 21.3865C29.6084 21.4957 29.5582 21.5971 29.4827 21.6782ZM24.5906 11.0938C24.4842 10.9796 24.3556 10.8886 24.2126 10.8264C24.0696 10.7642 23.9153 10.7321 23.7595 10.7322H0.567951C0.457291 10.7322 0.349045 10.7646 0.256508 10.8254C0.163971 10.8862 0.0911771 10.9727 0.0470694 11.0744C0.00296128 11.1761 -0.0105391 11.2884 0.00822695 11.3977C0.026993 11.507 0.0772079 11.6083 0.152702 11.6894L5.04859 16.9455C5.15466 17.0594 5.28293 17.1502 5.42547 17.2124C5.568 17.2746 5.72173 17.3069 5.8772 17.3071H29.0674C29.1781 17.3071 29.2864 17.2748 29.3789 17.2139C29.4715 17.1532 29.5442 17.0666 29.5884 16.9649C29.6325 16.8633 29.6459 16.7509 29.6272 16.6416C29.6084 16.5324 29.5582 16.431 29.4827 16.35L24.5906 11.0938ZM0.567951 7.31834H23.7595C23.9153 7.31838 24.0696 7.28635 24.2126 7.2241C24.3556 7.16191 24.4842 7.07088 24.5906 6.95672L29.4827 1.70056C29.5582 1.61951 29.6084 1.51813 29.6272 1.40888C29.6459 1.29963 29.6325 1.18727 29.5884 1.0856C29.5442 0.983926 29.4715 0.897382 29.3789 0.836588C29.2864 0.7758 29.1781 0.743413 29.0674 0.743408H5.8772C5.72173 0.743673 5.568 0.775905 5.42547 0.838105C5.28293 0.900306 5.15466 0.991156 5.04859 1.10503L0.153964 6.36117C0.0785427 6.44215 0.0283502 6.54342 0.00954157 6.65255C-0.00926705 6.76168 0.00412619 6.87391 0.0480789 6.97555C0.0920312 7.07718 0.164632 7.16374 0.256978 7.22461C0.349324 7.28552 0.457401 7.31806 0.567951 7.31834Z" fill="url(#paint0_linear_202_18486)"/>
</g>
</g>
<defs>
<linearGradient id="paint0_linear_202_18486" x1="2.50158" y1="27.9288" x2="26.8706" y2="0.507055" gradientUnits="userSpaceOnUse">
<stop offset="0.08" stop-color="#9945FF"/>
<stop offset="0.3" stop-color="#8752F3"/>
<stop offset="0.5" stop-color="#5497D5"/>
<stop offset="0.6" stop-color="#43B4CA"/>
<stop offset="0.72" stop-color="#28E0B9"/>
<stop offset="0.97" stop-color="#19FB9B"/>
</linearGradient>
<clipPath id="clip0_202_18486">
<rect width="170" height="27.8763" fill="white"/>
</clipPath>
</defs>
</svg>
