<svg width="160" height="35" viewBox="0 0 160 35" fill="none" xmlns="http://www.w3.org/2000/svg">
<g clip-path="url(#clip0_202_18799)">
<path d="M39.7092 6.97495H41.3353C42.3941 6.97495 43.2639 7.84472 43.2639 8.90357V9.05484H43.3017C43.6043 7.40984 45.7787 6.57788 49.8817 6.57788C53.9848 6.57788 54.1739 7.0884 55.4218 8.10943C56.6697 9.13047 57.2937 10.454 57.2937 12.0423V19.9837C57.2937 21.1371 57.1235 22.1203 56.8021 22.9712C56.4617 23.822 56.0458 24.4838 55.4974 24.9754C55.0247 25.4292 54.3629 25.7885 53.5121 26.0532C52.6801 26.3179 51.8482 26.4881 51.0162 26.5826C50.2788 26.6582 49.3712 26.6961 48.2935 26.6961C47.2157 26.6961 46.0434 26.5637 45.0791 26.2801C44.1148 25.9965 43.5097 25.5994 43.2639 25.07V32.6899C43.2639 33.7488 42.3941 34.6185 41.3353 34.6185H39.6714V6.97495H39.7092ZM51.5835 23.9544C52.3209 23.7464 52.8314 23.3871 53.1528 22.8577C53.4743 22.3283 53.6255 21.5152 53.6255 20.4186V13.3092C53.6255 12.1179 53.4554 11.2293 53.1528 10.6431C52.8503 10.057 52.302 9.65989 51.5835 9.47081C50.846 9.26283 49.7872 9.16829 48.3691 9.16829C46.951 9.16829 45.911 9.26283 45.2114 9.47081C44.5119 9.6788 44.0202 10.057 43.7366 10.6242C43.453 11.1914 43.3017 12.099 43.3017 13.3092V20.4186C43.3017 21.5152 43.453 22.3283 43.7555 22.8577C44.0581 23.3871 44.5686 23.7653 45.2871 23.9544C46.0056 24.1624 47.0455 24.2569 48.4069 24.2569C49.7683 24.2569 50.846 24.1624 51.5835 23.9544Z" fill="#FD4C00"/>
<path d="M62.7754 6.97495H64.2502C65.3091 6.97495 66.1788 7.84472 66.1788 8.90357V10.1326C66.1788 9.52754 66.4436 8.94139 66.973 8.39306C67.5024 7.84472 68.1831 7.40984 69.015 7.06949C69.847 6.72915 70.6411 6.57788 71.4542 6.57788H73.2126V8.69558C73.2126 9.22501 72.7778 9.65989 72.2483 9.65989H71.2084C69.5067 9.65989 68.2776 9.88679 67.5213 10.3217C66.765 10.7566 66.3868 11.5507 66.3868 12.7041V24.3893C66.3868 25.4481 65.536 26.3179 64.4582 26.3179H62.7943V6.97495H62.7754Z" fill="#FD4C00"/>
<path d="M79.603 0H81.2669C81.7963 0 82.2312 0.434885 82.2312 0.964311V2.79839C82.2312 3.32782 81.7963 3.7627 81.2669 3.7627H79.603C79.0736 3.7627 78.6387 3.32782 78.6387 2.79839V0.964311C78.6387 0.434885 79.0736 0 79.603 0ZM78.6576 6.97707H80.3215C81.3803 6.97707 82.2501 7.84684 82.2501 8.9057V24.3725C82.2501 25.4313 81.3992 26.3011 80.3215 26.3011H78.6576V6.97707Z" fill="#FD4C00"/>
<path d="M87.7173 6.97495H89.3812C90.44 6.97495 91.3098 7.84472 91.3098 8.90357V9.33846C91.688 7.50438 93.8435 6.57788 97.8142 6.57788C101.785 6.57788 103.052 7.44765 103.846 9.2061C104.092 8.35524 104.81 7.71236 106.02 7.25857C107.23 6.80478 108.705 6.57788 110.464 6.57788C112.222 6.57788 114.548 7.03167 115.531 7.92035C116.514 8.80903 117.006 10.2082 117.006 12.1368V24.3893C117.006 25.4481 116.155 26.3179 115.077 26.3179H113.413V12.3827C113.413 11.8721 113.376 11.4751 113.3 11.1536C113.224 10.8322 113.054 10.5108 112.827 10.1893C112.298 9.52754 111.107 9.18719 109.272 9.18719C107.438 9.18719 106.814 9.28173 106.115 9.47081C105.415 9.65989 104.943 9.98133 104.697 10.4351C104.451 10.8889 104.319 11.5318 104.319 12.3827V24.3893C104.319 25.4481 103.468 26.3179 102.39 26.3179H100.726V12.3827C100.726 11.8721 100.688 11.4751 100.613 11.1536C100.537 10.8322 100.367 10.5108 100.14 10.1893C99.6105 9.52754 98.4382 9.18719 96.623 9.18719C94.8078 9.18719 94.0515 9.28173 93.3141 9.47081C92.5767 9.65989 92.0472 9.96242 91.7636 10.4162C91.48 10.8511 91.3287 11.5129 91.3287 12.3827V24.3893C91.3287 25.4481 90.4779 26.3179 89.4001 26.3179H87.7362V6.97495H87.7173Z" fill="#FD4C00"/>
<path d="M123.962 25.3575C122.959 24.4688 122.468 23.0696 122.468 21.141V6.97888H124.132C125.191 6.97888 126.06 7.84865 126.06 8.9075V20.9519C126.06 21.4625 126.098 21.8595 126.193 22.1621C126.287 22.4646 126.457 22.786 126.684 23.1075C127.157 23.8071 128.329 24.1474 130.201 24.1474C132.073 24.1474 133.548 23.9583 134.361 23.5802C135.136 23.202 135.514 22.5213 135.514 21.5381V6.97888H137.178C138.237 6.97888 139.107 7.84865 139.107 8.9075V24.3743C139.107 25.4331 138.256 26.3029 137.178 26.3029H135.514V23.9583C135.174 25.7924 133.056 26.7189 129.18 26.7189C125.304 26.7189 124.964 26.2651 123.98 25.3764L123.962 25.3575Z" fill="#FD4C00"/>
<path d="M144.972 26.2262V24.6001C144.972 24.0139 145.501 23.5602 146.087 23.6547C148.621 24.0518 150.493 24.2408 151.684 24.2408C153.386 24.2408 154.615 24.0707 155.352 23.7492C156.09 23.4089 156.468 22.8038 156.468 21.8962V19.9487C156.468 19.1168 156.184 18.5495 155.636 18.1903C155.088 17.831 154.18 17.6797 152.932 17.6797H150.739C148.735 17.6797 147.222 17.2638 146.163 16.4507C145.104 15.6188 144.594 14.4654 144.594 12.9716V11.1754C144.594 8.15008 147.468 6.61853 153.216 6.61853C158.964 6.61853 155.598 6.73198 159.077 6.93997V8.4148C159.077 9.00095 158.567 9.45474 157.981 9.3602C156.09 9.09549 154.445 8.96313 153.046 8.96313C151.646 8.96313 149.869 9.15221 149.17 9.53037C148.47 9.90853 148.13 10.5325 148.13 11.4023V13.0473C148.13 14.3519 149.321 14.9948 151.684 14.9948H153.915C157.981 14.9948 160.023 16.5074 160.023 19.5516V21.2345C160.023 23.2387 159.323 24.6568 157.943 25.4888C156.563 26.3207 154.445 26.7367 151.609 26.7367C148.772 26.7367 147.373 26.5854 145.01 26.264H144.991L144.972 26.2262Z" fill="#FD4C00"/>
<path d="M29.787 0.188538H4.26115C1.91655 0.188538 0.00683594 2.09825 0.00683594 4.44285V29.9687C0.00683594 32.3133 1.91655 34.223 4.26115 34.223H29.787C32.1316 34.223 34.0413 32.3133 34.0413 29.9687V4.44285C34.0413 2.09825 32.1316 0.188538 29.787 0.188538ZM9.36632 27.4161V28.7019C9.36632 29.4015 8.79908 29.9876 8.08058 29.9876H5.52799C4.82839 29.9876 4.24224 29.4204 4.24224 28.7019V26.1493C4.24224 25.4497 4.80948 24.8636 5.52799 24.8636H6.81374C7.98604 24.8636 8.76127 24.3341 9.12052 24.0316C9.12052 24.0316 12.1269 21.1009 12.4672 20.6849C12.6941 20.4202 13.1479 20.0231 13.1479 17.168C13.1479 14.3129 14.8686 13.3485 16.9674 13.3485C19.0662 13.3485 20.7868 15.0692 20.7868 17.168C20.7868 19.2668 18.9905 20.9874 16.9674 20.9874C14.9442 20.9874 14.2446 21.063 13.5828 21.7059L10.3874 24.9014C10.3874 24.9014 9.34742 25.8468 9.34742 27.3972L9.36632 27.4161ZM29.787 27.4161C29.787 28.8342 28.6336 29.9687 27.2344 29.9687H11.9189V27.4161C11.9189 25.998 13.0534 24.8636 14.4715 24.8636H24.6819V9.54803H9.36632C7.94822 9.54803 6.81374 8.41354 6.81374 6.99544V4.44285H27.2344C28.6525 4.44285 29.787 5.59624 29.787 6.99544V27.4161Z" fill="#FD4C00"/>
</g>
<defs>
<clipPath id="clip0_202_18799">
<rect width="160" height="34.6017" fill="white"/>
</clipPath>
</defs>
</svg>
