<svg width="77" height="40" viewBox="0 0 77 40" fill="none" xmlns="http://www.w3.org/2000/svg">
<g clip-path="url(#clip0_202_18513)">
<mask id="mask0_202_18513" style="mask-type:luminance" maskUnits="userSpaceOnUse" x="-1" y="0" width="78" height="40">
<path d="M76.228 0.0192261H-0.00146484V39.8553H76.228V0.0192261Z" fill="white"/>
</mask>
<g mask="url(#mask0_202_18513)">
<path d="M66.5823 24.7161C66.5823 25.8014 66.343 26.7047 65.8725 27.4014C65.4069 28.0997 64.8217 28.6243 64.1315 28.962C63.4479 29.2997 62.7659 29.4719 62.1069 29.4719C61.0118 29.4719 60.0971 29.0948 59.3922 28.3522C58.6905 27.6063 58.3364 26.5883 58.3364 25.326V13.9178H55.2446V25.5145C55.2446 27.0637 55.502 28.3686 56.0118 29.3948C56.5233 30.4194 57.2397 31.1997 58.1397 31.7129C59.0348 32.2161 60.0709 32.4719 61.2184 32.4719C62.6053 32.4719 63.7725 32.1424 64.6873 31.4932C65.5135 30.8997 66.1495 30.1801 66.5823 29.3522V32.2375H69.6741V13.9178H66.5823V24.7178V24.7161Z" fill="#1B88FF"/>
<path d="M50.633 20.6817C49.9215 20.1768 49.1641 19.7719 48.3821 19.4784C47.6198 19.1915 46.9182 18.962 46.2936 18.7965L43.8444 18.1374C43.4051 18.0227 42.9166 17.8702 42.3953 17.685C41.8772 17.4948 41.3739 17.2506 40.9035 16.962C40.4412 16.6702 40.0559 16.3048 39.7576 15.8736C39.4723 15.4425 39.328 14.9179 39.328 14.313C39.328 13.5867 39.5379 12.9293 39.9526 12.3605C40.3772 11.7851 40.9789 11.3261 41.7362 10.9966C42.5084 10.6638 43.4248 10.4949 44.4592 10.4949C45.8723 10.4949 47.0789 10.8162 48.0477 11.4523C49.0002 12.0769 49.551 12.9671 49.6854 14.0982L49.7018 14.2425H52.828L52.8215 14.0736C52.7821 12.8343 52.392 11.7113 51.6657 10.7375C50.9494 9.76705 49.9657 8.99328 48.7444 8.43755C47.5264 7.87525 46.1149 7.59164 44.5526 7.59164C42.9903 7.59164 41.5838 7.88017 40.3264 8.44902C39.0723 9.01296 38.0576 9.81787 37.31 10.8441C36.5657 11.8671 36.1887 13.0818 36.1887 14.4539C36.1887 16.1113 36.7592 17.4719 37.8821 18.4981C38.9887 19.5096 40.5084 20.2981 42.3985 20.8424L45.351 21.6866C46.1821 21.9178 46.9674 22.1915 47.6838 22.4997C48.3838 22.8014 48.9559 23.1965 49.3838 23.6768C49.7985 24.1424 50.01 24.7604 50.01 25.5129C50.01 26.3456 49.7625 27.0833 49.2723 27.7063C48.7772 28.3292 48.0936 28.8243 47.2428 29.1784C46.3854 29.5276 45.4002 29.7047 44.3182 29.7047C43.3887 29.7047 42.5067 29.5653 41.7018 29.2915C40.9117 29.0129 40.2477 28.5866 39.7313 28.0243C39.2264 27.4604 38.933 26.7358 38.8592 25.8702L38.8461 25.7211H35.5215L35.5346 25.8965C35.6297 27.2325 36.0461 28.4243 36.7723 29.4358C37.5051 30.4473 38.5198 31.2456 39.7903 31.8096C41.0625 32.3702 42.5871 32.6555 44.3198 32.6555C46.1789 32.6555 47.7838 32.3391 49.0871 31.7145C50.4051 31.0866 51.4215 30.2276 52.1051 29.1604C52.7985 28.0915 53.151 26.8801 53.151 25.5571C53.151 24.4079 52.91 23.4227 52.4362 22.6276C51.9657 21.8374 51.3592 21.1833 50.633 20.6801V20.6817Z" fill="#1B88FF"/>
<path d="M76.1334 9.20735C76.1334 8.6467 75.9186 8.16145 75.4973 7.76473C75.0842 7.36965 74.5826 7.16965 74.0022 7.16965C73.4219 7.16965 72.917 7.36965 72.4957 7.76637C72.0809 8.16309 71.8711 8.64834 71.8711 9.20899C71.8711 9.76965 72.0809 10.2533 72.4973 10.6516C72.917 11.0467 73.4236 11.2467 74.0039 11.2467C74.5842 11.2467 75.0383 11.0647 75.4383 10.7074L75.4563 10.691C75.4711 10.6778 75.4859 10.6647 75.5006 10.65L75.5596 10.5926C75.9432 10.2057 76.1367 9.74014 76.1367 9.20735H76.1334Z" fill="#1B88FF"/>
<path d="M75.523 13.9159H72.4312V32.2356H75.523V13.9159Z" fill="#1B88FF"/>
<path fill-rule="evenodd" clip-rule="evenodd" d="M24.9067 16.6125C26.5297 18.6502 27.5002 21.2273 27.5002 24.0306C27.5002 26.8338 26.5002 29.4896 24.8346 31.5388L24.6903 31.7158L24.6526 31.4912C24.6198 31.3011 24.5821 31.1076 24.5379 30.9142C23.7035 27.2486 20.9854 24.106 16.5117 21.5601C13.4903 19.8453 11.7608 17.783 11.3067 15.4371C11.0133 13.9207 11.2313 12.3978 11.6526 11.0929C12.0739 9.7896 12.7002 8.69616 13.233 8.03878L14.9739 5.91091C15.2789 5.53714 15.851 5.53714 16.1559 5.91091L24.9084 16.6125H24.9067ZM27.6592 14.4863L15.9936 0.224026C15.7707 -0.0481046 15.3543 -0.0481046 15.1313 0.224026L3.46739 14.4863L3.42968 14.5339C1.28378 17.1978 -0.00146484 20.583 -0.00146484 24.2683C-0.00146484 32.8502 6.96739 39.8076 15.5625 39.8076C24.1576 39.8076 31.1264 32.8502 31.1264 24.2683C31.1264 20.583 29.8412 17.1978 27.6953 14.5355L27.6576 14.488L27.6592 14.4863ZM6.25919 16.5666L7.30181 15.2896L7.33296 15.5257C7.35755 15.7126 7.3887 15.8994 7.42476 16.088C8.10017 19.6306 10.5116 22.583 14.5428 24.8699C18.0477 26.865 20.0887 29.1584 20.6756 31.6732C20.9215 32.7224 20.9641 33.7552 20.8576 34.6584L20.851 34.7142L20.8002 34.7388C19.2182 35.5109 17.4395 35.9453 15.5608 35.9453C8.96903 35.9453 3.62476 30.6109 3.62476 24.0289C3.62476 21.2027 4.61001 18.6076 6.25591 16.5634L6.25919 16.5666Z" fill="#1B88FF"/>
</g>
</g>
<defs>
<clipPath id="clip0_202_18513">
<rect width="76.2295" height="40" fill="white"/>
</clipPath>
</defs>
</svg>
