<svg width="160" height="40" viewBox="0 0 160 40" fill="none" xmlns="http://www.w3.org/2000/svg">
<path d="M25.3414 0H33.3062C34.3928 0 35.365 0.630983 35.7444 1.58243L42.7355 19.1177C42.7894 19.253 42.79 19.4018 42.7373 19.5375L42.6981 19.6382L42.6977 19.6392L35.736 37.54C35.3623 38.501 34.3849 39.1408 33.2906 39.1408H25.327C24.8791 39.1408 24.5653 38.7278 24.7129 38.3327L31.8913 19.1177L24.7304 0.816468C24.5753 0.419918 24.8895 0 25.3414 0Z" fill="black"/>
<path d="M4.54998 0H12.5148C13.6014 0 14.5736 0.630983 14.953 1.58243L21.9441 19.1177C21.998 19.253 21.9986 19.4018 21.9459 19.5375L21.9067 19.6382L21.9063 19.6392L14.9446 37.54C14.5709 38.501 13.5936 39.1408 12.4992 39.1408H4.53561C4.08777 39.1408 3.7739 38.7278 3.92149 38.3327L11.0999 19.1177L3.93907 0.816468C3.78391 0.419918 4.09811 0 4.54998 0Z" fill="black"/>
<path d="M30.7461 15.3799H19.5024V23.8627H30.7461L32.5833 19.5001L30.7461 15.3799Z" fill="black"/>
<path d="M21.4567 0H29.4216C30.5082 0 31.4804 0.630983 31.8597 1.58243L38.8508 19.1177C38.9048 19.253 38.9054 19.4018 38.8527 19.5375L38.8135 19.6382L38.8131 19.6392L31.8514 37.54C31.4777 38.501 30.5003 39.1408 29.406 39.1408H21.4424C20.9945 39.1408 20.6806 38.7278 20.8282 38.3327L28.0066 19.1177L20.8458 0.816468C20.6907 0.419918 21.0049 0 21.4567 0Z" fill="black"/>
<path d="M0.665361 0H8.6302C9.71683 0 10.689 0.630983 11.0684 1.58243L18.0594 19.1177C18.1134 19.253 18.114 19.4018 18.0612 19.5375L18.0221 19.6382L18.0217 19.6392L11.06 37.54C10.6863 38.501 9.70893 39.1408 8.61463 39.1408H0.650991C0.203152 39.1408 -0.110721 38.7278 0.0368726 38.3327L7.21527 19.1177L0.0544501 0.816468C-0.10071 0.419918 0.213488 0 0.665361 0Z" fill="black"/>
<path d="M26.8614 15.3799H15.6178V23.8627H26.8614L28.6986 19.5001L26.8614 15.3799Z" fill="black"/>
<path d="M55.0586 27.9058V10.9007H58.5072V17.56H65.1903V10.9007H68.6389V27.9058H65.1903V20.4141H58.5072V27.9058H55.0586Z" fill="black"/>
<path d="M71.2471 31.9014V29.3566H72.3887C73.5937 29.3566 74.1962 28.8017 74.1962 27.6918C74.1962 27.1527 73.8871 26.0507 73.2687 24.3859L69.9866 15.7049H73.3876L75.1951 21.1989L75.98 23.8626H76.0276C76.2495 22.832 76.4874 21.9441 76.7411 21.1989L78.4535 15.7049H81.7118L77.4546 28.215C76.9789 29.6103 76.4398 30.5696 75.8373 31.0928C75.2506 31.6319 74.3548 31.9014 73.1498 31.9014H71.2471Z" fill="black"/>
<path d="M82.8075 31.9014V15.7049H85.9231V17.2271H85.9945C86.8982 15.9903 88.0953 15.372 89.5858 15.372C91.1872 15.372 92.4715 15.9666 93.4387 17.1557C94.4059 18.3449 94.8895 19.8987 94.8895 21.8173C94.8895 23.7834 94.4059 25.3531 93.4387 26.5264C92.4715 27.6838 91.1951 28.2626 89.6095 28.2626C88.024 28.2626 86.8507 27.6838 86.0896 26.5264H86.042V31.9014H82.8075ZM88.9198 25.5751C89.7443 25.5751 90.3944 25.25 90.8701 24.5999C91.3616 23.9499 91.6074 23.054 91.6074 21.9124C91.6074 20.6915 91.3774 19.7323 90.9176 19.0346C90.4578 18.337 89.7522 17.9881 88.8009 17.9881C87.8337 17.9881 87.1202 18.3528 86.6604 19.0822C86.2006 19.7957 85.9707 20.7391 85.9707 21.9124C85.9707 23.0382 86.2244 23.934 86.7318 24.5999C87.2391 25.25 87.9685 25.5751 88.9198 25.5751Z" fill="black"/>
<path d="M102.126 28.2626C100.16 28.2626 98.6145 27.6601 97.4887 26.455C96.363 25.2342 95.8001 23.6803 95.8001 21.7935C95.8001 19.9701 96.363 18.448 97.4887 17.2271C98.6145 15.9903 100.057 15.372 101.817 15.372C103.736 15.372 105.218 16.0379 106.265 17.3698C107.311 18.7016 107.835 20.4854 107.835 22.721H98.9871C99.1139 23.6882 99.439 24.4414 99.9622 24.9805C100.485 25.5037 101.199 25.7653 102.103 25.7653C103.292 25.7653 104.077 25.2659 104.457 24.267H107.644C107.406 25.4086 106.804 26.3599 105.837 27.121C104.87 27.882 103.633 28.2626 102.126 28.2626ZM101.865 17.8692C100.295 17.8692 99.3518 18.7413 99.0346 20.4854H104.457C104.41 19.7085 104.148 19.0822 103.672 18.6065C103.197 18.115 102.594 17.8692 101.865 17.8692Z" fill="black"/>
<path d="M112.447 15.7049V17.6552H112.519C112.899 16.9417 113.319 16.4184 113.779 16.0855C114.239 15.7367 114.818 15.5622 115.515 15.5622C115.848 15.5622 116.102 15.594 116.276 15.6574V18.4876H116.205C115.111 18.3766 114.231 18.6144 113.565 19.2011C112.899 19.7878 112.566 20.7074 112.566 21.96V27.9058H109.332V15.7049H112.447Z" fill="black"/>
<path d="M117.717 27.9058V10.9007H120.952V27.9058H117.717Z" fill="black"/>
<path d="M130.763 27.9058C130.605 27.6997 130.478 27.2478 130.383 26.5502H130.335C129.986 27.0734 129.542 27.4777 129.003 27.7631C128.464 28.0485 127.711 28.1912 126.744 28.1912C125.46 28.1912 124.429 27.8662 123.652 27.2161C122.875 26.566 122.487 25.6464 122.487 24.4572C122.487 23.2205 122.915 22.3167 123.771 21.7459C124.627 21.1593 125.832 20.7549 127.386 20.533C128.528 20.3744 129.305 20.2159 129.717 20.0573C130.129 19.8829 130.335 19.5816 130.335 19.1535C130.335 18.7096 130.161 18.3608 129.812 18.1071C129.463 17.8375 128.956 17.7027 128.29 17.7027C126.815 17.7027 126.03 18.2735 125.935 19.4152H123.058C123.105 18.2577 123.573 17.2984 124.461 16.5374C125.349 15.7763 126.633 15.3958 128.314 15.3958C131.738 15.3958 133.451 16.8941 133.451 19.8908V26.0983C133.451 27.0179 133.594 27.5808 133.879 27.7869V27.9058H130.763ZM127.529 25.9318C128.417 25.9318 129.114 25.7019 129.622 25.2421C130.145 24.7823 130.407 24.2353 130.407 23.601V21.7697C130.058 21.9758 129.305 22.2137 128.147 22.4832C127.228 22.6893 126.577 22.9272 126.197 23.1967C125.816 23.4504 125.626 23.8468 125.626 24.3859C125.626 25.4165 126.26 25.9318 127.529 25.9318Z" fill="black"/>
<path d="M138.67 15.7049V17.3698H138.742C139.582 16.0379 140.787 15.372 142.357 15.372C143.609 15.372 144.624 15.8001 145.401 16.6563C146.178 17.4966 146.567 18.5907 146.567 19.9384V27.9058H143.332V20.4141C143.332 19.7481 143.142 19.209 142.761 18.7968C142.396 18.3845 141.881 18.1784 141.215 18.1784C140.502 18.1784 139.907 18.44 139.431 18.9633C138.972 19.4865 138.742 20.1604 138.742 20.9849V27.9058H135.507V15.7049H138.67Z" fill="black"/>
<path d="M154.292 28.2626C152.326 28.2626 150.78 27.6601 149.654 26.455C148.529 25.2342 147.966 23.6803 147.966 21.7935C147.966 19.9701 148.529 18.448 149.654 17.2271C150.78 15.9903 152.223 15.372 153.983 15.372C155.901 15.372 157.384 16.0379 158.43 17.3698C159.477 18.7016 160 20.4854 160 22.721H151.153C151.279 23.6882 151.604 24.4414 152.128 24.9805C152.651 25.5037 153.364 25.7653 154.268 25.7653C155.457 25.7653 156.242 25.2659 156.623 24.267H159.81C159.572 25.4086 158.969 26.3599 158.002 27.121C157.035 27.882 155.798 28.2626 154.292 28.2626ZM154.03 17.8692C152.461 17.8692 151.517 18.7413 151.2 20.4854H156.623C156.575 19.7085 156.314 19.0822 155.838 18.6065C155.362 18.115 154.76 17.8692 154.03 17.8692Z" fill="black"/>
</svg>
