<svg width="104" height="40" viewBox="0 0 104 40" fill="none" xmlns="http://www.w3.org/2000/svg">
<path d="M56.5002 12.5C57.2406 13.2032 57.8183 14.0599 58.1926 15.0101C58.5668 15.9602 58.7287 16.9807 58.6668 18V30.3333H55.5002V19C55.6532 17.4616 55.2383 15.9203 54.3335 14.6667C53.8682 14.2227 53.3189 13.8761 52.7179 13.6472C52.1169 13.4182 51.4763 13.3115 50.8335 13.3333C49.8463 13.2971 48.8676 13.5274 48.0002 14C47.0365 14.4919 46.2286 15.242 45.6668 16.1667C45.0997 17.364 44.8146 18.6753 44.8335 20V30.3333H41.8335V11.6667L44.6668 12.8333V14C45.2447 12.887 46.1856 12.0049 47.3335 11.5C48.5378 10.9538 49.8444 10.6697 51.1668 10.6667C53.1082 10.6101 55.0039 11.2617 56.5002 12.5Z" fill="#000033"/>
<path d="M80.5005 21.8329H66.0005C66.0165 22.6785 66.2018 23.5123 66.5453 24.2852C66.8888 25.0581 67.3836 25.7543 68.0005 26.3329C68.5642 26.9009 69.2418 27.3431 69.9887 27.6304C70.7356 27.9176 71.5348 28.0434 72.3339 27.9995C73.5293 27.972 74.712 27.7467 75.8339 27.3329C76.6997 26.8718 77.3558 26.0964 77.6672 25.1662L80.3339 26.4995C79.5407 27.7884 78.4561 28.8731 77.1672 29.6662C75.6649 30.3981 74.0032 30.7419 72.3339 30.6662C71.0703 30.7371 69.8063 30.5358 68.6273 30.0757C67.4484 29.6156 66.382 28.9076 65.5005 27.9995C64.617 27.0049 63.9407 25.844 63.5115 24.5848C63.0822 23.3256 62.9085 21.9934 63.0005 20.6662C62.87 18.0205 63.6985 15.4166 65.3339 13.3329C66.2015 12.4064 67.2656 11.6859 68.4481 11.2245C69.6305 10.763 70.9014 10.5723 72.1672 10.6662C73.7507 10.5908 75.3198 10.9976 76.6672 11.8329C77.9907 12.6034 79.0398 13.7691 79.6672 15.1662C80.3464 16.5678 80.6889 18.1088 80.6672 19.6662C80.6947 20.3924 80.6388 21.1194 80.5005 21.8329ZM68.0005 14.8329C66.9172 16.0459 66.2208 17.5548 66.0005 19.1662H77.6672C77.6344 17.5715 77.0448 16.0385 76.0005 14.8329C75.4928 14.3413 74.8925 13.9556 74.2344 13.6981C73.5763 13.4406 72.8737 13.3165 72.1672 13.3329C71.4066 13.2805 70.6435 13.3867 69.9262 13.645C69.2089 13.9032 68.5532 14.3077 68.0005 14.8329Z" fill="#000033"/>
<path d="M101.167 13.333C102.803 15.4168 103.631 18.0207 103.501 20.6664C103.662 23.316 102.83 25.9307 101.167 27.9997C100.286 28.9077 99.2194 29.6158 98.0404 30.0758C96.8615 30.5359 95.5974 30.7373 94.3339 30.6664C93.0669 30.7726 91.7924 30.5875 90.608 30.1253C89.4236 29.6631 88.3606 28.936 87.5005 27.9997C86.617 27.0051 85.9407 25.8442 85.5115 24.585C85.0822 23.3258 84.9085 21.9935 85.0005 20.6664C84.8512 17.9902 85.7476 15.3607 87.5005 13.333C88.3606 12.3967 89.4236 11.6696 90.608 11.2074C91.7924 10.7452 93.0669 10.5601 94.3339 10.6664C95.5974 10.5954 96.8615 10.7968 98.0404 11.2569C99.2194 11.7169 100.286 12.425 101.167 13.333ZM89.6672 15.333C88.4605 16.8378 87.8654 18.7422 88.0005 20.6664C87.8305 22.5944 88.4296 24.5115 89.6672 25.9997C90.244 26.6632 90.9634 27.1877 91.7715 27.534C92.5796 27.8804 93.4556 28.0395 94.3339 27.9997C95.1861 28.0263 96.0333 27.8603 96.8125 27.5141C97.5916 27.1678 98.2826 26.6501 98.8339 25.9997C100.071 24.5115 100.671 22.5944 100.501 20.6664C100.636 18.7422 100.041 16.8378 98.8339 15.333C98.2826 14.6826 97.5916 14.1649 96.8125 13.8187C96.0333 13.4724 95.1861 13.3064 94.3339 13.333C93.4556 13.2932 92.5796 13.4523 91.7715 13.7987C90.9634 14.145 90.244 14.6695 89.6672 15.333Z" fill="#000033"/>
<path d="M0 7V33.6667L17.3333 40V13L36.1667 6L19 0L0 7Z" fill="#00E599"/>
<path d="M18.6675 14V28.3333L36.1675 34.6667V7.5L18.6675 14Z" fill="#00AF92"/>
</svg>
