<svg width="125" height="40" viewBox="0 0 125 40" fill="none" xmlns="http://www.w3.org/2000/svg">
<g clip-path="url(#clip0_202_18731)">
<mask id="mask0_202_18731" style="mask-type:luminance" maskUnits="userSpaceOnUse" x="-1" y="0" width="126" height="40">
<path d="M124.74 0H-0.000488281V39.8699H124.74V0Z" fill="white"/>
</mask>
<g mask="url(#mask0_202_18731)">
<path d="M84.0304 13.0661H76.7954V39.3345H84.0304V13.0661Z" fill="#BFF009"/>
<path d="M111.069 12.7891C103.647 12.7799 98.4577 17.5612 97.5315 24.3422C96.7647 29.6388 98.887 35.3523 103.509 38.1126C107.634 40.7102 114.083 40.5384 117.568 36.9348V39.3271H124.747V26.4645C124.747 18.9107 118.622 12.786 111.069 12.786V12.7891ZM111.069 33.1289C107.388 33.1289 104.407 30.1449 104.407 26.4675C104.407 22.7903 107.392 19.8062 111.069 19.8062C114.746 19.8062 117.73 22.7903 117.73 26.4675C117.73 30.1449 114.746 33.1289 111.069 33.1289Z" fill="#BFF009"/>
<path d="M48.3195 9.89695C48.3195 8.30827 49.6137 7.01404 51.2024 7.01404H56.361V0H51.2024C45.737 0 41.3053 4.4317 41.3053 9.89695C41.3053 11.3231 41.609 12.6786 42.1518 13.9023C37.9073 15.6965 35.0887 19.5087 34.4324 24.3329C33.6656 29.6295 35.7879 35.3431 40.4099 38.1034C44.5349 40.701 50.9847 40.5292 54.4685 36.9256V39.3179H61.6484V12.7798H51.2054C49.6167 12.7798 48.3224 11.4856 48.3224 9.89695H48.3195ZM54.6279 19.7969V26.4583C54.6279 30.1387 51.6439 33.1197 47.9666 33.1197C44.2896 33.1197 41.3053 30.1354 41.3053 26.4583C41.3053 22.781 44.2896 19.7969 47.9666 19.7969H54.6279Z" fill="#BFF009"/>
<path d="M80.4456 0C79.2832 0 78.3235 0.398699 77.5629 1.1961C76.8023 1.9935 76.4219 2.95651 76.4219 4.07899C76.4219 5.20148 76.8023 6.21052 77.5629 6.98951C78.3235 7.7685 79.2832 8.15799 80.4456 8.15799C81.608 8.15799 82.6109 7.7685 83.3561 6.98951C84.0983 6.21052 84.4725 5.24136 84.4725 4.07899C84.4725 2.91664 84.1016 1.9935 83.3561 1.1961C82.6139 0.398699 81.6417 0 80.4456 0Z" fill="#BFF009"/>
<path d="M17.7877 13.0528L8.6881 22.7903H7.12396V21.9837V0H-0.000488281V39.3209H7.12396V29.5835H8.6881L17.7877 39.3209H26.4885L14.1779 26.1853L26.4885 13.0528H17.7877Z" fill="#BFF009"/>
</g>
</g>
<defs>
<clipPath id="clip0_202_18731">
<rect width="124.741" height="40" fill="white"/>
</clipPath>
</defs>
</svg>
