<svg width="160" height="23" viewBox="0 0 160 23" fill="none" xmlns="http://www.w3.org/2000/svg">
<path d="M4.48449 1.36039C4.48449 0.653265 5.05814 0.0800149 5.76577 0.0800149H12.1722C12.8798 0.0800149 13.4535 0.653265 13.4535 1.36039V16.725C13.4535 17.4321 14.0272 18.0054 14.7348 18.0054H16.6567C17.3643 18.0054 17.938 17.4321 17.938 16.725V1.36039C17.938 0.653265 18.5116 0.0800149 19.2193 0.0800149H21.1412C21.8488 0.0800149 22.4225 0.653265 22.4225 1.36039V17.3652C22.4225 18.0723 21.8488 18.6456 21.1412 18.6456H19.2193C18.5116 18.6456 17.938 19.2188 17.938 19.9259V21.2063C17.938 21.9134 17.3643 22.4867 16.6567 22.4867H10.2503C9.54263 22.4867 8.96901 21.9134 8.96901 21.2063V5.84172C8.96901 5.13459 8.39536 4.56134 7.68769 4.56134H5.76577C5.05814 4.56134 4.48449 5.13459 4.48449 5.84172V21.2063C4.48449 21.9134 3.91083 22.4867 3.20321 22.4867H1.28128C0.573653 22.4867 0 21.9134 0 21.2063V5.28158C0 4.57442 0.573653 4.00117 1.28128 4.00117H3.20321C3.91083 4.00117 4.48449 3.42796 4.48449 2.72079V1.36039ZM31.3916 1.28038C31.3916 0.57325 31.9652 0 32.6728 0H48.0482C48.7559 0 49.3295 0.57325 49.3295 1.28038V3.20095C49.3295 3.90808 48.7559 4.48133 48.0482 4.48133H32.6728C31.9652 4.48133 31.3916 5.05458 31.3916 5.76171V7.68228C31.3916 8.38941 31.9652 8.96266 32.6728 8.96266H48.0482C48.7559 8.96266 49.3295 9.53591 49.3295 10.243V12.1636C49.3295 12.8707 48.7559 13.444 48.0482 13.444H32.6728C31.9652 13.444 31.3916 14.0172 31.3916 14.7244V16.6449C31.3916 17.3521 31.9652 17.9253 32.6728 17.9253H48.0482C48.7559 17.9253 49.3295 18.4986 49.3295 19.2057V21.1263C49.3295 21.8334 48.7559 22.4067 48.0482 22.4067H32.6728C31.9652 22.4067 31.3916 21.8334 31.3916 21.1263V19.8459C31.3916 19.1388 30.8179 18.5655 30.1103 18.5655H28.1882C27.4806 18.5655 26.907 17.9923 26.907 17.2851V5.12152C26.907 4.41439 27.4806 3.84114 28.1882 3.84114H30.1103C30.8179 3.84114 31.3916 3.26789 31.3916 2.56076V1.28038Z" fill="black"/>
<path fill-rule="evenodd" clip-rule="evenodd" d="M59.5802 0C58.8726 0 58.2989 0.57325 58.2989 1.28038V2.56076C58.2989 3.26789 57.7253 3.84114 57.0177 3.84114H55.0957C54.3881 3.84114 53.8145 4.41439 53.8145 5.12152V21.1263C53.8145 21.8334 54.3881 22.4067 55.0957 22.4067H57.0177C57.7253 22.4067 58.2989 21.8334 58.2989 21.1263V19.5258C58.2989 18.8187 58.8726 18.2454 59.5802 18.2454H61.5021C62.2098 18.2454 62.7834 18.8187 62.7834 19.5258V21.1263C62.7834 21.8334 63.357 22.4067 64.0647 22.4067H74.9556C75.6633 22.4067 76.2369 21.8334 76.2369 21.1263V19.2057C76.2369 18.4986 75.6633 17.9253 74.9556 17.9253H64.3849C63.6772 17.9253 63.1036 17.3521 63.1036 16.6449V14.7244C63.1036 14.0172 63.6772 13.444 64.3849 13.444H70.4711C71.1788 13.444 71.7524 12.8707 71.7524 12.1636V10.4031C71.7524 9.69598 72.326 9.12273 73.0337 9.12273H74.9556C75.6633 9.12273 76.2369 8.54948 76.2369 7.84235V5.12152C76.2369 4.41439 75.6633 3.84114 74.9556 3.84114H73.0337C72.326 3.84114 71.7524 3.26789 71.7524 2.56076V1.28038C71.7524 0.57325 71.1788 0 70.4711 0H59.5802ZM58.2989 11.8435C58.2989 12.5506 58.8726 13.1239 59.5802 13.1239H61.5021C62.2098 13.1239 62.7834 12.5506 62.7834 11.8435V10.243C62.7834 9.53591 63.357 8.96266 64.0647 8.96266H70.4711C71.1788 8.96266 71.7524 8.38941 71.7524 7.68228V5.76171C71.7524 5.05458 71.1788 4.48133 70.4711 4.48133H59.5802C58.8726 4.48133 58.2989 5.05458 58.2989 5.76171V11.8435ZM86.4872 0C85.7795 0 85.2059 0.57325 85.2059 1.28038V2.56076C85.2059 3.26789 84.6322 3.84114 83.9246 3.84114H82.0027C81.295 3.84114 80.7214 4.41439 80.7214 5.12152V17.2851C80.7214 17.9923 81.295 18.5655 82.0027 18.5655H83.9246C84.6322 18.5655 85.2059 19.1388 85.2059 19.8459V21.1263C85.2059 21.8334 85.7795 22.4067 86.4872 22.4067H97.3781C98.0857 22.4067 98.6593 21.8334 98.6593 21.1263V19.8459C98.6593 19.1388 99.2329 18.5655 99.9406 18.5655H101.863C102.57 18.5655 103.144 17.9923 103.144 17.2851V5.12152C103.144 4.41439 102.57 3.84114 101.863 3.84114H99.9406C99.2329 3.84114 98.6593 3.26789 98.6593 2.56076V1.28038C98.6593 0.57325 98.0857 0 97.3781 0H86.4872ZM98.6593 5.76171C98.6593 5.05458 98.0857 4.48133 97.3781 4.48133H86.4872C85.7795 4.48133 85.2059 5.05458 85.2059 5.76171V16.6449C85.2059 17.3521 85.7795 17.9253 86.4872 17.9253H97.3781C98.0857 17.9253 98.6593 17.3521 98.6593 16.6449V5.76171Z" fill="black"/>
<path d="M149.461 16.0528V6.19383H151.843L155.663 15.7711V6.19383H156.903V16.0528H154.437L150.702 6.54595V16.0528H149.461ZM142.239 16.0528V14.8838H144.296V7.36281H142.239V6.19383H147.622V7.36281H145.565V14.8838H147.622V16.0528H142.239ZM140.022 16.0528L139.261 13.5035H135.118L134.357 16.0528H132.989L136.062 6.19383H138.345L141.389 16.0528H140.022ZM135.456 12.3768H138.923L137.189 6.54595L135.456 12.3768ZM130.455 16.0528V11.5881H125.733V16.0528H124.465V6.19383H125.733V10.3909H130.455V6.19383H131.723V16.0528H130.455ZM118.94 16.1795C116.46 16.1795 115.05 14.6584 115.05 11.9684V10.2783C115.05 7.58818 116.46 6.06708 118.94 6.06708C121.294 6.06708 122.605 7.46142 122.774 9.6163H121.491C121.336 8.25014 120.674 7.26423 118.94 7.26423C117.037 7.26423 116.319 8.43321 116.319 10.2783V11.9684C116.319 13.8134 117.037 14.9824 118.94 14.9824C120.631 14.9824 121.336 14.0528 121.463 12.743H122.745C122.562 14.8415 121.266 16.1795 118.94 16.1795Z" fill="#848484"/>
<path fill-rule="evenodd" clip-rule="evenodd" d="M114.354 2.32068H157.597C158.924 2.32068 160 3.39554 160 4.72141V17.5252C160 18.8511 158.924 19.9259 157.597 19.9259H114.354C113.027 19.9259 111.952 18.8511 111.952 17.5252V4.72141C111.952 3.39554 113.027 2.32068 114.354 2.32068ZM114.354 3.44103C113.646 3.44103 113.073 4.01428 113.073 4.72141V17.5252C113.073 18.2323 113.646 18.8056 114.354 18.8056H157.597C158.305 18.8056 158.879 18.2323 158.879 17.5252V4.72141C158.879 4.01428 158.305 3.44103 157.597 3.44103H114.354Z" fill="#848484"/>
</svg>
