<svg width="160" height="38" viewBox="0 0 160 38" fill="none" xmlns="http://www.w3.org/2000/svg">
<path fill-rule="evenodd" clip-rule="evenodd" d="M2.35303 13.2267C2.35303 19.0318 7.07666 23.7496 12.876 23.7496C18.6753 23.7496 23.3989 19.0318 23.3989 13.2267C23.3989 7.42154 18.6753 2.70373 12.876 2.70373C7.07666 2.70373 2.35303 7.42154 2.35303 13.2267ZM5.86068 13.2267C5.86068 9.3566 9.00587 6.21139 12.876 6.21139C16.7461 6.21139 19.8913 9.3566 19.8913 13.2267C19.8913 17.0968 16.7461 20.242 12.876 20.242C9.00587 20.242 5.86068 17.0968 5.86068 13.2267ZM22.8845 26.7428L15.8692 33.7581C15.5301 34.1031 15.08 34.2726 14.6298 34.2726C14.1797 34.2726 13.7353 34.1031 13.3904 33.7581C12.7064 33.0742 12.7064 31.9634 13.3904 31.2794L20.4057 24.2641C21.0898 23.5801 22.2005 23.5801 22.8845 24.2641C23.5685 24.9481 23.5685 26.0588 22.8845 26.7428ZM23.0482 4.45756C23.0482 3.30003 23.9952 2.35297 25.1528 2.35297C26.3103 2.35297 27.2574 3.30003 27.2574 4.45756C27.2574 5.61508 26.3103 6.56215 25.1528 6.56215C23.9952 6.56215 23.0482 5.61508 23.0482 4.45756ZM45.8158 11.721V25.6687H42.2558V11.721H37.6471V8.35606H50.4732V11.721H45.8158ZM55.7158 19.719V25.6687H52.3751V7.38066H55.7158V14.8666C56.3497 13.8913 57.6177 13.2085 59.2027 13.2085C62.1532 13.2085 63.9088 15.3543 63.9088 18.5242V25.6687H60.5682V19.0851C60.5682 17.3294 59.8123 16.2565 58.4224 16.2565C56.8862 16.2565 55.7158 17.3782 55.7158 19.719ZM78.8317 21.6941C78.1003 24.1569 75.6861 25.937 72.5897 25.937C68.8586 25.937 66.2009 23.2547 66.2009 19.5483C66.2009 15.9151 68.9077 13.2085 72.6139 13.2085C76.1984 13.2085 79.149 15.7688 78.9782 20.353H69.4683C69.6149 21.7917 70.6878 23.0353 72.7604 23.0353C73.9309 23.0353 74.9547 22.5232 75.3453 21.6941H78.8317ZM69.59 18.1585H75.3204C74.9063 16.5247 73.6626 15.9151 72.5164 15.9151C70.9803 15.9151 69.9073 16.8173 69.59 18.1585ZM103.948 15.3055C104.727 22.4256 100.558 25.9614 95.4132 25.9614C90.1218 25.9614 86.2932 22.0355 86.2932 17.0124C86.2932 11.9893 90.1218 8.06342 95.3641 8.06342C98.9977 8.06342 102.362 10.2092 103.533 13.4767H99.4851C98.632 12.2088 97.0226 11.4772 95.3641 11.4772C92.0478 11.4772 89.8535 13.9156 89.8535 17.0124C89.8535 20.1092 92.0478 22.5476 95.4132 22.5476C98.2172 22.5476 99.8999 21.0114 100.29 18.6217H94.9984V15.3055H103.948ZM109.776 19.841V25.6687H106.434V13.4767H109.776V15.4275C110.19 14.2326 111.433 13.3304 112.799 13.3304C113.14 13.3304 113.506 13.3548 113.921 13.4767V16.8661C113.409 16.6954 112.945 16.5979 112.409 16.5979C110.824 16.5979 109.776 17.8414 109.776 19.841ZM124.089 24.3032C123.552 25.0835 122.26 25.937 120.578 25.937C117.335 25.937 114.847 23.0353 114.847 19.5727C114.847 16.1102 117.335 13.2085 120.578 13.2085C122.26 13.2085 123.552 14.0619 124.089 14.8422V13.4767H127.429V25.6687H124.089V24.3032ZM118.213 19.5727C118.213 21.4747 119.456 22.889 121.285 22.889C123.113 22.889 124.357 21.4747 124.357 19.5727C124.357 17.6707 123.113 16.2565 121.285 16.2565C119.456 16.2565 118.213 17.6707 118.213 19.5727ZM134.013 24.3032V30.765H130.672V13.4767H134.013V14.8422C134.574 14.0619 135.866 13.2085 137.549 13.2085C140.792 13.2085 143.279 16.1102 143.279 19.5727C143.279 23.0353 140.792 25.937 137.549 25.937C135.866 25.937 134.574 25.0835 134.013 24.3032ZM133.745 19.5727C133.745 21.4747 134.988 22.889 136.818 22.889C138.646 22.889 139.89 21.4747 139.89 19.5727C139.89 17.6707 138.646 16.2565 136.818 16.2565C134.988 16.2565 133.745 17.6707 133.745 19.5727ZM149.058 19.719V25.6687H145.718V7.38066H149.058V14.8666C149.692 13.8913 150.96 13.2085 152.545 13.2085C155.495 13.2085 157.251 15.3543 157.251 18.5242V25.6687H153.911V19.0851C153.911 17.3294 153.154 16.2565 151.765 16.2565C150.229 16.2565 149.058 17.3782 149.058 19.719Z" fill="black"/>
</svg>
