<svg width="61" height="40" viewBox="0 0 61 40" fill="none" xmlns="http://www.w3.org/2000/svg">
<g clip-path="url(#clip0_202_18582)">
<path d="M11.9532 14.7568L8.0514 0H5.29563L11.9532 25.1794V34.7887L2.75577 0H0L10.5753 40H11.9532H13.3302H14.7081V0H11.9532V14.7568Z" fill="black"/>
<path d="M61 40L50.4246 3.05176e-05H49.0468H47.6689H46.291V39.9992H49.0468L56.3203 32.7229L58.2443 39.9992H61V40ZM53.8753 23.4723L49.0476 28.2997V5.21132L53.8753 23.4723ZM49.0468 36.1002V32.1962L54.6894 26.5538L55.506 29.6413L49.0468 36.1002Z" fill="black"/>
<path d="M20.515 3.05176e-05H19.1372H17.7593V39.9992H20.515L27.7885 32.7229L29.7125 39.9992H32.4683L21.8922 3.05176e-05H20.515ZM25.3428 23.4723L20.515 28.2997V5.21132L25.3428 23.4723ZM20.515 36.1002V32.1962L26.1577 26.5538L26.9744 29.6413L20.515 36.1002Z" fill="black"/>
<path d="M43.907 24.7148L37.3729 3.05176e-05H35.995H34.6171H33.2393V39.9992H35.995V32.5817L38.5265 30.0504L41.1571 39.9992L43.907 39.979L40.7059 27.8712L41.7183 26.8588L43.907 24.7148ZM35.995 28.6853V5.21132L40.9034 23.7772L35.995 28.6853Z" fill="black"/>
</g>
<defs>
<clipPath id="clip0_202_18582">
<rect width="61" height="40" fill="white"/>
</clipPath>
</defs>
</svg>
