<svg width="160" height="36" viewBox="0 0 160 36" fill="none" xmlns="http://www.w3.org/2000/svg">
<path d="M40.6738 19.4623C40.6738 15.0523 43.2551 11.9034 47.5282 11.9034C49.5073 11.9034 51.2569 12.7337 52.1454 14.1368V5.17487H55.6153V26.4788H52.4034L52.1739 24.2738C51.3138 25.906 49.4779 26.8508 47.3271 26.8508C43.2257 26.8508 40.6729 23.8439 40.6729 19.4633L40.6738 19.4623ZM52.117 19.3478C52.117 16.7991 50.54 15.0239 48.1019 15.0239C45.6638 15.0239 44.1731 16.8275 44.1731 19.3478C44.1731 21.8671 45.6648 23.6432 48.1019 23.6432C50.54 23.6432 52.117 21.8964 52.117 19.3478Z" fill="#FF6D3A"/>
<path d="M57.2915 22.4398C57.2915 19.8343 59.1843 18.2021 62.5404 17.9446L66.785 17.6293V17.315C66.785 15.3969 65.6375 14.6234 63.8595 14.6234C61.794 14.6234 60.6476 15.4821 60.6476 16.9714H57.6652C57.6652 13.9077 60.1886 11.9034 64.0321 11.9034C67.8461 11.9034 70.1989 13.9644 70.1989 17.8878V26.4777H67.1302L66.8723 24.3873C66.2701 25.8472 64.3488 26.8498 62.1402 26.8498C59.1284 26.8498 57.2935 25.103 57.2935 22.4398H57.2915ZM66.8134 20.7498V20.0057L63.8595 20.2348C61.6793 20.4355 60.8476 21.1513 60.8476 22.2959C60.8476 23.5844 61.7077 24.214 63.2857 24.214C65.4365 24.214 66.8134 22.9254 66.8134 20.7498Z" fill="#FF6D3A"/>
<path d="M74.0995 26.4778V15.253H71.375V12.3323H74.0995V7.9223H77.5987V12.3323H80.3516V15.253H77.5987V26.4778H74.0995Z" fill="#FF6D3A"/>
<path d="M81.4707 22.4408C81.4707 19.8354 83.3635 18.2032 86.7196 17.9456L90.9642 17.6304V17.3161C90.9642 15.398 89.8167 14.6244 88.0387 14.6244C85.9732 14.6244 84.8268 15.4831 84.8268 16.9724H81.8444C81.8444 13.9087 84.3678 11.9044 88.2113 11.9044C92.0253 11.9044 94.3781 13.9655 94.3781 17.8889V26.4788H91.3094L91.0515 24.3883C90.4493 25.8482 88.5281 26.8508 86.3194 26.8508C83.3076 26.8508 81.4727 25.1041 81.4727 22.4408H81.4707ZM90.9926 20.7509V20.0067L88.0387 20.2358C85.8585 20.4366 85.0268 21.1523 85.0268 22.2969C85.0268 23.5854 85.8869 24.215 87.4649 24.215C89.6157 24.215 90.9926 22.9265 90.9926 20.7509Z" fill="#FF6D3A"/>
<path d="M102.991 11.9034C105.113 11.9034 106.777 12.7905 107.608 14.3091L107.809 12.3616H111.051V25.7914C111.051 30.5157 108.211 33.4648 103.623 33.4648C99.5497 33.4648 96.7683 31.1452 96.3378 27.3658H99.837C100.067 29.1987 101.472 30.2865 103.623 30.2865C106.032 30.2865 107.581 28.7689 107.581 26.4209V24.073C106.691 25.3899 104.942 26.2202 102.906 26.2202C98.8906 26.2202 96.2515 23.2133 96.2515 19.1186C96.2515 14.9955 98.9475 11.9034 102.991 11.9034ZM103.593 23.1849C106.003 23.1849 107.494 21.4949 107.494 19.0334C107.494 16.6287 106.031 14.9681 103.593 14.9681C101.27 14.9681 99.7792 16.7148 99.7792 19.0334C99.7792 21.4098 101.299 23.1849 103.593 23.1849Z" fill="#FF6D3A"/>
<path d="M121.988 15.5105H120.697C118.174 15.5105 116.596 16.8568 116.596 19.6053V26.4778H113.097V12.3617H116.395L116.596 14.4227C117.198 13.0196 118.546 12.0748 120.439 12.0748C120.927 12.0748 121.414 12.1316 121.988 12.2755V15.5105Z" fill="#FF6D3A"/>
<path d="M123.109 22.4408C123.109 19.8354 125.002 18.2032 128.358 17.9456L132.603 17.6304V17.3161C132.603 15.398 131.455 14.6244 129.677 14.6244C127.612 14.6244 126.465 15.4831 126.465 16.9724H123.483C123.483 13.9087 126.006 11.9044 129.85 11.9044C133.664 11.9044 136.016 13.9655 136.016 17.8889V26.4788H132.947L132.689 24.3883C132.087 25.8482 130.166 26.8508 127.957 26.8508C124.945 26.8508 123.11 25.1041 123.11 22.4408H123.109ZM132.631 20.7509V20.0067L129.677 20.2358C127.497 20.4366 126.666 21.1523 126.666 22.2969C126.666 23.5854 127.526 24.215 129.104 24.215C131.254 24.215 132.631 22.9265 132.631 20.7509Z" fill="#FF6D3A"/>
<path d="M138.062 26.4778V12.3323H141.273L141.56 13.9929C142.277 12.8189 143.711 11.9025 145.747 11.9025C147.897 11.9025 149.389 12.9619 150.134 14.5941C150.851 12.9619 152.515 11.9025 154.666 11.9025C158.108 11.9025 160 13.9635 160 17.228V26.4768H156.53V18.1444C156.53 16.1117 155.44 15.0513 153.777 15.0513C152.085 15.0513 150.794 16.1401 150.794 18.4587V26.4768H147.295V18.116C147.295 16.1401 146.234 15.0807 144.571 15.0807C142.907 15.0807 141.559 16.1685 141.559 18.4597V26.4778H138.06H138.062Z" fill="#FF6D3A"/>
<path d="M14.5796 0.000132689C14.3422 -0.00574209 14.148 0.184209 14.148 0.421159V8.41282C14.148 8.639 14.3265 8.82209 14.5531 8.83189C19.241 9.04338 22.9893 12.9178 22.9893 17.6499C22.9893 22.3821 19.4312 26.0558 14.914 26.4445C14.5021 26.4797 14.148 26.1566 14.148 25.7444V14.408C14.148 13.2732 13.2271 12.3538 12.0905 12.3538H2.05757C0.920907 12.3538 0 13.2732 0 14.408V24.4245C0 25.5593 0.920907 26.4787 2.05757 26.4787H13.4439C13.8322 26.4778 14.1471 26.7921 14.1471 27.1798V34.8797C14.1471 35.1166 14.3412 35.3056 14.5786 35.3007C24.1309 35.0706 31.8306 27.2415 31.8306 17.6509C31.8306 8.06033 24.1309 0.231207 14.5786 0.00111128L14.5796 0.000132689Z" fill="#FF6D3A"/>
</svg>
