<svg width="158" height="40" viewBox="0 0 158 40" fill="none" xmlns="http://www.w3.org/2000/svg">
<g clip-path="url(#clip0_202_18440)">
<path d="M12.2732 0L-0.00146484 20.3722L12.2732 14.7931V0Z" fill="#8A92B2"/>
<path d="M12.2732 14.7932L-0.00146484 20.3722L12.2732 27.6315V14.7932Z" fill="#62688F"/>
<path d="M24.5553 20.3722L12.2734 0V14.7931L24.5553 20.3722Z" fill="#62688F"/>
<path d="M12.2734 27.6315L24.5553 20.3722L12.2734 14.7932V27.6315Z" fill="#454A75"/>
<path d="M-0.00146484 22.6992L12.2732 40V29.9549L-0.00146484 22.6992Z" fill="#8A92B2"/>
<path d="M12.2734 29.9549V40L24.5589 22.6992L12.2734 29.9549Z" fill="#62688F"/>
<path d="M44.0509 23.3677C44.0509 23.6423 43.8196 23.8663 43.545 23.8663H33.8323C34.0743 26.2656 35.881 28.4553 38.4212 28.4553C40.1556 28.4553 41.4456 27.7904 42.4176 26.4065C42.5585 26.215 42.7681 26.0921 43.0355 26.2078C43.1837 26.2728 43.2848 26.4065 43.3101 26.5583C43.3354 26.7172 43.2921 26.8076 43.2451 26.8979C42.2695 28.6034 40.3219 29.4381 38.414 29.4381C35.1475 29.4381 32.8169 26.5149 32.8169 23.3857C32.8169 20.2565 35.1475 17.3333 38.414 17.3333C41.6841 17.3297 44.0436 20.2493 44.0509 23.3677ZM43.0102 22.8979C42.8006 20.4986 40.9614 18.3089 38.4212 18.3089C35.881 18.3089 34.0743 20.4986 33.8323 22.8979H43.0102ZM55.8413 17.5754C56.1231 17.5754 56.3255 17.8175 56.3255 18.0596C56.3255 18.3415 56.1159 18.5438 55.8413 18.5438H53.236V28.7624C53.236 29.0045 53.0265 29.2466 52.7519 29.2466C52.47 29.2466 52.2677 29.0045 52.2677 28.7624V18.5438H49.7672C49.4854 18.5438 49.283 18.3342 49.283 18.0596C49.283 17.8175 49.4926 17.5754 49.7672 17.5754H52.2677V13.832C52.2677 13.5971 52.4267 13.3803 52.6579 13.3406C52.9831 13.29 53.2397 13.514 53.2397 13.8175V17.5718L55.8413 17.5754ZM71.7293 22.5149V28.7082C71.7293 28.9901 71.4872 29.1924 71.2451 29.1924C70.9632 29.1924 70.7609 28.9828 70.7609 28.7082V22.5149C70.7609 20.4264 69.5793 18.3415 67.2487 18.3415C64.2604 18.3415 62.9705 20.9539 63.1439 23.6278C63.1439 23.6965 63.1764 24.0108 63.1764 24.0434V28.6901C63.1764 28.925 63.0174 29.1418 62.7862 29.1816C62.461 29.2321 62.2044 29.0081 62.2044 28.7046V8.36133C62.2044 8.11923 62.414 7.87714 62.6886 7.87714C62.9705 7.87714 63.1728 8.11923 63.1728 8.36133V19.8699C64.0075 18.3776 65.5034 17.3695 67.2379 17.3695C70.096 17.3695 71.7293 19.8699 71.7293 22.5149ZM89.1493 23.3677C89.1493 23.6423 88.9181 23.8663 88.6435 23.8663H78.9235C79.1656 26.2656 80.9723 28.4553 83.5125 28.4553C85.2469 28.4553 86.5369 27.7904 87.5089 26.4065C87.6498 26.215 87.8594 26.0921 88.1267 26.2078C88.2749 26.2728 88.3761 26.4065 88.4014 26.5583C88.4267 26.7172 88.3833 26.8076 88.3363 26.8979C87.3607 28.6034 85.4131 29.4381 83.5052 29.4381C80.2388 29.4381 77.9081 26.5149 77.9081 23.3857C77.9081 20.2565 80.2388 17.3333 83.5052 17.3333C86.779 17.3297 89.1421 20.2493 89.1493 23.3677ZM88.1014 22.8979C87.8919 20.4986 86.0527 18.3089 83.5125 18.3089C80.9723 18.3089 79.1656 20.4986 78.9235 22.8979H88.1014ZM101.07 18.0271C101.07 18.3415 100.896 18.5113 100.618 18.551C97.7636 18.9666 96.4809 21.2972 96.4809 24.0072V28.654C96.4809 28.8889 96.3219 29.1057 96.0906 29.1454C95.7654 29.196 95.5089 28.972 95.5089 28.6685V18.0777C95.5089 17.8428 95.6678 17.626 95.8991 17.5863C96.2243 17.5357 96.4809 17.7597 96.4809 18.0632V20.2204C97.2794 18.869 98.8801 17.579 100.546 17.579C100.792 17.5754 101.07 17.7525 101.07 18.0271ZM117.03 23.3677C117.03 23.6423 116.799 23.8663 116.524 23.8663H106.811C107.054 26.2656 108.86 28.4553 111.4 28.4553C113.135 28.4553 114.425 27.7904 115.397 26.4065C115.538 26.215 115.747 26.0921 116.015 26.2078C116.163 26.2728 116.264 26.4065 116.289 26.5583C116.315 26.7172 116.271 26.8076 116.224 26.8979C115.249 28.6034 113.301 29.4381 111.393 29.4381C108.127 29.4381 105.796 26.5149 105.796 23.3857C105.796 20.2565 108.127 17.3333 111.393 17.3333C114.66 17.3297 117.023 20.2493 117.03 23.3677ZM115.989 22.8979C115.78 20.4986 113.941 18.3089 111.4 18.3089C108.86 18.3089 107.054 20.4986 106.811 22.8979H115.989ZM132.712 18.1463V28.7624C132.712 29.0443 132.47 29.2466 132.228 29.2466C131.946 29.2466 131.744 29.037 131.744 28.7624V26.7462C130.945 28.3469 129.514 29.4923 127.711 29.4923C124.828 29.4923 123.223 26.9919 123.223 24.3469V18.121C123.223 17.8789 123.433 17.6368 123.708 17.6368C123.989 17.6368 124.192 17.8789 124.192 18.121V24.3433C124.192 26.4318 125.373 28.5167 127.704 28.5167C130.97 28.5167 131.737 25.4598 131.737 22.0813V18.121C131.737 17.8392 132.018 17.5537 132.362 17.6549C132.571 17.7272 132.712 17.9295 132.712 18.1463ZM157.287 22.4751V28.6974C157.287 28.9792 157.045 29.1816 156.802 29.1816C156.521 29.1816 156.318 28.972 156.318 28.6974V22.4751C156.318 20.3866 155.137 18.3378 152.806 18.3378C149.883 18.3378 148.774 21.467 148.774 23.8988V28.6974C148.774 28.9792 148.531 29.1816 148.289 29.1816C148.008 29.1816 147.805 28.972 147.805 28.6974V22.4751C147.805 20.3866 146.624 18.3378 144.293 18.3378C141.337 18.3378 140.12 20.6685 140.228 23.7651C140.228 23.8338 140.26 23.9747 140.228 24.0072V28.6865C140.228 28.9214 140.069 29.1382 139.83 29.1779C139.505 29.2285 139.249 29.0045 139.249 28.701V18.0777C139.249 17.8428 139.408 17.626 139.639 17.5863C139.964 17.5357 140.221 17.7597 140.221 18.0632V19.8374C141.055 18.3451 142.551 17.3658 144.286 17.3658C146.266 17.3658 147.798 18.6161 148.423 20.4625C149.222 18.6558 150.786 17.3658 152.802 17.3658C155.653 17.3695 157.287 19.8338 157.287 22.4751Z" fill="#8A92B2"/>
</g>
<defs>
<clipPath id="clip0_202_18440">
<rect width="157.286" height="40" fill="white"/>
</clipPath>
</defs>
</svg>
