<svg width="160" height="28" viewBox="0 0 160 28" fill="none" xmlns="http://www.w3.org/2000/svg">
<g clip-path="url(#clip0_202_18858)">
<path d="M27.5315 13.8832C27.5315 14.7948 27.3534 15.6974 27.0075 16.5396C26.6618 17.3818 26.1547 18.1471 25.5156 18.7916C24.8765 19.4362 24.1176 19.9475 23.2826 20.2964C22.4475 20.6452 21.5524 20.8248 20.6486 20.8248C19.7447 20.8248 18.8497 20.6452 18.0146 20.2964C17.1795 19.9475 16.4207 19.4362 15.7816 18.7916C15.1425 18.1471 14.6354 17.3818 14.2896 16.5396C13.9437 15.6974 13.7656 14.7948 13.7656 13.8832H17.2071C17.2071 14.339 17.2961 14.7903 17.469 15.2114C17.642 15.6325 17.8955 16.0151 18.2151 16.3374C18.5346 16.6597 18.914 16.9154 19.3316 17.0898C19.7491 17.2642 20.1966 17.354 20.6486 17.354C21.1005 17.354 21.548 17.2642 21.9655 17.0898C22.3831 16.9154 22.7624 16.6597 23.082 16.3374C23.4015 16.0151 23.6552 15.6325 23.828 15.2114C24.0011 14.7903 24.09 14.339 24.09 13.8832H27.5315Z" fill="#39E9B4"/>
<path d="M13.7656 27.7664C13.7656 26.855 13.9437 25.9523 14.2896 25.1101C14.6354 24.2679 15.1425 23.5026 15.7816 22.8579C16.4207 22.2134 17.1795 21.7021 18.0146 21.3532C18.8497 21.0044 19.7447 20.8248 20.6486 20.8248C21.5524 20.8248 22.4475 21.0044 23.2826 21.3532C24.1176 21.7021 24.8765 22.2134 25.5156 22.8579C26.1547 23.5026 26.6618 24.2679 27.0075 25.1101C27.3534 25.9523 27.5315 26.855 27.5315 27.7664H24.09C24.09 27.3106 24.0011 26.8592 23.828 26.4381C23.6552 26.017 23.4015 25.6345 23.082 25.3123C22.7624 24.99 22.3831 24.7343 21.9655 24.5599C21.548 24.3855 21.1005 24.2956 20.6486 24.2956C20.1966 24.2956 19.7491 24.3855 19.3316 24.5599C18.914 24.7343 18.5346 24.99 18.2151 25.3123C17.8955 25.6345 17.642 26.017 17.469 26.4381C17.2961 26.8592 17.2071 27.3106 17.2071 27.7664H13.7656Z" fill="#39E9B4"/>
<path d="M13.7659 6.62003e-07C13.7659 0.911585 13.5878 1.81424 13.2419 2.65643C12.896 3.49863 12.389 4.26388 11.7499 4.90846C11.1108 5.55304 10.352 6.06436 9.51691 6.4132C8.68184 6.76207 7.78681 6.94161 6.88293 6.94161C5.97906 6.94161 5.08403 6.76207 4.24896 6.4132C3.41387 6.06436 2.6551 5.55304 2.01596 4.90846C1.37682 4.26388 0.869831 3.49863 0.523931 2.65643C0.178032 1.81424 -7.90197e-08 0.911585 0 0L3.44147 6.62003e-07C3.44147 0.455792 3.53049 0.907123 3.70342 1.32822C3.87638 1.74932 4.12987 2.13194 4.44944 2.45423C4.76902 2.77653 5.14841 3.03219 5.56595 3.20661C5.98348 3.38103 6.43098 3.4708 6.88293 3.4708C7.33488 3.4708 7.78239 3.38103 8.19992 3.20661C8.61746 3.03219 8.99685 2.77653 9.31642 2.45423C9.63599 2.13194 9.88949 1.74932 10.0624 1.32822C10.2354 0.907123 10.3244 0.455792 10.3244 6.62003e-07H13.7659Z" fill="#39E9B4"/>
<path d="M0 13.8832C0 12.9716 0.178032 12.0689 0.523932 11.2268C0.869832 10.3846 1.37682 9.61932 2.01596 8.97474C2.6551 8.33016 3.41387 7.81884 4.24896 7.47C5.08403 7.12113 5.97906 6.94159 6.88293 6.94159C7.78681 6.94159 8.68184 7.12113 9.51691 7.47C10.352 7.81884 11.1108 8.33016 11.7499 8.97474C12.389 9.61932 12.896 10.3846 13.2419 11.2268C13.5878 12.069 13.7659 12.9716 13.7659 13.8832H10.3244C10.3244 13.4274 10.2354 12.9761 10.0624 12.555C9.88949 12.1339 9.63599 11.7513 9.31642 11.429C8.99685 11.1067 8.61745 10.851 8.19992 10.6766C7.78238 10.5022 7.33488 10.4124 6.88293 10.4124C6.43098 10.4124 5.98348 10.5022 5.56595 10.6766C5.14841 10.851 4.76901 11.1067 4.44944 11.429C4.12987 11.7513 3.87638 12.1339 3.70342 12.555C3.53049 12.9761 3.44147 13.4274 3.44147 13.8832H0Z" fill="#39E9B4"/>
<path d="M20.6486 13.8832C19.7447 13.8832 18.8497 13.7037 18.0146 13.3548C17.1795 13.006 16.4207 12.4946 15.7816 11.8501C15.1425 11.2055 14.6354 10.4402 14.2896 9.59804C13.9437 8.75586 13.7656 7.8532 13.7656 6.94161C13.7656 6.03001 13.9437 5.12736 14.2896 4.28518C14.6354 3.44298 15.1425 2.67773 15.7816 2.03315C16.4207 1.38856 17.1795 0.877247 18.0146 0.528397C18.8497 0.17955 19.7447 -1.36489e-07 20.6486 0V3.4708C20.1966 3.4708 19.7491 3.56058 19.3316 3.735C18.914 3.90942 18.5346 4.16508 18.2151 4.48738C17.8955 4.80968 17.642 5.19228 17.469 5.61338C17.2961 6.03448 17.2071 6.48582 17.2071 6.94161C17.2071 7.39739 17.2961 7.84873 17.469 8.26983C17.642 8.69093 17.8955 9.07353 18.2151 9.39584C18.5346 9.71814 18.914 9.9738 19.3316 10.1482C19.7491 10.3226 20.1966 10.4124 20.6486 10.4124V13.8832Z" fill="#39E9B4"/>
<path d="M20.6489 13.8832C21.5528 13.8832 22.4478 13.7037 23.2829 13.3548C24.1179 13.006 24.8769 12.4946 25.5159 11.8501C26.155 11.2055 26.6621 10.4402 27.0079 9.59804C27.3538 8.75586 27.5319 7.8532 27.5319 6.94161C27.5319 6.03001 27.3538 5.12736 27.0079 4.28518C26.6621 3.44298 26.155 2.67773 25.5159 2.03315C24.8769 1.38856 24.1179 0.877247 23.2829 0.528397C22.4478 0.17955 21.5528 -1.36489e-07 20.6489 0V3.4708C21.1009 3.4708 21.5484 3.56058 21.9659 3.735C22.3834 3.90942 22.7628 4.16508 23.0823 4.48738C23.4019 4.80968 23.6555 5.19228 23.8284 5.61338C24.0015 6.03448 24.0904 6.48582 24.0904 6.94161C24.0904 7.39739 24.0015 7.84873 23.8284 8.26983C23.6555 8.69093 23.4019 9.07353 23.0823 9.39584C22.7628 9.71814 22.3834 9.9738 21.9659 10.1482C21.5484 10.3226 21.1009 10.4124 20.6489 10.4124V13.8832Z" fill="#39E9B4"/>
<path d="M6.88293 27.7664C5.97906 27.7664 5.08403 27.5868 4.24896 27.2381C3.41387 26.8892 2.6551 26.3778 2.01596 25.7333C1.37682 25.0886 0.869832 24.3233 0.523931 23.4811C0.178031 22.6389 -6.72298e-08 21.7364 0 20.8248C6.72294e-08 19.9132 0.178033 19.0105 0.523934 18.1684C0.869832 17.3262 1.37683 16.5609 2.01596 15.9163C2.6551 15.2717 3.41387 14.7604 4.24896 14.4116C5.08403 14.0627 5.97906 13.8832 6.88293 13.8832V17.354C6.43098 17.354 5.98348 17.4438 5.56595 17.6182C5.14841 17.7926 4.76902 18.0483 4.44944 18.3706C4.12987 18.6929 3.87638 19.0755 3.70342 19.4966C3.53049 19.9177 3.44147 20.369 3.44147 20.8248C3.44147 21.2806 3.53047 21.7319 3.70342 22.153C3.87638 22.5742 4.12987 22.9567 4.44944 23.2789C4.76902 23.6012 5.14841 23.8569 5.56595 24.0313C5.98348 24.2058 6.43098 24.2956 6.88293 24.2956V27.7664Z" fill="#39E9B4"/>
<path d="M6.88281 27.7664C7.78669 27.7664 8.68172 27.5868 9.51679 27.2381C10.3519 26.8892 11.1106 26.3778 11.7498 25.7333C12.3889 25.0886 12.8959 24.3233 13.2418 23.4811C13.5877 22.6389 13.7657 21.7364 13.7657 20.8248C13.7657 19.9132 13.5877 19.0105 13.2418 18.1684C12.8959 17.3262 12.3889 16.5609 11.7498 15.9163C11.1106 15.2717 10.3519 14.7604 9.51679 14.4116C8.68172 14.0627 7.78669 13.8832 6.88281 13.8832V17.354C7.33476 17.354 7.78227 17.4438 8.1998 17.6182C8.61733 17.7926 8.99673 18.0483 9.3163 18.3706C9.63587 18.6929 9.88937 19.0755 10.0623 19.4966C10.2353 19.9177 10.3243 20.369 10.3243 20.8248C10.3243 21.2806 10.2353 21.7319 10.0623 22.153C9.88937 22.5742 9.63587 22.9567 9.3163 23.2789C8.99673 23.6012 8.61733 23.8569 8.1998 24.0313C7.78227 24.2058 7.33476 24.2956 6.88281 24.2956V27.7664Z" fill="#39E9B4"/>
<path d="M43.9951 18.9964C44.4121 18.9964 44.7141 18.8752 44.9009 18.6329C45.1022 18.3764 45.2532 18.0699 45.3538 17.7136H48.0716C48.014 18.241 47.8775 18.7398 47.6618 19.2102C47.446 19.6663 47.1585 20.0653 46.799 20.4074C46.454 20.7495 46.0369 21.0203 45.5479 21.2198C45.0736 21.4193 44.5631 21.5191 44.0165 21.5191H42.1617C41.5865 21.5191 41.0402 21.4122 40.5225 21.1984C40.0048 20.9704 39.5519 20.6639 39.1635 20.2791C38.7753 19.8943 38.4662 19.4453 38.2362 18.9322C38.0205 18.4191 37.9126 17.8704 37.9126 17.286V11.2143C37.9126 10.63 38.0205 10.0812 38.2362 9.56811C38.4662 9.04076 38.7753 8.58466 39.1635 8.19985C39.5519 7.81502 40.0048 7.51571 40.5225 7.30191C41.0402 7.07387 41.5865 6.95984 42.1617 6.95984H44.0165C44.5773 6.95984 45.095 7.05961 45.5696 7.25914C46.0442 7.45868 46.454 7.73662 46.799 8.09295C47.1585 8.43502 47.446 8.84123 47.6618 9.31157C47.8775 9.78191 48.014 10.2879 48.0716 10.8295H45.3538C45.2821 10.4589 45.1453 10.1454 44.944 9.88881C44.7427 9.63225 44.4263 9.50397 43.9951 9.50397H42.1832C41.6799 9.50397 41.2773 9.68214 40.9754 10.0385C40.6879 10.3948 40.5439 10.8295 40.5439 11.3426V17.1364C40.5439 17.6495 40.6879 18.0913 40.9754 18.4619C41.2773 18.8182 41.6799 18.9964 42.1832 18.9964H43.9951Z" fill="black"/>
<path d="M53.956 13.0743C53.5821 13.0743 53.2729 13.1242 53.0285 13.224C52.7983 13.3095 52.6187 13.4306 52.4894 13.5874C52.3598 13.7442 52.2664 13.9366 52.2089 14.1646C52.1658 14.3784 52.1441 14.6136 52.1441 14.8702V21.5191H49.7285V6.95984H52.1441V10.8723C52.3598 10.801 52.5828 10.744 52.8127 10.7012C53.0571 10.6585 53.316 10.6371 53.5893 10.6371H54.8835C55.516 10.6371 56.0696 10.744 56.5442 10.9578C57.033 11.1716 57.4358 11.4566 57.752 11.8129C58.0828 12.155 58.3272 12.5541 58.4854 13.0102C58.6436 13.452 58.7226 13.901 58.7226 14.3571V21.5191H56.2854V14.8702C56.2854 14.6136 56.2639 14.3784 56.2206 14.1646C56.1775 13.9366 56.0841 13.7442 55.9403 13.5874C55.8108 13.4306 55.6311 13.3095 55.401 13.224C55.171 13.1242 54.8691 13.0743 54.4951 13.0743H53.956Z" fill="black"/>
<path d="M60.106 14.0791C60.1491 13.623 60.2497 13.1883 60.4079 12.775C60.5803 12.3617 60.8249 11.9982 61.1411 11.6847C61.4575 11.3711 61.8531 11.1217 62.3275 10.9364C62.802 10.7369 63.3484 10.6371 63.9667 10.6371H65.2609C65.9079 10.6371 66.4687 10.744 66.9433 10.9578C67.4321 11.1716 67.8347 11.4566 68.1511 11.8129C68.4675 12.155 68.7047 12.5541 68.8629 13.0102C69.0211 13.452 69.1 13.901 69.1 14.3571V21.5191H62.9747C62.5001 21.5191 62.0758 21.4336 61.7019 21.2626C61.3282 21.0773 61.0118 20.8421 60.753 20.5571C60.5086 20.2577 60.3217 19.9086 60.1922 19.5095C60.0771 19.1104 60.0195 18.6828 60.0195 18.2267C60.0195 17.7849 60.0843 17.3716 60.2138 16.9867C60.3431 16.6019 60.53 16.2741 60.7746 16.0033C61.019 15.7182 61.321 15.4973 61.6805 15.3405C62.0544 15.1695 62.4712 15.084 62.9314 15.084H66.6197V14.8702C66.6197 14.6136 66.598 14.3784 66.5549 14.1646C66.5118 13.9366 66.4328 13.7442 66.3178 13.5874C66.2027 13.4306 66.0302 13.3095 65.8001 13.224C65.5701 13.1242 65.2609 13.0743 64.8726 13.0743H64.3334C63.7582 13.0743 63.3484 13.1598 63.104 13.3309C62.8596 13.4876 62.6942 13.7371 62.608 14.0791H60.106ZM62.3275 18.2267C62.3275 18.5973 62.3994 18.8752 62.5432 19.0605C62.7014 19.2315 62.8738 19.3171 63.0609 19.3171H66.6197V17.1364H63.0609C62.8738 17.1364 62.7014 17.229 62.5432 17.4143C62.3994 17.5996 62.3275 17.8704 62.3275 18.2267Z" fill="black"/>
<path d="M73.4001 21.5191H70.855V10.6371H73.4001V21.5191ZM73.4001 9.46121H70.855V6.95984H73.4001V9.46121Z" fill="black"/>
<path d="M79.7645 13.0743C79.3906 13.0743 79.0814 13.1242 78.837 13.224C78.6069 13.3095 78.4272 13.4306 78.2977 13.5874C78.1684 13.7442 78.075 13.9366 78.0174 14.1646C77.9743 14.3784 77.9526 14.6136 77.9526 14.8702V21.5191H75.4292V10.6371H77.9526V10.915C78.4559 10.7297 78.9952 10.6371 79.5702 10.6371H80.6918C81.3246 10.6371 81.8854 10.744 82.3744 10.9578C82.8632 11.1716 83.2658 11.4566 83.5822 11.8129C83.9128 12.155 84.1574 12.5541 84.3154 13.0102C84.488 13.452 84.5743 13.901 84.5743 14.3571V21.5191H82.0508V14.8702C82.0508 14.6136 82.0291 14.3784 81.986 14.1646C81.9429 13.9366 81.8567 13.7442 81.7272 13.5874C81.6121 13.4306 81.4397 13.3095 81.2095 13.224C80.9796 13.1242 80.6704 13.0743 80.2822 13.0743H79.7645Z" fill="black"/>
<path d="M92.1204 6.95984C92.6957 6.95984 93.242 7.07387 93.7597 7.30191C94.2774 7.51571 94.7303 7.81502 95.1185 8.19985C95.5068 8.58466 95.8088 9.04076 96.0243 9.56811C96.2545 10.0812 96.3696 10.63 96.3696 11.2143V17.286C96.3696 17.8704 96.2545 18.4191 96.0243 18.9322C95.8088 19.4453 95.5068 19.8943 95.1185 20.2791C94.7303 20.6639 94.2774 20.9704 93.7597 21.1984C93.242 21.4122 92.6957 21.5191 92.1204 21.5191H90.4381C89.8486 21.5191 89.2948 21.4122 88.7774 21.1984C88.2597 20.9704 87.8067 20.6639 87.4184 20.2791C87.0444 19.8943 86.7425 19.4453 86.5125 18.9322C86.2823 18.4191 86.1675 17.8704 86.1675 17.286V11.2143C86.1675 10.63 86.2823 10.0812 86.5125 9.56811C86.7425 9.04076 87.0444 8.58466 87.4184 8.19985C87.8067 7.81502 88.2597 7.51571 88.7774 7.30191C89.2948 7.07387 89.8486 6.95984 90.4381 6.95984H92.1204ZM93.738 11.3426C93.738 10.8295 93.5871 10.3948 93.2851 10.0385C92.9976 9.68214 92.6022 9.50397 92.0988 9.50397H90.4597C89.9563 9.50397 89.5537 9.68214 89.2517 10.0385C88.9642 10.3948 88.8205 10.8295 88.8205 11.3426V17.1364C88.8205 17.6495 88.9642 18.0913 89.2517 18.4619C89.5537 18.8182 89.9563 18.9964 90.4597 18.9964H92.0988C92.6022 18.9964 92.9976 18.8182 93.2851 18.4619C93.5871 18.0913 93.738 17.6495 93.738 17.1364V11.3426Z" fill="black"/>
<path d="M102.982 10.6371C103.614 10.6371 104.175 10.7369 104.664 10.9364C105.167 11.1217 105.592 11.3853 105.937 11.7274C106.296 12.0695 106.569 12.4828 106.756 12.9674C106.943 13.452 107.037 14.0007 107.037 14.6136V17.5426C107.037 18.1412 106.943 18.6899 106.756 19.1888C106.569 19.6734 106.296 20.0938 105.937 20.4502C105.592 20.7922 105.167 21.0559 104.664 21.2412C104.175 21.4265 103.614 21.5191 102.982 21.5191H102.291C101.659 21.5191 101.084 21.4193 100.566 21.2198V25.2391H98.064V10.6371H102.982ZM100.566 13.0957V17.4571C100.566 17.9274 100.71 18.3122 100.997 18.6115C101.285 18.9108 101.659 19.0605 102.119 19.0605H102.982C103.442 19.0605 103.823 18.9108 104.125 18.6115C104.427 18.3122 104.578 17.9274 104.578 17.4571V14.6778C104.578 14.2074 104.427 13.8297 104.125 13.5447C103.823 13.2454 103.442 13.0957 102.982 13.0957H100.566Z" fill="black"/>
<path d="M108.321 14.5067C108.321 13.9794 108.421 13.4876 108.623 13.0316C108.824 12.5612 109.09 12.1479 109.421 11.7916C109.752 11.4352 110.132 11.1573 110.564 10.9578C110.995 10.744 111.427 10.6371 111.858 10.6371H114.317C114.878 10.6371 115.374 10.7582 115.805 11.0005C116.251 11.2286 116.618 11.5279 116.905 11.8984C117.207 12.2548 117.437 12.661 117.595 13.1171C117.768 13.5589 117.854 13.9936 117.854 14.4212V17.1791H110.866V17.7564C110.866 18.2695 111.01 18.6329 111.297 18.8467C111.585 19.0605 111.966 19.1674 112.44 19.1674H117.466V21.5619H111.88C111.391 21.5619 110.931 21.4692 110.499 21.2839C110.068 21.0844 109.687 20.8207 109.356 20.4929C109.04 20.1651 108.788 19.7732 108.601 19.3171C108.414 18.861 108.321 18.3621 108.321 17.8205V14.5067ZM110.888 15.1481H115.352V15.0412C115.352 14.4853 115.208 14.0292 114.921 13.6729C114.633 13.3024 114.245 13.1171 113.756 13.1171H112.419C112.189 13.1171 111.98 13.1741 111.793 13.2881C111.607 13.3879 111.448 13.5233 111.319 13.6943C111.19 13.8653 111.082 14.072 110.995 14.3143C110.923 14.5423 110.888 14.7846 110.888 15.0412V15.1481Z" fill="black"/>
<path d="M122.165 12.8605C122.366 12.5327 122.633 12.2476 122.963 12.0053C123.308 11.7488 123.682 11.535 124.085 11.3639C124.502 11.1929 124.94 11.0646 125.401 10.9791C125.861 10.8936 126.321 10.8508 126.781 10.8508H127.061V13.5019H126.781C126.263 13.5019 125.731 13.6088 125.185 13.8226C124.638 14.0221 124.135 14.2929 123.675 14.6349C123.229 14.9628 122.862 15.3333 122.575 15.7467C122.302 16.16 122.165 16.5733 122.165 16.9867V21.5191H119.491V10.5515H122.165V12.8605Z" fill="black"/>
<path d="M128.372 14.0791C128.415 13.623 128.516 13.1883 128.674 12.775C128.846 12.3617 129.091 11.9982 129.407 11.6847C129.724 11.3711 130.119 11.1217 130.594 10.9364C131.068 10.7369 131.615 10.6371 132.233 10.6371H133.527C134.174 10.6371 134.735 10.744 135.209 10.9578C135.698 11.1716 136.101 11.4566 136.417 11.8129C136.734 12.155 136.971 12.5541 137.129 13.0102C137.287 13.452 137.366 13.901 137.366 14.3571V21.5191H131.241C130.766 21.5191 130.342 21.4336 129.968 21.2626C129.594 21.0773 129.278 20.8421 129.019 20.5571C128.775 20.2577 128.588 19.9086 128.458 19.5095C128.343 19.1104 128.286 18.6828 128.286 18.2267C128.286 17.7849 128.35 17.3716 128.48 16.9867C128.609 16.6019 128.796 16.2741 129.041 16.0033C129.285 15.7182 129.587 15.4973 129.947 15.3405C130.32 15.1695 130.737 15.084 131.197 15.084H134.886V14.8702C134.886 14.6136 134.864 14.3784 134.821 14.1646C134.778 13.9366 134.699 13.7442 134.584 13.5874C134.469 13.4306 134.296 13.3095 134.066 13.224C133.836 13.1242 133.527 13.0743 133.139 13.0743H132.6C132.024 13.0743 131.615 13.1598 131.37 13.3309C131.125 13.4876 130.96 13.7371 130.874 14.0791H128.372ZM130.594 18.2267C130.594 18.5973 130.665 18.8752 130.809 19.0605C130.968 19.2315 131.14 19.3171 131.327 19.3171H134.886V17.1364H131.327C131.14 17.1364 130.968 17.229 130.809 17.4143C130.665 17.5996 130.594 17.8704 130.594 18.2267Z" fill="black"/>
<path d="M152.296 19.2957H148.349L147.81 21.5191H145.2L148.975 6.95984H151.779L155.402 21.5191H152.814L152.296 19.2957ZM148.867 17.1364H151.8L150.441 11.1929H150.29L148.867 17.1364Z" fill="black"/>
<path d="M157.261 6.95984H160V21.5191H157.261V6.95984Z" fill="black"/>
</g>
<defs>
<clipPath id="clip0_202_18858">
<rect width="160" height="27.9831" fill="white"/>
</clipPath>
</defs>
</svg>
