<svg width="160" height="37" viewBox="0 0 160 37" fill="none" xmlns="http://www.w3.org/2000/svg">
<mask id="mask0_202_18880" style="mask-type:luminance" maskUnits="userSpaceOnUse" x="0" y="0" width="37" height="37">
<path d="M36.9184 0H0V36.9184H36.9184V0Z" fill="white"/>
</mask>
<g mask="url(#mask0_202_18880)">
<path d="M18.4608 36.9216C28.6563 36.9216 36.9216 28.6563 36.9216 18.4608C36.9216 8.26517 28.6563 0 18.4608 0C8.26517 0 0 8.26517 0 18.4608C0 28.6563 8.26517 36.9216 18.4608 36.9216Z" fill="#0007B9"/>
<path d="M24.704 12.2681L17.8683 9.17017L13.2183 10.2503V10.5639L19.0846 13.6777L24.704 12.2681Z" fill="url(#paint0_linear_202_18880)"/>
<path d="M26.7668 22.2078L18.3188 18.3213L11.4609 20.1712V20.624L18.6767 24.5962L26.7668 22.2142V22.2078Z" fill="url(#paint1_linear_202_18880)"/>
<path d="M13.2183 10.5639L17.8683 9.48058L23.0631 8.27374V5.13147L13.2183 7.29811V10.5639Z" fill="white"/>
<path d="M24.7047 12.2681L19.0854 13.6777L11.4609 15.5909V20.6178L18.3188 18.768L24.7047 17.0448V12.2681Z" fill="white"/>
<path d="M3.37695 29.0975C5.0146 31.4163 7.17174 33.3454 9.68365 34.7042L26.7666 29.1608V22.2142L18.6733 24.5965L3.37695 29.0975Z" fill="white"/>
</g>
<path d="M63.8843 15.3127C63.8843 18.8947 61.0408 21.7414 57.3483 21.7414H53.984V28.0313H50.2095V8.88391H57.3483C61.0408 8.88391 63.8843 11.7275 63.8843 15.3127ZM60.1383 15.3127C60.1383 13.6431 58.9611 12.4123 57.3483 12.4123H53.984V18.2098H57.3483C58.9611 18.2098 60.1383 16.9506 60.1383 15.3095V15.3127Z" fill="black"/>
<path d="M81.9679 8.88391V28.0313H78.2219V20.1003H71.1114V28.0313H67.3369V8.88391H71.1114V16.4867H78.2219V8.88391H81.9679Z" fill="black"/>
<path d="M97.8328 24.5849H90.2015L89.0528 28.0313H84.9785L91.6785 8.88391H96.3558L103.084 28.0313H98.9814L97.8328 24.5849ZM96.6588 21.0565L94.0329 13.2329L91.4072 21.0565H96.6588Z" fill="black"/>
<path d="M112.742 21.3848H109.87V28.0313H106.095V8.88391H113.755C117.283 8.88391 120.127 11.7275 120.127 15.2306C120.127 17.6386 118.621 19.7973 116.434 20.8103L120.673 28.0313H116.598L112.742 21.3848ZM109.87 18.0742H113.755C115.178 18.0742 116.352 16.8149 116.352 15.2306C116.352 13.6463 115.175 12.4123 113.755 12.4123H109.87V18.0742Z" fill="black"/>
<path d="M123.075 18.4591C123.075 12.8509 127.478 8.50195 133.004 8.50195C138.53 8.50195 142.961 12.8509 142.961 18.4591C142.961 24.0673 138.53 28.4162 133.004 28.4162C127.478 28.4162 123.075 24.039 123.075 18.4591ZM139.186 18.4591C139.186 14.7666 136.479 12.1692 133.004 12.1692C129.529 12.1692 126.821 14.7666 126.821 18.4591C126.821 22.1517 129.529 24.7237 133.004 24.7237C136.479 24.7237 139.186 22.1263 139.186 18.4591Z" fill="black"/>
<path d="M145.527 23.6823L148.755 21.7951C149.44 23.5718 150.779 24.7205 153.158 24.7205C155.538 24.7205 156.223 23.7643 156.223 22.6976C156.223 21.2743 154.938 20.7284 152.091 19.9078C149.166 19.0587 146.319 17.8279 146.319 14.1922C146.319 10.5565 149.327 8.50195 152.609 8.50195C155.891 8.50195 158.16 10.1147 159.448 12.7973L156.276 14.6309C155.591 13.1823 154.553 12.1692 152.612 12.1692C151.025 12.1692 150.097 12.9898 150.097 14.0849C150.097 15.2621 150.835 15.8901 153.736 16.7643C156.772 17.7206 160 18.7337 160 22.6439C160 26.226 157.128 28.4162 153.054 28.4162C148.98 28.4162 146.572 26.529 145.533 23.6855L145.527 23.6823Z" fill="black"/>
<defs>
<linearGradient id="paint0_linear_202_18880" x1="13.2183" y1="11.4255" x2="24.704" y2="11.4255" gradientUnits="userSpaceOnUse">
<stop offset="0.17" stop-color="white"/>
<stop offset="0.84" stop-color="white" stop-opacity="0"/>
</linearGradient>
<linearGradient id="paint1_linear_202_18880" x1="11.4609" y1="21.4572" x2="26.7668" y2="21.4572" gradientUnits="userSpaceOnUse">
<stop offset="0.17" stop-color="white"/>
<stop offset="0.84" stop-color="white" stop-opacity="0"/>
</linearGradient>
</defs>
</svg>
