<svg width="157" height="40" viewBox="0 0 157 40" fill="none" xmlns="http://www.w3.org/2000/svg">
<path d="M156.653 25.0094L150.681 14.6518C150.588 14.4979 150.457 14.3707 150.3 14.2824C150.143 14.1941 149.966 14.1477 149.787 14.1477C149.607 14.1477 149.43 14.1941 149.273 14.2824C149.116 14.3707 148.985 14.4979 148.892 14.6518L142.92 25.0094C142.851 25.1354 142.81 25.2758 142.803 25.4197C142.794 25.5595 142.813 25.6998 142.858 25.8324C142.904 25.9649 142.975 26.087 143.069 26.1915C143.162 26.2959 143.275 26.3807 143.402 26.4407C143.529 26.5007 143.666 26.5348 143.806 26.541C144.214 26.55 144.526 26.3448 144.78 25.9057L145.703 24.3003C145.762 24.1968 145.847 24.1109 145.95 24.0511C146.053 23.9914 146.171 23.96 146.29 23.9601H153.262C153.381 23.9602 153.498 23.9917 153.601 24.0514C153.704 24.1111 153.789 24.197 153.849 24.3003L154.772 25.9057C155.004 26.3214 155.312 26.5284 155.697 26.541C155.836 26.5463 155.975 26.5236 156.105 26.4742C156.235 26.4249 156.354 26.3499 156.455 26.2538C156.556 26.1576 156.636 26.0422 156.691 25.9144C156.747 25.7866 156.776 25.649 156.777 25.5097C156.773 25.3358 156.731 25.1649 156.653 25.0094ZM151.673 21.8958H147.893C147.812 21.8955 147.733 21.874 147.663 21.8334C147.593 21.7927 147.534 21.7344 147.494 21.6643C147.454 21.5942 147.432 21.5146 147.432 21.4336C147.432 21.3527 147.453 21.2731 147.494 21.2029L149.392 17.9255C149.433 17.8553 149.491 17.7969 149.562 17.7564C149.632 17.7158 149.712 17.6945 149.793 17.6945C149.874 17.6945 149.954 17.7158 150.024 17.7564C150.094 17.7969 150.153 17.8553 150.193 17.9255L152.079 21.2029C152.12 21.2736 152.141 21.3539 152.141 21.4355C152.141 21.517 152.119 21.5971 152.077 21.6674C152.036 21.7378 151.977 21.796 151.906 21.8361C151.835 21.8762 151.754 21.8968 151.673 21.8958ZM39.5765 15.8504C38.827 12.3273 37.1407 9.07178 34.6954 6.4271C32.2501 3.78243 29.1364 1.84663 25.6828 0.823856C22.2291 -0.198916 18.5635 -0.270757 15.0724 0.61591C11.5813 1.50258 8.3942 3.31489 5.84716 5.86173C4.9383 6.77034 4.1181 7.7635 3.39768 8.82773C3.18461 9.11292 2.9933 9.41372 2.82536 9.72761C1.42663 12.073 0.522546 14.6798 0.168734 17.3876C-0.185078 20.0954 0.0188626 22.847 0.768007 25.473C1.51715 28.0991 2.79566 30.5441 4.52488 32.6576C6.25411 34.7712 8.39747 36.5086 10.8231 37.763C13.2488 39.0174 15.9055 39.7623 18.6297 39.9518C21.3539 40.1412 24.0881 39.7713 26.6641 38.8648C29.2401 37.9583 31.6033 36.5343 33.6085 34.6805C35.6137 32.8267 37.2183 30.5822 38.3238 28.0852C38.4435 27.8375 38.5493 27.5833 38.6406 27.3239C40.05 23.6906 40.3787 19.7274 39.5873 15.9116L39.5765 15.8504ZM32.6348 6.69862C32.75 6.8084 32.8634 6.91999 32.9767 7.03337C34.7195 8.77003 36.0943 10.8402 37.019 13.1202C37.0399 13.1715 37.0466 13.2275 37.0384 13.2823C37.0302 13.3372 37.0075 13.3888 36.9725 13.4318C36.9376 13.4749 36.8917 13.5077 36.8398 13.527C36.7878 13.5462 36.7316 13.5512 36.677 13.5413C36.0904 13.4418 35.4955 13.3996 34.9007 13.4153C34.6806 13.4201 34.466 13.3463 34.2954 13.2071C34.1249 13.0679 34.0096 12.8724 33.9702 12.6558C33.6518 10.7854 33.1366 8.95388 32.4332 7.19175L32.3198 6.91998C32.3014 6.87845 32.2979 6.83179 32.31 6.78797C32.3221 6.74416 32.3491 6.70592 32.3863 6.67978C32.4235 6.65364 32.4686 6.64122 32.5139 6.64466C32.5592 6.6481 32.602 6.66717 32.6348 6.69862ZM34.5371 18.4403C34.5365 18.3948 34.5503 18.3504 34.5766 18.3133C34.6028 18.2763 34.6402 18.2485 34.6833 18.2341C34.7263 18.2197 34.7729 18.2193 34.8162 18.2331C34.8595 18.2469 34.8972 18.274 34.9241 18.3107C35.0753 18.5212 35.2192 18.7336 35.3578 18.946C35.5414 19.2279 35.7124 19.5087 35.8707 19.7883C35.9196 19.8729 35.9402 19.9709 35.9295 20.068C35.9188 20.1651 35.8774 20.2562 35.8114 20.3282C35.5966 20.5682 35.3638 20.8117 35.1131 21.0589L34.8377 21.3361C34.8122 21.3637 34.7786 21.3826 34.7418 21.3901C34.705 21.3977 34.6667 21.3936 34.6324 21.3783C34.598 21.363 34.5693 21.3373 34.5503 21.3049C34.5313 21.2725 34.5229 21.2349 34.5263 21.1975C34.5389 20.8969 34.5461 20.5946 34.5515 20.2976C34.5569 19.6695 34.5533 19.0522 34.5371 18.4403ZM9.34049 5.06263C12.4469 2.83814 16.1743 1.6469 19.9951 1.65749C21.0074 1.65688 22.018 1.73934 23.0169 1.90406C23.0746 1.91439 23.1282 1.94102 23.1714 1.98081C23.2145 2.0206 23.2454 2.07189 23.2603 2.12864C23.2752 2.18538 23.2737 2.24522 23.2557 2.30109C23.2378 2.35696 23.2042 2.40654 23.159 2.44398C22.2016 3.19628 21.3107 4.30853 20.5224 5.75014C20.4291 5.92066 20.2809 6.05457 20.1018 6.13007C19.9227 6.20556 19.7233 6.21818 19.5361 6.16588C17.0836 5.4487 14.5353 5.11302 11.9807 5.17062C11.147 5.19779 10.3163 5.28561 9.49527 5.43338C9.44975 5.43986 9.40337 5.43099 9.36345 5.40818C9.32353 5.38537 9.29234 5.34992 9.2748 5.30742C9.25726 5.26492 9.25438 5.21778 9.2666 5.17346C9.27882 5.12914 9.30545 5.09014 9.34229 5.06263H9.34049ZM6.72004 32.4802C6.33489 31.7513 6.83343 30.0649 9.36749 27.502C9.43001 27.439 9.47854 27.3634 9.50989 27.2803C9.54125 27.1973 9.55474 27.1085 9.54947 27.0198C9.54421 26.9312 9.52031 26.8446 9.47934 26.7658C9.43837 26.6871 9.38124 26.6178 9.3117 26.5626L9.00934 26.3214C8.88781 26.2228 8.73401 26.1728 8.57773 26.1811C8.42146 26.1894 8.27382 26.2554 8.16345 26.3664L8.06446 26.4654C6.80463 27.7648 5.90475 28.9688 5.41522 30.0505C5.38317 30.1204 5.33303 30.1806 5.26997 30.2246C5.2069 30.2687 5.13321 30.2951 5.05651 30.3012C4.97981 30.3073 4.90289 30.2927 4.83369 30.2591C4.7645 30.2254 4.70554 30.1739 4.66292 30.1099C2.6832 27.1148 1.63198 23.6017 1.64112 20.0114C1.6402 18.7244 1.77411 17.4407 2.04067 16.1815C2.03852 16.1338 2.05542 16.0872 2.08765 16.0519C2.11989 16.0166 2.16481 15.9956 2.21254 15.9935C2.26028 15.9913 2.30691 16.0082 2.34218 16.0405C2.37745 16.0727 2.39847 16.1176 2.40062 16.1654C2.83369 17.5373 3.45838 18.8412 4.25617 20.0384C5.50714 21.9177 7.01359 23.6138 8.73217 25.0778C9.34769 25.6177 9.99201 26.127 10.6741 26.6238C12.0856 27.6569 13.5742 28.5805 15.1267 29.3864C15.8304 29.7463 16.5161 30.1063 17.218 30.4158C17.4111 30.5037 17.6199 30.5519 17.8319 30.5578C18.0439 30.5637 18.255 30.527 18.4527 30.45C18.7838 30.3205 19.1168 30.1855 19.4515 30.0451C19.6282 29.9715 19.7725 29.8368 19.8581 29.6657C19.9436 29.4945 19.9648 29.2983 19.9177 29.1128C19.9051 29.0642 19.8961 29.0264 19.8907 29.003C19.3125 26.4811 19.0107 23.9036 18.9908 21.3163V21.2173C18.9908 21.0679 18.9908 20.9167 18.9908 20.7673C18.9908 20.7205 18.9908 20.6396 18.9908 20.5874V20.5298C18.9908 20.3588 18.9908 20.1878 18.9908 20.015C18.9908 19.5453 19.016 19.0774 19.0412 18.6148C19.2212 15.3051 19.7737 12.1951 20.661 9.58003C20.7005 9.46379 20.6925 9.33661 20.6385 9.22632C20.5845 9.11603 20.4891 9.0316 20.373 8.99151C20.1355 8.91232 19.8997 8.83493 19.6657 8.76114C19.5511 8.72506 19.427 8.73516 19.3197 8.78928C19.2125 8.84341 19.1306 8.93729 19.0916 9.0509C18.1251 11.8909 17.5276 15.2619 17.3674 18.829C17.3577 19.0514 17.2927 19.268 17.1783 19.459C17.0639 19.65 16.9038 19.8096 16.7123 19.9233C14.7151 21.0963 12.801 22.4054 10.9837 23.8413C10.8141 23.9761 10.6027 24.0474 10.3861 24.0428C10.1695 24.0382 9.96135 23.958 9.79763 23.8161C8.20023 22.457 6.79978 20.882 5.63659 19.1368C3.53627 15.9116 3.03593 12.8736 4.23097 10.5843L4.23997 10.5681C4.39295 10.3143 4.55133 10.066 4.71511 9.8194C6.08833 8.00344 8.64219 6.95058 12.0293 6.8318C12.2429 6.8246 12.4589 6.821 12.6772 6.821C14.9051 6.84521 17.1187 7.18082 19.2536 7.81807L19.403 7.86306L19.5181 7.89545C20.0425 8.05263 20.5674 8.22541 21.0929 8.41379L21.1307 8.42638L21.5411 8.57936L21.6706 8.62796L21.7948 8.67475C22.924 9.11171 24.0283 9.6104 25.1028 10.1686C27.1469 11.2239 29.0701 12.4984 30.8386 13.9696C27.6225 14.7057 23.8862 16.1294 20.1265 18.0443C20.0409 18.0873 19.9682 18.1523 19.916 18.2326C19.8639 18.313 19.834 18.4058 19.8295 18.5014C19.8151 18.7336 19.7989 19.2015 19.7863 19.5813C19.7845 19.6346 19.7968 19.6874 19.8218 19.7344C19.8469 19.7815 19.8839 19.8211 19.9291 19.8494C19.9743 19.8776 20.0261 19.8935 20.0794 19.8954C20.1327 19.8973 20.1855 19.8852 20.2326 19.8603C23.9527 17.9057 27.6674 16.4407 30.8512 15.674C31.1388 15.6041 31.3901 15.4299 31.5564 15.1851C31.7227 14.9403 31.7921 14.6425 31.7511 14.3494C31.6923 13.9247 31.6263 13.5047 31.5531 13.0896C31.461 12.575 31.179 12.1139 30.763 11.7973C29.2205 10.6265 27.5803 9.59021 25.8605 8.69995C24.6922 8.09239 23.4905 7.55159 22.261 7.08016C22.2001 7.05716 22.1449 7.02126 22.0991 6.97494C22.0534 6.92861 22.0182 6.87294 21.996 6.81175C21.9738 6.75056 21.965 6.68529 21.9704 6.62041C21.9757 6.55553 21.995 6.49257 22.027 6.43585C23.2706 4.20955 24.75 2.96411 26.1916 2.96411H26.2366C27.9374 2.99471 29.6328 4.76387 30.8872 7.82347C31.5682 9.52056 32.0642 11.2861 32.3666 13.0896C32.5106 13.9175 32.6258 14.7723 32.7122 15.6488L32.6888 15.6632L32.7194 15.6938C32.8665 17.2123 32.9265 18.738 32.8993 20.2634C32.8814 21.2533 32.8292 22.2287 32.7446 23.1844C30.1905 25.2058 27.4518 26.9822 24.5647 28.4901C23.5496 29.03 22.5327 29.5286 21.5285 29.9911L21.4817 30.0127L21.2495 30.1171C20.4168 30.495 19.5937 30.843 18.7802 31.161L18.6435 31.2131L18.4635 31.2797L18.0567 31.4345L17.9451 31.4759L17.4538 31.6559L17.3944 31.6793C15.7957 32.2624 14.155 32.7232 12.4865 33.0579C8.83116 33.758 7.12139 33.2181 6.72004 32.4802ZM11.7504 25.3549C13.5198 23.932 15.3885 22.6371 17.3422 21.48C17.3733 24.0081 17.6585 26.5266 18.1935 28.9976C17.4232 28.6677 16.6559 28.3077 15.8916 27.9178C14.449 27.1683 13.0647 26.3116 11.7504 25.3549ZM22.369 38.216C21.5835 38.3172 20.7924 38.3677 20.0005 38.3672C16.487 38.377 13.0457 37.3707 10.091 35.4696C10.0471 35.4412 10.0133 35.3997 9.99448 35.3509C9.97571 35.3021 9.97293 35.2486 9.98655 35.1981C10.0002 35.1476 10.0295 35.1028 10.0703 35.0701C10.111 35.0373 10.1611 35.0184 10.2134 35.016H10.352C11.1715 34.9572 11.9866 34.8472 12.7924 34.6867C14.8956 34.2585 16.958 33.6497 18.9566 32.8671C19.0512 32.8321 19.1558 32.8352 19.2481 32.8759C19.3405 32.9165 19.4134 32.9915 19.4515 33.0849C20.301 35.151 21.3449 36.7114 22.5111 37.7049C22.5533 37.7415 22.5841 37.7893 22.6 37.8428C22.6159 37.8963 22.6162 37.9532 22.6009 38.0068C22.5856 38.0605 22.5553 38.1087 22.5136 38.1457C22.4719 38.1828 22.4204 38.2071 22.3654 38.216H22.369ZM30.1295 33.3153C28.8175 35.8925 27.2049 37.3395 25.6409 37.3107C23.9401 37.2801 22.2448 35.511 20.9885 32.4514C20.9506 32.3577 20.9509 32.2529 20.9892 32.1594C21.0276 32.0659 21.101 31.9911 21.1937 31.951L21.2333 31.9348C21.3155 31.8984 21.4079 31.8921 21.4943 31.9168C23.7179 32.5599 26.0187 32.8971 28.3334 32.9193C28.5691 32.9193 28.8031 32.9193 29.0335 32.9067C29.3052 32.8977 29.5734 32.8833 29.8362 32.8617C29.8904 32.86 29.9442 32.8724 29.9922 32.8977C30.0402 32.923 30.0807 32.9604 30.11 33.0061C30.1392 33.0519 30.156 33.1044 30.1588 33.1586C30.1616 33.2128 30.1503 33.2668 30.1259 33.3153H30.1295ZM30.6982 31.098C30.1262 31.1808 29.55 31.2319 28.9723 31.2509C27.4223 31.2941 25.8722 31.1704 24.3487 30.882C24.3061 30.874 24.267 30.8528 24.2371 30.8214C24.2071 30.79 24.1878 30.75 24.1818 30.707C24.1759 30.6641 24.1836 30.6203 24.2038 30.582C24.2241 30.5436 24.2559 30.5126 24.2947 30.4932C24.6421 30.3133 24.9912 30.1333 25.3386 29.9533C27.6731 28.7233 29.9192 27.3323 32.0607 25.7905C32.0939 25.7663 32.1336 25.7526 32.1746 25.7511C32.2157 25.7496 32.2562 25.7603 32.2912 25.7819C32.3261 25.8036 32.3538 25.8351 32.3708 25.8725C32.3877 25.9099 32.3932 25.9515 32.3864 25.992C32.1292 27.5706 31.7452 29.1258 31.2382 30.6426C31.1988 30.7609 31.1276 30.866 31.0323 30.9463C30.9371 31.0267 30.8214 31.0791 30.6982 31.098ZM33.3979 32.554C33.2593 32.7015 33.1189 32.8473 32.9749 32.9913C32.7242 33.2421 32.468 33.482 32.2064 33.7112C32.1716 33.7427 32.1269 33.7612 32.0799 33.7635C32.033 33.7658 31.9867 33.7517 31.9489 33.7237C31.9111 33.6957 31.8843 33.6555 31.8728 33.6099C31.8613 33.5643 31.866 33.5162 31.8861 33.4736L31.9653 33.2937C32.0757 33.0537 32.1818 32.8053 32.2838 32.5486C32.2963 32.5193 32.3153 32.4932 32.3393 32.4724C32.3633 32.4515 32.3917 32.4363 32.4224 32.428C32.6834 32.3632 32.9371 32.2894 33.1837 32.2102C33.229 32.1875 33.2812 32.1825 33.33 32.1962C33.3788 32.21 33.4207 32.2414 33.4475 32.2845C33.4743 32.3275 33.4841 32.379 33.4749 32.4288C33.4657 32.4787 33.4383 32.5233 33.3979 32.554ZM37.0874 26.7317C36.9992 26.9567 36.9074 27.1781 36.8084 27.3995C36.794 27.4301 36.7796 27.4606 36.7634 27.4912C36.1587 28.6557 35.1436 29.5736 33.7866 30.2125C33.7188 30.2431 33.6437 30.2538 33.57 30.2433C33.4963 30.2328 33.4272 30.2016 33.3706 30.1533C33.314 30.105 33.2723 30.0416 33.2503 29.9705C33.2284 29.8994 33.2271 29.8235 33.2467 29.7517C33.7152 28.0479 34.0533 26.311 34.2582 24.5558C34.3002 24.214 34.4684 23.9001 34.7297 23.6758C35.2876 23.1916 35.8096 22.7093 36.2883 22.2359C36.3419 22.1819 36.4086 22.1426 36.4818 22.122C36.5551 22.1013 36.6324 22.1 36.7064 22.1181C36.7803 22.1363 36.8483 22.1732 36.9037 22.2254C36.9591 22.2776 37.0001 22.3432 37.0226 22.4159C37.4959 23.9853 37.5229 25.4521 37.0892 26.7317H37.0874ZM37.4473 18.1325C37.4157 18.1887 37.3702 18.2358 37.315 18.2692C37.2599 18.3026 37.197 18.3212 37.1326 18.3232C37.0681 18.3252 37.0042 18.3105 36.9471 18.2806C36.89 18.2506 36.8416 18.2064 36.8066 18.1523L36.7364 18.0425C36.1694 17.1755 35.5409 16.3502 34.8557 15.5732C34.8175 15.5289 34.7928 15.4746 34.7845 15.4168C34.7763 15.3589 34.7847 15.2998 34.809 15.2466C34.8332 15.1934 34.8722 15.1483 34.9213 15.1165C34.9704 15.0848 35.0276 15.0678 35.0861 15.0675C36.731 15.0675 37.5931 15.4742 37.8559 15.9674C38.0899 16.3849 38.0233 17.1102 37.4563 18.1289L37.4473 18.1325ZM38.3346 20.5586C38.3339 20.5849 38.3242 20.6102 38.3071 20.6302C38.29 20.6502 38.2665 20.6638 38.2407 20.6687C38.2148 20.6735 38.188 20.6693 38.1648 20.6568C38.1416 20.6443 38.1234 20.6243 38.1133 20.6C38.0935 20.5514 38.0719 20.501 38.0503 20.4524C38.0306 20.4079 38.023 20.3589 38.0284 20.3106C38.0338 20.2622 38.0519 20.2161 38.0809 20.177L38.1475 20.0888C38.2284 19.9844 38.3436 20.0006 38.3436 20.1158C38.3526 20.2688 38.349 20.402 38.3436 20.5586H38.3346ZM96.5821 16.2175H103.482C103.628 16.2171 103.773 16.1857 103.906 16.1254C104.039 16.0651 104.158 15.9774 104.255 15.8679C104.351 15.7584 104.424 15.6297 104.467 15.4902C104.511 15.3507 104.524 15.2035 104.506 15.0585C104.47 14.8067 104.343 14.5767 104.15 14.4112C103.957 14.2457 103.71 14.156 103.455 14.1586H94.8867C94.6135 14.1596 94.3517 14.2685 94.1585 14.4617C93.9653 14.6549 93.8564 14.9167 93.8554 15.1899V25.5079C93.8564 25.7811 93.9653 26.0429 94.1585 26.2361C94.3517 26.4293 94.6135 26.5382 94.8867 26.5392H103.491C103.637 26.5387 103.781 26.5073 103.914 26.4472C104.047 26.387 104.166 26.2994 104.263 26.1901C104.359 26.0808 104.432 25.9523 104.476 25.813C104.519 25.6738 104.533 25.5268 104.515 25.3819C104.479 25.1301 104.352 24.9001 104.159 24.7346C103.966 24.5691 103.719 24.4794 103.464 24.482H96.591C96.413 24.482 96.2423 24.4113 96.1164 24.2854C95.9905 24.1595 95.9197 23.9888 95.9197 23.8107V22.056C95.9197 21.8779 95.9905 21.7072 96.1164 21.5813C96.2423 21.4554 96.413 21.3847 96.591 21.3847H101.771C101.917 21.3842 102.061 21.3528 102.194 21.2926C102.327 21.2325 102.446 21.1449 102.542 21.0356C102.639 20.9263 102.711 20.7978 102.755 20.6585C102.798 20.5192 102.812 20.3723 102.795 20.2274C102.758 19.9756 102.632 19.7456 102.438 19.5801C102.245 19.4146 101.998 19.3249 101.744 19.3275H96.591C96.413 19.3275 96.2423 19.2568 96.1164 19.1309C95.9905 19.005 95.9197 18.8343 95.9197 18.6562V16.9015C95.9181 16.8122 95.9342 16.7236 95.9672 16.6407C96.0002 16.5578 96.0494 16.4823 96.1119 16.4186C96.1744 16.3549 96.2489 16.3043 96.3312 16.2698C96.4135 16.2353 96.5018 16.2175 96.591 16.2175H96.5821ZM117.673 20.2274C116.727 19.6245 115.453 19.3149 113.853 19.3149C111.736 19.3149 110.669 18.7984 110.669 17.7653C110.669 16.7323 111.736 16.2175 113.853 16.2175C115.005 16.2145 116.148 16.4358 117.216 16.8691C117.837 17.058 118.267 16.8349 118.507 16.2319C118.714 15.692 118.438 15.1827 117.871 14.9253C116.603 14.3919 115.237 14.1284 113.862 14.1514C112.296 14.1514 111.04 14.4772 110.059 15.1143C109.608 15.3913 109.238 15.7817 108.985 16.2466C108.732 16.7115 108.606 17.2346 108.619 17.7635C108.619 18.9514 109.101 19.8639 110.048 20.4632C110.995 21.0625 112.267 21.3757 113.867 21.3757C115.983 21.3757 117.051 21.8922 117.051 22.9252C117.051 23.9583 115.983 24.473 113.867 24.473H113.35C112.207 24.4563 111.077 24.235 110.012 23.8197C109.886 23.7723 109.751 23.7508 109.616 23.7564C109.482 23.762 109.349 23.7946 109.227 23.8524C109.105 23.9102 108.996 23.9918 108.907 24.0926C108.817 24.1933 108.749 24.3111 108.705 24.4388C108.613 24.7014 108.628 24.9899 108.747 25.2414C108.866 25.4929 109.08 25.6871 109.342 25.7815C110.614 26.3003 111.977 26.5574 113.35 26.5374H113.867C115.433 26.5374 116.689 26.2116 117.646 25.5745C118.103 25.3021 118.479 24.9132 118.736 24.4478C118.993 23.9823 119.122 23.4569 119.11 22.9252C119.11 21.741 118.627 20.8285 117.682 20.2274H117.673ZM138.331 14.1532C138.058 14.1537 137.795 14.2624 137.602 14.4557C137.408 14.6489 137.299 14.911 137.298 15.1845V25.5079C137.309 25.7742 137.423 26.0259 137.615 26.2104C137.807 26.3949 138.064 26.4979 138.33 26.4979C138.597 26.4979 138.853 26.3949 139.045 26.2104C139.238 26.0259 139.351 25.7742 139.362 25.5079V15.1845C139.361 14.9128 139.254 14.6524 139.062 14.4595C138.871 14.2665 138.612 14.1565 138.34 14.1532H138.331ZM132.874 14.1532H122.587C122.441 14.1534 122.296 14.1846 122.163 14.2447C122.03 14.3047 121.911 14.3923 121.815 14.5017C121.718 14.611 121.645 14.7396 121.602 14.8791C121.559 15.0185 121.545 15.1655 121.563 15.3105C121.599 15.5626 121.725 15.793 121.919 15.9587C122.112 16.1243 122.359 16.2138 122.614 16.2103H126.044C126.223 16.2103 126.394 16.2813 126.52 16.4075C126.646 16.5337 126.717 16.7049 126.717 16.8835V25.5079C126.718 25.6538 126.749 25.798 126.809 25.931C126.869 26.0639 126.957 26.1827 127.066 26.2794C127.176 26.3761 127.304 26.4486 127.443 26.4921C127.583 26.5356 127.73 26.5492 127.874 26.532C128.127 26.4953 128.357 26.3684 128.522 26.1747C128.688 25.9811 128.777 25.7339 128.774 25.4791V16.8907C128.774 16.8022 128.791 16.7146 128.825 16.6328C128.859 16.551 128.908 16.4767 128.971 16.4142C129.034 16.3516 129.108 16.302 129.19 16.2683C129.271 16.2346 129.359 16.2173 129.447 16.2175H132.903C133.049 16.217 133.194 16.1856 133.327 16.1254C133.46 16.0651 133.579 15.9774 133.676 15.868C133.773 15.7585 133.845 15.6298 133.889 15.4903C133.932 15.3508 133.946 15.2036 133.929 15.0585C133.894 14.8066 133.768 14.5761 133.576 14.4096C133.384 14.2432 133.138 14.1521 132.883 14.1532H132.874ZM89.4406 24.4766H82.5709C82.3922 24.4766 82.2208 24.4058 82.0943 24.2796C81.9678 24.1534 81.8965 23.9822 81.896 23.8035V15.2115C81.8986 14.957 81.8089 14.7103 81.6434 14.517C81.4779 14.3237 81.2479 14.197 80.9961 14.1604C80.8511 14.1429 80.704 14.1563 80.5645 14.1997C80.425 14.2431 80.2962 14.3155 80.1867 14.4123C80.0772 14.509 79.9895 14.6278 79.9292 14.7609C79.869 14.894 79.8376 15.0384 79.8371 15.1845V25.5079C79.838 25.7814 79.9472 26.0435 80.1408 26.2367C80.3344 26.4299 80.5966 26.5387 80.8702 26.5392H89.473C89.619 26.539 89.7633 26.5078 89.8964 26.4477C90.0295 26.3877 90.1484 26.3001 90.2451 26.1907C90.3419 26.0814 90.4144 25.9527 90.4578 25.8133C90.5012 25.6739 90.5146 25.5269 90.4971 25.3819C90.4623 25.1279 90.3355 24.8954 90.1408 24.7286C89.9461 24.5617 89.697 24.4721 89.4406 24.4766ZM55.7977 16.2175C56.3405 16.2079 56.8794 16.3116 57.3799 16.522C57.8803 16.7325 58.3314 17.045 58.7043 17.4396C58.8515 17.5809 59.0367 17.6761 59.2372 17.7136C59.4377 17.7511 59.6448 17.7292 59.8331 17.6507C60.0214 17.5721 60.1826 17.4403 60.297 17.2714C60.4114 17.1025 60.474 16.9039 60.4771 16.6999C60.4708 16.539 60.429 16.3814 60.3546 16.2386C60.2802 16.0958 60.1752 15.9712 60.0469 15.8738C59.1646 15.0392 58.0558 14.4832 56.8592 14.2752C55.6626 14.0672 54.4313 14.2165 53.3191 14.7044C52.2068 15.1923 51.2631 15.9972 50.6058 17.0185C49.9484 18.0398 49.6067 19.2322 49.6232 20.4466C49.6397 21.661 50.0138 22.8436 50.6987 23.8466C51.3836 24.8496 52.3489 25.6286 53.4739 26.086C54.599 26.5435 55.834 26.6592 57.0245 26.4188C58.215 26.1783 59.3082 25.5923 60.1675 24.734C60.3485 24.5375 60.4464 24.2785 60.4408 24.0114C60.4352 23.7443 60.3265 23.4897 60.1375 23.3009C59.9484 23.1121 59.6937 23.0037 59.4266 22.9984C59.1595 22.9931 58.9006 23.0914 58.7043 23.2726C58.3283 23.6619 57.8762 23.9696 57.3762 24.1768C56.8761 24.3839 56.3388 24.486 55.7977 24.4766C55.2545 24.4793 54.7163 24.3742 54.2139 24.1676C53.7116 23.9609 53.2552 23.6568 52.8712 23.2727C52.4871 22.8886 52.183 22.4323 51.9763 21.9299C51.7697 21.4276 51.6646 20.8893 51.6672 20.3462C51.6579 19.805 51.76 19.2678 51.9671 18.7677C52.1743 18.2677 52.482 17.8156 52.8713 17.4396C53.2502 17.0474 53.7051 16.7367 54.2084 16.5265C54.7116 16.3164 55.2524 16.2112 55.7977 16.2175ZM67.6761 16.2175H74.5746C74.7207 16.217 74.8652 16.1856 74.9983 16.1254C75.1315 16.0651 75.2504 15.9774 75.3473 15.868C75.4442 15.7585 75.5168 15.6298 75.5605 15.4903C75.6041 15.3508 75.6177 15.2036 75.6004 15.0585C75.5638 14.8064 75.4369 14.5761 75.2432 14.4106C75.0495 14.2451 74.8023 14.1555 74.5476 14.1586H65.9627C65.6894 14.1596 65.4274 14.2685 65.2339 14.4616C65.0404 14.6547 64.9311 14.9165 64.9297 15.1899V25.5079C64.9311 25.7813 65.0404 26.043 65.2339 26.2362C65.4274 26.4293 65.6894 26.5382 65.9627 26.5392H74.5656C74.7117 26.5389 74.856 26.5077 74.9892 26.4477C75.1224 26.3877 75.2413 26.3001 75.3383 26.1908C75.4352 26.0815 75.5078 25.9529 75.5515 25.8135C75.5951 25.6741 75.6087 25.527 75.5915 25.3819C75.5548 25.1298 75.4279 24.8996 75.2342 24.734C75.0405 24.5685 74.7933 24.479 74.5386 24.482H67.6671C67.5788 24.482 67.4914 24.4646 67.4098 24.4308C67.3282 24.3969 67.2541 24.3473 67.1918 24.2848C67.1294 24.2223 67.08 24.148 67.0464 24.0664C67.0128 23.9847 66.9956 23.8972 66.9958 23.8089V22.0524C66.9956 21.9641 67.0128 21.8766 67.0464 21.7949C67.08 21.7133 67.1294 21.639 67.1918 21.5765C67.2541 21.514 67.3282 21.4644 67.4098 21.4305C67.4914 21.3967 67.5788 21.3793 67.6671 21.3793H72.845C72.9911 21.379 73.1355 21.3478 73.2686 21.2878C73.4018 21.2277 73.5208 21.1402 73.6177 21.0309C73.7146 20.9216 73.7872 20.793 73.8309 20.6536C73.8745 20.5141 73.8882 20.3671 73.8709 20.222C73.8343 19.9699 73.7073 19.7397 73.5136 19.5741C73.32 19.4086 73.0728 19.319 72.818 19.3221H67.6671C67.5788 19.3221 67.4914 19.3047 67.4098 19.2709C67.3282 19.237 67.2541 19.1874 67.1918 19.1249C67.1294 19.0623 67.08 18.9881 67.0464 18.9065C67.0128 18.8248 66.9956 18.7373 66.9958 18.649V16.8979C66.9946 16.8089 67.0111 16.7207 67.0443 16.6382C67.0775 16.5557 67.1268 16.4806 67.1892 16.4173C67.2517 16.354 67.3261 16.3038 67.4081 16.2695C67.4902 16.2352 67.5782 16.2175 67.6671 16.2175H67.6761Z" fill="#7B2BF9"/>
</svg>
