<svg width="120" height="35" viewBox="0 0 120 35" fill="none" xmlns="http://www.w3.org/2000/svg">
<g clip-path="url(#clip0_202_18588)">
<mask id="mask0_202_18588" style="mask-type:luminance" maskUnits="userSpaceOnUse" x="0" y="0" width="120" height="35">
<path d="M0 0H119.75V34.0157H0V0Z" fill="white"/>
</mask>
<g mask="url(#mask0_202_18588)">
<path d="M18.6162 33.9456C17.9899 33.9638 17.3804 33.7416 16.9125 33.3244C16.4447 32.9074 16.1539 32.3269 16.0998 31.7022L15.8166 29.4804C13.1195 28.7109 11.5416 26.7132 11.1318 23.5411L8.70431 4.82164C8.18361 4.73776 7.65654 4.69983 7.1292 4.70826C6.34867 4.70186 5.57093 4.80269 4.81778 5.00792V33.3976H0.0546875V10.5773C0.0546875 7.4808 1.4437 5.29408 3.97358 4.38429V2.91298C3.97358 1.21219 5.00657 0.0702325 6.54123 0.0702325C8.07589 0.0702325 9.03875 1.02591 9.28689 2.7699L9.47566 4.13323C12.2456 4.90803 13.8639 7.13525 14.344 10.7501L16.588 28.7947C17.9287 29.0538 19.3065 29.0538 20.6471 28.7947L22.8911 10.7528C23.3604 7.13525 24.9975 4.90803 27.7594 4.12512L27.9482 2.7618C28.1963 1.02591 29.1727 0.0621338 30.6938 0.0621338C32.215 0.0621338 33.2615 1.2041 33.2615 2.90488V4.3762C35.7914 5.28598 37.1804 7.47271 37.1804 10.5692V33.3894H32.4119V5.00521C31.6587 4.79998 30.881 4.69916 30.1004 4.70555C29.5731 4.69712 29.0461 4.73506 28.5253 4.81894L26.0979 23.5411C25.6961 26.6565 24.0805 28.7028 21.4131 29.4804L21.1461 31.7049C21.1044 32.3366 20.8153 32.9264 20.3415 33.3461C19.8678 33.7657 19.2478 33.9811 18.6162 33.9456ZM16.6985 29.6964L16.944 31.6104C16.9697 32.0301 17.1597 32.4227 17.4728 32.7033C17.7857 32.9837 18.1965 33.1294 18.6162 33.1087C18.825 33.1237 19.0346 33.0966 19.2327 33.0291C19.4308 32.9615 19.6134 32.8548 19.7696 32.7154C19.9258 32.5759 20.0524 32.4065 20.142 32.2171C20.2315 32.0278 20.2823 31.8224 20.2911 31.6131L20.5365 29.6964C19.2657 29.9051 17.9694 29.9051 16.6985 29.6964ZM33.2615 32.5607H36.3308V10.5773C36.3308 7.95324 35.2735 6.14177 33.2615 5.29678V32.5607ZM0.896185 32.5607H3.97358V5.29678C1.96424 6.14177 0.917762 7.95324 0.917762 10.5773L0.896185 32.5607ZM9.59707 5.05381L11.9759 23.4304C12.3158 26.0896 13.5699 27.8092 15.7006 28.5598L13.5025 10.8554C13.0979 7.73457 11.8168 5.82861 9.59707 5.05381ZM27.638 5.05381C25.4183 5.82861 24.1318 7.73458 23.7326 10.8581L21.5344 28.549C23.6679 27.7985 24.9194 26.0788 25.2592 23.4196L27.638 5.05381ZM4.82317 4.11433C5.57974 3.93018 6.356 3.83951 7.1346 3.84436C7.6215 3.83922 8.10816 3.86809 8.59103 3.93075L8.4454 2.86978C8.25929 1.56855 7.61738 0.909828 6.54123 0.909828C5.46509 0.909828 4.82317 1.67383 4.82317 2.90218V4.11433ZM30.1004 3.84436C30.879 3.83951 31.6553 3.93018 32.4119 4.11433V2.91298C32.4119 1.68463 31.7538 0.920627 30.6938 0.920627C29.6339 0.920627 28.9758 1.57935 28.7897 2.88058L28.644 3.94155C29.1269 3.87888 29.6135 3.85001 30.1004 3.85516V3.84436Z" fill="#2D2D2D"/>
<path d="M50.3285 33.3975H45.6489V0.618164H50.3285V33.3975ZM46.4986 32.5471H49.4788V1.46856H46.4986V32.5471Z" fill="#2D2D2D"/>
<path d="M80.6871 33.9455C78.6562 33.9455 78.1924 32.0909 78.0413 31.4807L77.6906 29.9257C74.651 29.3858 72.7954 27.4232 72.0267 23.9433L67.6223 4.7973C67.1186 4.73416 66.6115 4.70349 66.1038 4.70551C65.2609 4.69183 64.4207 4.80561 63.6117 5.04297V33.3894H58.8433V10.4423C58.8433 7.47267 60.1918 5.40742 62.7622 4.44095V2.91293C62.7622 1.21215 63.7925 0.0701904 65.3271 0.0701904C66.6514 0.0701904 67.625 0.912485 67.9326 2.32171L68.3236 4.04949C71.2904 4.58943 73.0705 6.49539 73.8985 10.0293L78.3892 29.178C78.8947 29.241 79.4037 29.2717 79.9131 29.2697C80.7526 29.2762 81.5894 29.1737 82.4025 28.9647V0.618223H87.171V24.297C87.171 26.7266 85.7496 28.6327 83.2521 29.5694V31.0461C83.2521 32.8387 82.2704 33.9455 80.6871 33.9455ZM78.5942 30.0608L78.8639 31.2837C79.1849 32.5688 79.7135 33.0952 80.6845 33.0952C81.7633 33.0952 82.3998 32.3528 82.3998 31.0569V29.8366C81.5834 30.0236 80.7479 30.1142 79.9104 30.1067C79.4708 30.1076 79.0315 30.0861 78.5942 30.0419V30.0554V30.0608ZM59.6928 32.5471H62.7622V5.35343C60.7231 6.23623 59.6928 7.94511 59.6928 10.4396V32.5471ZM68.5312 4.95658L72.8466 23.7543C73.5155 26.7644 75.0043 28.4517 77.4749 29.016L73.0732 10.2182C72.3557 7.1649 70.9452 5.51541 68.5312 4.95658ZM83.2521 1.46862V28.665C85.2371 27.8227 86.3214 26.292 86.3214 24.3078V1.46862H83.2521ZM63.6117 4.14668C64.4255 3.93667 65.2635 3.83501 66.1038 3.84432C66.5434 3.84328 66.9828 3.86491 67.4201 3.90911V3.89561L67.1018 2.49449C66.9724 1.90056 66.5624 0.909785 65.3271 0.909785C64.0918 0.909785 63.6117 1.93835 63.6117 2.90213V4.14668Z" fill="#2D2D2D"/>
<path d="M119.914 33.3975H114.924L112.465 23.6356H98.6336L96.2194 33.3975H91.23L97.6651 9.68912C98.4097 6.98135 100.111 5.12938 102.598 4.31948L103.043 2.45671C103.313 1.43084 103.852 0.0783081 105.554 0.0783081C107.257 0.0783081 107.798 1.42814 108.063 2.44861L108.502 4.31948C110.983 5.12938 112.686 6.98944 113.432 9.69451L119.914 33.3975ZM115.585 32.5471H118.8L112.613 9.91315C112.001 7.69136 110.673 6.11476 108.753 5.32375L112.577 20.4445H98.5797L102.355 5.31026C100.433 6.12015 99.1051 7.68866 98.4938 9.89964L92.3493 32.5471H95.5646L97.9779 22.7852H113.117L115.585 32.5471ZM99.672 19.5887H111.48L107.801 4.98359C106.327 4.60832 104.782 4.60832 103.308 4.98359L99.672 19.5887ZM103.542 4.02791V4.06031C104.871 3.78764 106.241 3.78764 107.569 4.06031V4.02522L107.24 2.64028C106.919 1.40114 106.447 0.915203 105.557 0.915203C104.667 0.915203 104.195 1.40115 103.871 2.64839L103.542 4.02522V4.02791Z" fill="#2D2D2D"/>
</g>
</g>
<defs>
<clipPath id="clip0_202_18588">
<rect width="120" height="34.0157" fill="white"/>
</clipPath>
</defs>
</svg>
