<svg width="139" height="40" viewBox="0 0 139 40" fill="none" xmlns="http://www.w3.org/2000/svg">
<path d="M31.1337 33.4581L34.8196 35.2574C35.9027 35.7902 37.2128 35.3185 37.6321 34.183C38.7064 31.2832 39.5449 27.8419 39.8418 24.3132C40.1825 20.1731 39.7632 15.9457 38.1212 12.286C38.0513 12.1288 37.9727 11.9716 37.9028 11.8144C37.3351 10.7313 36.2782 9.40368 34.7235 8.52151C32.9679 7.52579 30.531 7.08034 27.3343 8.27695C26.653 8.53024 25.963 8.86215 25.2729 9.25519C26.1464 10.74 26.7665 12.7402 26.8189 15.378C26.8626 17.7625 26.4783 20.0159 25.8844 22.0248L31.4918 24.1123C32.8194 24.6015 33.6841 25.9203 33.4221 27.3091C33.1077 28.9774 32.5749 30.6019 31.8412 32.1479C31.6141 32.5759 31.387 33.0214 31.1337 33.4581Z" fill="#373A4A"/>
<path d="M12.1367 31.877C12.6171 31.7285 13.1237 31.5277 13.6478 31.2307C15.8925 29.9991 17.5957 27.9902 18.801 26.025C19.5871 24.7498 20.1723 23.4659 20.5741 22.3828C20.7575 21.8937 21.2991 21.6316 21.7882 21.8151L30.8632 25.1865C31.7803 25.5272 32.3567 26.4443 32.1471 27.3963C31.8764 28.6541 31.4222 30.1302 30.7147 31.615C29.5617 34.0519 27.7625 36.4626 25.0723 37.9911C22.845 39.2488 20.5741 39.9039 18.4517 40C16.1371 39.6069 14.6173 38.6025 13.6478 37.2574C12.6258 35.8337 12.1629 33.9645 12.1367 31.877Z" fill="#373A4A"/>
<path d="M17.7528 0.180057C23.4738 -0.492488 27.7274 0.773993 30.9504 3.06239C32.6623 4.27647 34.1035 5.78751 35.3263 7.4645L35.3088 7.45577C33.23 6.27663 30.4088 5.81371 26.8802 7.1326C22.1461 8.90567 17.0453 13.9105 14.3289 19.0113C12.5646 22.3216 10.8264 27.3963 10.8963 31.877C10.9312 34.1217 11.4204 36.2704 12.6432 37.9736C13.0711 38.5675 13.5777 39.0916 14.1804 39.5458C9.82197 38.4627 4.33679 35.4406 1.38458 28.4706C-1.19205 22.3915 0.0307587 15.6573 3.37602 10.242C6.72127 4.82673 12.1278 0.835133 17.7528 0.180057Z" fill="#373A4A"/>
<path d="M66.7784 11.9977C66.8395 11.7968 67.0229 11.6658 67.2238 11.6658H70.4643C70.7263 11.6658 70.9272 11.8754 70.9272 12.1287V31.2482C70.9272 31.5015 70.7176 31.7111 70.4643 31.7111H67.0491C66.8395 31.7111 66.6561 31.5713 66.595 31.3617L66.2019 29.8856C64.49 31.4054 62.2627 32.2963 59.6948 32.2963C53.6681 32.2963 49.1699 27.7282 49.1699 21.6753C49.1699 15.6224 53.6681 11.0893 59.6948 11.0893C62.2977 11.0893 64.5686 12.0151 66.3154 13.5437L66.7784 11.9977ZM60.149 27.1867C63.3108 27.1867 65.6167 24.8459 65.6167 21.6928C65.6167 18.5397 63.3108 16.1989 60.149 16.1989C56.9872 16.1989 54.6813 18.5397 54.6813 21.6928C54.6813 24.811 56.9872 27.1867 60.149 27.1867Z" fill="#373A4A"/>
<path d="M88.5011 11.9715C88.5709 11.7881 88.7456 11.6658 88.9378 11.6658H93.5408C93.8727 11.6658 94.0911 11.9977 93.9775 12.3034L86.3874 31.4229C86.3175 31.5976 86.1428 31.7198 85.9506 31.7198H81.5573C81.3651 31.7198 81.1991 31.6063 81.1293 31.4316L73.3295 12.3121C73.2072 12.0064 73.4343 11.6658 73.7575 11.6658H78.5352C78.7273 11.6658 78.9108 11.7881 78.9719 11.9715L83.7671 25.1079L88.5011 11.9715Z" fill="#373A4A"/>
<path d="M112.058 11.6658H115.648C115.91 11.6658 116.111 11.8754 116.111 12.1287V31.2482C116.111 31.5015 115.901 31.7111 115.648 31.7111H112.233C112.023 31.7111 111.84 31.5713 111.779 31.3617L111.386 29.8856C109.674 31.4054 107.446 32.2963 104.878 32.2963C98.8517 32.2963 94.3535 27.7282 94.3535 21.6753C94.3535 15.6224 98.8517 11.0893 104.878 11.0893C107.481 11.0893 109.752 12.0151 111.499 13.5437L112.058 11.6658ZM105.333 27.1867C108.494 27.1867 110.8 24.8459 110.8 21.6928C110.8 18.5397 108.494 16.1989 105.333 16.1989C102.171 16.1989 99.8649 18.5397 99.8649 21.6928C99.8649 24.811 102.171 27.1867 105.333 27.1867Z" fill="#373A4A"/>
<path d="M123.29 9.70057C121.84 9.70057 120.67 8.53017 120.67 7.08027C120.67 5.63036 121.84 4.45996 123.29 4.45996H123.447C124.897 4.45996 126.068 5.63036 126.068 7.08027C126.068 8.53017 124.897 9.70057 123.447 9.70057H123.29ZM121.098 31.7199C120.844 31.7199 120.635 31.5102 120.635 31.2569V12.1375C120.635 11.8842 120.844 11.6745 121.098 11.6745H125.596C125.849 11.6745 126.059 11.8842 126.059 12.1375V31.2569C126.059 31.519 125.849 31.7199 125.596 31.7199H121.098Z" fill="#373A4A"/>
<path d="M135.955 25.134C135.955 25.6057 136.051 25.9376 136.252 26.1385C136.479 26.3044 136.819 26.3918 137.3 26.3918H138.077C138.4 26.3918 138.593 26.68 138.593 26.9421V31.0996V31.1171C138.593 31.4228 138.357 31.6935 137.99 31.6935C137.291 31.6935 136.706 31.7197 135.964 31.7197H134.959C133.535 31.7197 132.444 31.3442 131.657 30.593C130.906 29.8419 130.531 28.5055 130.531 26.5927V4.93149C130.531 4.66946 130.74 4.46857 130.994 4.46857H135.492C135.754 4.46857 135.955 4.67819 135.955 4.93149V25.134Z" fill="#373A4A"/>
</svg>
