<svg width="115" height="32" viewBox="0 0 115 32" fill="none" xmlns="http://www.w3.org/2000/svg">
<path d="M55.1616 15.9992C55.1616 20.7697 55.1616 25.5423 55.1616 30.3125C55.1616 30.5796 55.1657 30.8486 55.1276 31.1113C55.0406 31.7178 54.7456 31.9782 54.1349 31.9825C52.8259 31.991 51.517 31.9866 50.206 31.9866C46.7144 31.9866 43.2227 31.9932 39.7309 31.9846C35.2867 31.9718 31.2669 28.7218 30.3463 24.3442C29.6463 21.011 30.3951 18.0043 32.6733 15.4675C33.8315 14.1776 35.3673 13.4432 37.0326 13.0096C38.929 12.5142 40.8681 12.5762 42.8005 12.5825C43.8824 12.5869 44.9642 12.5825 46.0461 12.5825C47.198 12.5825 48.1061 12.1407 48.6808 11.1006C49.2622 10.048 49.1793 9.00375 48.5874 8.00008C48.2099 7.35949 47.6074 6.99435 46.8819 6.87688C46.4344 6.80429 45.9761 6.77654 45.5221 6.7744C42.2766 6.76586 39.0331 6.77226 35.7874 6.77012C34.5677 6.77012 34.1964 6.39216 34.1944 5.15792C34.1921 3.89805 34.188 2.63818 34.1964 1.37831C34.2049 0.372541 34.5358 0.0522461 35.537 0.0522461C41.5914 0.0522461 47.6434 0.0522461 53.6977 0.0522461C54.9153 0.0522461 55.1636 0.293526 55.1636 1.51283C55.1657 6.34092 55.1616 11.1691 55.1616 15.9992ZM42.9935 25.2709C44.0755 25.2709 45.1551 25.2732 46.2372 25.2709C47.8981 25.2646 49.0626 24.0965 49.0797 22.4245C49.0988 20.6734 47.9575 19.4713 46.2456 19.4628C44.1031 19.4521 41.9583 19.4521 39.8159 19.4628C38.1973 19.4692 37.1515 20.3725 36.9923 21.989C36.8184 23.7742 37.7836 25.2753 39.8052 25.2732C40.8681 25.2732 41.9287 25.2732 42.9914 25.2732L42.9935 25.2709Z" fill="black"/>
<path d="M114.873 16.0632C114.873 20.8913 114.873 25.7216 114.873 30.5497C114.873 31.7988 114.686 31.9889 113.473 31.9889C108.842 31.9889 104.211 31.9548 99.5822 31.9996C95.2779 32.0401 90.889 28.852 90.0384 23.9897C89.491 20.8658 90.1783 17.9809 92.3378 15.5765C93.827 13.9193 95.7658 13.0993 97.9318 12.7876C100.556 12.4097 103.199 12.6381 105.832 12.5889C108.053 12.5484 109.419 10.4921 108.56 8.42508C108.205 7.57302 107.541 7.06908 106.65 6.87262C106.241 6.78079 105.823 6.77012 105.405 6.77012C102.14 6.77226 98.8779 6.77226 95.6132 6.77012C94.2979 6.77012 93.9776 6.44128 93.9755 5.10454C93.9755 3.84467 93.9712 2.5848 93.9755 1.32493C93.9796 0.342651 94.2682 0.0522461 95.2228 0.0522461C101.353 0.0522461 107.482 0.0522461 113.613 0.0522461C114.635 0.0522461 114.873 0.293527 114.873 1.34628C114.873 6.25123 114.873 11.1561 114.873 16.0612V16.0632ZM102.783 19.4585C101.778 19.4585 100.77 19.514 99.771 19.4435C98.0315 19.3197 96.5932 20.6309 96.7374 22.5891C96.8499 24.1243 97.9063 25.2561 99.4294 25.2646C101.646 25.2773 103.865 25.2773 106.082 25.2646C107.732 25.2561 108.778 24.1263 108.78 22.386C108.78 20.5924 107.768 19.4842 106.082 19.4585C104.983 19.4435 103.884 19.4585 102.783 19.4585Z" fill="black"/>
<path d="M60.7285 15.999C60.7285 11.2287 60.7285 6.45827 60.7285 1.68785C60.7285 1.42093 60.7285 1.15186 60.7688 0.889205C60.8536 0.344703 61.1634 0.0500189 61.7381 0.0521583C66.0826 0.058556 70.4357 -0.0973334 74.7717 0.101262C80.0834 0.344703 84.3961 3.74847 85.6158 9.16379C85.9065 10.4536 86.0379 11.7519 86.0358 13.0736C86.0252 18.8562 86.0315 24.6367 86.0295 30.4193C86.0295 30.667 86.0443 30.921 85.9976 31.1603C85.9001 31.6643 85.6074 31.9823 85.0622 31.9823C83.4118 31.9846 81.7614 31.9846 80.1109 31.9823C79.6209 31.9823 79.3261 31.7112 79.2391 31.2436C79.184 30.9468 79.1776 30.6372 79.1776 30.3339C79.1733 24.4765 79.1797 18.6171 79.1733 12.7597C79.1692 9.93892 77.5547 7.64553 74.9605 6.99424C72.7203 6.43264 70.1131 6.90883 68.6112 8.98009C67.9303 9.91979 67.5995 10.9788 67.5972 12.1361C67.5931 18.2242 67.5952 24.31 67.5931 30.3979C67.5931 30.6265 67.6036 30.8571 67.5761 31.0834C67.5061 31.6536 67.1603 31.9782 66.5917 31.9823C64.9604 31.991 63.3291 31.9846 61.6958 31.9866C61.1782 31.9866 60.8748 31.7155 60.7857 31.2222C60.7349 30.9445 60.7306 30.6542 60.7306 30.3681C60.7285 25.5785 60.7285 20.7888 60.7285 15.999Z" fill="black"/>
<path d="M14.3104 31.9862C11.6927 31.9862 9.07292 31.9862 6.45521 31.9862C5.51545 31.9862 5.29271 31.8219 5.1209 30.8758C4.7645 28.9071 4.44207 26.9339 4.0984 24.963C3.59778 22.091 3.08867 19.2209 2.59226 16.3489C2.1765 13.9466 1.77556 11.5422 1.3619 9.13767C0.933398 6.67995 0.498523 4.22213 0.0721431 1.76431C0.0275859 1.50165 0 1.2326 0 0.967828C0.00425824 0.421166 0.286392 0.0752388 0.820956 0.0688205C2.54772 0.0453487 4.27447 0.0538849 6.00124 0.0645614C6.57612 0.0688197 6.76705 0.512996 6.86885 0.972086C7.04492 1.77073 7.18919 2.57788 7.33132 3.38506C7.69193 5.43075 8.04407 7.47643 8.40046 9.52214C8.97109 12.787 9.53748 16.0521 10.1145 19.3172C10.2863 20.2929 10.4687 21.2667 10.6703 22.236C11.0373 24.0041 12.4818 25.2086 14.266 25.2578C15.9757 25.3047 17.5477 24.1558 17.9931 22.4646C18.4216 20.8417 18.6147 19.1719 18.9138 17.5213C19.4378 14.615 19.9469 11.7066 20.4559 8.79824C20.8611 6.47068 21.2557 4.14311 21.6545 1.81557C21.6714 1.7216 21.6778 1.62551 21.6949 1.53156C21.9238 0.194819 22.0935 0.0496063 23.4237 0.0496063C24.8089 0.0496063 26.1942 0.045348 27.5793 0.0517457C28.4428 0.0560245 28.7971 0.406211 28.6677 1.24756C28.3451 3.33596 27.9802 5.42008 27.6239 7.5042C27.1318 10.3763 26.6332 13.2484 26.1347 16.1204C25.7147 18.5418 25.2862 20.9635 24.8661 23.385C24.4483 25.7873 24.0346 28.1896 23.6189 30.5919C23.5954 30.7242 23.5742 30.8546 23.5467 30.9848C23.3792 31.762 23.1246 31.9799 22.3398 31.9799C19.6647 31.9842 16.9896 31.9799 14.3127 31.9799L14.3104 31.9862Z" fill="black"/>
</svg>
