<svg width="160" height="47" viewBox="0 0 160 47" fill="none" xmlns="http://www.w3.org/2000/svg">
<g clip-path="url(#clip0_202_18602)">
<path d="M59.0899 16.5104H53.4771V29.8686H56.3717V19.405H57.2041L61.827 29.8686H64.9918L59.0899 16.5104Z" fill="#000200"/>
<path d="M109.612 29.8686H112.506V16.5104H109.612V29.8686Z" fill="#000200"/>
<path d="M70.8935 16.5104L64.9922 29.8686H68.1565L72.7793 19.405H73.6118V29.8686H76.5064V16.5104H70.8935Z" fill="#000200"/>
<path d="M89.4503 16.5104H84.1547L78.2529 29.8686H81.4177L83.3405 25.516H90.2645L92.1873 29.8686H95.3521L89.4503 16.5104ZM84.6194 22.6214L86.0405 19.405H87.5645L88.9854 22.6214H84.6194Z" fill="#000200"/>
<path d="M103.71 16.5104H97.0254V29.8686H99.92V19.405H101.824L106.447 29.8686H109.612L103.71 16.5104Z" fill="#000200"/>
<path d="M114.115 16.5104V19.405H120.869V29.8686H123.764V19.405H130.518V16.5104H114.115Z" fill="#000200"/>
<path d="M135.02 16.5104H132.125V29.8686H144.722V26.974H135.02V16.5104Z" fill="#000200"/>
<path d="M160 19.405V16.5104H146.331V29.8686H160V26.974H149.226V24.4439H158.566V21.5493H149.226V19.405H160Z" fill="#000200"/>
<path d="M8.71509 16.8642L2.29385 13.5948C1.79158 14.5816 1.36382 15.6163 1.02344 16.6701L7.87994 18.8871C8.10401 18.194 8.38434 17.5133 8.71509 16.8642Z" fill="#000200"/>
<path d="M14.1708 11.1023L17.7274 17.2303C18.2468 16.9291 18.8028 16.6975 19.3811 16.542L17.5404 9.69948C18.0088 9.57351 18.4849 9.46952 18.9636 9.39393L17.8325 2.27692C16.7384 2.45059 15.6514 2.71272 14.6007 3.05525L16.8001 9.79596C16.1005 10.0243 15.4192 10.3079 14.7631 10.6435L11.5303 4.33317C10.5472 4.83704 9.59623 5.4224 8.70264 6.07477L12.9507 11.8952C13.342 11.6099 13.7515 11.3462 14.1708 11.1023Z" fill="#000200"/>
<path d="M33.2558 16.1795L27.1299 19.7394C27.4317 20.2583 27.6632 20.8147 27.8193 21.3921L34.6612 19.548C34.7873 20.0165 34.8913 20.492 34.9673 20.9702L42.0833 19.8369C41.9091 18.7435 41.6464 17.6558 41.3029 16.6047L34.5632 18.8083C34.3343 18.1088 34.0507 17.428 33.7146 16.7719L40.0228 13.5348C39.5189 12.5528 38.9324 11.6018 38.2801 10.7087L32.4614 14.9596C32.747 15.3509 33.012 15.7598 33.2558 16.1795Z" fill="#000200"/>
<path d="M30.7573 4.30433C29.7694 3.80261 28.7348 3.37537 27.6821 3.03552L25.4688 9.89311C26.1613 10.1166 26.8421 10.3975 27.4923 10.7277L30.7573 4.30433Z" fill="#000200"/>
<path d="M28.1989 10.9767L24.6016 17.22C25.1226 17.5201 25.6028 17.8879 26.0301 18.3134L36.1195 8.18979C35.3369 7.40985 34.4867 6.68566 33.5925 6.03705L29.4312 11.7759C29.0346 11.4886 28.6234 11.2217 28.1989 10.9767Z" fill="#000200"/>
<path d="M8.96619 16.1569L15.2078 19.7581C15.508 19.2376 15.8768 18.7568 16.303 18.329L6.18361 8.2359C5.40313 9.01852 4.6784 9.86814 4.02979 10.7617L9.7665 14.9257C9.47919 15.3218 9.21117 15.7325 8.96619 16.1569Z" fill="#000200"/>
<path d="M23.3582 9.27279L24.4468 2.26726C23.371 2.10002 22.27 2.01532 21.1738 2.01532H21.1572V16.3083H21.1738C21.7764 16.3083 22.3724 16.3855 22.946 16.5378L24.7942 9.57296C24.3214 9.44754 23.8422 9.34837 23.3582 9.27279Z" fill="#000200"/>
<path d="M14.523 21.4126L7.55926 19.5595C7.43329 20.0323 7.33359 20.5115 7.258 20.9956L0.253548 19.9036C0.0852306 20.9833 0 22.0886 0 23.188H14.293C14.293 22.5844 14.3703 21.9868 14.523 21.4126Z" fill="#000200"/>
<path d="M33.6319 29.514L40.0531 32.7833C40.5554 31.7964 40.9831 30.7619 41.3235 29.7081L34.4671 27.4909C34.2429 28.184 33.9627 28.8648 33.6319 29.514Z" fill="#000200"/>
<path d="M28.1766 35.2742L24.62 29.1462C24.1006 29.4475 23.5447 29.679 22.9663 29.8345L24.8071 36.677C24.338 36.8031 23.8625 36.9071 23.3839 36.9826L24.5144 44.0991C25.6085 43.9254 26.6956 43.6632 27.7463 43.3207L25.5468 36.58C26.2469 36.3517 26.9277 36.0681 27.5838 35.7326L30.8166 42.0428C31.7997 41.5389 32.7507 40.9535 33.6442 40.3013L29.3961 34.4808C29.0048 34.7661 28.5959 35.0303 28.1766 35.2742Z" fill="#000200"/>
<path d="M9.09266 30.1987L15.2191 26.639C14.9173 26.12 14.6857 25.5636 14.5297 24.9863L7.6877 26.8303C7.56173 26.3617 7.45774 25.8863 7.38163 25.4081L0.265137 26.5413C0.439351 27.6349 0.702011 28.7226 1.04561 29.7737L7.78527 27.57C8.01415 28.2696 8.29772 28.9504 8.63382 29.6065L2.32568 32.8436C2.82956 33.8256 3.41599 34.7766 4.06835 35.6696L9.88709 31.4188C9.60137 31.0275 9.33656 30.6184 9.09266 30.1987Z" fill="#000200"/>
<path d="M11.5898 42.0734C12.5777 42.5752 13.6123 43.0023 14.6651 43.3423L16.8785 36.4846C16.1858 36.2611 15.5051 35.9802 14.8548 35.65L11.5898 42.0734Z" fill="#000200"/>
<path d="M14.148 35.4016L17.7455 29.1584C17.2245 28.8582 16.7441 28.4904 16.3169 28.0649L6.22754 38.1885C7.01016 38.9685 7.86033 39.6926 8.75444 40.3413L12.9157 34.6024C13.3125 34.8898 13.7235 35.1566 14.148 35.4016Z" fill="#000200"/>
<path d="M33.3808 30.2213L27.139 26.6203C26.8388 27.1408 26.47 27.6216 26.0439 28.0493L36.1628 38.143C36.9433 37.3604 37.6679 36.5107 38.3166 35.6172L32.5798 31.4532C32.8672 31.0571 33.1358 30.6459 33.3808 30.2213Z" fill="#000200"/>
<path d="M19.4015 29.8392L17.5532 36.804C18.026 36.9294 18.5052 37.0286 18.9893 37.1042L17.9012 44.1097C18.977 44.277 20.078 44.3616 21.1742 44.3616H21.1908V30.0686H21.1742C20.5717 30.0686 19.975 29.9914 19.4015 29.8392Z" fill="#000200"/>
<path d="M28.0542 23.1895C28.0542 23.793 27.9765 24.3901 27.8237 24.9648L34.7874 26.8179C34.9135 26.345 35.0132 25.8659 35.0887 25.3818L42.0938 26.4743C42.262 25.3947 42.3472 24.2894 42.3472 23.1899L28.0542 23.1895Z" fill="#000200"/>
</g>
<defs>
<clipPath id="clip0_202_18602">
<rect width="160" height="46.3768" fill="white"/>
</clipPath>
</defs>
</svg>
