<svg width="100" height="40" viewBox="0 0 100 40" fill="none" xmlns="http://www.w3.org/2000/svg">
<path d="M20 40C31.0457 40 40 31.0457 40 20C40 8.95429 31.0457 0 20 0C8.95428 0 0 8.95429 0 20C0 31.0457 8.95428 40 20 40Z" fill="#0098EA"/>
<path d="M26.8287 11.1626H13.1703C10.659 11.1626 9.06737 13.8716 10.3307 16.0615L18.7602 30.6721C19.3102 31.6261 20.6887 31.6261 21.2388 30.6721L29.6699 16.0615C30.9317 13.8751 29.3399 11.1626 26.8304 11.1626H26.8287ZM18.7533 26.2906L16.9175 22.7376L12.4879 14.8153C12.1957 14.3082 12.5567 13.6584 13.1686 13.6584H18.7516V26.2923L18.7533 26.2906ZM27.5076 14.8136L23.0797 22.7393L21.2439 26.2906V13.6567H26.8269C27.4389 13.6567 27.7998 14.3065 27.5076 14.8136Z" fill="white"/>
<path d="M68.9443 10.8343C74.5992 10.8344 79.2188 15.4544 79.2188 21.1096C79.2185 26.7648 74.5991 31.3839 68.9443 31.3841C63.2609 31.3841 58.6692 26.7649 58.6689 21.1096C58.6689 15.4543 63.2608 10.8343 68.9443 10.8343ZM58.1777 15.4261H51.9844V31.0481H47.5049V15.4261H41.3105V11.1702H58.1777V15.4261ZM85.5225 11.1702L95.1816 23.4329V11.1702H99.6611V31.0481H95.8252L86.1387 18.7571V31.0481H81.6875V11.1702H85.5225ZM68.9443 15.1458C65.6965 15.1458 63.1484 17.89 63.1484 21.1096C63.1487 24.3291 65.6966 27.0725 68.9443 27.0725C72.1633 27.0724 74.7107 24.329 74.7109 21.1096C74.7109 17.8901 72.1635 15.1459 68.9443 15.1458Z" fill="black"/>
</svg>
