<svg width="115" height="40" viewBox="0 0 115 40" fill="none" xmlns="http://www.w3.org/2000/svg">
<g clip-path="url(#clip0_202_18636)">
<mask id="mask0_202_18636" style="mask-type:luminance" maskUnits="userSpaceOnUse" x="0" y="0" width="115" height="40">
<path d="M114.5 0H0V40H114.5V0Z" fill="white"/>
</mask>
<g mask="url(#mask0_202_18636)">
<mask id="mask1_202_18636" style="mask-type:luminance" maskUnits="userSpaceOnUse" x="0" y="0" width="41" height="40">
<path d="M40.066 0H0V40H40.066V0Z" fill="white"/>
</mask>
<g mask="url(#mask1_202_18636)">
<path d="M20.0338 40.0016C31.0981 40.0016 40.0676 31.0469 40.0676 20.0008C40.0676 8.95467 31.0981 0 20.0338 0C8.96943 0 0 8.95467 0 20.0008C0 31.0469 8.96943 40.0016 20.0338 40.0016Z" fill="black"/>
<path d="M24.7497 9.27658L19.1523 21.3899L15.1858 12.8067H7.41088V13.9957H13.112L12.8533 14.5539L6.68604 27.9012H14.4238V26.7121H8.54769L14.4238 13.9957L14.6825 14.5539L18.5545 22.9362H14.4254V24.1253H24.7512V22.9362H19.7501L24.7512 12.1139L31.4963 26.7121H29.3078V27.9012H33.3564L24.7497 9.27502V9.27658Z" fill="white"/>
</g>
<path d="M62.1104 24.7743V26.9806H50.1553V25.2376L58.4088 15.1773H50.2878V12.9711H61.8563V14.714L53.6024 24.7743H62.1104Z" fill="black"/>
<path d="M79.3473 21.112L77.1267 23.3955V26.9806H74.519V12.9711H77.1267V20.1523L84.0543 12.9711H86.9823L81.0932 19.2367L87.3471 26.9806H84.2975L79.3473 21.112Z" fill="black"/>
<path d="M112.031 26.9806L112.009 17.6924L107.401 25.381H106.241L101.633 17.8137V26.9806H99.1475V12.9711H101.291L106.86 22.2592L112.329 12.9711H114.484L114.495 26.9806H112.031Z" fill="black"/>
</g>
</g>
<defs>
<clipPath id="clip0_202_18636">
<rect width="114.5" height="40" fill="white"/>
</clipPath>
</defs>
</svg>
