<svg width="160" height="29" viewBox="0 0 160 29" fill="none" xmlns="http://www.w3.org/2000/svg">
<mask id="mask0_202_18831" style="mask-type:luminance" maskUnits="userSpaceOnUse" x="0" y="0" width="160" height="29">
<path d="M160 0H0V28.9721H160V0Z" fill="white"/>
</mask>
<g mask="url(#mask0_202_18831)">
<path d="M25.2341 17.5202C25.7487 16.6437 27.0268 16.6437 27.5357 17.5202L33.0045 26.8627C33.5191 27.7393 32.8743 28.8309 31.8508 28.8309H20.9134C19.8897 28.8309 19.2507 27.7393 19.7597 26.8627L25.2283 17.5202H25.2341Z" fill="#FF394A"/>
<path d="M21.9309 11.2991C22.4285 10.4282 22.4285 9.3537 21.9309 8.47714L17.4462 0.655842C16.9429 -0.22073 15.6875 -0.22073 15.1841 0.655842L0.174912 26.8569C-0.328411 27.7334 0.299329 28.8306 1.30597 28.8306H10.2696C11.2706 28.8306 12.1924 28.2934 12.6901 27.4224L21.9253 11.2991H21.9309Z" fill="#FF394A"/>
<path d="M52.9509 26.6475V28.8304H51.6503C50.095 28.8304 49.5125 28.1574 49.4899 27.0151C48.6981 28.1744 47.4652 28.9661 45.6104 28.9661C43.0315 28.9661 41.2388 27.688 41.2388 25.4824C41.2388 23.0167 42.9806 21.6707 46.2833 21.6707H49.2354V20.9526C49.2354 19.6292 48.2853 18.8149 46.6566 18.8149C45.1919 18.8149 44.2191 19.5104 44.0324 20.5566H41.5442C41.8213 18.2549 43.7723 16.7903 46.7753 16.7903C49.7783 16.7903 51.7237 18.3003 51.7237 21.1109V25.8726C51.7237 26.4778 51.933 26.6418 52.4646 26.6418H52.9509V26.6475ZM49.2354 23.5314H46.1702C44.6376 23.5314 43.7781 24.1139 43.7781 25.3184C43.7781 26.3194 44.615 27.0151 45.961 27.0151C48.0082 27.0151 49.2354 25.7822 49.2354 23.9951V23.5314Z" fill="#3055B3"/>
<path d="M58.4136 28.8304L53.9062 16.9316H56.6039L59.9971 26.1327L63.3676 16.9316H66.0143L61.4843 28.8304H58.4192H58.4136Z" fill="#3055B3"/>
<path d="M78.8308 26.6475V28.8304H77.5301C75.9748 28.8304 75.3924 28.1574 75.3697 27.0151C74.578 28.1744 73.3451 28.9661 71.4902 28.9661C68.9113 28.9661 67.1187 27.688 67.1187 25.4824C67.1187 23.0167 68.8605 21.6707 72.1632 21.6707H75.1153V20.9526C75.1153 19.6292 74.1652 18.8149 72.5364 18.8149C71.0717 18.8149 70.099 19.5104 69.9123 20.5566H67.4241C67.7012 18.2549 69.6522 16.7903 72.6552 16.7903C75.6582 16.7903 77.6036 18.3003 77.6036 21.1109V25.8726C77.6036 26.4778 77.8129 26.6418 78.3445 26.6418H78.8308V26.6475ZM75.1096 23.5314H72.0444C70.5119 23.5314 69.6522 24.1139 69.6522 25.3184C69.6522 26.3194 70.4893 27.0151 71.8351 27.0151C73.8825 27.0151 75.1096 25.7822 75.1096 23.9951V23.5314Z" fill="#3055B3"/>
<path d="M90.3206 26.6251V28.8306H80.6558V26.6251H84.2469V14.9299L80.6558 16.1176V13.9007L83.7265 12.7244H86.7579V26.6307H90.3262L90.3206 26.6251Z" fill="#3055B3"/>
<path d="M103.708 26.6475V28.8304H102.407C100.852 28.8304 100.269 28.1574 100.247 27.0151C99.455 28.1744 98.2222 28.9661 96.3672 28.9661C93.7884 28.9661 91.9956 27.688 91.9956 25.4824C91.9956 23.0167 93.7375 21.6707 97.0401 21.6707H99.9923V20.9526C99.9923 19.6292 99.0421 18.8149 97.4134 18.8149C95.9487 18.8149 94.976 19.5104 94.7894 20.5566H92.3011C92.5781 18.2549 94.5293 16.7903 97.5323 16.7903C100.535 16.7903 102.481 18.3003 102.481 21.1109V25.8726C102.481 26.4778 102.69 26.6418 103.221 26.6418H103.708V26.6475ZM99.9923 23.5314H96.9271C95.3946 23.5314 94.5349 24.1139 94.5349 25.3184C94.5349 26.3194 95.3718 27.0151 96.7178 27.0151C98.765 27.0151 99.9923 25.7822 99.9923 23.9951V23.5314Z" fill="#3055B3"/>
<path d="M117.145 22.044V28.8304H114.611V22.2759C114.611 20.1608 113.706 19.0014 111.914 19.0014C110.031 19.0014 108.894 20.37 108.894 22.6717V28.8304H106.383V16.9316H108.566L108.843 18.4868C109.561 17.5594 110.681 16.7903 112.491 16.7903C115.024 16.7903 117.139 18.1588 117.139 22.044H117.145Z" fill="#3055B3"/>
<path d="M120.227 22.9036C120.227 19.2333 122.574 16.7903 126.154 16.7903C129.196 16.7903 131.101 18.4868 131.566 21.1843H128.942C128.614 19.7875 127.618 18.9279 126.108 18.9279C124.112 18.9279 122.783 20.5793 122.783 22.9036C122.783 25.2279 124.106 26.8284 126.108 26.8284C127.596 26.8284 128.619 25.9462 128.919 24.5719H131.566C131.124 27.2695 129.1 28.9661 126.08 28.9661C122.5 28.9661 120.221 26.6191 120.221 22.9036H120.227Z" fill="#3055B3"/>
<path d="M145.459 22.0442V28.8306H142.926V22.2535C142.926 20.2063 142.022 19.0016 140.161 19.0016C138.301 19.0016 137.095 20.3986 137.095 22.6493V28.8306H134.585V12.5659H137.095V18.4474C137.91 17.4238 139.142 16.7961 140.744 16.7961C143.531 16.7961 145.459 18.4474 145.459 22.0499V22.0442Z" fill="#3055B3"/>
<path d="M151.054 23.464V23.5828C151.121 25.6017 152.377 26.9307 154.328 26.9307C155.815 26.9307 156.952 26.1616 157.28 24.8383H159.791C159.372 27.1851 157.399 28.9722 154.47 28.9722C150.754 28.9722 148.43 26.5574 148.43 22.9097C148.43 19.2621 150.754 16.7964 154.214 16.7964C157.676 16.7964 159.932 18.9793 160 22.4687C160 22.7232 159.977 23.119 159.932 23.4696H151.054V23.464ZM151.144 21.5808H157.392C157.183 19.8163 155.974 18.8153 154.232 18.8153C152.677 18.8153 151.324 19.8841 151.138 21.5808H151.144Z" fill="#3055B3"/>
</g>
</svg>
