<svg width="160" height="37" viewBox="0 0 160 37" fill="none" xmlns="http://www.w3.org/2000/svg">
<path d="M18.3066 0.571291C28.1017 0.571339 36.0428 8.51219 36.043 18.3086C36.043 28.1051 28.1018 36.0468 18.3066 36.0469C8.51148 36.0469 0.571289 28.1052 0.571289 18.3086C0.571434 8.51214 8.51156 0.571291 18.3066 0.571291Z" fill="#0C0C4F" stroke="url(#paint0_linear_202_18453)" stroke-width="1.1418"/>
<path fill-rule="evenodd" clip-rule="evenodd" d="M10.2404 14.0014L10.6923 12.6051C10.7841 12.3211 11.0082 12.1001 11.2932 12.013L12.6962 11.5814C12.8904 11.5221 12.892 11.2481 12.6993 11.1857L11.3027 10.7337C11.0192 10.6418 10.7982 10.4177 10.7107 10.1327L10.2797 8.72947C10.2204 8.53576 9.94644 8.53365 9.88393 8.7269L9.43203 10.1232C9.34022 10.4067 9.11606 10.6276 8.83106 10.7153L7.42808 11.1463C7.23389 11.2061 7.23179 11.4796 7.42493 11.5421L8.82161 11.994C9.10504 12.0859 9.32603 12.3106 9.41363 12.5957L9.84457 13.9982C9.90388 14.1925 10.1778 14.1946 10.2404 14.0014Z" fill="#FAFAFA"/>
<path fill-rule="evenodd" clip-rule="evenodd" d="M32.4074 13.1831C31.829 12.5362 30.9263 12.172 30.0488 12.0226C29.1641 11.8792 28.2367 11.8925 27.3634 12.0476C25.5964 12.3466 23.9912 13.0783 22.5912 13.981C21.8641 14.424 21.2441 14.9366 20.6017 15.4587C20.2923 15.7227 20.0101 16.0039 19.7162 16.281L18.9131 17.0801C18.0407 17.9922 17.1806 18.823 16.3485 19.5117C15.5131 20.1972 14.7319 20.7177 13.9622 21.0813C13.1929 21.4468 12.3697 21.6616 11.2969 21.696C10.2335 21.7336 8.9752 21.5416 7.62935 21.2248C6.27625 20.9093 4.85538 20.4596 3.26758 20.0728C3.8216 21.61 4.65589 22.9684 5.72702 24.2101C6.81071 25.4303 8.16392 26.5425 9.90229 27.2739C11.6155 28.0216 13.7685 28.2899 15.7817 27.885C17.8002 27.4965 19.5715 26.5623 21.0033 25.4819C22.4387 24.3906 23.6001 23.1473 24.5791 21.8549C24.8494 21.4978 24.9924 21.2979 25.188 21.0188L25.7285 20.218C26.1042 19.7225 26.4462 19.1585 26.818 18.6678C27.5471 17.6398 28.2658 16.6131 29.101 15.6672C29.5214 15.1874 29.9645 14.7285 30.4878 14.2875C30.7489 14.0722 31.0309 13.8616 31.3432 13.6718C31.6603 13.4671 31.9951 13.3069 32.4074 13.1831Z" fill="url(#paint1_linear_202_18453)"/>
<path fill-rule="evenodd" clip-rule="evenodd" d="M32.4074 13.1902C31.786 11.6221 30.6309 10.3021 29.0804 9.32808C27.5394 8.36478 25.399 7.87316 23.2781 8.29224C22.2303 8.49493 21.2152 8.88509 20.3243 9.4047C19.4375 9.92229 18.6428 10.5452 17.955 11.2137C17.6115 11.5489 17.2998 11.8987 16.9901 12.2505L16.1874 13.274L14.9477 14.9215C13.3672 17.0413 11.6652 19.5256 8.87223 20.2617C6.13029 20.9843 4.94105 20.3443 3.26758 20.08C3.57356 20.8701 3.9526 21.6373 4.46645 22.3124C4.97072 23.001 5.56634 23.6479 6.30687 24.2023C6.6811 24.4686 7.07621 24.7314 7.51502 24.9543C7.95184 25.1697 8.42292 25.3592 8.92573 25.5019C9.9259 25.7761 11.0518 25.8721 12.1421 25.7247C13.2329 25.5791 14.2754 25.2334 15.1867 24.7743C16.1047 24.3195 16.9045 23.7656 17.6185 23.181C19.038 22.0021 20.1422 20.6994 21.0748 19.3827C21.5439 18.7244 21.9697 18.0535 22.3636 17.3826L22.8271 16.5839C22.9688 16.3503 23.1121 16.1154 23.2577 15.8967C23.845 15.0176 24.4195 14.3127 25.1172 13.7836C25.8054 13.2409 26.7635 12.8399 28.0438 12.7467C29.3189 12.6525 30.7908 12.8266 32.4074 13.1902Z" fill="#FAFAFA"/>
<path fill-rule="evenodd" clip-rule="evenodd" d="M25.521 26.2136C25.521 27.3653 26.455 28.2994 27.6066 28.2994C28.7581 28.2994 29.691 27.3653 29.691 26.2136C29.691 25.0618 28.7581 24.1277 27.6066 24.1277C26.455 24.1277 25.521 25.0618 25.521 26.2136Z" fill="#EC796B"/>
<path d="M160 13.1855L160 11.0794C160 10.9959 159.932 10.9282 159.849 10.9282L147.85 10.9282C147.765 10.9282 147.698 10.9959 147.698 11.0794L147.698 13.1855L152.575 13.1855L152.575 26.8108L155.123 26.8108L155.123 13.1855L160 13.1855Z" fill="black"/>
<path d="M135.153 10.9339C135.069 10.9339 135.001 11.0016 135.001 11.0851L135.001 26.6653C135.001 26.7488 135.069 26.8165 135.153 26.8165L145.25 26.8165C145.334 26.8165 145.401 26.7488 145.401 26.6653L145.401 24.5815L137.55 24.5815L137.55 19.59L144.037 19.59L144.037 17.3997L137.55 17.3997L137.55 13.1689L144.842 13.1689L144.842 11.0851C144.842 11.0016 144.774 10.9339 144.691 10.9339L135.153 10.9339Z" fill="black"/>
<path d="M129.301 26.724L129.356 26.8165L131.313 26.8165C131.397 26.8165 131.464 26.7488 131.464 26.6653L131.464 11.0851C131.464 11.0016 131.397 10.9339 131.313 10.9339L128.961 10.9339L128.961 21.9334C128.553 21.2833 128.079 20.5676 127.539 19.7864C126.852 18.7699 126.112 17.7387 125.32 16.6928C124.543 15.632 123.751 14.6084 122.944 13.6221C122.151 12.62 121.403 11.7436 120.698 10.9934L120.642 10.9339L118.799 10.9339C118.716 10.9339 118.648 11.0016 118.648 11.0851L118.648 26.6653C118.648 26.7488 118.716 26.8165 118.799 26.8165L121.152 26.8165L121.152 15.0331C121.473 15.4129 121.815 15.8338 122.179 16.296C122.669 16.9205 123.175 17.5898 123.696 18.3042L123.696 18.3049C124.217 19.0038 124.738 19.7335 125.259 20.4923L125.259 20.4934L125.26 20.4944C125.796 21.2535 126.309 22.0051 126.8 22.7492L126.801 22.7507C127.292 23.4793 127.745 24.1853 128.161 24.8688L128.161 24.8701L128.162 24.8713C128.594 25.5564 128.974 26.174 129.301 26.724Z" fill="black"/>
<path d="M115.574 11.2445L115.632 11.1813C115.72 11.0842 115.651 10.9282 115.52 10.9282L112.73 10.9282L112.674 10.9938C112.304 11.4234 111.843 11.9282 111.293 12.5085C110.757 13.0746 110.183 13.6705 109.572 14.2964C108.962 14.922 108.344 15.5477 107.718 16.1733C107.217 16.6619 106.75 17.1121 106.317 17.5242L106.317 10.9282L103.92 10.9282C103.837 10.9282 103.769 10.9959 103.769 11.0794L103.769 26.6596C103.769 26.7431 103.837 26.8108 103.92 26.8108L106.317 26.8108L106.317 19.6055C106.844 19.95 107.381 20.3531 107.93 20.8152L107.931 20.8158L107.932 20.8165C108.597 21.3638 109.249 21.9632 109.885 22.6149L109.887 22.6164L109.889 22.6179C110.54 23.2542 111.154 23.9275 111.731 24.6379L111.731 24.6386L111.732 24.6394C112.309 25.3349 112.819 26.0296 113.262 26.7235L113.318 26.8108L116.036 26.8108C116.153 26.8108 116.226 26.6851 116.167 26.5842L116.135 26.5276C115.727 25.8174 115.215 25.0717 114.599 24.2908C114 23.5109 113.354 22.7462 112.665 21.9968C111.976 21.2473 111.271 20.5425 110.551 19.8824C109.899 19.2846 109.276 18.7712 108.682 18.3431C109.187 17.8501 109.722 17.3205 110.289 16.7547C110.915 16.1277 111.542 15.4933 112.169 14.8514C112.811 14.1945 113.423 13.56 114.005 12.9478L114.006 12.947L114.007 12.9461C114.589 12.3194 115.111 11.7522 115.574 11.2445Z" fill="black"/>
<path fill-rule="evenodd" clip-rule="evenodd" d="M89.3025 10.8131C89.219 10.8131 89.1514 10.8808 89.1514 10.9642L89.1514 26.673C89.1514 26.7565 89.219 26.8242 89.3026 26.8242L91.4615 26.8242L91.4615 21.0486L94.6154 21.0486C94.9706 21.4735 95.3166 21.918 95.6534 22.3823L95.6552 22.384L95.6561 22.3857C96.2081 23.1097 96.7179 23.8647 97.1866 24.6512L97.1875 24.652C97.6113 25.3479 97.982 26.0362 98.2978 26.715L98.349 26.8243L100.904 26.8243C101.014 26.8243 101.086 26.7115 101.041 26.6118C100.747 25.9679 100.429 25.3373 100.075 24.723C99.5939 23.8645 99.0676 23.0146 98.4937 22.1733C98.166 21.6925 97.831 21.2253 97.4886 20.772C98.4424 20.4806 99.1957 19.9537 99.7413 19.1889L99.7422 19.1883C100.397 18.2627 100.721 17.1741 100.721 15.9308C100.721 15.0764 100.572 14.2946 100.272 13.5882C99.9701 12.8715 99.5161 12.2772 98.9111 11.8083C98.3106 11.3369 97.571 11.037 96.6987 10.9024C96.4955 10.865 96.2859 10.8425 96.069 10.8349C95.8584 10.8204 95.6735 10.813 95.517 10.813C94.8543 10.813 94.1916 10.8129 93.5298 10.8128C92.1202 10.8127 90.7115 10.8126 89.3025 10.8131ZM98.3673 15.9308C98.3673 16.3434 98.2987 16.7495 98.1605 17.1498C98.0259 17.5342 97.8099 17.8711 97.5124 18.1622C97.2305 18.438 96.858 18.6335 96.3866 18.7429C96.2374 18.7769 96.0763 18.8009 95.9033 18.8148C95.734 18.829 95.5829 18.8358 95.452 18.8358L91.4615 18.8358L91.4615 13.0257L95.452 13.0257C95.5829 13.0257 95.733 13.0326 95.9024 13.0467L95.9069 13.0471L95.9106 13.0473C96.079 13.054 96.2346 13.0774 96.3793 13.1168L96.3838 13.1181L96.3884 13.1191C96.858 13.2212 97.2296 13.416 97.5106 13.6977L97.5115 13.6985L97.5124 13.6993C97.8099 13.9899 98.025 14.3303 98.1605 14.7222L98.1605 14.7232C98.2987 15.1157 98.3673 15.518 98.3673 15.9308Z" fill="black"/>
<path fill-rule="evenodd" clip-rule="evenodd" d="M83.4788 24.7197L83.4792 24.7209C83.7035 25.3639 83.9427 26.0216 84.1967 26.6943L84.2429 26.8165L86.7987 26.8165C86.9036 26.8165 86.9766 26.7122 86.9407 26.6136C86.3825 25.0795 85.8189 23.5475 85.244 22.0196C84.7216 20.6165 84.2067 19.2877 83.699 18.0334C83.2062 16.779 82.7134 15.5841 82.2205 14.4487C81.7259 13.2947 81.2056 12.1521 80.6634 11.0197C80.6383 10.9673 80.5853 10.9339 80.5272 10.9339L78.4887 10.9339C78.4306 10.9339 78.3776 10.9673 78.3524 11.0197C77.8103 12.1521 77.29 13.2947 76.7954 14.4488C76.3026 15.5837 75.8025 16.7783 75.2949 18.0325L75.2942 18.0342C74.8017 19.2882 74.2942 20.6166 73.7719 22.0195C73.197 23.5474 72.6334 25.0795 72.0752 26.6136C72.0393 26.7122 72.1122 26.8165 72.2172 26.8165L74.6639 26.8165L74.7118 26.8163L74.7679 26.7562C75.3581 26.1224 76.0178 25.5005 76.7472 24.8905L76.7479 24.8899L76.7487 24.8892C77.4809 24.2639 78.2444 23.6839 79.0391 23.1494L79.0408 23.1481L79.0426 23.1469C79.8254 22.5937 80.6133 22.0974 81.406 21.6576L81.4069 21.6572L81.4079 21.6566C81.6933 21.4941 81.9744 21.3427 82.2512 21.2024L82.786 22.7302L82.7863 22.7314C83.0246 23.4016 83.2554 24.0644 83.4788 24.7197ZM80.7293 17.1858L80.7298 17.187L80.7303 17.1883C80.9456 17.7334 81.1609 18.2875 81.3762 18.8509C81.3601 18.8579 81.3437 18.8653 81.3269 18.8729C80.5694 19.218 79.7551 19.6641 78.8845 20.2102C78.0509 20.7331 77.224 21.3011 76.4037 21.9144L76.7509 20.9222C77.2105 19.6328 77.67 18.3877 78.1295 17.187C78.552 16.1042 78.992 15.0627 79.4495 14.0624C79.8935 15.0622 80.3202 16.1033 80.7293 17.1858Z" fill="black"/>
<path d="M72.6974 13.1855L72.6974 11.0794C72.6974 10.9959 72.6296 10.9282 72.5462 10.9282L60.5472 10.9282C60.4637 10.9282 60.396 10.9959 60.396 11.0794L60.396 13.1855L65.2728 13.1855L65.2728 26.6596C65.2728 26.7431 65.3404 26.8108 65.4239 26.8108L67.6695 26.8108C67.753 26.8108 67.8206 26.7431 67.8206 26.6596L67.8206 13.1855L72.6974 13.1855Z" fill="black"/>
<path d="M49.3886 26.6306C48.4644 26.2365 47.6953 25.6739 47.0858 24.9426L47.0849 24.9415C46.4815 24.2005 46.0893 23.3267 45.9074 22.3256C45.8982 22.2755 45.9097 22.2239 45.9392 22.1824C45.9686 22.1409 46.0136 22.113 46.0639 22.1051L48.0963 21.7848C48.1925 21.7696 48.2844 21.83 48.3087 21.9244C48.5557 22.8841 49.0641 23.6291 49.8349 24.169C50.6171 24.7044 51.5396 24.975 52.6102 24.975C53.3047 24.975 53.9253 24.8677 54.4747 24.6564C55.0305 24.4383 55.4618 24.1321 55.7768 23.7418C56.0866 23.3578 56.243 22.9033 56.243 22.3691C56.243 22.0374 56.1842 21.766 56.0752 21.5477L56.0724 21.5418C55.9661 21.3094 55.8177 21.1153 55.6267 20.9571L55.6213 20.9524C55.4294 20.7812 55.2092 20.6363 54.9595 20.5184C54.7041 20.3978 54.4378 20.2983 54.1605 20.2201L54.158 20.2193L50.1038 19.0151C49.6525 18.8797 49.2161 18.7104 48.7947 18.5072L48.7936 18.5066L48.7923 18.506C48.3644 18.2921 47.9811 18.0278 47.6434 17.713L47.6423 17.7119C47.2998 17.385 47.0276 16.9958 46.8265 16.5473L46.8261 16.5462C46.6219 16.0826 46.5228 15.5437 46.5228 14.9345C46.5228 13.9577 46.7753 13.1143 47.2885 12.4145C47.8039 11.7142 48.4989 11.1819 49.3668 10.8165C50.2333 10.4517 51.2055 10.275 52.2802 10.2825C53.3695 10.29 54.3493 10.4854 55.2159 10.873C56.0891 11.2529 56.8135 11.8014 57.3856 12.5183C57.9663 13.2367 58.3535 14.094 58.5503 15.0854C58.5602 15.1354 58.5496 15.1872 58.5209 15.2292C58.492 15.2711 58.4475 15.2997 58.3975 15.3085L56.3099 15.673C56.2604 15.6817 56.2095 15.6702 56.1684 15.6412C56.1274 15.6123 56.0995 15.5682 56.091 15.5185C55.9856 14.9 55.7515 14.3752 55.3915 13.939L55.3895 13.9365C55.0336 13.4897 54.5871 13.1475 54.0471 12.909L54.0453 12.9082C53.5042 12.6622 52.9082 12.5346 52.2547 12.5274C51.6282 12.5203 51.0683 12.62 50.572 12.8228C50.0742 13.0261 49.6857 13.3067 49.3993 13.6613L49.3982 13.6627C49.1172 14.0039 48.9774 14.3958 48.9774 14.8461C48.9774 15.2932 49.1048 15.6381 49.346 15.8988C49.6064 16.1727 49.9264 16.3938 50.3091 16.5611C50.7148 16.7277 51.1087 16.8649 51.4909 16.9731L54.5172 17.8458C54.8699 17.9434 55.2727 18.0778 55.725 18.2483C56.1984 18.424 56.6549 18.6715 57.0942 18.9897C57.5466 19.3097 57.918 19.737 58.2098 20.2668C58.5097 20.8036 58.6533 21.471 58.6533 22.2587C58.6533 23.0503 58.4934 23.7617 58.1686 24.3885C57.8533 25.0113 57.4108 25.5344 56.843 25.9564L56.8416 25.9574C56.277 26.3694 55.6235 26.6804 54.8832 26.892C54.1428 27.1111 53.3516 27.2199 52.5108 27.2199C51.3625 27.2199 50.3208 27.0247 49.3886 26.6306Z" fill="black"/>
<defs>
<linearGradient id="paint0_linear_202_18453" x1="18.3068" y1="2.18599e-06" x2="18.3068" y2="36.6177" gradientUnits="userSpaceOnUse">
<stop stop-color="#EC796B"/>
<stop offset="1" stop-color="#D672EF"/>
</linearGradient>
<linearGradient id="paint1_linear_202_18453" x1="32.2515" y1="12.6328" x2="-15.3726" y2="37.4076" gradientUnits="userSpaceOnUse">
<stop stop-color="#EC796B"/>
<stop offset="1" stop-color="#D672EF"/>
</linearGradient>
</defs>
</svg>
