<svg width="160" height="40" viewBox="0 0 160 40" fill="none" xmlns="http://www.w3.org/2000/svg">
<path d="M44.0376 9.86957H45.4667L58.4459 27.2233V9.86957H59.875V29.511H58.4459L45.4667 12.1573V29.511H44.0376V9.86957Z" fill="black"/>
<path d="M73.9443 11.2702V18.8174H84.8084V20.1896H73.9443V28.1083H85.7807V29.5089H72.4868V9.86957H85.7807V11.2702H73.9443Z" fill="black"/>
<path d="M103.163 19.7045L110.653 29.511H108.881L102.278 20.8473L95.6442 29.511H93.8721L101.391 19.7045L93.8721 9.86957H95.6442L102.278 18.5332L108.91 9.86957H110.682L103.163 19.7045Z" fill="black"/>
<path d="M123.805 28.638C122.623 27.9418 121.698 26.9796 121.032 25.7495C120.364 24.5194 120.031 23.1248 120.031 21.5618V9.69696H121.46V21.5618C121.46 22.8589 121.732 24.02 122.274 25.0492C122.818 26.0783 123.575 26.8781 124.548 27.4505C125.52 28.023 126.616 28.3092 127.836 28.3092C129.056 28.3092 130.175 28.023 131.139 27.4505C132.101 26.8781 132.854 26.0783 133.398 25.0492C133.942 24.02 134.212 22.8569 134.212 21.5618V9.69696H135.641V21.5618C135.641 23.1248 135.308 24.5214 134.641 25.7495C133.973 26.9796 133.049 27.9418 131.868 28.638C130.686 29.3343 129.342 29.6814 127.836 29.6814C126.33 29.6814 124.986 29.3343 123.805 28.638Z" fill="black"/>
<path d="M149.035 29.0237C147.691 28.4797 146.524 27.7144 145.533 26.7218L146.42 25.6073C147.315 26.5025 148.359 27.2028 149.55 27.7083C150.742 28.2137 151.994 28.4654 153.31 28.4654C154.357 28.4654 155.277 28.2929 156.068 27.9499C156.86 27.6068 157.473 27.1298 157.912 26.5208C158.35 25.9118 158.569 25.2338 158.569 24.4909C158.569 23.4232 158.121 22.5665 157.225 21.917C156.33 21.2694 154.863 20.7071 152.823 20.2301C150.573 19.7145 148.939 19.0731 147.918 18.2997C146.899 17.5283 146.39 16.4646 146.39 15.1127C146.39 14.045 146.666 13.0869 147.218 12.2404C147.77 11.3919 148.533 10.7301 149.506 10.2531C150.478 9.77607 151.574 9.53857 152.794 9.53857C154.014 9.53857 155.258 9.78216 156.411 10.2673C157.564 10.7525 158.628 11.4447 159.598 12.3398L158.711 13.4543C157.873 12.6545 156.933 12.0293 155.896 11.5807C154.857 11.1321 153.795 10.9088 152.709 10.9088C151.775 10.9088 150.937 11.0854 150.194 11.4386C149.451 11.7918 148.874 12.2769 148.464 12.896C148.054 13.5152 147.849 14.2155 147.849 14.997C147.849 15.9511 148.292 16.7123 149.179 17.2847C150.066 17.8571 151.517 18.391 153.539 18.8863C155.77 19.4202 157.404 20.1063 158.441 20.9446C159.481 21.783 160 22.9279 160 24.3752C160 25.4043 159.724 26.334 159.172 27.1622C158.62 27.9904 157.839 28.6441 156.828 29.1211C155.817 29.5981 154.635 29.8356 153.281 29.8356C151.795 29.8356 150.381 29.5636 149.037 29.0216L149.035 29.0237Z" fill="black"/>
<path d="M34.1045 9.84473L34.1025 9.8457V29.5332L34.1045 29.5352L17.0518 39.3799L0 29.5352V9.84473L17.0508 0V19.6895L17.0518 19.6904V0L34.1045 9.84473Z" fill="white"/>
<path opacity="0.1" d="M17.0512 19.6902L0 29.5352V9.84509L17.0512 19.6902Z" fill="black"/>
<path d="M17.0518 19.6901V0L34.105 9.84506L17.0518 19.6901Z" fill="url(#paint0_radial_202_18683)"/>
<path d="M34.103 9.84509V29.5332L17.0518 19.6902L34.103 9.84509Z" fill="url(#paint1_radial_202_18683)"/>
<path d="M17.0512 19.6901V39.3802L0 29.5352L17.0512 19.6901Z" fill="url(#paint2_radial_202_18683)"/>
<path d="M17.0512 19.6901L0 9.84506L17.0512 0V19.6901Z" fill="url(#paint3_radial_202_18683)"/>
<path d="M17.0518 39.3802V19.6901L34.103 29.5332L34.105 29.5352L17.0518 39.3802Z" fill="url(#paint4_radial_202_18683)"/>
<defs>
<radialGradient id="paint0_radial_202_18683" cx="0" cy="0" r="1" gradientUnits="userSpaceOnUse" gradientTransform="translate(9.34622 19.2435) rotate(-180) scale(14.6214)">
<stop offset="0.1" stop-opacity="0.1"/>
<stop offset="1" stop-opacity="0.45"/>
</radialGradient>
<radialGradient id="paint1_radial_202_18683" cx="0" cy="0" r="1" gradientUnits="userSpaceOnUse" gradientTransform="translate(17.0863 19.7612) scale(16.9924)">
<stop offset="0.1" stop-opacity="0.55"/>
<stop offset="1" stop-opacity="0.72"/>
</radialGradient>
<radialGradient id="paint2_radial_202_18683" cx="0" cy="0" r="1" gradientUnits="userSpaceOnUse" gradientTransform="translate(9.3457 19.6353) rotate(180) scale(17.309)">
<stop offset="0.1" stop-opacity="0.1"/>
<stop offset="1" stop-opacity="0.18"/>
</radialGradient>
<radialGradient id="paint3_radial_202_18683" cx="0" cy="0" r="1" gradientUnits="userSpaceOnUse" gradientTransform="translate(9.5426 19.8322) rotate(180) scale(17.2826)">
<stop offset="0.1" stop-opacity="0.1"/>
<stop offset="1" stop-opacity="0.35"/>
</radialGradient>
<radialGradient id="paint4_radial_202_18683" cx="0" cy="0" r="1" gradientUnits="userSpaceOnUse" gradientTransform="translate(9.34622 19.8322) rotate(180) scale(17.2502)">
<stop offset="0.1" stop-opacity="0.65"/>
<stop offset="1" stop-opacity="0.75"/>
</radialGradient>
</defs>
</svg>
