<svg width="125" height="40" viewBox="0 0 125 40" fill="none" xmlns="http://www.w3.org/2000/svg">
<path fill-rule="evenodd" clip-rule="evenodd" d="M18.9153 0L13.5568 9.28121L19.5433 12.7375L24.9018 3.45633L18.9153 0ZM118.955 15.2008V7.05201H124.313V32.8745H115.106C109.867 32.8745 106.255 29.3301 106.255 24.0376C106.255 18.7451 109.978 15.2008 115.363 15.2008H118.955ZM116.512 28.5861H118.955V19.4132H116.532C113.467 19.4132 111.681 21.0773 111.681 24.0096C111.681 26.9419 113.451 28.5861 116.512 28.5861ZM91.4956 17.105C92.5133 14.7247 94.5172 13.3326 97.4358 13.3326C101.669 13.3326 104.022 16.0009 104.002 20.5013V32.8625H98.8338V21.5934C98.8338 19.0892 97.6655 17.657 95.3449 17.657C93.0242 17.657 91.5549 19.3772 91.5549 21.8614V32.8625H86.4067V13.6886H91.3926V17.105H91.4956ZM55.6877 7.14006H45.2923V32.8625H50.6385V24.8017H55.4185C60.8043 24.8017 64.5268 21.2574 64.5268 15.9649C64.5268 10.6724 60.927 7.14006 55.6877 7.14006ZM54.2502 20.5893H50.6385V11.4165H54.27C57.3312 11.4165 59.1014 13.0606 59.1014 15.9929C59.1014 18.9251 57.3154 20.5893 54.2502 20.5893ZM65.3822 23.3656C65.3822 17.141 69.1008 13.3646 74.7836 13.3646C80.4665 13.3646 84.1851 17.121 84.1851 23.3656C84.1851 29.6622 80.518 33.3665 74.7836 33.3665C69.0494 33.3665 65.3822 29.6622 65.3822 23.3656ZM70.6215 23.3656C70.6215 27.2019 72.2334 29.3661 74.7836 29.3661V29.3741C77.3141 29.3741 78.926 27.1659 78.926 23.3656C78.926 19.5652 77.2984 17.365 74.7836 17.365C72.269 17.365 70.6215 19.5292 70.6215 23.3656ZM15.1097 36.5437L20.4682 27.2625L26.4546 30.7188L21.0961 40L15.1097 36.5437ZM33.3772 5.08684L23.0253 7.8606L24.8144 14.5377L35.1662 11.7639L33.3772 5.08684ZM4.84505 28.2373L15.1969 25.4635L16.9861 32.1406L6.63417 34.9144L4.84505 28.2373ZM30.7223 13.5447L27.266 19.5312L36.5473 24.8897L40.0036 18.9031L30.7223 13.5447ZM0 21.0905L3.45633 15.104L12.7376 20.4626L9.28122 26.4491L0 21.0905ZM32.1459 23.024L25.4687 24.8131L28.2425 35.165L34.9196 33.3758L32.1459 23.024ZM5.08782 6.63306L11.7649 4.84393L14.5387 15.1958L7.86158 16.9849L5.08782 6.63306Z" fill="#2E343F"/>
</svg>
