<svg width="130" height="30" viewBox="0 0 130 30" fill="none" xmlns="http://www.w3.org/2000/svg">
<g clip-path="url(#clip0_202_18476)">
<path d="M60.2217 27.2322V0H63.9998V25.6072H78.767L78.679 0.0270832L82.5383 0V27.2322C82.5383 28.4238 81.5769 29.3853 80.3852 29.3853H62.3748C61.1831 29.3853 60.2217 28.417 60.2217 27.2322Z" fill="black"/>
<path d="M111.002 27.2322V0H114.781V25.6072H130.001V29.3853H113.156C111.964 29.3853 111.002 28.417 111.002 27.2322Z" fill="black"/>
<path d="M36.937 29.3853H40.7151V16.6223H54.9407V12.8442H40.7151V3.77811H54.7037C55.1167 3.77811 55.4959 3.54113 55.6787 3.16196L57.1818 0H39.0901C37.8985 0 36.937 0.961453 36.937 2.15311V29.3853Z" fill="black"/>
<path d="M86.6435 2.15311C86.6435 0.961453 87.6049 0 88.7966 0H106.888L105.385 3.16196C105.209 3.53436 104.83 3.77811 104.41 3.77811H90.4148V12.8442H104.64V16.6223H90.4148V25.6072H106.882V29.3853H88.7898C87.5982 29.3853 86.6367 28.417 86.6367 27.2322V2.15311H86.6435Z" fill="black"/>
<path d="M1.95677 0C0.873438 0 0 0.873433 0 1.95676V29.3853H24.3141C25.1401 29.3853 25.9255 29.0603 26.5078 28.478L28.4781 26.5077C29.0604 25.9254 29.3854 25.14 29.3854 24.3139V0H1.95677Z" fill="#00F58C"/>
<path d="M19.1917 3.77625L9.63133 13.3298C9.39435 13.5668 9.06935 13.7022 8.73758 13.7022C8.25008 13.7022 7.8032 13.4179 7.59331 12.9778L3.88966 5.15072C3.58498 4.51426 4.05216 3.77625 4.7631 3.77625H19.1917Z" fill="black"/>
<path d="M3.78027 25.6077V16.3114C3.78027 15.8171 4.17975 15.4109 4.68079 15.4109H13.9771L3.78027 25.6077Z" fill="black"/>
<path d="M14.738 13.7061H11.6572L20.9265 4.4436C21.3531 4.01704 21.9286 3.78006 22.5312 3.78006H25.6119L16.3426 13.0425C15.9161 13.4691 15.3406 13.7061 14.738 13.7061Z" fill="black"/>
</g>
<defs>
<clipPath id="clip0_202_18476">
<rect width="130" height="29.3853" fill="white"/>
</clipPath>
</defs>
</svg>
