<svg width="83" height="40" viewBox="0 0 83 40" fill="none" xmlns="http://www.w3.org/2000/svg">
<path d="M62.3271 0.0744019C73.3422 0.0744019 81.1578 7.9447 82.1348 18.0441H73.1064C72.1631 12.9438 67.7167 9.05975 62.3271 9.05975C56.9376 9.05995 51.3799 13.9912 51.3799 20.0373C51.3799 26.0834 56.2976 31.0147 62.3271 31.0148C68.3568 31.0148 70.951 28.1097 72.5342 24.0226H57.3418V21.0168H82.2021C81.6969 31.5892 72.9717 40.0002 62.3271 40.0002C51.6827 40 42.419 31.0487 42.4189 20.0373C42.4189 9.02587 51.3122 0.0745776 62.3271 0.0744019ZM5.83691 5.85175C13.6182 -1.95056 26.2158 -1.95054 33.9971 5.85175C41.7784 13.6544 41.7784 26.2874 33.9971 34.09C26.4852 41.6222 14.3921 41.859 6.57715 34.7658L24.1611 17.134L26.2832 19.2619L15.5381 30.0363C19.5466 31.7928 24.3976 31.0159 27.665 27.7394C31.9426 23.4498 31.9426 16.492 27.665 12.2023C23.387 7.91257 16.447 7.91257 12.1689 12.2023C8.36284 16.0192 7.95915 21.8961 10.8896 26.1857L4.48926 32.6037C-1.91097 24.7673 -1.47282 13.1815 5.83691 5.85175Z" fill="url(#paint0_linear_202_18741)"/>
<defs>
<linearGradient id="paint0_linear_202_18741" x1="81.1276" y1="10.7762" x2="0.381809" y2="35.2263" gradientUnits="userSpaceOnUse">
<stop stop-color="#FFDB3B"/>
<stop offset="0.2" stop-color="#FF6270"/>
<stop offset="0.4" stop-color="#FF1CE6"/>
<stop offset="0.6" stop-color="#B14EFF"/>
<stop offset="0.8" stop-color="#3BADFF"/>
<stop offset="1" stop-color="#6BE5FF"/>
</linearGradient>
</defs>
</svg>
