<svg width="160" height="38" viewBox="0 0 160 38" fill="none" xmlns="http://www.w3.org/2000/svg">
<path d="M29.2525 1.02195C30.9861 1.02195 32.6634 1.64362 33.9755 2.77117C35.4965 4.07755 36.404 5.96813 36.4685 7.96092C36.4718 8.03927 36.4718 8.11932 36.4718 8.19598C36.4718 8.5247 36.4718 8.72397 34.2048 27.262C34.0587 28.4508 33.9551 29.3008 33.9176 29.6091C33.7019 31.3958 32.9405 33.0563 31.7745 34.2827L31.1663 34.8516C29.9103 35.9008 28.3503 36.4697 26.6967 36.4697C26.6151 36.4697 26.5318 36.4697 26.4486 36.4662C23.8432 36.3778 21.4913 34.8466 20.3135 32.467L20.2999 32.4397C20.0043 31.813 19.7118 31.0567 19.3704 30.183C18.3778 27.6317 17.1424 24.4567 15.0503 22.3601C12.9549 20.26 9.78032 19.0184 7.23115 18.0202C6.36105 17.6796 5.60989 17.3849 4.98618 17.0903C2.62226 15.9082 1.10804 13.5663 1.02308 10.9705C1.01968 10.8888 1.01968 10.8087 1.01968 10.7321C1.01968 10.124 1.09614 9.51768 1.2457 8.93177C1.96116 6.13165 4.38967 4.01112 7.28894 3.65685L28.379 1.07644C28.668 1.04068 28.9603 1.02364 29.251 1.02364M29.2525 0C28.9212 0 28.5864 0.0204312 28.2568 0.0613112L7.16488 2.64171C3.85435 3.04709 1.07745 5.4725 0.25832 8.67799C0.0866704 9.34736 0 10.0389 0 10.7321C0 10.8207 2.6278e-07 10.9109 0.00509236 11.0046C0.101964 13.9751 1.8371 16.6577 4.53242 18.0049L4.54262 18.0101L4.55283 18.0152C5.20882 18.325 5.97527 18.625 6.86237 18.9724C9.32482 19.9363 12.3872 21.1354 14.3315 23.0823C16.2722 25.0273 17.4635 28.0915 18.4221 30.5527C18.7705 31.4468 19.0696 32.2167 19.3788 32.8758L19.384 32.8861L19.389 32.8963L19.4026 32.9235C20.7468 35.6385 23.4338 37.3894 26.4163 37.4899C26.5098 37.4934 26.6048 37.4949 26.6983 37.4949C28.5967 37.4949 30.3674 36.853 31.8221 35.6385L31.8443 35.6198L31.8647 35.5993L32.4731 35.0304L32.4951 35.01L32.5155 34.9878C33.8326 33.6032 34.6908 31.7364 34.9322 29.7333C34.9696 29.425 35.0732 28.5769 35.2194 27.388C37.4949 8.78869 37.4949 8.60305 37.4949 8.19767C37.4949 8.10911 37.4949 8.01713 37.4899 7.92857C37.4168 5.65133 36.3783 3.48994 34.6416 1.99789C33.1443 0.711948 31.2308 0.00340825 29.2543 0.00340825L29.2525 0Z" fill="white"/>
<path d="M29.285 0.969727C31.0236 0.969727 32.7057 1.59329 34.0217 2.72427C35.5471 4.03462 36.4572 5.93095 36.522 7.9298C36.5253 8.00839 36.5253 8.08868 36.5253 8.16557C36.5253 8.49529 36.5253 8.69517 34.2516 27.2896C34.1051 28.482 34.0012 29.3345 33.9636 29.6438C33.7472 31.4359 32.9836 33.1015 31.8143 34.3317L31.2043 34.9023C29.9447 35.9547 28.38 36.5253 26.7217 36.5253C26.6398 36.5253 26.5562 36.5253 26.4728 36.5218C23.8599 36.4331 21.501 34.8972 20.3198 32.5104L20.3062 32.4832C20.0097 31.8544 19.7164 31.0958 19.374 30.2195C18.3785 27.6604 17.1395 24.4757 15.0413 22.3727C12.9397 20.2663 9.75593 19.0209 7.19932 18.0197C6.32668 17.678 5.57331 17.3825 4.9478 17.0869C2.57698 15.9013 1.05835 13.5522 0.973137 10.9486C0.969727 10.8666 0.969727 10.7863 0.969727 10.7094C0.969727 10.0995 1.04642 9.4913 1.19641 8.9036C1.91395 6.09497 4.34955 3.96798 7.25728 3.61264L28.4089 1.02439C28.6987 0.98852 28.9918 0.971427 29.2834 0.971427" fill="black"/>
<path d="M22.626 29.5757C22.626 31.9844 24.5134 33.9394 26.8245 33.9394C29.1357 33.9394 31.03 31.9774 31.03 29.5757C31.03 27.1742 29.1425 25.2122 26.8245 25.2122C24.5073 25.2122 22.626 27.1742 22.626 29.5757Z" fill="#00AAFF"/>
<path d="M25.2119 7.91922C25.2119 10.3278 27.0993 12.2828 29.4105 12.2828C31.7216 12.2828 33.616 10.3208 33.616 7.91922C33.616 5.51768 31.7284 3.55554 29.4105 3.55554C27.0932 3.55554 25.2119 5.51768 25.2119 7.91922Z" fill="#FF4053"/>
<path d="M3.55566 10.505C3.55566 12.9135 5.5157 14.8687 7.92279 14.8687C10.3298 14.8687 12.2829 12.9065 12.2829 10.505C12.2829 8.10354 10.3228 6.14142 7.92279 6.14142C5.52276 6.14142 3.55566 8.10354 3.55566 10.505Z" fill="#23E476"/>
<path d="M79.8378 7.75763H76.6055V26.8283H79.8378V7.75763Z" fill="black"/>
<path d="M83.0703 10.3302H90.6945V26.8283H93.8704V10.3302H101.495V7.75763H83.0703V10.3302Z" fill="black"/>
<path d="M108.184 18.3251H119.897V15.7834H108.184V10.2994H120.371V7.75763H105.051V26.8283H120.566V24.2866H108.184V18.3251Z" fill="black"/>
<path d="M143.91 7.75763H140.858L131.556 26.8283H134.913L137.135 21.9836H147.64L149.832 26.8283H153.212L143.963 7.87316L143.91 7.75763ZM146.475 19.4419H138.292C138.292 19.4419 142.068 11.524 142.372 10.7384C142.677 11.524 146.475 19.4419 146.475 19.4419Z" fill="black"/>
<path d="M160 7.75763H156.768V26.8283H160V7.75763Z" fill="black"/>
<path d="M57.4222 7.75763H54.3027V26.8283H57.4222V17.7628L68.5507 26.8283H73.0502L57.4222 14.0658V7.75763Z" fill="black"/>
<path d="M64.9702 15.192L72.0813 11.2249V7.75763H68.7649L64.9702 15.192Z" fill="black"/>
</svg>
