<svg width="160" height="36" viewBox="0 0 160 36" fill="none" xmlns="http://www.w3.org/2000/svg">
<mask id="mask0_202_18793" style="mask-type:luminance" maskUnits="userSpaceOnUse" x="0" y="0" width="160" height="36">
<path d="M160 0H0V35.9737H160V0Z" fill="white"/>
</mask>
<g mask="url(#mask0_202_18793)">
<path d="M22.3622 0C16.9962 5.32516 14.0408 16.0629 14.0408 23.5937V35.973L20.2054 28.6529V23.5937C20.2054 17.6965 22.5185 12.1513 26.7233 7.98093L22.3622 0ZM4.36177 0C9.72779 5.32516 12.6825 16.0629 12.6825 23.5937V35.973L6.51793 28.6529V23.5937C6.51793 17.6965 4.20479 12.1513 0 7.98093L4.36177 0Z" fill="black"/>
<path d="M38.9121 23.76C38.0863 23.76 37.3351 23.5765 36.6585 23.2095C35.9933 22.831 35.46 22.2863 35.0585 21.5752C34.6686 20.8526 34.4736 19.9753 34.4736 18.9431V16.0529C34.4736 14.5046 34.9095 13.3176 35.7811 12.4918C36.6527 11.6546 37.834 11.236 39.325 11.236C40.8159 11.236 41.9456 11.6316 42.7485 12.423C43.5627 13.2029 43.9699 14.2638 43.9699 15.6056V15.6744H41.7335V15.5368C41.7335 15.1125 41.6417 14.7282 41.4582 14.3842C41.2862 14.0401 41.0224 13.7706 40.6668 13.5756C40.3113 13.3692 39.864 13.266 39.325 13.266C38.5222 13.266 37.8914 13.5125 37.4326 14.0057C36.9739 14.4989 36.7445 15.1698 36.7445 16.0185V18.9775C36.7445 19.8147 36.9739 20.4914 37.4326 21.0075C37.8914 21.5121 38.5336 21.7644 39.3594 21.7644C40.1852 21.7644 40.7873 21.5465 41.1657 21.1107C41.5442 20.6749 41.7335 20.1244 41.7335 19.4592V19.2871H38.8777V17.3604H43.9699V23.5192H41.8711V22.3665H41.5614C41.4811 22.5615 41.3492 22.768 41.1657 22.9859C40.9937 23.2038 40.7299 23.3873 40.3744 23.5364C40.0189 23.6855 39.5314 23.76 38.9121 23.76ZM50.819 23.76C49.3051 23.76 48.1009 23.3471 47.2063 22.5214C46.3117 21.6841 45.8644 20.4914 45.8644 18.9431V16.0529C45.8644 14.5046 46.3117 13.3176 47.2063 12.4918C48.1009 11.6546 49.3051 11.236 50.819 11.236C52.3329 11.236 53.5371 11.6546 54.4317 12.4918C55.3263 13.3176 55.7736 14.5046 55.7736 16.0529V18.9431C55.7736 20.4914 55.3263 21.6841 54.4317 22.5214C53.5371 23.3471 52.3329 23.76 50.819 23.76ZM50.819 21.73C51.6677 21.73 52.3272 21.4834 52.7974 20.9903C53.2676 20.4971 53.5027 19.8377 53.5027 19.0119V15.9841C53.5027 15.1583 53.2676 14.4989 52.7974 14.0057C52.3272 13.5125 51.6677 13.266 50.819 13.266C49.9703 13.266 49.3223 13.5125 48.8406 14.0057C48.3704 14.4989 48.1353 15.1583 48.1353 15.9841V19.0119C48.1353 19.8377 48.3704 20.4971 48.8406 20.9903C49.3223 21.4834 49.9818 21.73 50.819 21.73ZM56.8387 23.5192L60.0042 11.4768H63.9609L67.1264 23.5192H64.7867L64.133 20.8699H59.8321L59.1784 23.5192H56.8387ZM60.3654 18.771H63.5997L62.1374 12.9047H61.8277L60.3654 18.771ZM70.2459 23.5192V13.5412H66.7364V11.4768H76.0262V13.5412H72.5167V23.5192H70.2459ZM81.4195 23.5192V11.4768H85.7375L88.1288 21.9709H88.4385V11.4768H90.6749V23.5192H86.3569L83.9656 13.0251H83.6559V23.5192H81.4195ZM92.9443 23.5192V11.4768H100.686V13.5412H95.2152V16.4142H100.204V18.4786H95.2152V21.4548H100.789V23.5192H92.9443ZM105.258 23.5192V13.5412H101.748V11.4768H111.038V13.5412H107.528V23.5192H105.258ZM113.548 23.5192L111.965 11.4768H114.218L115.388 21.9365H115.698L117.212 11.4768H121.134L122.648 21.9365H122.958L124.128 11.4768H126.381L124.799 23.5192H120.876L119.328 12.8187H119.018L117.47 23.5192H113.548ZM132.619 23.76C131.105 23.76 129.901 23.3471 129.006 22.5214C128.112 21.6841 127.664 20.4914 127.664 18.9431V16.0529C127.664 14.5046 128.112 13.3176 129.006 12.4918C129.901 11.6546 131.105 11.236 132.619 11.236C134.133 11.236 135.337 11.6546 136.232 12.4918C137.126 13.3176 137.573 14.5046 137.573 16.0529V18.9431C137.573 20.4914 137.126 21.6841 136.232 22.5214C135.337 23.3471 134.133 23.76 132.619 23.76ZM132.619 21.73C133.468 21.73 134.127 21.4834 134.597 20.9903C135.068 20.4971 135.303 19.8377 135.303 19.0119V15.9841C135.303 15.1583 135.068 14.4989 134.597 14.0057C134.127 13.5125 133.468 13.266 132.619 13.266C131.77 13.266 131.122 13.5125 130.641 14.0057C130.17 14.4989 129.935 15.1583 129.935 15.9841V19.0119C129.935 19.8377 130.17 20.4971 130.641 20.9903C131.122 21.4834 131.782 21.73 132.619 21.73ZM139.565 23.5192V11.4768H144.795C145.552 11.4768 146.212 11.6087 146.774 11.8725C147.336 12.1363 147.771 12.509 148.081 12.9907C148.391 13.4724 148.546 14.0401 148.546 14.6938V14.9003C148.546 15.6228 148.374 16.2077 148.03 16.655C147.685 17.1023 147.261 17.4292 146.756 17.6356V17.9453C147.215 17.9682 147.571 18.1288 147.823 18.427C148.075 18.7137 148.202 19.0979 148.202 19.5796V23.5192H145.931V19.9065C145.931 19.6312 145.856 19.4076 145.707 19.2355C145.569 19.0635 145.334 18.9775 145.002 18.9775H141.836V23.5192H139.565ZM141.836 16.9131H144.554C145.093 16.9131 145.512 16.7697 145.81 16.483C146.12 16.1848 146.275 15.7949 146.275 15.3132V15.1411C146.275 14.6594 146.126 14.2752 145.827 13.9885C145.529 13.6903 145.105 13.5412 144.554 13.5412H141.836V16.9131ZM150.435 23.5192V11.4768H152.706V16.2593H153.016L156.921 11.4768H159.828L154.805 17.412L160 23.5192H157.007L153.016 18.6334H152.706V23.5192H150.435Z" fill="black"/>
</g>
</svg>
