<svg width="129" height="36" viewBox="0 0 129 36" fill="none" xmlns="http://www.w3.org/2000/svg">
<g clip-path="url(#clip0_202_18549)">
<path d="M121.52 29.371C119.945 29.371 118.567 29.1122 117.386 28.5947C116.204 28.0525 115.281 27.3502 114.618 26.4877C113.953 25.6005 113.547 24.6271 113.399 23.5674L116.684 22.4215H116.832C116.955 23.2101 117.214 23.9 117.607 24.4916C118.026 25.083 118.567 25.5389 119.231 25.8593C119.92 26.155 120.683 26.3028 121.52 26.3028C122.209 26.3028 122.825 26.192 123.365 25.9701C123.907 25.7237 124.313 25.391 124.583 24.9721C124.879 24.5531 125.027 24.0726 125.027 23.5304C125.027 22.8404 124.805 22.2982 124.362 21.9039C123.944 21.485 123.316 21.1647 122.48 20.9429L118.826 20.0927C117.94 19.8708 117.152 19.5875 116.463 19.2424C115.774 18.8728 115.195 18.343 114.728 17.6529C114.261 16.9629 114.027 16.088 114.027 15.0284C114.027 13.9933 114.322 13.0568 114.913 12.219C115.503 11.3565 116.315 10.6787 117.349 10.1859C118.407 9.69297 119.612 9.44656 120.966 9.44656C122.271 9.44656 123.439 9.65602 124.473 10.0749C125.507 10.4939 126.343 11.0853 126.983 11.8493C127.647 12.5886 128.09 13.4635 128.312 14.4739L124.99 15.4719H124.842C124.67 14.4862 124.227 13.7222 123.513 13.1801C122.825 12.6133 121.975 12.3298 120.966 12.3298C120.006 12.3298 119.219 12.5763 118.604 13.0692C118.014 13.562 117.718 14.1289 117.718 14.7696C117.718 15.3611 117.927 15.8416 118.346 16.2113C118.764 16.5562 119.354 16.8273 120.117 17.0245L123.402 17.8378C124.51 18.1088 125.445 18.4415 126.208 18.8358C126.971 19.2301 127.585 19.7969 128.053 20.5362C128.521 21.2755 128.755 22.2613 128.755 23.4935C128.755 24.6024 128.447 25.6005 127.832 26.4877C127.217 27.3748 126.356 28.0772 125.248 28.5947C124.165 29.1122 122.923 29.371 121.52 29.371Z" fill="#0F0E0B"/>
<path d="M102.653 29.371C100.832 29.371 99.195 28.9397 97.7433 28.0772C96.2916 27.2146 95.1599 26.0318 94.3472 24.5285C93.5353 23.0006 93.1294 21.2879 93.1294 19.3903C93.1294 17.4927 93.5353 15.7923 94.3472 14.2891C95.1599 12.7858 96.2916 11.6029 97.7433 10.7403C99.195 9.87779 100.832 9.44656 102.653 9.44656C104.474 9.44656 106.11 9.87779 107.562 10.7403C109.014 11.6029 110.146 12.7981 110.958 14.326C111.795 15.8292 112.213 17.5174 112.213 19.3903C112.213 21.2879 111.795 23.0006 110.958 24.5285C110.146 26.0318 109.014 27.2146 107.562 28.0772C106.11 28.9397 104.474 29.371 102.653 29.371ZM102.653 26.2289C103.785 26.2289 104.794 25.9332 105.679 25.3418C106.565 24.7503 107.255 23.9371 107.747 22.902C108.264 21.867 108.522 20.6964 108.522 19.3903C108.522 18.0842 108.264 16.926 107.747 15.9155C107.255 14.8805 106.565 14.0672 105.679 13.4758C104.794 12.8843 103.785 12.5886 102.653 12.5886C101.52 12.5886 100.512 12.8843 99.6258 13.4758C98.74 14.0672 98.0512 14.8805 97.5593 15.9155C97.0665 16.926 96.8205 18.0842 96.8205 19.3903C96.8205 20.6964 97.0665 21.867 97.5593 22.902C98.0512 23.9371 98.74 24.7503 99.6258 25.3418C100.512 25.9332 101.52 26.2289 102.653 26.2289Z" fill="#0F0E0B"/>
<path d="M89.8496 29.3774C88.1519 29.3774 86.7862 28.8846 85.7524 27.8989C84.7434 26.8885 84.2389 25.4099 84.2389 23.463V12.8539H80.8062V9.82265C82.0119 9.82265 82.8363 9.73644 83.2793 9.56393C83.7468 9.36679 84.0421 8.98483 84.1651 8.418C84.3128 7.85119 84.3866 6.82848 84.3866 5.34985H87.7821V9.82265H92.8028V12.8539H87.7821V23.2412C87.7821 24.2516 88.029 25.0032 88.5209 25.4961C89.0377 25.989 89.6776 26.2354 90.4404 26.2354C90.8583 26.2354 91.2273 26.1984 91.5472 26.1245C91.8921 26.0505 92.224 25.9027 92.5439 25.6809V28.7491C92.298 28.9216 91.917 29.0695 91.4002 29.1926C90.8833 29.3159 90.3664 29.3774 89.8496 29.3774Z" fill="#0F0E0B"/>
<path d="M61.9399 35.766V33.2524V12.9213V9.96409V9.81621H65.4836V12.5886C66.0495 11.6768 66.8985 10.9251 68.0305 10.3337C69.1871 9.74232 70.4175 9.44656 71.7217 9.44656C73.3951 9.44656 74.9085 9.87779 76.2619 10.7403C77.6399 11.6029 78.7105 12.7981 79.4733 14.326C80.2361 15.8292 80.6175 17.5297 80.6175 19.4273C80.6175 21.3248 80.2238 23.0376 79.4364 24.5654C78.6735 26.0687 77.603 27.2517 76.225 28.1142C74.8716 28.952 73.3336 29.371 71.611 29.371C70.356 29.371 69.1625 29.0753 68.0305 28.4838C66.8985 27.8923 66.0495 27.1407 65.4836 26.2289V33.2524V35.766V35.9139H61.9399V35.766ZM71.0942 26.2289C72.2261 26.2289 73.2351 25.9455 74.121 25.3787C75.0069 24.8119 75.6959 24.011 76.1881 22.9759C76.6803 21.9409 76.9263 20.7704 76.9263 19.4642C76.9263 18.1088 76.6803 16.9136 76.1881 15.8786C75.6959 14.8435 75.0192 14.0426 74.1579 13.4758C73.2967 12.8843 72.3123 12.5886 71.205 12.5886C70.1714 12.5886 69.2363 12.835 68.3996 13.3279C67.563 13.7962 66.8862 14.4615 66.3695 15.324C65.8527 16.1619 65.5574 17.1231 65.4836 18.2074V20.6841C65.5574 21.7684 65.8404 22.7295 66.3326 23.5674C66.8493 24.4053 67.5137 25.0583 68.3258 25.5266C69.1625 25.9948 70.0853 26.2289 71.0942 26.2289Z" fill="#0F0E0B"/>
<path d="M35.8462 28.8546L36.7321 26.6366L46.2924 2.35025H50.0205L59.5807 26.6366L60.5036 28.8546V29.0025H56.3694L56.2955 28.8546L55.4466 26.6366L48.138 7.45149L40.7555 26.6366L39.9066 28.8546L39.8327 29.0025H35.8462V28.8546ZM40.7925 19.0217H55.2621V22.3856H40.7925V19.0217Z" fill="#0F0E0B"/>
<path d="M1.60498 8.97363C0.951634 10.3504 0.49543 11.8394 0.271973 13.4033H13.2764L16.1157 8.97363H1.60498Z" fill="#0F0E0B"/>
<path d="M30.9207 13.4033C30.6967 11.8389 30.241 10.3505 29.5877 8.97373H21.793L18.9546 4.54357H26.4298C23.6379 1.80342 19.8144 0.113434 15.5961 0.113434C11.3777 0.113434 7.55465 1.80342 4.76221 4.54305H18.9546L16.1152 8.97321L18.9546 13.4028H30.9201L30.9207 13.4033Z" fill="#0F0E0B"/>
<path d="M7.59868 22.2636L4.75928 26.6931C7.55171 29.4328 11.368 31.1481 15.5863 31.1481C19.8046 31.1481 23.6856 29.5202 26.4883 26.6931H10.4381L7.59868 22.2636Z" fill="#0F0E0B"/>
<path d="M10.437 17.8329H0.271973C0.495946 19.3978 0.951634 20.8862 1.60498 22.2631H7.59858L10.437 17.8329Z" fill="#0F0E0B"/>
<path d="M13.276 22.2636H29.5873C30.2407 20.8868 30.6968 19.3979 30.9203 17.8339H16.1154L13.276 13.4039L10.4365 17.8334" fill="#0F0E0B"/>
</g>
<defs>
<clipPath id="clip0_202_18549">
<rect width="129" height="36" fill="white"/>
</clipPath>
</defs>
</svg>
