<svg width="160" height="35" viewBox="0 0 160 35" fill="none" xmlns="http://www.w3.org/2000/svg">
<g clip-path="url(#clip0_202_18758)">
<mask id="mask0_202_18758" style="mask-type:luminance" maskUnits="userSpaceOnUse" x="0" y="0" width="160" height="35">
<path d="M0 0H159.899V34.4086H0V0Z" fill="white"/>
</mask>
<g mask="url(#mask0_202_18758)">
<path d="M34.0877 17.2043C34.0877 26.7045 26.4559 34.4086 17.0443 34.4086C7.63183 34.4086 0 26.7045 0 17.2043C0 7.70409 7.63183 0 17.0443 0C26.4559 0 34.0877 7.70409 34.0877 17.2043Z" fill="#DD1438"/>
<path d="M26.8199 8.92724C26.4113 7.87606 25.7257 6.95477 24.9601 6.1823C24.1527 5.42275 23.213 4.81749 22.1876 4.39649C21.5238 4.12839 20.8272 3.94991 20.1162 3.86574C17.5743 3.49413 14.8964 4.28208 12.954 6.24681C10.7115 8.5109 9.92351 11.8253 10.9128 14.9109V14.941C10.2914 15.3326 9.72227 15.8014 9.21899 16.3363C8.43878 17.1621 7.80652 18.1221 7.39706 19.1733C6.99584 20.2279 6.79455 21.3481 6.80351 22.4765C6.80351 23.6232 7.04179 24.7131 7.48824 25.7264C7.8977 26.7776 8.58329 27.6989 9.34802 28.4713C10.1554 29.2309 11.0951 29.8361 12.1205 30.2571C13.1244 30.67 14.2074 30.8567 15.3024 30.8567C15.1476 30.8567 14.9953 30.849 14.8439 30.8421C16.024 30.9062 17.2043 30.7188 18.3064 30.2923C19.4086 29.8658 20.4076 29.2099 21.2371 28.3681C22.3386 27.2642 23.1139 25.8776 23.4775 24.361C23.841 22.8445 23.7786 21.257 23.2973 19.7737C23.9597 19.373 24.5638 18.883 25.0925 18.3174C25.8728 17.4915 26.5059 16.5315 26.9145 15.4804C27.3162 14.4258 27.518 13.3056 27.5097 12.1771C27.5108 11.0578 27.2773 9.95073 26.8242 8.92724M19.4719 9.53886C19.4126 9.26915 19.3846 8.99349 19.3885 8.71735C19.6956 8.77068 19.9872 8.86187 20.2788 8.98402C20.6882 9.15606 21.0444 9.43563 21.3205 9.75649C21.5854 10.0894 21.8203 10.449 21.9528 10.8619C22.0973 11.2748 22.1386 11.6877 22.1386 12.1006C22.0927 12.8848 21.7627 13.6254 21.2104 14.184L19.4728 9.54316L19.4719 9.53886ZM21.4573 14.8421C21.5097 14.7922 21.5631 14.7423 21.6087 14.6847C21.9639 14.3105 22.1876 13.9131 22.3734 13.446C22.5592 12.9797 22.5971 12.4748 22.5971 12.0206C22.5971 11.5156 22.4646 11.0606 22.2788 10.6477C22.093 10.2348 21.779 9.85972 21.4607 9.54316C21.1424 9.26359 20.733 8.98402 20.3244 8.85068C20.0293 8.74402 19.7067 8.69757 19.3816 8.6752C19.3944 8.138 19.5303 7.61091 19.779 7.13456C20.1497 7.20681 20.5059 7.31778 20.8508 7.47864C21.4831 7.75735 21.9863 8.17025 22.4336 8.62531C22.8431 9.13025 23.2138 9.67649 23.4375 10.2769C23.6611 10.8774 23.7558 11.5044 23.7558 12.1539C23.7558 12.8042 23.6233 13.446 23.3472 13.9931C23.1204 14.5686 22.7639 15.084 22.3054 15.4993C22.1574 15.6332 22.0004 15.7571 21.8358 15.87L21.453 14.8455L21.4573 14.8421ZM22.074 16.4894C22.3107 16.3126 22.5348 16.1197 22.745 15.9122C23.207 15.4072 23.6156 14.7655 23.8392 14.1264C24.1153 13.4348 24.21 12.7432 24.21 12.0619C24.21 11.3823 24.0396 10.6898 23.7601 10.0515C23.486 9.42634 23.0864 8.86416 22.5859 8.39993C22.0852 7.94832 21.5442 7.57413 20.911 7.34789C20.5539 7.2237 20.1849 7.13664 19.81 7.0881C19.9682 6.79391 20.1618 6.52208 20.4001 6.27778C20.5859 6.09025 20.7906 5.93025 21.0022 5.79262C21.1725 5.85284 21.3394 5.92165 21.502 5.99907C22.2926 6.33533 23.0036 6.83416 23.5889 7.46316C24.1842 8.06359 24.6306 8.84724 24.9489 9.61886C25.2672 10.4447 25.3996 11.3092 25.3996 12.135C25.3635 12.9859 25.1802 13.8241 24.8577 14.6124C24.5394 15.3462 24.0405 16.0232 23.4452 16.6236C23.1396 16.9325 22.8006 17.2066 22.4345 17.4408L22.074 16.4817V16.4894ZM13.2078 28.8309C13.0742 28.7803 12.9427 28.724 12.8138 28.6623C12.0232 28.3261 11.3122 27.8272 10.727 27.1982C10.1317 26.5978 9.68523 25.8141 9.36695 25.0382C9.06482 24.234 8.91319 23.3811 8.91964 22.5221C8.95397 21.6709 9.13739 20.8324 9.46157 20.0447C9.77985 19.3109 10.2796 18.6339 10.8749 18.0343C11.1569 17.748 11.4676 17.4914 11.8022 17.2688L12.1695 18.2322C11.96 18.3922 11.7615 18.5661 11.5751 18.7526C11.1132 19.2576 10.7037 19.9001 10.4809 20.5384C10.2039 21.23 10.1093 21.9225 10.1093 22.6029C10.1093 23.2825 10.2796 23.975 10.5601 24.6141C10.8341 25.2393 11.2338 25.8015 11.7343 26.2657C12.234 26.7165 12.7751 27.0915 13.4117 27.3169C13.7343 27.4313 14.0715 27.5113 14.4087 27.5612C14.2529 27.8439 14.059 28.1039 13.8323 28.3337C13.6457 28.5222 13.4372 28.6876 13.2113 28.8266M13.465 27.1793C12.8328 26.8997 12.3295 26.4868 11.8822 26.0318C11.4728 25.5277 11.1054 24.9806 10.8783 24.3801C10.6604 23.7787 10.5526 23.1429 10.5601 22.5032C10.5601 21.8537 10.6925 21.2111 10.9695 20.664C11.1932 20.0791 11.5631 19.5715 12.0104 19.1586C12.136 19.0434 12.2685 18.9401 12.4044 18.8404L12.7983 19.8812C12.7682 19.9113 12.7381 19.938 12.708 19.9724C12.3519 20.3432 12.1282 20.7449 11.9424 21.2111C11.7566 21.6774 11.7188 22.1823 11.7188 22.6374C11.7188 23.1449 11.8513 23.5965 12.0371 24.0094C12.2229 24.4223 12.5368 24.7974 12.8551 25.1148C13.1734 25.3935 13.5829 25.6731 13.9915 25.8064C14.2642 25.9019 14.5558 25.9526 14.8551 25.975C14.8311 26.5099 14.6874 27.0325 14.4345 27.5045C14.1002 27.4324 13.7751 27.3234 13.465 27.1793ZM14.7872 25.1027C14.8439 25.378 14.8629 25.6533 14.8551 25.9251C14.5771 25.869 14.3056 25.7846 14.0448 25.6731C13.6353 25.501 13.2792 25.2214 13.0031 24.9006C12.7381 24.5677 12.5033 24.2081 12.3708 23.7952C12.2263 23.3823 12.185 22.9694 12.185 22.5565C12.2293 21.8031 12.5361 21.0891 13.0521 20.5384L14.7872 25.1027ZM9.55706 28.326C8.77598 27.5389 8.23835 26.6322 7.82889 25.6232C7.47362 24.6632 7.28695 23.5586 7.28695 22.5075C7.34028 21.4554 7.56394 20.4042 7.9734 19.4451C8.382 18.4731 9.01426 17.606 9.742 16.8756C10.1845 16.4332 10.6807 16.048 11.219 15.729L11.4994 16.4627C11.071 16.7457 10.6736 17.0632 10.3252 17.4494C9.69021 18.1212 9.19697 18.914 8.87491 19.7806C8.55663 20.6451 8.42759 21.5664 8.42759 22.4842C8.48093 23.39 8.65125 24.3079 9.022 25.1337C9.39061 25.9595 9.91553 26.7061 10.5678 27.3324C11.2091 27.9441 11.9612 28.4279 12.7837 28.7578C12.9007 28.8042 13.0186 28.8421 13.1364 28.8842C12.5981 29.2031 11.988 29.3807 11.3626 29.4004C11.1399 29.4045 10.9174 29.3814 10.7003 29.3315C10.2903 29.0349 9.90874 28.7009 9.5605 28.3337M26.3545 15.2206C25.945 16.1909 25.3128 17.0589 24.585 17.7892C24.1184 18.2575 23.5913 18.6614 23.0177 18.99L22.745 18.2589C23.2093 17.9682 23.6334 17.6177 24.0061 17.2163C24.6383 16.535 25.1416 15.7513 25.4564 14.8834C25.7747 14.0197 25.9037 13.0984 25.9037 12.1806C25.8504 11.2748 25.6801 10.3569 25.3085 9.53111C24.5739 7.87995 23.2248 6.57998 21.5476 5.90703C21.3938 5.84687 21.237 5.79462 21.0779 5.75047C21.8444 5.29026 22.7585 5.14242 23.631 5.33757C24.0439 5.6352 24.4259 5.97154 24.7665 6.33542C25.5476 7.12251 26.0852 8.02488 26.4938 9.03821C26.85 9.99735 27.0358 11.1027 27.0358 12.1539C26.9833 13.2051 26.7596 14.2606 26.3502 15.2163" fill="white"/>
<path d="M45.046 28.4643C43.3565 27.9663 41.9974 27.3245 40.9746 26.5331L42.7733 22.503C43.754 23.2299 44.9213 23.8149 46.2735 24.2544C47.6258 24.6931 48.9772 24.9159 50.3294 24.9159C51.8374 24.9159 52.9471 24.6897 53.6671 24.2389C54.3862 23.7882 54.7458 23.1878 54.7458 22.4385C54.7458 21.888 54.5342 21.4286 54.1092 21.0656C53.6851 20.7026 53.1398 20.4118 52.4731 20.1899C51.8064 19.968 50.9092 19.7271 49.7729 19.4639C48.0267 19.0467 46.5987 18.6269 45.489 18.2097C44.3789 17.7926 43.3936 17.0992 42.6262 16.1951C41.8305 15.2695 41.4331 14.0385 41.4331 12.4979C41.4331 11.1559 41.7927 9.93615 42.5118 8.84712C43.2318 7.75722 44.3148 6.89357 45.766 6.25443C47.2163 5.61615 48.9892 5.29529 51.083 5.29529C52.5454 5.29529 53.9733 5.47077 55.3669 5.8226C56.7604 6.17443 57.9845 6.68282 59.0331 7.34088L57.397 11.4045C55.28 10.1968 53.1664 9.58862 51.0486 9.58862C49.5647 9.58862 48.4697 9.83292 47.7617 10.3146C47.0537 10.8007 46.6976 11.4389 46.6976 12.2303C46.6976 13.0217 47.1062 13.6144 47.9243 13.9964C48.7424 14.3835 49.9922 14.762 51.6705 15.1361C53.4168 15.5525 54.8447 15.9731 55.9544 16.3895C57.0588 16.8009 58.0429 17.4819 58.8172 18.3706C59.6129 19.2729 60.0103 20.4953 60.0103 22.0368C60.0211 23.3254 59.6395 24.5867 58.9161 25.6531C58.1849 26.743 57.0864 27.6067 55.6284 28.2458C54.166 28.8841 52.3897 29.2007 50.295 29.2007C48.5176 29.2053 46.7486 28.9545 45.0426 28.4557M66.3277 26.4635C64.5058 24.6364 63.5974 22.0248 63.5974 18.6381V5.69185H68.8963V18.4394C68.8963 22.5796 70.5961 24.6475 74.0017 24.6475C75.6568 24.6475 76.9256 24.1469 77.797 23.1456C78.6675 22.1435 79.1071 20.5762 79.1071 18.4394V5.69271H84.3415V18.6381C84.3415 22.0291 83.4288 24.6364 81.6103 26.4635C79.7892 28.2914 77.2439 29.205 73.9716 29.205C70.6985 29.205 68.1531 28.2914 66.332 26.4635M103.532 6.71722C105.025 7.39679 106.176 8.36884 106.982 9.62303C107.789 10.8764 108.194 12.3637 108.194 14.0807C108.194 15.7968 107.794 17.2574 106.982 18.5228C106.176 19.7882 105.025 20.7594 103.532 21.4286C102.04 22.1013 100.275 22.4377 98.2486 22.4377H93.6353V28.8118H88.3363V5.69185H98.2486C100.279 5.69185 102.04 6.03163 103.532 6.7155V6.71722ZM101.585 17.0355C102.415 16.3439 102.828 15.3581 102.828 14.0807C102.828 12.8032 102.415 11.7865 101.585 11.0949C100.756 10.4024 99.5441 10.054 97.9535 10.054H93.6353V18.0798H97.9535C99.5441 18.0798 100.756 17.7314 101.585 17.0389M126.618 28.811L122.201 22.3688H117.326V28.8118H112.028V5.69185H121.94C123.97 5.69185 125.732 6.03163 127.223 6.7155C128.716 7.39679 129.868 8.36712 130.674 9.62217C131.48 10.8755 131.886 12.3628 131.886 14.0798C131.886 15.7959 131.477 17.2798 130.659 18.522C129.841 19.7693 128.678 20.7164 127.174 21.3779L132.311 28.8101L126.618 28.811ZM125.277 11.0949C124.447 10.4024 123.235 10.054 121.645 10.054H117.326V18.1142H121.645C123.235 18.1142 124.447 17.7615 125.277 17.0587C126.106 16.3551 126.519 15.365 126.519 14.0884C126.519 12.811 126.106 11.7942 125.277 11.0983M152.309 23.8561H141.677L139.646 28.811H134.215L144.423 5.69271H149.658L159.898 28.811H154.339L152.309 23.8561ZM150.638 19.7925L147.006 10.9409L143.374 19.7925H150.638Z" fill="#1D2A3A"/>
</g>
</g>
<defs>
<clipPath id="clip0_202_18758">
<rect width="160" height="34.4086" fill="white"/>
</clipPath>
</defs>
</svg>
