<svg width="160" height="43" viewBox="0 0 160 43" fill="none" xmlns="http://www.w3.org/2000/svg">
<g clip-path="url(#clip0_202_18823)">
<mask id="mask0_202_18823" style="mask-type:luminance" maskUnits="userSpaceOnUse" x="0" y="-1" width="160" height="44">
<path d="M0 -0.00012207H160V42.057H0V-0.00012207Z" fill="white"/>
</mask>
<g mask="url(#mask0_202_18823)">
<path fill-rule="evenodd" clip-rule="evenodd" d="M14.8208 -0.00012207L25.2939 16.2947L14.8208 22.3576L4.34766 16.2947L14.8208 -0.00012207ZM7.55223 15.5199L14.8208 4.21588L22.0894 15.521L14.8208 19.7267L7.55223 15.5199Z" fill="black"/>
<path d="M14.8112 25.9393L2.66151 18.9073L2.33351 19.4193C0.519837 22.2426 -0.27056 25.6026 0.0942584 28.9384C0.459077 32.2741 1.95703 35.3839 4.33808 37.7484C10.1175 43.4936 19.4946 43.4936 25.2844 37.7484C27.6692 35.3861 29.1698 32.276 29.5347 28.9391C29.8996 25.6022 29.1068 22.2412 27.2889 19.4193L26.9609 18.9073L14.8112 25.9393ZM67.3175 32.1324H53.5004V9.92442H57.7152V28.2147H67.3175V32.1324ZM88.5072 32.1324H84.2912V9.92442H88.5072V32.1324ZM105.594 32.1324V9.92442H112.817C113.912 9.92442 114.802 9.96099 115.476 10.0456C117.219 10.2513 118.727 10.8661 119.983 11.8833C121.257 12.9004 122.222 14.2059 122.878 15.7998C123.54 17.3861 123.871 19.1305 123.87 21.033C123.87 22.9358 123.542 24.6798 122.878 26.2753C122.212 27.8604 121.247 29.1564 119.983 30.1736C118.718 31.1907 117.219 31.8056 115.476 32.0113C114.793 32.0947 113.903 32.1324 112.816 32.1324H105.594ZM112.817 28.1873C113.912 28.1873 114.718 28.1301 115.233 28.0284C116.131 27.8591 116.948 27.3969 117.556 26.7141C118.202 25.9842 118.678 25.1211 118.952 24.1861C119.263 23.188 119.419 22.1339 119.42 21.0238C119.42 19.913 119.262 18.8136 118.943 17.8147C118.633 16.817 118.166 15.977 117.528 15.297C116.928 14.6249 116.12 14.1747 115.233 14.0193C114.718 13.9164 113.912 13.8593 112.816 13.8593H109.875V28.1781H112.816L112.817 28.1873ZM149.191 32.5987C146.99 32.5987 145.079 32.1233 143.439 31.1633C141.809 30.1918 140.554 28.8398 139.673 27.0867C138.802 25.3427 138.371 23.3187 138.371 21.0238C138.371 18.729 138.802 16.705 139.673 14.961C140.554 13.2162 141.809 11.8638 143.439 10.9038C145.068 9.93356 146.99 9.45813 149.191 9.45813C151.392 9.45813 153.303 9.9427 154.943 10.9038C156.572 11.8638 157.827 13.217 158.689 14.961C159.57 16.705 160.01 18.729 160.01 21.0238C160.01 23.3187 159.57 25.3427 158.689 27.0867C157.818 28.8307 156.572 30.193 154.943 31.1633C153.311 32.1217 151.393 32.6002 149.191 32.5987ZM149.312 28.6536C150.68 28.6536 151.823 28.337 152.751 27.7118C153.679 27.0867 154.38 26.201 154.84 25.0627C155.307 23.9244 155.532 22.5816 155.532 21.033C155.532 18.6444 154.99 16.7804 153.894 15.4364C152.798 14.0936 151.186 13.4136 149.059 13.4136C147.693 13.4151 146.547 13.729 145.622 14.3553C144.695 14.9804 143.992 15.8661 143.532 17.0044C143.064 18.1416 142.84 19.4844 142.84 21.033C142.84 23.4216 143.383 25.2867 144.479 26.6296C145.575 27.9724 147.186 28.6536 149.312 28.6536Z" fill="black"/>
</g>
</g>
<defs>
<clipPath id="clip0_202_18823">
<rect width="160" height="42.2857" fill="white"/>
</clipPath>
</defs>
</svg>
