<svg width="160" height="39" viewBox="0 0 160 39" fill="none" xmlns="http://www.w3.org/2000/svg">
<path d="M47.1416 3.86475C50.5576 3.86492 53.3291 6.63017 53.3291 10.0386V12.6851H48.9688C48.9112 11.1531 48.7414 9.97725 48.5303 9.69385C48.0965 8.74411 47.1375 8.08158 46.0244 8.08154H44.4082C42.8883 8.08164 41.6523 9.31118 41.6523 10.8315V27.8159C41.6523 29.3325 42.8845 30.5658 44.4082 30.5659H46.0244C47.4599 30.5659 48.638 29.4745 48.7686 28.0767C48.8607 27.5443 48.9342 26.7976 48.9688 25.9282H53.3291V28.6089C53.3291 32.0173 50.5576 34.7825 47.1416 34.7827H43.2871C39.8712 34.7825 37.1006 32.0172 37.1006 28.6089V10.0386C37.1006 6.63022 39.8712 3.865 43.2871 3.86475H47.1416ZM65.957 3.91455C69.3731 3.91459 72.1445 6.67989 72.1445 10.0884V28.6089C72.1445 32.0174 69.3731 34.7827 65.957 34.7827H61.7959C58.3799 34.7825 55.6084 32.0173 55.6084 28.6089V10.0923C55.6084 6.68388 58.3799 3.91863 61.7959 3.91846H65.957V3.91455ZM129.308 27.8159C129.308 29.3324 130.54 30.5657 132.063 30.5659H133.649C135.169 30.5657 136.405 29.3362 136.405 27.8159V4.18994H140.957V28.605C140.957 32.0135 138.186 34.7788 134.77 34.7788H130.947C127.531 34.7788 124.76 32.0135 124.76 28.605V4.18994H129.308V27.8159ZM108.06 4.15186V8.47607H102.087C100.352 8.47607 99.9024 8.98511 99.9023 10.6548L99.8838 10.6362V16.9819H106.919V21.3052H99.8838V34.4956H94.9893V7.36084C95.0854 5.57254 96.5713 4.15186 98.3867 4.15186H108.06ZM115.543 30.1675H123.719V34.4917H110.649V4.15186H115.543V30.1675ZM151.037 14.3931L154.143 4.29736H159.52L153.705 18.8433L160 34.4917H154.618L151.033 23.6343L147.448 34.4917H142.07L148.235 18.8433L142.555 4.29736H147.932L151.037 14.3931ZM85.3701 3.96436C88.7862 3.96436 91.5576 6.72967 91.5576 10.1382V34.4683H87.0098V10.9272C87.0098 9.41079 85.7775 8.17747 84.2539 8.17725H82.668C81.1481 8.1774 79.9121 9.40692 79.9121 10.9272V34.4722H75.3604V10.1382C75.3604 6.72967 78.1317 3.96436 81.5479 3.96436H85.3701ZM62.917 8.13135C61.397 8.13135 60.1611 9.36093 60.1611 10.8813V27.8159C60.1611 29.3325 61.3932 30.5659 62.917 30.5659H64.8398C66.3598 30.5659 67.5957 29.3363 67.5957 27.8159V10.8813C67.5957 9.36475 66.3637 8.13135 64.8398 8.13135H62.917Z" fill="#1A1A1A"/>
<path d="M23.1554 23.2009L15.42 30.9125L11.5738 27.0781L19.3092 19.3665L15.4512 15.5166L3.81494 27.1209L15.377 38.6474L27.0133 27.047L23.1554 23.2009Z" fill="#1A1A1A"/>
<path d="M30.9181 15.3608L15.5098 0L0 15.4659L0.0507523 23.1269L15.4396 7.78163L30.8908 23.1853L30.9181 15.3608Z" fill="#38A1DB"/>
</svg>
