<svg width="128" height="40" viewBox="0 0 128 40" fill="none" xmlns="http://www.w3.org/2000/svg">
<path d="M32.3416 23.7323C32.6849 22.6024 32.8718 21.4048 32.8718 20.1647C32.8718 20.027 32.8667 19.8917 32.8616 19.7539C27.936 16.9028 24.222 10.7951 22.6673 7.89648C21.827 7.72612 20.9562 7.63843 20.0648 7.63843C19.1735 7.63843 18.3615 7.72362 17.547 7.88144C16.8528 9.16413 15.7335 11.0807 14.2633 13.0673C12.5676 15.3597 10.1368 18.1004 7.26806 19.7639C7.26293 19.8966 7.25781 20.0294 7.25781 20.1647C7.25781 21.4073 7.44479 22.6073 7.79058 23.7397C9.91911 22.7601 11.8504 21.3097 13.5487 19.6737C12.337 22.4771 10.9872 25.1978 9.581 27.3548C10.3392 28.412 11.2613 29.349 12.3089 30.1306C13.8457 27.931 15.398 25.0374 16.9553 21.4625C16.4046 25.1401 15.6054 28.3594 14.4528 31.4284C15.5951 31.9745 16.8349 32.3578 18.1387 32.5507C18.9634 30.4914 19.614 28.4446 20.1263 25.7815C20.6411 28.4346 21.2943 30.4764 22.119 32.5281C23.4177 32.3227 24.6497 31.927 25.7844 31.3707C24.6702 28.412 23.8864 25.3105 23.3331 21.7405C24.8444 25.1778 26.353 27.9711 27.8438 30.1106C28.8914 29.3265 29.8109 28.3845 30.5666 27.3247C29.1707 25.1752 27.831 22.4746 26.6271 19.6912C28.3126 21.3172 30.226 22.7577 32.339 23.7323H32.3416Z" fill="#0C0C0C"/>
<path d="M19.9997 38.0307C29.9577 38.0307 38.0302 29.9581 38.0302 20.0002C38.0302 10.0422 29.9577 1.96973 19.9997 1.96973C10.0418 1.96973 1.96924 10.0422 1.96924 20.0002C1.96924 29.9581 10.0418 38.0307 19.9997 38.0307Z" stroke="#0C0C0C" stroke-width="3.93905"/>
<path d="M124.533 27.0176C124.533 27.4258 124.581 27.7173 124.679 27.8922C124.795 28.0672 125.009 28.1546 125.32 28.1546C125.416 28.1546 125.534 28.1546 125.669 28.1546C125.806 28.1546 125.961 28.1352 126.136 28.0962V30.3994C126.02 30.4384 125.863 30.4772 125.669 30.516C125.495 30.5744 125.311 30.6229 125.115 30.6618C124.921 30.7007 124.727 30.7299 124.533 30.7493C124.339 30.7687 124.173 30.7785 124.038 30.7785C123.356 30.7785 122.793 30.6424 122.346 30.3702C121.899 30.0981 121.607 29.622 121.472 28.9418C120.811 29.5832 119.994 30.0495 119.022 30.3412C118.071 30.6327 117.147 30.7785 116.253 30.7785C115.573 30.7785 114.922 30.6813 114.3 30.4869C113.678 30.312 113.124 30.0495 112.638 29.6998C112.171 29.3305 111.792 28.8738 111.501 28.3295C111.229 27.7659 111.093 27.1148 111.093 26.3762C111.093 25.4433 111.258 24.6853 111.588 24.1022C111.938 23.5192 112.385 23.0624 112.929 22.732C113.493 22.4015 114.115 22.1684 114.795 22.0324C115.495 21.8768 116.195 21.7602 116.894 21.6825C117.497 21.5659 118.071 21.4881 118.614 21.4492C119.159 21.3909 119.635 21.3034 120.043 21.1868C120.471 21.0702 120.801 20.8953 121.034 20.6621C121.287 20.4094 121.413 20.0401 121.413 19.5542C121.413 19.1266 121.306 18.7768 121.093 18.5047C120.898 18.2326 120.646 18.0285 120.334 17.8925C120.043 17.7369 119.713 17.6398 119.343 17.6009C118.974 17.5426 118.625 17.5134 118.294 17.5134C117.361 17.5134 116.593 17.7079 115.991 18.0966C115.388 18.4853 115.048 19.0878 114.97 19.9041H111.647C111.705 18.9322 111.938 18.1256 112.346 17.4844C112.755 16.8429 113.27 16.3279 113.891 15.9392C114.533 15.5505 115.252 15.2784 116.049 15.1228C116.846 14.9674 117.662 14.8896 118.498 14.8896C119.236 14.8896 119.965 14.9674 120.685 15.1228C121.403 15.2784 122.045 15.5311 122.608 15.8808C123.192 16.2307 123.658 16.6874 124.008 17.2511C124.358 17.7953 124.533 18.4659 124.533 19.2627V27.0176ZM121.209 22.8194C120.703 23.1499 120.082 23.3539 119.343 23.4316C118.605 23.49 117.866 23.5872 117.128 23.7232C116.778 23.7815 116.438 23.8689 116.107 23.9856C115.777 24.0828 115.485 24.2286 115.233 24.4229C114.98 24.5979 114.776 24.8408 114.62 25.1518C114.484 25.4433 114.416 25.8028 114.416 26.2305C114.416 26.5998 114.523 26.9107 114.737 27.1634C114.951 27.416 115.203 27.6201 115.495 27.7756C115.806 27.9116 116.136 28.0088 116.486 28.0672C116.855 28.1254 117.186 28.1546 117.477 28.1546C117.847 28.1546 118.245 28.106 118.673 28.0088C119.1 27.9116 119.499 27.7465 119.868 27.5132C120.256 27.28 120.578 26.9885 120.831 26.6386C121.082 26.2693 121.209 25.8222 121.209 25.2975V22.8194Z" fill="#0C0C0C"/>
<path d="M101.659 15.2978H104.779V18.2132H104.837C104.934 17.8051 105.119 17.4066 105.391 17.0179C105.682 16.6292 106.023 16.2793 106.411 15.9684C106.819 15.6379 107.266 15.3755 107.752 15.1812C108.238 14.9868 108.734 14.8896 109.239 14.8896C109.628 14.8896 109.89 14.8993 110.026 14.9188C110.182 14.9382 110.337 14.9576 110.493 14.9771V18.184C110.26 18.1452 110.017 18.116 109.764 18.0966C109.531 18.0576 109.298 18.0382 109.064 18.0382C108.501 18.0382 107.966 18.1548 107.461 18.3881C106.975 18.6019 106.547 18.9322 106.178 19.3793C105.809 19.8069 105.517 20.3414 105.303 20.9828C105.09 21.6241 104.983 22.3627 104.983 23.1985V30.3702H101.659V15.2978Z" fill="#0C0C0C"/>
<path d="M91.2874 30.7785C90.0823 30.7785 89.0036 30.5841 88.0513 30.1953C87.1183 29.7872 86.3215 29.2333 85.6607 28.5335C85.0193 27.8339 84.5236 26.9981 84.1739 26.0264C83.8434 25.0546 83.6782 23.9856 83.6782 22.8194C83.6782 21.6727 83.8434 20.6135 84.1739 19.6416C84.5236 18.6699 85.0193 17.8341 85.6607 17.1345C86.3215 16.4348 87.1183 15.8906 88.0513 15.5019C89.0036 15.0938 90.0823 14.8896 91.2874 14.8896C92.4923 14.8896 93.5614 15.0938 94.4942 15.5019C95.4466 15.8906 96.2435 16.4348 96.8849 17.1345C97.5456 17.8341 98.0413 18.6699 98.3717 19.6416C98.7215 20.6135 98.8964 21.6727 98.8964 22.8194C98.8964 23.9856 98.7215 25.0546 98.3717 26.0264C98.0413 26.9981 97.5456 27.8339 96.8849 28.5335C96.2435 29.2333 95.4466 29.7872 94.4942 30.1953C93.5614 30.5841 92.4923 30.7785 91.2874 30.7785ZM91.2874 28.1546C92.0259 28.1546 92.6673 27.9991 93.2115 27.6881C93.7557 27.3772 94.2027 26.9691 94.5526 26.4636C94.9025 25.9584 95.155 25.3947 95.3106 24.7727C95.4855 24.1314 95.5729 23.4802 95.5729 22.8194C95.5729 22.1781 95.4855 21.5367 95.3106 20.8953C95.155 20.2539 94.9025 19.6902 94.5526 19.2044C94.2027 18.6991 93.7557 18.2909 93.2115 17.9799C92.6673 17.6689 92.0259 17.5134 91.2874 17.5134C90.5488 17.5134 89.9074 17.6689 89.3632 17.9799C88.819 18.2909 88.372 18.6991 88.0221 19.2044C87.6723 19.6902 87.4099 20.2539 87.2349 20.8953C87.0795 21.5367 87.0017 22.1781 87.0017 22.8194C87.0017 23.4802 87.0795 24.1314 87.2349 24.7727C87.4099 25.3947 87.6723 25.9584 88.0221 26.4636C88.372 26.9691 88.819 27.3772 89.3632 27.6881C89.9074 27.9991 90.5488 28.1546 91.2874 28.1546Z" fill="#0C0C0C"/>
<path d="M77.4331 9.55371H80.7566V30.3695H77.4331V9.55371Z" fill="#0C0C0C"/>
<path d="M70.4014 9.55371H73.7249V30.3695H70.4014V9.55371Z" fill="#0C0C0C"/>
<path d="M56.9032 9.55371H60.7806L68.7979 30.3695H64.8913L62.938 24.8594H54.6292L52.6759 30.3695H48.915L56.9032 9.55371ZM55.6205 22.0898H61.9759L58.8565 13.1396H58.769L55.6205 22.0898Z" fill="#0C0C0C"/>
</svg>
