<svg width="160" height="31" viewBox="0 0 160 31" fill="none" xmlns="http://www.w3.org/2000/svg">
<g clip-path="url(#clip0_202_18468)">
<path d="M15.2306 -3.05176e-05C10.9034 -3.05176e-05 0.246094 10.7098 0.246094 15.0587C0.246094 19.4076 10.9034 30.1176 15.2306 30.1176C19.5578 30.1176 30.2152 19.4074 30.2152 15.0587C30.2152 10.71 19.5579 -3.05176e-05 15.2306 -3.05176e-05ZM12.8955 23.6698C11.0707 23.1701 6.16482 14.5459 6.66213 12.7121C7.15945 10.8782 15.741 5.94801 17.5657 6.44778C19.3906 6.94748 24.2965 15.5716 23.7992 17.4055C23.3019 19.2393 14.7202 24.1696 12.8955 23.6698Z" fill="#836EF9"/>
<path d="M51.1617 18.3965V18.391L42.6475 2.6093C42.48 2.29866 42.0167 2.37306 41.9538 2.72072L37.7136 26.1592C37.672 26.3888 37.8477 26.6003 38.08 26.6003H41.3606C41.5406 26.6003 41.6948 26.4709 41.7269 26.2929L44.1963 12.617L50.8335 25.3331C50.9729 25.6003 51.3535 25.6003 51.4929 25.3331L58.1301 12.617L60.5995 26.2929C60.6316 26.4709 60.7858 26.6003 60.9658 26.6003H64.2464C64.4788 26.6003 64.6544 26.3888 64.6129 26.1592L60.3726 2.72072C60.3097 2.37306 59.8465 2.29866 59.6789 2.6093L51.1617 18.3965Z" fill="#200053"/>
<path d="M78.4065 3.0509C71.6528 3.0509 66.3623 8.32518 66.3623 15.0597C66.3623 21.7942 71.6528 27.0713 78.4065 27.0713C85.1428 27.0713 90.4202 21.7956 90.4202 15.0597C90.4202 8.32371 85.1428 3.0509 78.4065 3.0509ZM78.4065 23.0503C74.0024 23.0503 70.5518 19.54 70.5518 15.0597C70.5518 10.5793 74.0024 7.07191 78.4065 7.07191C82.7933 7.07191 86.2307 10.5808 86.2307 15.0597C86.2307 19.5385 82.7932 23.0503 78.4065 23.0503Z" fill="#200053"/>
<path d="M108.984 17.8143L94.861 2.53813C94.6314 2.28901 94.2163 2.45278 94.2163 2.79283V26.2261C94.2163 26.4328 94.3829 26.6003 94.589 26.6003H98.0027C98.2088 26.6003 98.3754 26.4328 98.3754 26.2261V12.2788L112.467 27.5838C112.696 27.8337 113.112 27.6701 113.112 27.3297V3.89628C113.112 3.68961 112.946 3.52207 112.74 3.52207H109.356C109.151 3.52207 108.984 3.68961 108.984 3.89628V17.8143Z" fill="#200053"/>
<path d="M116.734 26.6006H120.399C120.544 26.6006 120.677 26.5157 120.737 26.3833L123.484 20.4061H132.266L134.95 26.3803C135.01 26.5144 135.143 26.6006 135.29 26.6006H139.267C139.542 26.6006 139.722 26.312 139.602 26.0635L128.335 2.63165C128.2 2.34979 127.801 2.34979 127.665 2.63165L116.398 26.0635C116.279 26.312 116.459 26.6006 116.734 26.6006ZM125.205 16.6977L127.934 10.7454L130.613 16.6977H125.205Z" fill="#200053"/>
<path d="M148.499 3.52216H142.865C142.66 3.52216 142.493 3.68969 142.493 3.89635V26.2262C142.493 26.4329 142.66 26.6004 142.865 26.6004H148.499C155.483 26.6004 159.823 22.1788 159.823 15.0598C159.823 7.94088 155.483 3.52216 148.499 3.52216ZM148.499 22.6411H146.682V7.45071H148.499C153.033 7.45071 155.634 10.2243 155.634 15.0598C155.634 19.8777 153.033 22.6411 148.499 22.6411Z" fill="#200053"/>
</g>
<defs>
<clipPath id="clip0_202_18468">
<rect width="160" height="30.1177" fill="white"/>
</clipPath>
</defs>
</svg>
