<svg width="136" height="32" viewBox="0 0 136 32" fill="none" xmlns="http://www.w3.org/2000/svg">
<path d="M88.5834 9.61958C88.8982 9.61958 89.1702 9.73409 89.3992 9.96309C89.6282 10.1921 89.7427 10.464 89.7427 10.7789V15.1156C89.7427 15.4305 89.6282 15.7024 89.3992 15.9314C89.1702 16.1605 88.8982 16.2749 88.5834 16.2749H84.676C82.0425 16.2749 80.7257 17.5917 80.7257 20.2252V30.7879C80.7257 31.1028 80.6112 31.3748 80.3822 31.6038C80.1532 31.8328 79.8813 31.9473 79.5664 31.9473H74.1562C73.8414 31.9473 73.5694 31.8328 73.3404 31.6038C73.1114 31.3748 72.9969 31.1028 72.9969 30.7879V10.7789C72.9969 10.464 73.1114 10.1921 73.3404 9.96309C73.5694 9.73409 73.8414 9.61958 74.1562 9.61958H79.137C79.4519 9.61958 79.7238 9.73409 79.9528 9.96309C80.1818 10.1921 80.2963 10.464 80.2963 10.7789V11.7665C80.9547 11.1367 81.7419 10.6215 82.6579 10.2207C83.6026 9.81996 84.7189 9.61958 86.0071 9.61958H88.5834Z" fill="#323232"/>
<path d="M48.6629 25.1405C48.6629 23.2512 49.3785 21.6911 50.8098 20.4603C52.2697 19.2294 54.6313 18.3277 57.8945 17.7552L62.9183 16.8964C62.9183 16.2094 62.7322 15.6512 62.3601 15.2218C61.9879 14.7638 61.3439 14.5348 60.4279 14.5348C59.7695 14.5348 59.2542 14.635 58.8821 14.8354C58.5386 15.0072 58.281 15.1646 58.1092 15.3077C57.8516 15.5367 57.6083 15.6799 57.3793 15.7371C57.1503 15.7944 56.8783 15.823 56.5635 15.823H51.1103C50.8241 15.823 50.5808 15.7371 50.3804 15.5653C50.2087 15.3936 50.1371 15.1646 50.1657 14.8783C50.223 14.22 50.5092 13.533 51.0245 12.8173C51.5397 12.1017 52.241 11.4433 53.1284 10.8422C54.0444 10.2411 55.1179 9.74012 56.3488 9.33936C57.6083 8.93861 58.968 8.73823 60.4279 8.73823C62.174 8.73823 63.6911 8.95292 64.9793 9.3823C66.2674 9.81168 67.3265 10.4128 68.1567 11.1857C69.0154 11.9299 69.6452 12.8316 70.0459 13.8908C70.4467 14.9213 70.6471 16.0663 70.6471 17.3258V30.6373C70.6471 30.9522 70.5326 31.2241 70.3036 31.4531C70.0746 31.6821 69.8026 31.7966 69.4877 31.7966H64.0776C63.7627 31.7966 63.4908 31.6821 63.2618 31.4531C63.0328 31.2241 62.9183 30.9522 62.9183 30.6373V29.1337C62.2313 29.9925 61.3725 30.6795 60.342 31.1947C59.3401 31.6814 58.009 31.9247 56.3488 31.9247C55.1179 31.9247 54.0158 31.7529 53.0426 31.4094C52.0979 31.0659 51.2964 30.5936 50.638 29.9925C50.0083 29.3913 49.5216 28.6757 49.1781 27.8456C48.8346 27.0154 48.6629 26.1137 48.6629 25.1405ZM58.4527 26.1281C59.0825 26.1281 59.6693 26.0279 60.2132 25.8275C60.7571 25.5985 61.2294 25.2979 61.6301 24.9258C62.0309 24.5537 62.3458 24.1243 62.5748 23.6377C62.8038 23.1224 62.9183 22.5785 62.9183 22.006L58.968 22.6072C58.1951 22.7503 57.5653 22.9936 57.0787 23.3371C56.6207 23.6806 56.3917 24.1243 56.3917 24.6682C56.3917 25.2121 56.5635 25.5985 56.907 25.8275C57.2791 26.0279 57.7943 26.1281 58.4527 26.1281Z" fill="#323232"/>
<path d="M99.9829 30.7879C99.9829 31.1028 99.8684 31.3748 99.6394 31.6038C99.4104 31.8328 99.1385 31.9473 98.8236 31.9473H93.1988C92.8839 31.9473 92.6119 31.8328 92.3829 31.6038C92.1539 31.3748 92.0394 31.1028 92.0394 30.7879V25.1631C92.0394 24.8482 92.1539 24.5763 92.3829 24.3473C92.6119 24.1183 92.8839 24.0038 93.1988 24.0038H98.8236C99.1385 24.0038 99.4104 24.1183 99.6394 24.3473C99.8684 24.5763 99.9829 24.8482 99.9829 25.1631V30.7879Z" fill="#323232"/>
<path d="M99.9829 30.7879C99.9829 31.1028 99.8684 31.3748 99.6394 31.6038C99.4104 31.8328 99.1385 31.9473 98.8236 31.9473H93.1988C92.8839 31.9473 92.6119 31.8328 92.3829 31.6038C92.1539 31.3748 92.0394 31.1028 92.0394 30.7879V25.1631C92.0394 24.8482 92.1539 24.5763 92.3829 24.3473C92.6119 24.1183 92.8839 24.0038 93.1988 24.0038H98.8236C99.1385 24.0038 99.4104 24.1183 99.6394 24.3473C99.8684 24.5763 99.9829 24.8482 99.9829 25.1631V30.7879Z" fill="#323232"/>
<path d="M109.986 30.7879C109.986 31.1028 109.872 31.3748 109.643 31.6038C109.414 31.8328 109.142 31.9473 108.827 31.9473H103.417C103.102 31.9473 102.83 31.8328 102.601 31.6038C102.372 31.3748 102.257 31.1028 102.257 30.7879V10.7789C102.257 10.464 102.372 10.1921 102.601 9.96309C102.83 9.73409 103.102 9.61959 103.417 9.61959H108.827C109.142 9.61959 109.414 9.73409 109.643 9.96309C109.872 10.1921 109.986 10.464 109.986 10.7789V30.7879ZM109.986 5.49605C109.986 5.81092 109.872 6.08286 109.643 6.31187C109.414 6.54087 109.142 6.65537 108.827 6.65537H103.417C103.102 6.65537 102.83 6.54087 102.601 6.31187C102.372 6.08286 102.257 5.81092 102.257 5.49605V1.15933C102.257 0.844446 102.372 0.572506 102.601 0.343504C102.83 0.114503 103.102 2.66545e-06 103.417 2.66545e-06H108.827C109.142 2.66545e-06 109.414 0.114503 109.643 0.343504C109.872 0.572506 109.986 0.844446 109.986 1.15933V5.49605Z" fill="#323232"/>
<path d="M135.719 18.7751C135.747 19.2045 135.762 19.7627 135.762 20.4497C135.762 21.1081 135.747 21.652 135.719 22.0814C135.662 23.4554 135.347 24.7435 134.774 25.9458C134.202 27.148 133.415 28.2072 132.413 29.1232C131.411 30.0105 130.194 30.7119 128.763 31.2271C127.36 31.7424 125.786 32 124.04 32C122.294 32 120.705 31.7424 119.274 31.2271C117.871 30.7119 116.669 30.0105 115.667 29.1232C114.665 28.2072 113.878 27.148 113.305 25.9458C112.733 24.7435 112.418 23.4554 112.361 22.0814C112.332 21.652 112.318 21.1081 112.318 20.4497C112.318 19.7627 112.332 19.2045 112.361 18.7751C112.389 17.4011 112.69 16.113 113.262 14.9107C113.835 13.7085 114.622 12.6637 115.624 11.7763C116.654 10.8603 117.871 10.1446 119.274 9.62938C120.705 9.0855 122.294 8.81356 124.04 8.81356C125.786 8.81356 127.36 9.0855 128.763 9.62938C130.194 10.1446 131.411 10.8603 132.413 11.7763C133.443 12.6637 134.23 13.7085 134.774 14.9107C135.347 16.113 135.662 17.4011 135.719 18.7751ZM120.089 21.8667C120.175 22.9544 120.562 23.8132 121.249 24.4429C121.964 25.0441 122.895 25.3446 124.04 25.3446C125.185 25.3446 126.101 25.0441 126.788 24.4429C127.503 23.8132 127.904 22.9544 127.99 21.8667C128.047 21.4373 128.076 20.9507 128.076 20.4068C128.076 19.8629 128.047 19.3763 127.99 18.9469C127.904 17.8591 127.503 17.0147 126.788 16.4136C126.101 15.7838 125.185 15.4689 124.04 15.4689C122.895 15.4689 121.964 15.7838 121.249 16.4136C120.562 17.0147 120.175 17.8591 120.089 18.9469C120.032 19.3763 120.004 19.8629 120.004 20.4068C120.004 20.9507 120.032 21.4373 120.089 21.8667Z" fill="#323232"/>
<path d="M37.6745 18.7454C37.6745 8.39259 29.3301 0 19.0369 0C8.7436 0 6.04309e-06 8.39259 6.04309e-06 18.7454V30.4452C-0.00111966 30.8419 0.155066 31.2227 0.433975 31.5032C0.712884 31.7838 1.09149 31.9409 1.48593 31.9397H3.60866C4.00309 31.9409 4.3817 31.7838 4.66061 31.5032C4.93952 31.2227 5.09571 30.8419 5.09458 30.4452V20.7267C5.09458 19.9013 5.75984 19.2322 6.58049 19.2322H9.60327C10.4239 19.2322 11.0892 19.9013 11.0892 20.7267V30.4452C11.088 30.8419 11.2442 31.2227 11.5231 31.5032C11.8021 31.7838 12.1807 31.9409 12.5751 31.9397H14.6978C15.0923 31.9409 15.4709 31.7838 15.7498 31.5032C16.0287 31.2227 16.1849 30.8419 16.1837 30.4452V27.4946C16.1837 24.5427 17.7495 21.8151 20.2912 20.3391C22.833 18.8632 25.9645 18.8632 28.5062 20.3391C31.048 21.8151 32.6137 24.5427 32.6137 27.4946V30.4452C32.6137 31.2706 33.279 31.9397 34.0996 31.9397H36.1971C37.0177 31.9397 37.683 31.2706 37.683 30.4452L37.6745 18.7454ZM10.7283 14.7551C10.4503 15.2064 10.0689 15.5841 9.616 15.8568C8.82688 16.3122 7.87931 16.398 7.02202 16.0917C6.89745 16.0529 6.77885 15.9968 6.66965 15.9251C5.69044 15.3844 5.08189 14.35 5.08189 13.2265C5.08189 12.1029 5.69044 11.0686 6.66965 10.5278C6.78399 10.4544 6.90843 10.3983 7.039 10.3613C8.15341 9.96722 9.39367 10.2455 10.2358 11.0787C10.8279 11.6286 11.1636 12.4031 11.1614 13.2137C11.1604 13.7577 11.0106 14.291 10.7283 14.7551Z" fill="#171717"/>
<path d="M39.3317 18.7454C39.3317 8.39259 30.9874 0 20.6941 0C10.4009 0 1.65726 8.39259 1.65726 18.7454V30.4452C1.65613 30.8419 1.81232 31.2227 2.09123 31.5032C2.37013 31.7838 2.74874 31.9409 3.14318 31.9397H5.26591C5.66035 31.9409 6.03895 31.7838 6.31786 31.5032C6.59677 31.2227 6.75296 30.8419 6.75183 30.4452V20.7267C6.75183 19.9013 7.41709 19.2322 8.23774 19.2322H11.2605C12.0812 19.2322 12.7464 19.9013 12.7464 20.7267V30.4452C12.7453 30.8419 12.9015 31.2227 13.1804 31.5032C13.4593 31.7838 13.8379 31.9409 14.2323 31.9397H16.3551C16.7495 31.9409 17.1281 31.7838 17.407 31.5032C17.6859 31.2227 17.8421 30.8419 17.841 30.4452V27.4946C17.841 24.5427 19.4068 21.8151 21.9485 20.3391C24.4902 18.8632 27.6218 18.8632 30.1635 20.3391C32.7052 21.8151 34.271 24.5427 34.271 27.4946V30.4452C34.271 31.2706 34.9362 31.9397 35.7569 31.9397H37.8543C38.675 31.9397 39.3402 31.2706 39.3402 30.4452L39.3317 18.7454ZM12.3856 14.7551C12.1075 15.2064 11.7261 15.5841 11.2733 15.8568C10.4841 16.3122 9.53656 16.398 8.67927 16.0917C8.5547 16.0529 8.4361 15.9968 8.3269 15.9251C7.34769 15.3844 6.73914 14.35 6.73914 13.2265C6.73914 12.1029 7.34769 11.0686 8.3269 10.5278C8.44124 10.4544 8.56568 10.3983 8.69625 10.3613C9.81066 9.96722 11.0509 10.2455 11.8931 11.0787C12.4852 11.6286 12.8209 12.4031 12.8186 13.2137C12.8177 13.7577 12.6679 14.291 12.3856 14.7551Z" fill="#323232"/>
</svg>
