<svg width="158" height="40" viewBox="0 0 158 40" fill="none" xmlns="http://www.w3.org/2000/svg">
<g clip-path="url(#clip0_202_18523)">
<mask id="mask0_202_18523" style="mask-type:luminance" maskUnits="userSpaceOnUse" x="0" y="0" width="158" height="40">
<path d="M157.448 0H0V39.8899H157.448V0Z" fill="white"/>
</mask>
<g mask="url(#mask0_202_18523)">
<path d="M17.2723 0L0 9.97246V29.9174L17.2723 39.8899L34.5447 29.9174V9.97246L17.2723 0ZM27.2272 25.6907L17.2756 31.4364L7.32378 25.6907V14.1992L17.2756 8.45346L27.2272 14.1992V25.6907Z" fill="#0847F7"/>
<path d="M53.4957 29.9382C51.7804 29.9382 50.2439 29.5457 48.8907 28.7557C47.5362 27.9677 46.4671 26.8299 45.6837 25.3397C44.9003 23.8494 44.5093 22.056 44.5093 19.9578C44.5093 17.8596 44.905 16.0373 45.6916 14.5423C46.4798 13.0488 47.5522 11.9095 48.9115 11.1261C50.2694 10.3427 51.798 9.95175 53.4974 9.95175C54.6014 9.95175 55.6322 10.1097 56.5799 10.4224C57.5294 10.7352 58.3734 11.1899 59.1137 11.7867C59.8541 12.3834 60.4557 13.1126 60.9232 13.9742C61.3891 14.8359 61.6907 15.8155 61.8311 16.9149H57.9777C57.8899 16.358 57.7209 15.8602 57.4688 15.4183C57.215 14.9795 56.8958 14.6045 56.5098 14.295C56.122 13.9854 55.6817 13.7509 55.1918 13.5897C54.6987 13.4285 54.1627 13.3488 53.5787 13.3488C52.5511 13.3488 51.6465 13.6057 50.8614 14.1194C50.078 14.6332 49.4652 15.3816 49.0264 16.366C48.586 17.3489 48.3658 18.5488 48.3658 19.9578C48.3658 21.3666 48.5876 22.5905 49.0312 23.5702C49.4764 24.5498 50.086 25.2887 50.8662 25.7896C51.6465 26.2905 52.5464 26.5411 53.5627 26.5411C54.1292 26.5411 54.6557 26.4645 55.1423 26.3113C55.6289 26.1598 56.0677 25.9363 56.4555 25.6444C56.8417 25.354 57.1672 24.9966 57.4288 24.5738C57.6906 24.151 57.874 23.6659 57.9777 23.1186H61.8311C61.7178 24.0313 61.4465 24.8992 61.0157 25.7178C60.5849 26.5348 60.0106 27.2608 59.2909 27.8911C58.5729 28.5229 57.7271 29.0191 56.7571 29.3877C55.7854 29.753 54.6987 29.9365 53.4989 29.9365V29.9413L53.4957 29.9382Z" fill="#0847F7"/>
<path d="M67.6299 21.1784V29.6686H63.8945V10.2055H67.526V17.6107H67.7095C68.0479 16.7666 68.5808 16.0996 69.3036 15.6114C70.0247 15.1247 70.9454 14.879 72.0591 14.879C73.0692 14.879 73.9548 15.096 74.7095 15.5316C75.4673 15.9672 76.0561 16.5943 76.4726 17.4128C76.8906 18.2298 77.0981 19.2206 77.0981 20.3791V29.6654H73.3485V21.0061C73.3485 20.0647 73.109 19.3323 72.6304 18.8041C72.1517 18.2776 71.4751 18.0143 70.6055 18.0143C70.0215 18.0143 69.5078 18.1404 69.0642 18.3941C68.6191 18.6478 68.2697 19.0068 68.0127 19.4712C67.7558 19.9386 67.6281 20.5035 67.6281 21.1769V21.1799L67.6299 21.1784Z" fill="#0847F7"/>
<path d="M83.7385 29.9574C82.8066 29.9574 81.9737 29.7915 81.2383 29.4611C80.5026 29.1292 79.9234 28.6395 79.5006 27.9917C79.0777 27.3438 78.8672 26.5396 78.8672 25.5823C78.8672 24.7653 79.0171 24.0839 79.3188 23.5432C79.6202 23.0022 80.0287 22.5666 80.5474 22.2315C81.0658 21.8965 81.6515 21.6427 82.3104 21.4735C82.9678 21.3045 83.6587 21.1849 84.3799 21.1146C85.2335 21.0269 85.9213 20.9471 86.4445 20.8737C86.968 20.8003 87.3477 20.6822 87.587 20.521C87.8263 20.3598 87.946 20.1222 87.946 19.8094V19.744C87.946 19.0897 87.745 18.5825 87.3462 18.2218C86.9457 17.8611 86.3744 17.6793 85.634 17.6793C84.8507 17.6793 84.2284 17.85 83.7656 18.1963C83.3045 18.5392 82.9965 18.9557 82.8386 19.4424L79.3634 19.0626C79.5804 18.1755 79.9761 17.4192 80.5457 16.7969C81.1154 16.1746 81.8318 15.6992 82.6934 15.3721C83.555 15.045 84.5348 14.8806 85.6325 14.8806C86.3904 14.8806 87.1291 14.97 87.8471 15.1487C88.5652 15.3258 89.2131 15.6098 89.7938 15.9991C90.3714 16.3868 90.8357 16.899 91.1771 17.5341C91.5201 18.1707 91.6941 18.9445 91.6941 19.8604V29.6686H88.1167V27.6437H88.0131C87.785 28.0778 87.4834 28.4718 87.0988 28.8213C86.7159 29.1707 86.2452 29.4451 85.6883 29.6511C85.1315 29.8569 84.482 29.959 83.7417 29.959H83.737L83.7385 29.9574ZM84.7548 27.2928C85.3994 27.2928 85.9611 27.1651 86.4398 26.9083C86.9186 26.6512 87.2934 26.3083 87.5632 25.8774C87.8328 25.4466 87.9685 24.9695 87.9685 24.4478V22.814C87.8471 22.9016 87.6668 22.9799 87.4338 23.05C87.1977 23.1203 86.9329 23.184 86.636 23.24C86.3409 23.2958 86.0473 23.3452 85.7601 23.39C85.473 23.433 85.216 23.4681 84.9894 23.4936C84.4932 23.5639 84.056 23.6771 83.6762 23.8318C83.2965 23.9898 82.9981 24.202 82.7811 24.4717C82.5642 24.7414 82.4541 25.0812 82.4541 25.4912C82.4541 26.0832 82.6694 26.5316 83.1002 26.838C83.531 27.1428 84.0815 27.2943 84.7518 27.2943H84.7533L84.7548 27.2928Z" fill="#0847F7"/>
<path d="M94.1484 29.6699V15.0671H97.8838V29.6699H94.1484Z" fill="#0847F7"/>
<path d="M104.076 21.1784V29.6686H100.34V15.0641H104.01V17.6107H104.168C104.498 16.7746 105.023 16.1108 105.741 15.6178C106.459 15.1247 107.362 14.8806 108.452 14.8806C109.462 14.8806 110.345 15.0976 111.096 15.5332C111.849 15.9672 112.433 16.5975 112.848 17.4192C113.262 18.2426 113.469 19.2286 113.469 20.3774V29.6638H109.734V21.0044C109.734 20.0727 109.493 19.3403 109.009 18.8106C108.527 18.2809 107.862 18.0128 107.016 18.0128C106.442 18.0128 105.933 18.1389 105.494 18.3925C105.054 18.6461 104.709 19.0053 104.455 19.4696C104.202 19.937 104.077 20.502 104.077 21.1752V21.1784H104.076Z" fill="#0847F7"/>
<path d="M119.658 9.24814V29.6701H115.922V9.24814H119.658Z" fill="#0847F7"/>
<path d="M122.112 29.6699V15.0671H125.847V29.6699H122.112Z" fill="#0847F7"/>
<path d="M132.038 21.1784V29.6686H128.302V15.0641H131.972V17.6107H132.13C132.46 16.7746 132.985 16.1108 133.703 15.6178C134.421 15.1247 135.325 14.8806 136.414 14.8806C137.424 14.8806 138.307 15.0976 139.06 15.5332C139.813 15.9672 140.397 16.5975 140.81 17.4192C141.223 18.2426 141.431 19.2286 141.431 20.3774V29.6638H137.696V21.0044C137.696 20.0727 137.455 19.3403 136.971 18.8106C136.489 18.2809 135.824 18.0128 134.978 18.0128C134.404 18.0128 133.895 18.1389 133.456 18.3925C133.016 18.6461 132.671 19.0053 132.417 19.4696C132.164 19.937 132.038 20.502 132.038 21.1752V21.1784Z" fill="#0847F7"/>
<path d="M153.018 29.6701H157.448L151.616 21.3906L157.146 15.0657H152.811L147.858 20.7746H147.625V10.2055H143.888V29.6701H147.625V24.9025L148.796 23.6038L153.018 29.6686V29.6701Z" fill="#0847F7"/>
<path d="M97.913 9.24814H94.1777V12.9834H97.913V9.24814Z" fill="#0847F7"/>
<path d="M125.88 9.24814H122.145V12.9834H125.88V9.24814Z" fill="#0847F7"/>
</g>
</g>
<defs>
<clipPath id="clip0_202_18523">
<rect width="157.447" height="40" fill="white"/>
</clipPath>
</defs>
</svg>
